M48
; DRILL file {KiCad (6.0.11)} date Tue Mar 14 15:00:25 2023
; FORMAT={-:-/ absolute / inch / decimal}
; #@! TF.CreationDate,2023-03-14T15:00:25-04:00
; #@! TF.GenerationSoftware,Kicad,Pcbnew,(6.0.11)
; #@! TF.FileFunction,Plated,1,2,PTH
FMAT,2
INCH
; #@! TA.AperFunction,Plated,PTH,ViaDrill
T1C0.0118
; #@! TA.AperFunction,Plated,PTH,ViaDrill
T2C0.0157
; #@! TA.AperFunction,Plated,PTH,ComponentDrill
T3C0.0343
; #@! TA.AperFunction,Plated,PTH,ComponentDrill
T4C0.0394
; #@! TA.AperFunction,Plated,PTH,ViaDrill
T5C0.0400
; #@! TA.AperFunction,Plated,PTH,ComponentDrill
T6C0.0551
; #@! TA.AperFunction,Plated,PTH,ComponentDrill
T7C0.1378
%
G90
G05
T1
X3.54Y-1.84
X3.54Y-2.87
X3.74Y-1.6
X3.74Y-1.96
X3.89Y-3.15
X3.89Y-3.31
X4.06Y-2.95
X4.06Y-3.22
X4.16Y-3.15
X4.16Y-3.89
X4.38Y-3.08
X4.38Y-3.31
X4.4957Y-1.1243
X4.5Y-1.66
X4.66Y-2.91
X4.66Y-3.31
X4.84Y-3.08
X4.84Y-3.31
X4.87Y-2.34
X5.2Y-3.4
X5.2Y-3.89
X5.32Y-2.87
X5.32Y-2.97
X5.32Y-3.03
X5.32Y-3.34
X5.49Y-1.54
X5.49Y-2.03
X5.53Y-2.73
X5.54Y-2.07
X5.59Y-1.04
X5.59Y-1.34
X5.59Y-1.6
X5.6147Y-1.66
X5.62Y-1.19
X5.6354Y-1.9746
X5.65Y-1.78
X5.65Y-1.81
X5.65Y-1.95
X5.65Y-2.04
X5.66Y-2.09
X5.66Y-2.24
X5.66Y-2.91
X5.66Y-3.74
X5.661Y-2.0088
X5.72Y-1.6
X5.72Y-2.63
X5.72Y-2.94
X5.77Y-2.4
X5.77Y-3.54
X5.81Y-2.53
X5.81Y-3.59
X5.86Y-2.86
X5.86Y-3.64
X5.91Y-2.34
X5.91Y-3.69
X5.93Y-1.3
X5.9307Y-2.4207
X5.9307Y-2.91
X5.94Y-1.4
X6.03Y-3.08
X6.03Y-3.28
X6.05Y-2.1
X6.05Y-2.2
X6.11Y-3.22
X6.13Y-1.56
X6.14Y-2.11
X6.14Y-3.31
X6.18Y-2.27
X6.18Y-3.22
X6.23Y-3.22
X6.25Y-1.78
X6.25Y-2.97
X6.28Y-1.81
X6.3Y-2.97
X6.34Y-2.23
X6.39Y-2.23
X6.47Y-3.22
X6.53Y-3.22
X6.63Y-3.22
T2
X3.75Y-2.47
X3.75Y-2.52
X3.77Y-2.14
X3.77Y-2.18
X3.77Y-3.02
X3.78Y-2.28
X3.78Y-2.32
X3.81Y-2.14
X3.81Y-2.18
X3.82Y-1.92
X3.82Y-1.96
X3.82Y-2.28
X3.82Y-2.32
X4.03Y-1.92
X4.03Y-1.96
X4.06Y-2.47
X4.1Y-1.88
X4.11Y-0.84
X4.28Y-3.72
X4.29Y-3.21
X4.59Y-0.84
X4.74Y-3.21
X4.74Y-3.72
X4.87Y-2.56
X5.2362Y-1.03
X5.28Y-3.59
X5.28Y-3.64
X5.28Y-3.74
X5.44Y-3.33
X5.54Y-1.93
X5.54Y-1.99
X5.56Y-1.29
X5.65Y-1.67
X5.76Y-1.34
X5.76Y-1.39
X5.78Y-1.93
X5.78Y-2.16
X5.79Y-1.99
X5.79Y-2.07
X5.87Y-2.48
X6.1Y-1.17
X6.12Y-1.46
X6.68Y-3.11
T3
X6.2613Y-1.51
X6.2613Y-1.61
T4
X5.61Y-2.6294
X5.61Y-2.7294
X5.61Y-2.8294
T5
X6.0Y-0.85
T6
X3.3287Y-1.84
X3.3287Y-2.04
X3.3287Y-2.24
T7
X6.3958Y-2.6532
T0
M30
