%TF.GenerationSoftware,KiCad,Pcbnew,(6.0.11)*%
%TF.CreationDate,2023-02-28T10:49:06-05:00*%
%TF.ProjectId,RDNT_PCB,52444e54-5f50-4434-922e-6b696361645f,rev?*%
%TF.SameCoordinates,Original*%
%TF.FileFunction,Legend,Top*%
%TF.FilePolarity,Positive*%
%FSLAX46Y46*%
G04 Gerber Fmt 4.6, Leading zero omitted, Abs format (unit mm)*
G04 Created by KiCad (PCBNEW (6.0.11)) date 2023-02-28 10:49:06*
%MOMM*%
%LPD*%
G01*
G04 APERTURE LIST*
%ADD10C,0.150000*%
%ADD11C,0.098425*%
%ADD12C,0.254000*%
%ADD13C,0.120000*%
%ADD14C,0.200000*%
%ADD15C,0.300000*%
%ADD16C,0.127000*%
%ADD17C,0.100000*%
G04 APERTURE END LIST*
D10*
%TO.C,R12*%
X144244341Y-108435781D02*
X143911008Y-107959591D01*
X143672913Y-108435781D02*
X143672913Y-107435781D01*
X144053865Y-107435781D01*
X144149103Y-107483401D01*
X144196722Y-107531020D01*
X144244341Y-107626258D01*
X144244341Y-107769115D01*
X144196722Y-107864353D01*
X144149103Y-107911972D01*
X144053865Y-107959591D01*
X143672913Y-107959591D01*
X145196722Y-108435781D02*
X144625294Y-108435781D01*
X144911008Y-108435781D02*
X144911008Y-107435781D01*
X144815770Y-107578639D01*
X144720532Y-107673877D01*
X144625294Y-107721496D01*
X145577675Y-107531020D02*
X145625294Y-107483401D01*
X145720532Y-107435781D01*
X145958627Y-107435781D01*
X146053865Y-107483401D01*
X146101484Y-107531020D01*
X146149103Y-107626258D01*
X146149103Y-107721496D01*
X146101484Y-107864353D01*
X145530056Y-108435781D01*
X146149103Y-108435781D01*
%TO.C,C7*%
X148270532Y-99840543D02*
X148222913Y-99888162D01*
X148080056Y-99935781D01*
X147984818Y-99935781D01*
X147841960Y-99888162D01*
X147746722Y-99792924D01*
X147699103Y-99697686D01*
X147651484Y-99507210D01*
X147651484Y-99364353D01*
X147699103Y-99173877D01*
X147746722Y-99078639D01*
X147841960Y-98983401D01*
X147984818Y-98935781D01*
X148080056Y-98935781D01*
X148222913Y-98983401D01*
X148270532Y-99031020D01*
X148603865Y-98935781D02*
X149270532Y-98935781D01*
X148841960Y-99935781D01*
%TO.C,J3*%
X108833666Y-117884380D02*
X108833666Y-118598666D01*
X108786047Y-118741523D01*
X108690809Y-118836761D01*
X108547952Y-118884380D01*
X108452714Y-118884380D01*
X109214619Y-117884380D02*
X109833666Y-117884380D01*
X109500333Y-118265333D01*
X109643190Y-118265333D01*
X109738428Y-118312952D01*
X109786047Y-118360571D01*
X109833666Y-118455809D01*
X109833666Y-118693904D01*
X109786047Y-118789142D01*
X109738428Y-118836761D01*
X109643190Y-118884380D01*
X109357476Y-118884380D01*
X109262238Y-118836761D01*
X109214619Y-118789142D01*
D11*
%TO.C,C_inx1*%
X82279405Y-119784807D02*
X82260657Y-119803555D01*
X82204414Y-119822302D01*
X82166919Y-119822302D01*
X82110676Y-119803555D01*
X82073181Y-119766059D01*
X82054433Y-119728564D01*
X82035685Y-119653573D01*
X82035685Y-119597330D01*
X82054433Y-119522340D01*
X82073181Y-119484844D01*
X82110676Y-119447349D01*
X82166919Y-119428601D01*
X82204414Y-119428601D01*
X82260657Y-119447349D01*
X82279405Y-119466097D01*
X82354396Y-119859798D02*
X82654358Y-119859798D01*
X82748097Y-119822302D02*
X82748097Y-119559835D01*
X82748097Y-119428601D02*
X82729349Y-119447349D01*
X82748097Y-119466097D01*
X82766844Y-119447349D01*
X82748097Y-119428601D01*
X82748097Y-119466097D01*
X82935573Y-119559835D02*
X82935573Y-119822302D01*
X82935573Y-119597330D02*
X82954321Y-119578583D01*
X82991816Y-119559835D01*
X83048059Y-119559835D01*
X83085555Y-119578583D01*
X83104302Y-119616078D01*
X83104302Y-119822302D01*
X83254284Y-119822302D02*
X83460508Y-119559835D01*
X83254284Y-119559835D02*
X83460508Y-119822302D01*
X83816714Y-119822302D02*
X83591742Y-119822302D01*
X83704228Y-119822302D02*
X83704228Y-119428601D01*
X83666732Y-119484844D01*
X83629237Y-119522340D01*
X83591742Y-119541087D01*
D10*
%TO.C,SW1*%
X142098066Y-140602561D02*
X142240923Y-140650180D01*
X142479019Y-140650180D01*
X142574257Y-140602561D01*
X142621876Y-140554942D01*
X142669495Y-140459704D01*
X142669495Y-140364466D01*
X142621876Y-140269228D01*
X142574257Y-140221609D01*
X142479019Y-140173990D01*
X142288542Y-140126371D01*
X142193304Y-140078752D01*
X142145685Y-140031133D01*
X142098066Y-139935895D01*
X142098066Y-139840657D01*
X142145685Y-139745419D01*
X142193304Y-139697800D01*
X142288542Y-139650180D01*
X142526638Y-139650180D01*
X142669495Y-139697800D01*
X143002828Y-139650180D02*
X143240923Y-140650180D01*
X143431400Y-139935895D01*
X143621876Y-140650180D01*
X143859971Y-139650180D01*
X144764733Y-140650180D02*
X144193304Y-140650180D01*
X144479019Y-140650180D02*
X144479019Y-139650180D01*
X144383780Y-139793038D01*
X144288542Y-139888276D01*
X144193304Y-139935895D01*
%TO.C,L1*%
X87031533Y-106954580D02*
X86555342Y-106954580D01*
X86555342Y-105954580D01*
X87888676Y-106954580D02*
X87317247Y-106954580D01*
X87602961Y-106954580D02*
X87602961Y-105954580D01*
X87507723Y-106097438D01*
X87412485Y-106192676D01*
X87317247Y-106240295D01*
X86574380Y-111506000D02*
X86812476Y-111506000D01*
X86717238Y-111744095D02*
X86812476Y-111506000D01*
X86717238Y-111267904D01*
X87002952Y-111648857D02*
X86812476Y-111506000D01*
X87002952Y-111363142D01*
%TO.C,R1*%
X160818533Y-118333780D02*
X160485200Y-117857590D01*
X160247104Y-118333780D02*
X160247104Y-117333780D01*
X160628057Y-117333780D01*
X160723295Y-117381400D01*
X160770914Y-117429019D01*
X160818533Y-117524257D01*
X160818533Y-117667114D01*
X160770914Y-117762352D01*
X160723295Y-117809971D01*
X160628057Y-117857590D01*
X160247104Y-117857590D01*
X161770914Y-118333780D02*
X161199485Y-118333780D01*
X161485200Y-118333780D02*
X161485200Y-117333780D01*
X161389961Y-117476638D01*
X161294723Y-117571876D01*
X161199485Y-117619495D01*
%TO.C,U2*%
X96964380Y-110177904D02*
X97773904Y-110177904D01*
X97869142Y-110130285D01*
X97916761Y-110082666D01*
X97964380Y-109987428D01*
X97964380Y-109796952D01*
X97916761Y-109701714D01*
X97869142Y-109654095D01*
X97773904Y-109606476D01*
X96964380Y-109606476D01*
X97059619Y-109177904D02*
X97012000Y-109130285D01*
X96964380Y-109035047D01*
X96964380Y-108796952D01*
X97012000Y-108701714D01*
X97059619Y-108654095D01*
X97154857Y-108606476D01*
X97250095Y-108606476D01*
X97392952Y-108654095D01*
X97964380Y-109225523D01*
X97964380Y-108606476D01*
%TO.C,C5*%
X138583333Y-82831142D02*
X138535714Y-82878761D01*
X138392857Y-82926380D01*
X138297619Y-82926380D01*
X138154761Y-82878761D01*
X138059523Y-82783523D01*
X138011904Y-82688285D01*
X137964285Y-82497809D01*
X137964285Y-82354952D01*
X138011904Y-82164476D01*
X138059523Y-82069238D01*
X138154761Y-81974000D01*
X138297619Y-81926380D01*
X138392857Y-81926380D01*
X138535714Y-81974000D01*
X138583333Y-82021619D01*
X139488095Y-81926380D02*
X139011904Y-81926380D01*
X138964285Y-82402571D01*
X139011904Y-82354952D01*
X139107142Y-82307333D01*
X139345238Y-82307333D01*
X139440476Y-82354952D01*
X139488095Y-82402571D01*
X139535714Y-82497809D01*
X139535714Y-82735904D01*
X139488095Y-82831142D01*
X139440476Y-82878761D01*
X139345238Y-82926380D01*
X139107142Y-82926380D01*
X139011904Y-82878761D01*
X138964285Y-82831142D01*
%TO.C,R3*%
X164374533Y-118333780D02*
X164041200Y-117857590D01*
X163803104Y-118333780D02*
X163803104Y-117333780D01*
X164184057Y-117333780D01*
X164279295Y-117381400D01*
X164326914Y-117429019D01*
X164374533Y-117524257D01*
X164374533Y-117667114D01*
X164326914Y-117762352D01*
X164279295Y-117809971D01*
X164184057Y-117857590D01*
X163803104Y-117857590D01*
X164707866Y-117333780D02*
X165326914Y-117333780D01*
X164993580Y-117714733D01*
X165136438Y-117714733D01*
X165231676Y-117762352D01*
X165279295Y-117809971D01*
X165326914Y-117905209D01*
X165326914Y-118143304D01*
X165279295Y-118238542D01*
X165231676Y-118286161D01*
X165136438Y-118333780D01*
X164850723Y-118333780D01*
X164755485Y-118286161D01*
X164707866Y-118238542D01*
D12*
%TO.C,C_out1*%
X79834619Y-98878571D02*
X79774142Y-98939047D01*
X79592714Y-98999523D01*
X79471761Y-98999523D01*
X79290333Y-98939047D01*
X79169380Y-98818095D01*
X79108904Y-98697142D01*
X79048428Y-98455238D01*
X79048428Y-98273809D01*
X79108904Y-98031904D01*
X79169380Y-97910952D01*
X79290333Y-97790000D01*
X79471761Y-97729523D01*
X79592714Y-97729523D01*
X79774142Y-97790000D01*
X79834619Y-97850476D01*
X80076523Y-99120476D02*
X81044142Y-99120476D01*
X81527952Y-98999523D02*
X81407000Y-98939047D01*
X81346523Y-98878571D01*
X81286047Y-98757619D01*
X81286047Y-98394761D01*
X81346523Y-98273809D01*
X81407000Y-98213333D01*
X81527952Y-98152857D01*
X81709380Y-98152857D01*
X81830333Y-98213333D01*
X81890809Y-98273809D01*
X81951285Y-98394761D01*
X81951285Y-98757619D01*
X81890809Y-98878571D01*
X81830333Y-98939047D01*
X81709380Y-98999523D01*
X81527952Y-98999523D01*
X83039857Y-98152857D02*
X83039857Y-98999523D01*
X82495571Y-98152857D02*
X82495571Y-98818095D01*
X82556047Y-98939047D01*
X82677000Y-98999523D01*
X82858428Y-98999523D01*
X82979380Y-98939047D01*
X83039857Y-98878571D01*
X83463190Y-98152857D02*
X83947000Y-98152857D01*
X83644619Y-97729523D02*
X83644619Y-98818095D01*
X83705095Y-98939047D01*
X83826047Y-98999523D01*
X83947000Y-98999523D01*
X85035571Y-98999523D02*
X84309857Y-98999523D01*
X84672714Y-98999523D02*
X84672714Y-97729523D01*
X84551761Y-97910952D01*
X84430809Y-98031904D01*
X84309857Y-98092380D01*
D10*
%TO.C,MK1*%
X178852427Y-112112956D02*
X178852427Y-111112602D01*
X179185878Y-111827140D01*
X179519330Y-111112602D01*
X179519330Y-112112956D01*
X179995689Y-112112956D02*
X179995689Y-111112602D01*
X180567320Y-112112956D02*
X180138597Y-111541325D01*
X180567320Y-111112602D02*
X179995689Y-111684232D01*
X181520038Y-112112956D02*
X180948407Y-112112956D01*
X181234222Y-112112956D02*
X181234222Y-111112602D01*
X181138951Y-111255509D01*
X181043679Y-111350781D01*
X180948407Y-111398417D01*
%TO.C,J1*%
X169110066Y-68470180D02*
X169110066Y-69184466D01*
X169062447Y-69327323D01*
X168967209Y-69422561D01*
X168824352Y-69470180D01*
X168729114Y-69470180D01*
X170110066Y-69470180D02*
X169538638Y-69470180D01*
X169824352Y-69470180D02*
X169824352Y-68470180D01*
X169729114Y-68613038D01*
X169633876Y-68708276D01*
X169538638Y-68755895D01*
%TO.C,R9*%
X145214733Y-121195180D02*
X144881400Y-120718990D01*
X144643304Y-121195180D02*
X144643304Y-120195180D01*
X145024257Y-120195180D01*
X145119495Y-120242800D01*
X145167114Y-120290419D01*
X145214733Y-120385657D01*
X145214733Y-120528514D01*
X145167114Y-120623752D01*
X145119495Y-120671371D01*
X145024257Y-120718990D01*
X144643304Y-120718990D01*
X145690923Y-121195180D02*
X145881400Y-121195180D01*
X145976638Y-121147561D01*
X146024257Y-121099942D01*
X146119495Y-120957085D01*
X146167114Y-120766609D01*
X146167114Y-120385657D01*
X146119495Y-120290419D01*
X146071876Y-120242800D01*
X145976638Y-120195180D01*
X145786161Y-120195180D01*
X145690923Y-120242800D01*
X145643304Y-120290419D01*
X145595685Y-120385657D01*
X145595685Y-120623752D01*
X145643304Y-120718990D01*
X145690923Y-120766609D01*
X145786161Y-120814228D01*
X145976638Y-120814228D01*
X146071876Y-120766609D01*
X146119495Y-120718990D01*
X146167114Y-120623752D01*
%TO.C,R6*%
X147356533Y-108427780D02*
X147023200Y-107951590D01*
X146785104Y-108427780D02*
X146785104Y-107427780D01*
X147166057Y-107427780D01*
X147261295Y-107475400D01*
X147308914Y-107523019D01*
X147356533Y-107618257D01*
X147356533Y-107761114D01*
X147308914Y-107856352D01*
X147261295Y-107903971D01*
X147166057Y-107951590D01*
X146785104Y-107951590D01*
X148213676Y-107427780D02*
X148023200Y-107427780D01*
X147927961Y-107475400D01*
X147880342Y-107523019D01*
X147785104Y-107665876D01*
X147737485Y-107856352D01*
X147737485Y-108237304D01*
X147785104Y-108332542D01*
X147832723Y-108380161D01*
X147927961Y-108427780D01*
X148118438Y-108427780D01*
X148213676Y-108380161D01*
X148261295Y-108332542D01*
X148308914Y-108237304D01*
X148308914Y-107999209D01*
X148261295Y-107903971D01*
X148213676Y-107856352D01*
X148118438Y-107808733D01*
X147927961Y-107808733D01*
X147832723Y-107856352D01*
X147785104Y-107903971D01*
X147737485Y-107999209D01*
%TO.C,C6*%
X170470533Y-100530542D02*
X170422914Y-100578161D01*
X170280057Y-100625780D01*
X170184819Y-100625780D01*
X170041961Y-100578161D01*
X169946723Y-100482923D01*
X169899104Y-100387685D01*
X169851485Y-100197209D01*
X169851485Y-100054352D01*
X169899104Y-99863876D01*
X169946723Y-99768638D01*
X170041961Y-99673400D01*
X170184819Y-99625780D01*
X170280057Y-99625780D01*
X170422914Y-99673400D01*
X170470533Y-99721019D01*
X171327676Y-99625780D02*
X171137200Y-99625780D01*
X171041961Y-99673400D01*
X170994342Y-99721019D01*
X170899104Y-99863876D01*
X170851485Y-100054352D01*
X170851485Y-100435304D01*
X170899104Y-100530542D01*
X170946723Y-100578161D01*
X171041961Y-100625780D01*
X171232438Y-100625780D01*
X171327676Y-100578161D01*
X171375295Y-100530542D01*
X171422914Y-100435304D01*
X171422914Y-100197209D01*
X171375295Y-100101971D01*
X171327676Y-100054352D01*
X171232438Y-100006733D01*
X171041961Y-100006733D01*
X170946723Y-100054352D01*
X170899104Y-100101971D01*
X170851485Y-100197209D01*
D11*
%TO.C,R_fbt1*%
X89805327Y-100254102D02*
X89674093Y-100066626D01*
X89580355Y-100254102D02*
X89580355Y-99860401D01*
X89730336Y-99860401D01*
X89767831Y-99879149D01*
X89786579Y-99897897D01*
X89805327Y-99935392D01*
X89805327Y-99991635D01*
X89786579Y-100029130D01*
X89767831Y-100047878D01*
X89730336Y-100066626D01*
X89580355Y-100066626D01*
X89880317Y-100291598D02*
X90180280Y-100291598D01*
X90217775Y-99991635D02*
X90367757Y-99991635D01*
X90274018Y-100254102D02*
X90274018Y-99916644D01*
X90292766Y-99879149D01*
X90330261Y-99860401D01*
X90367757Y-99860401D01*
X90498990Y-100254102D02*
X90498990Y-99860401D01*
X90498990Y-100010383D02*
X90536486Y-99991635D01*
X90611476Y-99991635D01*
X90648972Y-100010383D01*
X90667719Y-100029130D01*
X90686467Y-100066626D01*
X90686467Y-100179112D01*
X90667719Y-100216607D01*
X90648972Y-100235355D01*
X90611476Y-100254102D01*
X90536486Y-100254102D01*
X90498990Y-100235355D01*
X90798953Y-99991635D02*
X90948934Y-99991635D01*
X90855196Y-99860401D02*
X90855196Y-100197859D01*
X90873944Y-100235355D01*
X90911439Y-100254102D01*
X90948934Y-100254102D01*
X91286392Y-100254102D02*
X91061420Y-100254102D01*
X91173906Y-100254102D02*
X91173906Y-99860401D01*
X91136411Y-99916644D01*
X91098916Y-99954140D01*
X91061420Y-99972887D01*
D10*
%TO.C,R4*%
X170470533Y-105675780D02*
X170137200Y-105199590D01*
X169899104Y-105675780D02*
X169899104Y-104675780D01*
X170280057Y-104675780D01*
X170375295Y-104723400D01*
X170422914Y-104771019D01*
X170470533Y-104866257D01*
X170470533Y-105009114D01*
X170422914Y-105104352D01*
X170375295Y-105151971D01*
X170280057Y-105199590D01*
X169899104Y-105199590D01*
X171327676Y-105009114D02*
X171327676Y-105675780D01*
X171089580Y-104628161D02*
X170851485Y-105342447D01*
X171470533Y-105342447D01*
%TO.C,C3*%
X164900532Y-94900543D02*
X164852913Y-94948162D01*
X164710056Y-94995781D01*
X164614818Y-94995781D01*
X164471960Y-94948162D01*
X164376722Y-94852924D01*
X164329103Y-94757686D01*
X164281484Y-94567210D01*
X164281484Y-94424353D01*
X164329103Y-94233877D01*
X164376722Y-94138639D01*
X164471960Y-94043401D01*
X164614818Y-93995781D01*
X164710056Y-93995781D01*
X164852913Y-94043401D01*
X164900532Y-94091020D01*
X165233865Y-93995781D02*
X165852913Y-93995781D01*
X165519579Y-94376734D01*
X165662437Y-94376734D01*
X165757675Y-94424353D01*
X165805294Y-94471972D01*
X165852913Y-94567210D01*
X165852913Y-94805305D01*
X165805294Y-94900543D01*
X165757675Y-94948162D01*
X165662437Y-94995781D01*
X165376722Y-94995781D01*
X165281484Y-94948162D01*
X165233865Y-94900543D01*
%TO.C,C2*%
X163104533Y-110618543D02*
X163056914Y-110666162D01*
X162914057Y-110713781D01*
X162818819Y-110713781D01*
X162675961Y-110666162D01*
X162580723Y-110570924D01*
X162533104Y-110475686D01*
X162485485Y-110285210D01*
X162485485Y-110142353D01*
X162533104Y-109951877D01*
X162580723Y-109856639D01*
X162675961Y-109761401D01*
X162818819Y-109713781D01*
X162914057Y-109713781D01*
X163056914Y-109761401D01*
X163104533Y-109809020D01*
X163485485Y-109809020D02*
X163533104Y-109761401D01*
X163628342Y-109713781D01*
X163866438Y-109713781D01*
X163961676Y-109761401D01*
X164009295Y-109809020D01*
X164056914Y-109904258D01*
X164056914Y-109999496D01*
X164009295Y-110142353D01*
X163437866Y-110713781D01*
X164056914Y-110713781D01*
%TO.C,R5*%
X164910532Y-105833781D02*
X164577199Y-105357591D01*
X164339103Y-105833781D02*
X164339103Y-104833781D01*
X164720056Y-104833781D01*
X164815294Y-104881401D01*
X164862913Y-104929020D01*
X164910532Y-105024258D01*
X164910532Y-105167115D01*
X164862913Y-105262353D01*
X164815294Y-105309972D01*
X164720056Y-105357591D01*
X164339103Y-105357591D01*
X165815294Y-104833781D02*
X165339103Y-104833781D01*
X165291484Y-105309972D01*
X165339103Y-105262353D01*
X165434341Y-105214734D01*
X165672437Y-105214734D01*
X165767675Y-105262353D01*
X165815294Y-105309972D01*
X165862913Y-105405210D01*
X165862913Y-105643305D01*
X165815294Y-105738543D01*
X165767675Y-105786162D01*
X165672437Y-105833781D01*
X165434341Y-105833781D01*
X165339103Y-105786162D01*
X165291484Y-105738543D01*
%TO.C,J2*%
X147556666Y-67802380D02*
X147556666Y-68516666D01*
X147509047Y-68659523D01*
X147413809Y-68754761D01*
X147270952Y-68802380D01*
X147175714Y-68802380D01*
X147985238Y-67897619D02*
X148032857Y-67850000D01*
X148128095Y-67802380D01*
X148366190Y-67802380D01*
X148461428Y-67850000D01*
X148509047Y-67897619D01*
X148556666Y-67992857D01*
X148556666Y-68088095D01*
X148509047Y-68230952D01*
X147937619Y-68802380D01*
X148556666Y-68802380D01*
%TO.C,U6*%
X155397295Y-110929780D02*
X155397295Y-111739304D01*
X155444914Y-111834542D01*
X155492533Y-111882161D01*
X155587771Y-111929780D01*
X155778247Y-111929780D01*
X155873485Y-111882161D01*
X155921104Y-111834542D01*
X155968723Y-111739304D01*
X155968723Y-110929780D01*
X156873485Y-110929780D02*
X156683009Y-110929780D01*
X156587771Y-110977400D01*
X156540152Y-111025019D01*
X156444914Y-111167876D01*
X156397295Y-111358352D01*
X156397295Y-111739304D01*
X156444914Y-111834542D01*
X156492533Y-111882161D01*
X156587771Y-111929780D01*
X156778247Y-111929780D01*
X156873485Y-111882161D01*
X156921104Y-111834542D01*
X156968723Y-111739304D01*
X156968723Y-111501209D01*
X156921104Y-111405971D01*
X156873485Y-111358352D01*
X156778247Y-111310733D01*
X156587771Y-111310733D01*
X156492533Y-111358352D01*
X156444914Y-111405971D01*
X156397295Y-111501209D01*
D11*
%TO.C,R_fbb1*%
X88596710Y-95431102D02*
X88465476Y-95243626D01*
X88371738Y-95431102D02*
X88371738Y-95037401D01*
X88521719Y-95037401D01*
X88559214Y-95056149D01*
X88577962Y-95074897D01*
X88596710Y-95112392D01*
X88596710Y-95168635D01*
X88577962Y-95206130D01*
X88559214Y-95224878D01*
X88521719Y-95243626D01*
X88371738Y-95243626D01*
X88671700Y-95468598D02*
X88971663Y-95468598D01*
X89009158Y-95168635D02*
X89159140Y-95168635D01*
X89065401Y-95431102D02*
X89065401Y-95093644D01*
X89084149Y-95056149D01*
X89121644Y-95037401D01*
X89159140Y-95037401D01*
X89290373Y-95431102D02*
X89290373Y-95037401D01*
X89290373Y-95187383D02*
X89327869Y-95168635D01*
X89402859Y-95168635D01*
X89440355Y-95187383D01*
X89459102Y-95206130D01*
X89477850Y-95243626D01*
X89477850Y-95356112D01*
X89459102Y-95393607D01*
X89440355Y-95412355D01*
X89402859Y-95431102D01*
X89327869Y-95431102D01*
X89290373Y-95412355D01*
X89646579Y-95431102D02*
X89646579Y-95037401D01*
X89646579Y-95187383D02*
X89684074Y-95168635D01*
X89759065Y-95168635D01*
X89796560Y-95187383D01*
X89815308Y-95206130D01*
X89834056Y-95243626D01*
X89834056Y-95356112D01*
X89815308Y-95393607D01*
X89796560Y-95412355D01*
X89759065Y-95431102D01*
X89684074Y-95431102D01*
X89646579Y-95412355D01*
X90209009Y-95431102D02*
X89984037Y-95431102D01*
X90096523Y-95431102D02*
X90096523Y-95037401D01*
X90059028Y-95093644D01*
X90021532Y-95131140D01*
X89984037Y-95149887D01*
%TO.C,C_in1*%
X79732560Y-115988607D02*
X79713813Y-116007355D01*
X79657570Y-116026102D01*
X79620074Y-116026102D01*
X79563831Y-116007355D01*
X79526336Y-115969859D01*
X79507588Y-115932364D01*
X79488841Y-115857373D01*
X79488841Y-115801130D01*
X79507588Y-115726140D01*
X79526336Y-115688644D01*
X79563831Y-115651149D01*
X79620074Y-115632401D01*
X79657570Y-115632401D01*
X79713813Y-115651149D01*
X79732560Y-115669897D01*
X79807551Y-116063598D02*
X80107514Y-116063598D01*
X80201252Y-116026102D02*
X80201252Y-115763635D01*
X80201252Y-115632401D02*
X80182504Y-115651149D01*
X80201252Y-115669897D01*
X80220000Y-115651149D01*
X80201252Y-115632401D01*
X80201252Y-115669897D01*
X80388729Y-115763635D02*
X80388729Y-116026102D01*
X80388729Y-115801130D02*
X80407476Y-115782383D01*
X80444972Y-115763635D01*
X80501215Y-115763635D01*
X80538710Y-115782383D01*
X80557458Y-115819878D01*
X80557458Y-116026102D01*
X80951159Y-116026102D02*
X80726187Y-116026102D01*
X80838673Y-116026102D02*
X80838673Y-115632401D01*
X80801177Y-115688644D01*
X80763682Y-115726140D01*
X80726187Y-115744887D01*
D10*
%TO.C,U1*%
X132575595Y-97191580D02*
X132575595Y-98001104D01*
X132623214Y-98096342D01*
X132670833Y-98143961D01*
X132766071Y-98191580D01*
X132956547Y-98191580D01*
X133051785Y-98143961D01*
X133099404Y-98096342D01*
X133147023Y-98001104D01*
X133147023Y-97191580D01*
X134147023Y-98191580D02*
X133575595Y-98191580D01*
X133861309Y-98191580D02*
X133861309Y-97191580D01*
X133766071Y-97334438D01*
X133670833Y-97429676D01*
X133575595Y-97477295D01*
D11*
%TO.C,C_boot1*%
X77445607Y-100445207D02*
X77426859Y-100463955D01*
X77370616Y-100482702D01*
X77333121Y-100482702D01*
X77276878Y-100463955D01*
X77239383Y-100426459D01*
X77220635Y-100388964D01*
X77201887Y-100313973D01*
X77201887Y-100257730D01*
X77220635Y-100182740D01*
X77239383Y-100145244D01*
X77276878Y-100107749D01*
X77333121Y-100089001D01*
X77370616Y-100089001D01*
X77426859Y-100107749D01*
X77445607Y-100126497D01*
X77520598Y-100520198D02*
X77820560Y-100520198D01*
X77914299Y-100482702D02*
X77914299Y-100089001D01*
X77914299Y-100238983D02*
X77951794Y-100220235D01*
X78026785Y-100220235D01*
X78064280Y-100238983D01*
X78083028Y-100257730D01*
X78101775Y-100295226D01*
X78101775Y-100407712D01*
X78083028Y-100445207D01*
X78064280Y-100463955D01*
X78026785Y-100482702D01*
X77951794Y-100482702D01*
X77914299Y-100463955D01*
X78326747Y-100482702D02*
X78289252Y-100463955D01*
X78270504Y-100445207D01*
X78251757Y-100407712D01*
X78251757Y-100295226D01*
X78270504Y-100257730D01*
X78289252Y-100238983D01*
X78326747Y-100220235D01*
X78382990Y-100220235D01*
X78420486Y-100238983D01*
X78439233Y-100257730D01*
X78457981Y-100295226D01*
X78457981Y-100407712D01*
X78439233Y-100445207D01*
X78420486Y-100463955D01*
X78382990Y-100482702D01*
X78326747Y-100482702D01*
X78682953Y-100482702D02*
X78645458Y-100463955D01*
X78626710Y-100445207D01*
X78607962Y-100407712D01*
X78607962Y-100295226D01*
X78626710Y-100257730D01*
X78645458Y-100238983D01*
X78682953Y-100220235D01*
X78739196Y-100220235D01*
X78776691Y-100238983D01*
X78795439Y-100257730D01*
X78814187Y-100295226D01*
X78814187Y-100407712D01*
X78795439Y-100445207D01*
X78776691Y-100463955D01*
X78739196Y-100482702D01*
X78682953Y-100482702D01*
X78926673Y-100220235D02*
X79076654Y-100220235D01*
X78982916Y-100089001D02*
X78982916Y-100426459D01*
X79001663Y-100463955D01*
X79039159Y-100482702D01*
X79076654Y-100482702D01*
X79414112Y-100482702D02*
X79189140Y-100482702D01*
X79301626Y-100482702D02*
X79301626Y-100089001D01*
X79264131Y-100145244D01*
X79226635Y-100182740D01*
X79189140Y-100201487D01*
D10*
%TO.C,R2*%
X167930533Y-118333780D02*
X167597200Y-117857590D01*
X167359104Y-118333780D02*
X167359104Y-117333780D01*
X167740057Y-117333780D01*
X167835295Y-117381400D01*
X167882914Y-117429019D01*
X167930533Y-117524257D01*
X167930533Y-117667114D01*
X167882914Y-117762352D01*
X167835295Y-117809971D01*
X167740057Y-117857590D01*
X167359104Y-117857590D01*
X168311485Y-117429019D02*
X168359104Y-117381400D01*
X168454342Y-117333780D01*
X168692438Y-117333780D01*
X168787676Y-117381400D01*
X168835295Y-117429019D01*
X168882914Y-117524257D01*
X168882914Y-117619495D01*
X168835295Y-117762352D01*
X168263866Y-118333780D01*
X168882914Y-118333780D01*
D12*
%TO.C,IC1*%
X85120238Y-97602523D02*
X85120238Y-96332523D01*
X86450714Y-97481571D02*
X86390238Y-97542047D01*
X86208809Y-97602523D01*
X86087857Y-97602523D01*
X85906428Y-97542047D01*
X85785476Y-97421095D01*
X85725000Y-97300142D01*
X85664523Y-97058238D01*
X85664523Y-96876809D01*
X85725000Y-96634904D01*
X85785476Y-96513952D01*
X85906428Y-96393000D01*
X86087857Y-96332523D01*
X86208809Y-96332523D01*
X86390238Y-96393000D01*
X86450714Y-96453476D01*
X87660238Y-97602523D02*
X86934523Y-97602523D01*
X87297380Y-97602523D02*
X87297380Y-96332523D01*
X87176428Y-96513952D01*
X87055476Y-96634904D01*
X86934523Y-96695380D01*
D10*
%TO.C,C4*%
X159548533Y-100966542D02*
X159500914Y-101014161D01*
X159358057Y-101061780D01*
X159262819Y-101061780D01*
X159119961Y-101014161D01*
X159024723Y-100918923D01*
X158977104Y-100823685D01*
X158929485Y-100633209D01*
X158929485Y-100490352D01*
X158977104Y-100299876D01*
X159024723Y-100204638D01*
X159119961Y-100109400D01*
X159262819Y-100061780D01*
X159358057Y-100061780D01*
X159500914Y-100109400D01*
X159548533Y-100157019D01*
X160405676Y-100395114D02*
X160405676Y-101061780D01*
X160167580Y-100014161D02*
X159929485Y-100728447D01*
X160548533Y-100728447D01*
%TO.C,R10*%
X161624341Y-105895781D02*
X161291008Y-105419591D01*
X161052913Y-105895781D02*
X161052913Y-104895781D01*
X161433865Y-104895781D01*
X161529103Y-104943401D01*
X161576722Y-104991020D01*
X161624341Y-105086258D01*
X161624341Y-105229115D01*
X161576722Y-105324353D01*
X161529103Y-105371972D01*
X161433865Y-105419591D01*
X161052913Y-105419591D01*
X162576722Y-105895781D02*
X162005294Y-105895781D01*
X162291008Y-105895781D02*
X162291008Y-104895781D01*
X162195770Y-105038639D01*
X162100532Y-105133877D01*
X162005294Y-105181496D01*
X163195770Y-104895781D02*
X163291008Y-104895781D01*
X163386246Y-104943401D01*
X163433865Y-104991020D01*
X163481484Y-105086258D01*
X163529103Y-105276734D01*
X163529103Y-105514829D01*
X163481484Y-105705305D01*
X163433865Y-105800543D01*
X163386246Y-105848162D01*
X163291008Y-105895781D01*
X163195770Y-105895781D01*
X163100532Y-105848162D01*
X163052913Y-105800543D01*
X163005294Y-105705305D01*
X162957675Y-105514829D01*
X162957675Y-105276734D01*
X163005294Y-105086258D01*
X163052913Y-104991020D01*
X163100532Y-104943401D01*
X163195770Y-104895781D01*
%TO.C,R11*%
X138107142Y-73252380D02*
X137773809Y-72776190D01*
X137535714Y-73252380D02*
X137535714Y-72252380D01*
X137916666Y-72252380D01*
X138011904Y-72300000D01*
X138059523Y-72347619D01*
X138107142Y-72442857D01*
X138107142Y-72585714D01*
X138059523Y-72680952D01*
X138011904Y-72728571D01*
X137916666Y-72776190D01*
X137535714Y-72776190D01*
X139059523Y-73252380D02*
X138488095Y-73252380D01*
X138773809Y-73252380D02*
X138773809Y-72252380D01*
X138678571Y-72395238D01*
X138583333Y-72490476D01*
X138488095Y-72538095D01*
X140011904Y-73252380D02*
X139440476Y-73252380D01*
X139726190Y-73252380D02*
X139726190Y-72252380D01*
X139630952Y-72395238D01*
X139535714Y-72490476D01*
X139440476Y-72538095D01*
%TO.C,R8*%
X151928533Y-100807780D02*
X151595200Y-100331590D01*
X151357104Y-100807780D02*
X151357104Y-99807780D01*
X151738057Y-99807780D01*
X151833295Y-99855400D01*
X151880914Y-99903019D01*
X151928533Y-99998257D01*
X151928533Y-100141114D01*
X151880914Y-100236352D01*
X151833295Y-100283971D01*
X151738057Y-100331590D01*
X151357104Y-100331590D01*
X152499961Y-100236352D02*
X152404723Y-100188733D01*
X152357104Y-100141114D01*
X152309485Y-100045876D01*
X152309485Y-99998257D01*
X152357104Y-99903019D01*
X152404723Y-99855400D01*
X152499961Y-99807780D01*
X152690438Y-99807780D01*
X152785676Y-99855400D01*
X152833295Y-99903019D01*
X152880914Y-99998257D01*
X152880914Y-100045876D01*
X152833295Y-100141114D01*
X152785676Y-100188733D01*
X152690438Y-100236352D01*
X152499961Y-100236352D01*
X152404723Y-100283971D01*
X152357104Y-100331590D01*
X152309485Y-100426828D01*
X152309485Y-100617304D01*
X152357104Y-100712542D01*
X152404723Y-100760161D01*
X152499961Y-100807780D01*
X152690438Y-100807780D01*
X152785676Y-100760161D01*
X152833295Y-100712542D01*
X152880914Y-100617304D01*
X152880914Y-100426828D01*
X152833295Y-100331590D01*
X152785676Y-100283971D01*
X152690438Y-100236352D01*
%TO.C,R7*%
X150658533Y-108173780D02*
X150325200Y-107697590D01*
X150087104Y-108173780D02*
X150087104Y-107173780D01*
X150468057Y-107173780D01*
X150563295Y-107221400D01*
X150610914Y-107269019D01*
X150658533Y-107364257D01*
X150658533Y-107507114D01*
X150610914Y-107602352D01*
X150563295Y-107649971D01*
X150468057Y-107697590D01*
X150087104Y-107697590D01*
X150991866Y-107173780D02*
X151658533Y-107173780D01*
X151229961Y-108173780D01*
%TO.C,C1*%
X168184532Y-110690543D02*
X168136913Y-110738162D01*
X167994056Y-110785781D01*
X167898818Y-110785781D01*
X167755960Y-110738162D01*
X167660722Y-110642924D01*
X167613103Y-110547686D01*
X167565484Y-110357210D01*
X167565484Y-110214353D01*
X167613103Y-110023877D01*
X167660722Y-109928639D01*
X167755960Y-109833401D01*
X167898818Y-109785781D01*
X167994056Y-109785781D01*
X168136913Y-109833401D01*
X168184532Y-109881020D01*
X169136913Y-110785781D02*
X168565484Y-110785781D01*
X168851199Y-110785781D02*
X168851199Y-109785781D01*
X168755960Y-109928639D01*
X168660722Y-110023877D01*
X168565484Y-110071496D01*
D13*
%TO.C,R12*%
X145767199Y-105710465D02*
X145767199Y-104256337D01*
X143947199Y-105710465D02*
X143947199Y-104256337D01*
%TO.C,C7*%
X147725947Y-100313401D02*
X149148451Y-100313401D01*
X147725947Y-102133401D02*
X149148451Y-102133401D01*
%TO.C,J3*%
X111227000Y-127252000D02*
X111227000Y-127732000D01*
X107107000Y-119432000D02*
X111227000Y-119432000D01*
X107107000Y-125252000D02*
X107107000Y-125732000D01*
X107107000Y-129252000D02*
X107107000Y-129552000D01*
X107107000Y-121252000D02*
X107107000Y-121732000D01*
X107107000Y-123252000D02*
X107107000Y-123732000D01*
X111227000Y-125252000D02*
X111227000Y-125732000D01*
X107107000Y-129552000D02*
X111227000Y-129552000D01*
X111227000Y-119432000D02*
X111227000Y-119732000D01*
X111227000Y-129252000D02*
X111227000Y-129552000D01*
X105852000Y-119732000D02*
X107107000Y-119732000D01*
X107107000Y-119432000D02*
X107107000Y-119732000D01*
X111227000Y-123252000D02*
X111227000Y-123732000D01*
X111227000Y-121252000D02*
X111227000Y-121732000D01*
X107107000Y-127252000D02*
X107107000Y-127732000D01*
%TO.C,SW1*%
X145356400Y-136872800D02*
X145356400Y-131622800D01*
X144806400Y-126372800D02*
X145356400Y-126372800D01*
X134856400Y-136872800D02*
X134856400Y-135622800D01*
X144806400Y-136872800D02*
X145356400Y-136872800D01*
X135406400Y-126372800D02*
X134856400Y-126372800D01*
X145356400Y-126372800D02*
X145356400Y-127622800D01*
X134856400Y-126372800D02*
X134856400Y-127622800D01*
X135406400Y-136872800D02*
X134856400Y-136872800D01*
%TO.C,L1*%
X83591400Y-107683300D02*
X83591400Y-115328700D01*
X85214460Y-107683300D02*
X83591400Y-107683300D01*
X83591400Y-115328700D02*
X85214460Y-115328700D01*
X90652600Y-107683300D02*
X89029540Y-107683300D01*
X90652600Y-115328700D02*
X90652600Y-107683300D01*
%TO.C,R1*%
X160075200Y-115560464D02*
X160075200Y-114106336D01*
X161895200Y-115560464D02*
X161895200Y-114106336D01*
%TO.C,U2*%
X117242000Y-110086000D02*
X117242000Y-110866000D01*
X99002000Y-110086000D02*
X99002000Y-110866000D01*
X99002000Y-85126000D02*
X117242000Y-85126000D01*
X99002000Y-91541000D02*
X98622000Y-91541000D01*
X117242000Y-110866000D02*
X116242000Y-110866000D01*
X117242000Y-85126000D02*
X117242000Y-91541000D01*
X99002000Y-110866000D02*
X100002000Y-110866000D01*
X99002000Y-85126000D02*
X99002000Y-91541000D01*
%TO.C,C5*%
X137840000Y-86233252D02*
X137840000Y-84810748D01*
X139660000Y-86233252D02*
X139660000Y-84810748D01*
%TO.C,R3*%
X165451200Y-115560464D02*
X165451200Y-114106336D01*
X163631200Y-115560464D02*
X163631200Y-114106336D01*
D14*
%TO.C,C_out1*%
X80892000Y-101600000D02*
X83192000Y-101600000D01*
D15*
%TO.C,MK1*%
X174184200Y-104202400D02*
G75*
G03*
X174184200Y-104202400I-100000J0D01*
G01*
D16*
X184377200Y-105943400D02*
G75*
G03*
X184377200Y-105943400I-4850000J0D01*
G01*
D13*
%TO.C,J1*%
X166343400Y-74017800D02*
X166343400Y-72817800D01*
X172043400Y-70317800D02*
X172043400Y-72817800D01*
X166343400Y-74017800D02*
X164343400Y-74017800D01*
X166843400Y-70317800D02*
X172043400Y-70317800D01*
X166843400Y-72817800D02*
X166843400Y-70317800D01*
X172543400Y-78617800D02*
X172543400Y-87517800D01*
X166343400Y-87517800D02*
X166343400Y-86317800D01*
X172543400Y-72817800D02*
X172543400Y-76017800D01*
X166343400Y-76617800D02*
X164343400Y-76617800D01*
X172043400Y-72817800D02*
X172543400Y-72817800D01*
X166343400Y-83117800D02*
X166343400Y-76617800D01*
X172543400Y-87517800D02*
X166343400Y-87517800D01*
X166343400Y-72817800D02*
X166843400Y-72817800D01*
%TO.C,R9*%
X146108464Y-119832800D02*
X144654336Y-119832800D01*
X146108464Y-118012800D02*
X144654336Y-118012800D01*
%TO.C,R6*%
X146613200Y-105654464D02*
X146613200Y-104200336D01*
X148433200Y-105654464D02*
X148433200Y-104200336D01*
%TO.C,C6*%
X171348452Y-97413400D02*
X169925948Y-97413400D01*
X171348452Y-99233400D02*
X169925948Y-99233400D01*
%TO.C,R4*%
X171364264Y-102493400D02*
X169910136Y-102493400D01*
X171364264Y-104313400D02*
X169910136Y-104313400D01*
%TO.C,C3*%
X165959200Y-96850148D02*
X165959200Y-98272652D01*
X164139200Y-96850148D02*
X164139200Y-98272652D01*
%TO.C,C2*%
X162559948Y-107573401D02*
X163982452Y-107573401D01*
X162559948Y-109393401D02*
X163982452Y-109393401D01*
%TO.C,R5*%
X165987199Y-101606337D02*
X165987199Y-103060465D01*
X164167199Y-101606337D02*
X164167199Y-103060465D01*
%TO.C,J2*%
X150490000Y-69650000D02*
X150490000Y-72150000D01*
X150490000Y-72150000D02*
X150990000Y-72150000D01*
X144790000Y-75950000D02*
X142790000Y-75950000D01*
X144790000Y-72150000D02*
X145290000Y-72150000D01*
X144790000Y-82450000D02*
X144790000Y-75950000D01*
X150990000Y-77950000D02*
X150990000Y-86850000D01*
X145290000Y-69650000D02*
X150490000Y-69650000D01*
X150990000Y-72150000D02*
X150990000Y-75350000D01*
X144790000Y-73350000D02*
X144790000Y-72150000D01*
X150990000Y-86850000D02*
X144790000Y-86850000D01*
X144790000Y-86850000D02*
X144790000Y-85650000D01*
X145290000Y-72150000D02*
X145290000Y-69650000D01*
X144790000Y-73350000D02*
X142790000Y-73350000D01*
%TO.C,U6*%
X156159200Y-110632400D02*
X159609200Y-110632400D01*
X156159200Y-101762400D02*
X154209200Y-101762400D01*
X156159200Y-101762400D02*
X158109200Y-101762400D01*
X156159200Y-110632400D02*
X154209200Y-110632400D01*
D16*
%TO.C,C_in1*%
X80800000Y-116448000D02*
X81760000Y-116448000D01*
X80800000Y-118248000D02*
X81760000Y-118248000D01*
D13*
%TO.C,U1*%
X134518600Y-98513900D02*
X132156400Y-98513900D01*
X132156400Y-103060500D02*
X134518600Y-103060500D01*
G36*
X135877500Y-102228015D02*
G01*
X135623500Y-102228015D01*
X135623500Y-101847015D01*
X135877500Y-101847015D01*
X135877500Y-102228015D01*
G37*
D17*
X135877500Y-102228015D02*
X135623500Y-102228015D01*
X135623500Y-101847015D01*
X135877500Y-101847015D01*
X135877500Y-102228015D01*
D13*
%TO.C,R2*%
X167187200Y-115560464D02*
X167187200Y-114106336D01*
X169007200Y-115560464D02*
X169007200Y-114106336D01*
D14*
%TO.C,IC1*%
X85285000Y-98418000D02*
X85760000Y-98418000D01*
X86110000Y-98518000D02*
X86610000Y-98518000D01*
X86110000Y-100618000D02*
X86110000Y-98518000D01*
X86610000Y-100618000D02*
X86110000Y-100618000D01*
X86610000Y-98518000D02*
X86610000Y-100618000D01*
D13*
%TO.C,C4*%
X160625200Y-96850148D02*
X160625200Y-98272652D01*
X158805200Y-96850148D02*
X158805200Y-98272652D01*
%TO.C,R10*%
X161297199Y-103060465D02*
X161297199Y-101606337D01*
X163117199Y-103060465D02*
X163117199Y-101606337D01*
%TO.C,R11*%
X137840000Y-76829064D02*
X137840000Y-75374936D01*
X139660000Y-76829064D02*
X139660000Y-75374936D01*
%TO.C,R8*%
X151185200Y-98034464D02*
X151185200Y-96580336D01*
X153005200Y-98034464D02*
X153005200Y-96580336D01*
%TO.C,R7*%
X149915200Y-103946336D02*
X149915200Y-105400464D01*
X151735200Y-103946336D02*
X151735200Y-105400464D01*
%TO.C,C1*%
X169062451Y-109393401D02*
X167639947Y-109393401D01*
X169062451Y-107573401D02*
X167639947Y-107573401D01*
%TD*%
M02*
