%TF.GenerationSoftware,KiCad,Pcbnew,(6.0.11)*%
%TF.CreationDate,2023-02-28T10:49:57-05:00*%
%TF.ProjectId,RDNT_PCB,52444e54-5f50-4434-922e-6b696361645f,rev?*%
%TF.SameCoordinates,Original*%
%TF.FileFunction,Drillmap*%
%TF.FilePolarity,Positive*%
%FSLAX45Y45*%
G04 Gerber Fmt 4.5, Leading zero omitted, Abs format (unit mm)*
G04 Created by KiCad (PCBNEW (6.0.11)) date 2023-02-28 10:49:57*
%MOMM*%
%LPD*%
G01*
G04 APERTURE LIST*
%ADD10C,0.200000*%
%ADD11C,0.020000*%
%ADD12C,0.040000*%
%ADD13C,0.087000*%
G04 APERTURE END LIST*
D10*
X7010400Y-6565900D02*
X18897600Y-6565900D01*
X18897600Y-14325600D02*
X7010400Y-14325600D01*
X18897600Y-6565900D02*
X18897600Y-14325600D01*
X7010400Y-14325600D02*
X7010400Y-6565900D01*
D11*
X10581700Y-9921350D02*
X10601700Y-9941350D01*
X10601700Y-9921350D02*
X10581700Y-9941350D01*
X10581700Y-10073850D02*
X10601700Y-10093850D01*
X10601700Y-10073850D02*
X10581700Y-10093850D01*
X10657950Y-9845100D02*
X10677950Y-9865100D01*
X10677950Y-9845100D02*
X10657950Y-9865100D01*
X10657950Y-9997600D02*
X10677950Y-10017600D01*
X10677950Y-9997600D02*
X10657950Y-10017600D01*
X10657950Y-10150100D02*
X10677950Y-10170100D01*
X10677950Y-10150100D02*
X10657950Y-10170100D01*
X10734200Y-9921350D02*
X10754200Y-9941350D01*
X10754200Y-9921350D02*
X10734200Y-9941350D01*
X10734200Y-10073850D02*
X10754200Y-10093850D01*
X10754200Y-10073850D02*
X10734200Y-10093850D01*
X10810450Y-9845100D02*
X10830450Y-9865100D01*
X10830450Y-9845100D02*
X10810450Y-9865100D01*
X10810450Y-9997600D02*
X10830450Y-10017600D01*
X10830450Y-9997600D02*
X10810450Y-10017600D01*
X10810450Y-10150100D02*
X10830450Y-10170100D01*
X10830450Y-10150100D02*
X10810450Y-10170100D01*
X10886700Y-9921350D02*
X10906700Y-9941350D01*
X10906700Y-9921350D02*
X10886700Y-9941350D01*
X10886700Y-10073850D02*
X10906700Y-10093850D01*
X10906700Y-10073850D02*
X10886700Y-10093850D01*
D12*
X8224200Y-10027000D02*
G75*
G03*
X8224200Y-10027000I-20000J0D01*
G01*
X8405420Y-10696820D02*
G75*
G03*
X8405420Y-10696820I-20000J0D01*
G01*
X8465500Y-9872980D02*
G75*
G03*
X8465500Y-9872980I-20000J0D01*
G01*
X8478200Y-10033000D02*
G75*
G03*
X8478200Y-10033000I-20000J0D01*
G01*
X8534080Y-10454640D02*
G75*
G03*
X8534080Y-10454640I-20000J0D01*
G01*
X8757600Y-10388600D02*
G75*
G03*
X8757600Y-10388600I-20000J0D01*
G01*
X8884600Y-9982200D02*
G75*
G03*
X8884600Y-9982200I-20000J0D01*
G01*
X8945560Y-9865360D02*
G75*
G03*
X8945560Y-9865360I-20000J0D01*
G01*
X8960800Y-9721900D02*
G75*
G03*
X8960800Y-9721900I-20000J0D01*
G01*
X9116620Y-9937360D02*
G75*
G03*
X9116620Y-9937360I-20000J0D01*
G01*
X9773600Y-11150600D02*
G75*
G03*
X9773600Y-11150600I-20000J0D01*
G01*
X9773600Y-12344400D02*
G75*
G03*
X9773600Y-12344400I-20000J0D01*
G01*
X10154600Y-11536680D02*
G75*
G03*
X10154600Y-11536680I-20000J0D01*
G01*
X10825160Y-11871960D02*
G75*
G03*
X10825160Y-11871960I-20000J0D01*
G01*
X10891200Y-12192000D02*
G75*
G03*
X10891200Y-12192000I-20000J0D01*
G01*
X10891200Y-12369800D02*
G75*
G03*
X10891200Y-12369800I-20000J0D01*
G01*
X10916600Y-12573000D02*
G75*
G03*
X10916600Y-12573000I-20000J0D01*
G01*
X11139633Y-12243633D02*
G75*
G03*
X11139633Y-12243633I-20000J0D01*
G01*
X11221400Y-11861800D02*
G75*
G03*
X11221400Y-11861800I-20000J0D01*
G01*
X11323000Y-12598400D02*
G75*
G03*
X11323000Y-12598400I-20000J0D01*
G01*
X11348400Y-12369800D02*
G75*
G03*
X11348400Y-12369800I-20000J0D01*
G01*
X11396833Y-11986433D02*
G75*
G03*
X11396833Y-11986433I-20000J0D01*
G01*
X11399200Y-11861800D02*
G75*
G03*
X11399200Y-11861800I-20000J0D01*
G01*
X11526200Y-11404600D02*
G75*
G03*
X11526200Y-11404600I-20000J0D01*
G01*
X11526200Y-12192000D02*
G75*
G03*
X11526200Y-12192000I-20000J0D01*
G01*
X11958000Y-10998200D02*
G75*
G03*
X11958000Y-10998200I-20000J0D01*
G01*
X11958000Y-11963400D02*
G75*
G03*
X11958000Y-11963400I-20000J0D01*
G01*
X12679533Y-10297333D02*
G75*
G03*
X12679533Y-10297333I-20000J0D01*
G01*
X12974000Y-10566400D02*
G75*
G03*
X12974000Y-10566400I-20000J0D01*
G01*
X13077967Y-10111567D02*
G75*
G03*
X13077967Y-10111567I-20000J0D01*
G01*
X13101000Y-10288010D02*
G75*
G03*
X13101000Y-10288010I-20000J0D01*
G01*
X13355000Y-9347200D02*
G75*
G03*
X13355000Y-9347200I-20000J0D01*
G01*
X13355000Y-9982200D02*
G75*
G03*
X13355000Y-9982200I-20000J0D01*
G01*
X13380400Y-10210800D02*
G75*
G03*
X13380400Y-10210800I-20000J0D01*
G01*
X13736430Y-10159570D02*
G75*
G03*
X13736430Y-10159570I-20000J0D01*
G01*
X13888400Y-10083800D02*
G75*
G03*
X13888400Y-10083800I-20000J0D01*
G01*
X14904400Y-10566400D02*
G75*
G03*
X14904400Y-10566400I-20000J0D01*
G01*
X15388420Y-10492740D02*
G75*
G03*
X15388420Y-10492740I-20000J0D01*
G01*
X16527720Y-10087090D02*
G75*
G03*
X16527720Y-10087090I-20000J0D01*
G01*
X16606200Y-11200390D02*
G75*
G03*
X16606200Y-11200390I-20000J0D01*
G01*
X16707620Y-10848340D02*
G75*
G03*
X16707620Y-10848340I-20000J0D01*
G01*
X17088800Y-10058400D02*
G75*
G03*
X17088800Y-10058400I-20000J0D01*
G01*
X17472340Y-10848340D02*
G75*
G03*
X17472340Y-10848340I-20000J0D01*
G01*
D13*
X17752720Y-10423840D02*
X17752720Y-10510840D01*
X17709220Y-10467340D02*
X17796220Y-10467340D01*
X17752720Y-10677840D02*
X17752720Y-10764840D01*
X17709220Y-10721340D02*
X17796220Y-10721340D01*
D10*
X7258019Y-14646076D02*
X7258019Y-14446076D01*
X7305638Y-14446076D01*
X7334209Y-14455600D01*
X7353257Y-14474648D01*
X7362781Y-14493695D01*
X7372305Y-14531790D01*
X7372305Y-14560362D01*
X7362781Y-14598457D01*
X7353257Y-14617505D01*
X7334209Y-14636552D01*
X7305638Y-14646076D01*
X7258019Y-14646076D01*
X7458019Y-14646076D02*
X7458019Y-14512743D01*
X7458019Y-14550838D02*
X7467543Y-14531790D01*
X7477067Y-14522267D01*
X7496114Y-14512743D01*
X7515162Y-14512743D01*
X7581828Y-14646076D02*
X7581828Y-14512743D01*
X7581828Y-14446076D02*
X7572305Y-14455600D01*
X7581828Y-14465124D01*
X7591352Y-14455600D01*
X7581828Y-14446076D01*
X7581828Y-14465124D01*
X7705638Y-14646076D02*
X7686590Y-14636552D01*
X7677067Y-14617505D01*
X7677067Y-14446076D01*
X7810400Y-14646076D02*
X7791352Y-14636552D01*
X7781828Y-14617505D01*
X7781828Y-14446076D01*
X8038971Y-14646076D02*
X8038971Y-14446076D01*
X8105638Y-14588933D01*
X8172305Y-14446076D01*
X8172305Y-14646076D01*
X8353257Y-14646076D02*
X8353257Y-14541314D01*
X8343733Y-14522267D01*
X8324686Y-14512743D01*
X8286590Y-14512743D01*
X8267543Y-14522267D01*
X8353257Y-14636552D02*
X8334209Y-14646076D01*
X8286590Y-14646076D01*
X8267543Y-14636552D01*
X8258019Y-14617505D01*
X8258019Y-14598457D01*
X8267543Y-14579409D01*
X8286590Y-14569886D01*
X8334209Y-14569886D01*
X8353257Y-14560362D01*
X8448495Y-14512743D02*
X8448495Y-14712743D01*
X8448495Y-14522267D02*
X8467543Y-14512743D01*
X8505638Y-14512743D01*
X8524686Y-14522267D01*
X8534210Y-14531790D01*
X8543733Y-14550838D01*
X8543733Y-14607981D01*
X8534210Y-14627028D01*
X8524686Y-14636552D01*
X8505638Y-14646076D01*
X8467543Y-14646076D01*
X8448495Y-14636552D01*
X8629448Y-14627028D02*
X8638971Y-14636552D01*
X8629448Y-14646076D01*
X8619924Y-14636552D01*
X8629448Y-14627028D01*
X8629448Y-14646076D01*
X8629448Y-14522267D02*
X8638971Y-14531790D01*
X8629448Y-14541314D01*
X8619924Y-14531790D01*
X8629448Y-14522267D01*
X8629448Y-14541314D01*
D11*
X6980400Y-14965600D02*
X7000400Y-14985600D01*
X7000400Y-14965600D02*
X6980400Y-14985600D01*
D10*
X7296114Y-14866076D02*
X7315162Y-14866076D01*
X7334209Y-14875600D01*
X7343733Y-14885124D01*
X7353257Y-14904171D01*
X7362781Y-14942267D01*
X7362781Y-14989886D01*
X7353257Y-15027981D01*
X7343733Y-15047028D01*
X7334209Y-15056552D01*
X7315162Y-15066076D01*
X7296114Y-15066076D01*
X7277067Y-15056552D01*
X7267543Y-15047028D01*
X7258019Y-15027981D01*
X7248495Y-14989886D01*
X7248495Y-14942267D01*
X7258019Y-14904171D01*
X7267543Y-14885124D01*
X7277067Y-14875600D01*
X7296114Y-14866076D01*
X7448495Y-15047028D02*
X7458019Y-15056552D01*
X7448495Y-15066076D01*
X7438971Y-15056552D01*
X7448495Y-15047028D01*
X7448495Y-15066076D01*
X7534209Y-14885124D02*
X7543733Y-14875600D01*
X7562781Y-14866076D01*
X7610400Y-14866076D01*
X7629448Y-14875600D01*
X7638971Y-14885124D01*
X7648495Y-14904171D01*
X7648495Y-14923219D01*
X7638971Y-14951790D01*
X7524686Y-15066076D01*
X7648495Y-15066076D01*
X7772305Y-14866076D02*
X7791352Y-14866076D01*
X7810400Y-14875600D01*
X7819924Y-14885124D01*
X7829448Y-14904171D01*
X7838971Y-14942267D01*
X7838971Y-14989886D01*
X7829448Y-15027981D01*
X7819924Y-15047028D01*
X7810400Y-15056552D01*
X7791352Y-15066076D01*
X7772305Y-15066076D01*
X7753257Y-15056552D01*
X7743733Y-15047028D01*
X7734209Y-15027981D01*
X7724686Y-14989886D01*
X7724686Y-14942267D01*
X7734209Y-14904171D01*
X7743733Y-14885124D01*
X7753257Y-14875600D01*
X7772305Y-14866076D01*
X7962781Y-14866076D02*
X7981828Y-14866076D01*
X8000876Y-14875600D01*
X8010400Y-14885124D01*
X8019924Y-14904171D01*
X8029448Y-14942267D01*
X8029448Y-14989886D01*
X8019924Y-15027981D01*
X8010400Y-15047028D01*
X8000876Y-15056552D01*
X7981828Y-15066076D01*
X7962781Y-15066076D01*
X7943733Y-15056552D01*
X7934209Y-15047028D01*
X7924686Y-15027981D01*
X7915162Y-14989886D01*
X7915162Y-14942267D01*
X7924686Y-14904171D01*
X7934209Y-14885124D01*
X7943733Y-14875600D01*
X7962781Y-14866076D01*
X8115162Y-15066076D02*
X8115162Y-14932743D01*
X8115162Y-14951790D02*
X8124686Y-14942267D01*
X8143733Y-14932743D01*
X8172305Y-14932743D01*
X8191352Y-14942267D01*
X8200876Y-14961314D01*
X8200876Y-15066076D01*
X8200876Y-14961314D02*
X8210400Y-14942267D01*
X8229448Y-14932743D01*
X8258019Y-14932743D01*
X8277067Y-14942267D01*
X8286590Y-14961314D01*
X8286590Y-15066076D01*
X8381828Y-15066076D02*
X8381828Y-14932743D01*
X8381828Y-14951790D02*
X8391352Y-14942267D01*
X8410400Y-14932743D01*
X8438971Y-14932743D01*
X8458019Y-14942267D01*
X8467543Y-14961314D01*
X8467543Y-15066076D01*
X8467543Y-14961314D02*
X8477067Y-14942267D01*
X8496114Y-14932743D01*
X8524686Y-14932743D01*
X8543733Y-14942267D01*
X8553257Y-14961314D01*
X8553257Y-15066076D01*
X8943733Y-14856552D02*
X8772305Y-15113695D01*
X9200876Y-14866076D02*
X9219924Y-14866076D01*
X9238971Y-14875600D01*
X9248495Y-14885124D01*
X9258019Y-14904171D01*
X9267543Y-14942267D01*
X9267543Y-14989886D01*
X9258019Y-15027981D01*
X9248495Y-15047028D01*
X9238971Y-15056552D01*
X9219924Y-15066076D01*
X9200876Y-15066076D01*
X9181829Y-15056552D01*
X9172305Y-15047028D01*
X9162781Y-15027981D01*
X9153257Y-14989886D01*
X9153257Y-14942267D01*
X9162781Y-14904171D01*
X9172305Y-14885124D01*
X9181829Y-14875600D01*
X9200876Y-14866076D01*
X9353257Y-15047028D02*
X9362781Y-15056552D01*
X9353257Y-15066076D01*
X9343733Y-15056552D01*
X9353257Y-15047028D01*
X9353257Y-15066076D01*
X9486590Y-14866076D02*
X9505638Y-14866076D01*
X9524686Y-14875600D01*
X9534210Y-14885124D01*
X9543733Y-14904171D01*
X9553257Y-14942267D01*
X9553257Y-14989886D01*
X9543733Y-15027981D01*
X9534210Y-15047028D01*
X9524686Y-15056552D01*
X9505638Y-15066076D01*
X9486590Y-15066076D01*
X9467543Y-15056552D01*
X9458019Y-15047028D01*
X9448495Y-15027981D01*
X9438971Y-14989886D01*
X9438971Y-14942267D01*
X9448495Y-14904171D01*
X9458019Y-14885124D01*
X9467543Y-14875600D01*
X9486590Y-14866076D01*
X9677067Y-14866076D02*
X9696114Y-14866076D01*
X9715162Y-14875600D01*
X9724686Y-14885124D01*
X9734210Y-14904171D01*
X9743733Y-14942267D01*
X9743733Y-14989886D01*
X9734210Y-15027981D01*
X9724686Y-15047028D01*
X9715162Y-15056552D01*
X9696114Y-15066076D01*
X9677067Y-15066076D01*
X9658019Y-15056552D01*
X9648495Y-15047028D01*
X9638971Y-15027981D01*
X9629448Y-14989886D01*
X9629448Y-14942267D01*
X9638971Y-14904171D01*
X9648495Y-14885124D01*
X9658019Y-14875600D01*
X9677067Y-14866076D01*
X9810400Y-14866076D02*
X9943733Y-14866076D01*
X9858019Y-15066076D01*
X10029448Y-15066076D02*
X10067543Y-15066076D01*
X10086590Y-15056552D01*
X10096114Y-15047028D01*
X10115162Y-15018457D01*
X10124686Y-14980362D01*
X10124686Y-14904171D01*
X10115162Y-14885124D01*
X10105638Y-14875600D01*
X10086590Y-14866076D01*
X10048495Y-14866076D01*
X10029448Y-14875600D01*
X10019924Y-14885124D01*
X10010400Y-14904171D01*
X10010400Y-14951790D01*
X10019924Y-14970838D01*
X10029448Y-14980362D01*
X10048495Y-14989886D01*
X10086590Y-14989886D01*
X10105638Y-14980362D01*
X10115162Y-14970838D01*
X10124686Y-14951790D01*
X10200876Y-14866076D02*
X10200876Y-14904171D01*
X10277067Y-14866076D02*
X10277067Y-14904171D01*
X10572305Y-15142267D02*
X10562781Y-15132743D01*
X10543733Y-15104171D01*
X10534210Y-15085124D01*
X10524686Y-15056552D01*
X10515162Y-15008933D01*
X10515162Y-14970838D01*
X10524686Y-14923219D01*
X10534210Y-14894648D01*
X10543733Y-14875600D01*
X10562781Y-14847028D01*
X10572305Y-14837505D01*
X10753257Y-15066076D02*
X10638971Y-15066076D01*
X10696114Y-15066076D02*
X10696114Y-14866076D01*
X10677067Y-14894648D01*
X10658019Y-14913695D01*
X10638971Y-14923219D01*
X10829448Y-14885124D02*
X10838971Y-14875600D01*
X10858019Y-14866076D01*
X10905638Y-14866076D01*
X10924686Y-14875600D01*
X10934210Y-14885124D01*
X10943733Y-14904171D01*
X10943733Y-14923219D01*
X10934210Y-14951790D01*
X10819924Y-15066076D01*
X10943733Y-15066076D01*
X11181829Y-15066076D02*
X11181829Y-14866076D01*
X11267543Y-15066076D02*
X11267543Y-14961314D01*
X11258019Y-14942267D01*
X11238971Y-14932743D01*
X11210400Y-14932743D01*
X11191352Y-14942267D01*
X11181829Y-14951790D01*
X11391352Y-15066076D02*
X11372305Y-15056552D01*
X11362781Y-15047028D01*
X11353257Y-15027981D01*
X11353257Y-14970838D01*
X11362781Y-14951790D01*
X11372305Y-14942267D01*
X11391352Y-14932743D01*
X11419924Y-14932743D01*
X11438971Y-14942267D01*
X11448495Y-14951790D01*
X11458019Y-14970838D01*
X11458019Y-15027981D01*
X11448495Y-15047028D01*
X11438971Y-15056552D01*
X11419924Y-15066076D01*
X11391352Y-15066076D01*
X11572305Y-15066076D02*
X11553257Y-15056552D01*
X11543733Y-15037505D01*
X11543733Y-14866076D01*
X11724686Y-15056552D02*
X11705638Y-15066076D01*
X11667543Y-15066076D01*
X11648495Y-15056552D01*
X11638971Y-15037505D01*
X11638971Y-14961314D01*
X11648495Y-14942267D01*
X11667543Y-14932743D01*
X11705638Y-14932743D01*
X11724686Y-14942267D01*
X11734209Y-14961314D01*
X11734209Y-14980362D01*
X11638971Y-14999409D01*
X11810400Y-15056552D02*
X11829448Y-15066076D01*
X11867543Y-15066076D01*
X11886590Y-15056552D01*
X11896114Y-15037505D01*
X11896114Y-15027981D01*
X11886590Y-15008933D01*
X11867543Y-14999409D01*
X11838971Y-14999409D01*
X11819924Y-14989886D01*
X11810400Y-14970838D01*
X11810400Y-14961314D01*
X11819924Y-14942267D01*
X11838971Y-14932743D01*
X11867543Y-14932743D01*
X11886590Y-14942267D01*
X11962781Y-15142267D02*
X11972305Y-15132743D01*
X11991352Y-15104171D01*
X12000876Y-15085124D01*
X12010400Y-15056552D01*
X12019924Y-15008933D01*
X12019924Y-14970838D01*
X12010400Y-14923219D01*
X12000876Y-14894648D01*
X11991352Y-14875600D01*
X11972305Y-14847028D01*
X11962781Y-14837505D01*
D12*
X7000400Y-15239600D02*
G75*
G03*
X7000400Y-15239600I-20000J0D01*
G01*
D10*
X7296114Y-15130076D02*
X7315162Y-15130076D01*
X7334209Y-15139600D01*
X7343733Y-15149124D01*
X7353257Y-15168171D01*
X7362781Y-15206267D01*
X7362781Y-15253886D01*
X7353257Y-15291981D01*
X7343733Y-15311028D01*
X7334209Y-15320552D01*
X7315162Y-15330076D01*
X7296114Y-15330076D01*
X7277067Y-15320552D01*
X7267543Y-15311028D01*
X7258019Y-15291981D01*
X7248495Y-15253886D01*
X7248495Y-15206267D01*
X7258019Y-15168171D01*
X7267543Y-15149124D01*
X7277067Y-15139600D01*
X7296114Y-15130076D01*
X7448495Y-15311028D02*
X7458019Y-15320552D01*
X7448495Y-15330076D01*
X7438971Y-15320552D01*
X7448495Y-15311028D01*
X7448495Y-15330076D01*
X7629448Y-15196743D02*
X7629448Y-15330076D01*
X7581828Y-15120552D02*
X7534209Y-15263409D01*
X7658019Y-15263409D01*
X7772305Y-15130076D02*
X7791352Y-15130076D01*
X7810400Y-15139600D01*
X7819924Y-15149124D01*
X7829448Y-15168171D01*
X7838971Y-15206267D01*
X7838971Y-15253886D01*
X7829448Y-15291981D01*
X7819924Y-15311028D01*
X7810400Y-15320552D01*
X7791352Y-15330076D01*
X7772305Y-15330076D01*
X7753257Y-15320552D01*
X7743733Y-15311028D01*
X7734209Y-15291981D01*
X7724686Y-15253886D01*
X7724686Y-15206267D01*
X7734209Y-15168171D01*
X7743733Y-15149124D01*
X7753257Y-15139600D01*
X7772305Y-15130076D01*
X7962781Y-15130076D02*
X7981828Y-15130076D01*
X8000876Y-15139600D01*
X8010400Y-15149124D01*
X8019924Y-15168171D01*
X8029448Y-15206267D01*
X8029448Y-15253886D01*
X8019924Y-15291981D01*
X8010400Y-15311028D01*
X8000876Y-15320552D01*
X7981828Y-15330076D01*
X7962781Y-15330076D01*
X7943733Y-15320552D01*
X7934209Y-15311028D01*
X7924686Y-15291981D01*
X7915162Y-15253886D01*
X7915162Y-15206267D01*
X7924686Y-15168171D01*
X7934209Y-15149124D01*
X7943733Y-15139600D01*
X7962781Y-15130076D01*
X8115162Y-15330076D02*
X8115162Y-15196743D01*
X8115162Y-15215790D02*
X8124686Y-15206267D01*
X8143733Y-15196743D01*
X8172305Y-15196743D01*
X8191352Y-15206267D01*
X8200876Y-15225314D01*
X8200876Y-15330076D01*
X8200876Y-15225314D02*
X8210400Y-15206267D01*
X8229448Y-15196743D01*
X8258019Y-15196743D01*
X8277067Y-15206267D01*
X8286590Y-15225314D01*
X8286590Y-15330076D01*
X8381828Y-15330076D02*
X8381828Y-15196743D01*
X8381828Y-15215790D02*
X8391352Y-15206267D01*
X8410400Y-15196743D01*
X8438971Y-15196743D01*
X8458019Y-15206267D01*
X8467543Y-15225314D01*
X8467543Y-15330076D01*
X8467543Y-15225314D02*
X8477067Y-15206267D01*
X8496114Y-15196743D01*
X8524686Y-15196743D01*
X8543733Y-15206267D01*
X8553257Y-15225314D01*
X8553257Y-15330076D01*
X8943733Y-15120552D02*
X8772305Y-15377695D01*
X9200876Y-15130076D02*
X9219924Y-15130076D01*
X9238971Y-15139600D01*
X9248495Y-15149124D01*
X9258019Y-15168171D01*
X9267543Y-15206267D01*
X9267543Y-15253886D01*
X9258019Y-15291981D01*
X9248495Y-15311028D01*
X9238971Y-15320552D01*
X9219924Y-15330076D01*
X9200876Y-15330076D01*
X9181829Y-15320552D01*
X9172305Y-15311028D01*
X9162781Y-15291981D01*
X9153257Y-15253886D01*
X9153257Y-15206267D01*
X9162781Y-15168171D01*
X9172305Y-15149124D01*
X9181829Y-15139600D01*
X9200876Y-15130076D01*
X9353257Y-15311028D02*
X9362781Y-15320552D01*
X9353257Y-15330076D01*
X9343733Y-15320552D01*
X9353257Y-15311028D01*
X9353257Y-15330076D01*
X9486590Y-15130076D02*
X9505638Y-15130076D01*
X9524686Y-15139600D01*
X9534210Y-15149124D01*
X9543733Y-15168171D01*
X9553257Y-15206267D01*
X9553257Y-15253886D01*
X9543733Y-15291981D01*
X9534210Y-15311028D01*
X9524686Y-15320552D01*
X9505638Y-15330076D01*
X9486590Y-15330076D01*
X9467543Y-15320552D01*
X9458019Y-15311028D01*
X9448495Y-15291981D01*
X9438971Y-15253886D01*
X9438971Y-15206267D01*
X9448495Y-15168171D01*
X9458019Y-15149124D01*
X9467543Y-15139600D01*
X9486590Y-15130076D01*
X9743733Y-15330076D02*
X9629448Y-15330076D01*
X9686590Y-15330076D02*
X9686590Y-15130076D01*
X9667543Y-15158648D01*
X9648495Y-15177695D01*
X9629448Y-15187219D01*
X9924686Y-15130076D02*
X9829448Y-15130076D01*
X9819924Y-15225314D01*
X9829448Y-15215790D01*
X9848495Y-15206267D01*
X9896114Y-15206267D01*
X9915162Y-15215790D01*
X9924686Y-15225314D01*
X9934210Y-15244362D01*
X9934210Y-15291981D01*
X9924686Y-15311028D01*
X9915162Y-15320552D01*
X9896114Y-15330076D01*
X9848495Y-15330076D01*
X9829448Y-15320552D01*
X9819924Y-15311028D01*
X10000876Y-15130076D02*
X10134210Y-15130076D01*
X10048495Y-15330076D01*
X10200876Y-15130076D02*
X10200876Y-15168171D01*
X10277067Y-15130076D02*
X10277067Y-15168171D01*
X10572305Y-15406267D02*
X10562781Y-15396743D01*
X10543733Y-15368171D01*
X10534210Y-15349124D01*
X10524686Y-15320552D01*
X10515162Y-15272933D01*
X10515162Y-15234838D01*
X10524686Y-15187219D01*
X10534210Y-15158648D01*
X10543733Y-15139600D01*
X10562781Y-15111028D01*
X10572305Y-15101505D01*
X10734210Y-15196743D02*
X10734210Y-15330076D01*
X10686590Y-15120552D02*
X10638971Y-15263409D01*
X10762781Y-15263409D01*
X10819924Y-15130076D02*
X10943733Y-15130076D01*
X10877067Y-15206267D01*
X10905638Y-15206267D01*
X10924686Y-15215790D01*
X10934210Y-15225314D01*
X10943733Y-15244362D01*
X10943733Y-15291981D01*
X10934210Y-15311028D01*
X10924686Y-15320552D01*
X10905638Y-15330076D01*
X10848495Y-15330076D01*
X10829448Y-15320552D01*
X10819924Y-15311028D01*
X11181829Y-15330076D02*
X11181829Y-15130076D01*
X11267543Y-15330076D02*
X11267543Y-15225314D01*
X11258019Y-15206267D01*
X11238971Y-15196743D01*
X11210400Y-15196743D01*
X11191352Y-15206267D01*
X11181829Y-15215790D01*
X11391352Y-15330076D02*
X11372305Y-15320552D01*
X11362781Y-15311028D01*
X11353257Y-15291981D01*
X11353257Y-15234838D01*
X11362781Y-15215790D01*
X11372305Y-15206267D01*
X11391352Y-15196743D01*
X11419924Y-15196743D01*
X11438971Y-15206267D01*
X11448495Y-15215790D01*
X11458019Y-15234838D01*
X11458019Y-15291981D01*
X11448495Y-15311028D01*
X11438971Y-15320552D01*
X11419924Y-15330076D01*
X11391352Y-15330076D01*
X11572305Y-15330076D02*
X11553257Y-15320552D01*
X11543733Y-15301505D01*
X11543733Y-15130076D01*
X11724686Y-15320552D02*
X11705638Y-15330076D01*
X11667543Y-15330076D01*
X11648495Y-15320552D01*
X11638971Y-15301505D01*
X11638971Y-15225314D01*
X11648495Y-15206267D01*
X11667543Y-15196743D01*
X11705638Y-15196743D01*
X11724686Y-15206267D01*
X11734209Y-15225314D01*
X11734209Y-15244362D01*
X11638971Y-15263409D01*
X11810400Y-15320552D02*
X11829448Y-15330076D01*
X11867543Y-15330076D01*
X11886590Y-15320552D01*
X11896114Y-15301505D01*
X11896114Y-15291981D01*
X11886590Y-15272933D01*
X11867543Y-15263409D01*
X11838971Y-15263409D01*
X11819924Y-15253886D01*
X11810400Y-15234838D01*
X11810400Y-15225314D01*
X11819924Y-15206267D01*
X11838971Y-15196743D01*
X11867543Y-15196743D01*
X11886590Y-15206267D01*
X11962781Y-15406267D02*
X11972305Y-15396743D01*
X11991352Y-15368171D01*
X12000876Y-15349124D01*
X12010400Y-15320552D01*
X12019924Y-15272933D01*
X12019924Y-15234838D01*
X12010400Y-15187219D01*
X12000876Y-15158648D01*
X11991352Y-15139600D01*
X11972305Y-15111028D01*
X11962781Y-15101505D01*
D13*
X6956900Y-15460100D02*
X6956900Y-15547100D01*
X6913400Y-15503600D02*
X7000400Y-15503600D01*
D10*
X7296114Y-15394076D02*
X7315162Y-15394076D01*
X7334209Y-15403600D01*
X7343733Y-15413124D01*
X7353257Y-15432171D01*
X7362781Y-15470267D01*
X7362781Y-15517886D01*
X7353257Y-15555981D01*
X7343733Y-15575028D01*
X7334209Y-15584552D01*
X7315162Y-15594076D01*
X7296114Y-15594076D01*
X7277067Y-15584552D01*
X7267543Y-15575028D01*
X7258019Y-15555981D01*
X7248495Y-15517886D01*
X7248495Y-15470267D01*
X7258019Y-15432171D01*
X7267543Y-15413124D01*
X7277067Y-15403600D01*
X7296114Y-15394076D01*
X7448495Y-15575028D02*
X7458019Y-15584552D01*
X7448495Y-15594076D01*
X7438971Y-15584552D01*
X7448495Y-15575028D01*
X7448495Y-15594076D01*
X7572305Y-15479790D02*
X7553257Y-15470267D01*
X7543733Y-15460743D01*
X7534209Y-15441695D01*
X7534209Y-15432171D01*
X7543733Y-15413124D01*
X7553257Y-15403600D01*
X7572305Y-15394076D01*
X7610400Y-15394076D01*
X7629448Y-15403600D01*
X7638971Y-15413124D01*
X7648495Y-15432171D01*
X7648495Y-15441695D01*
X7638971Y-15460743D01*
X7629448Y-15470267D01*
X7610400Y-15479790D01*
X7572305Y-15479790D01*
X7553257Y-15489314D01*
X7543733Y-15498838D01*
X7534209Y-15517886D01*
X7534209Y-15555981D01*
X7543733Y-15575028D01*
X7553257Y-15584552D01*
X7572305Y-15594076D01*
X7610400Y-15594076D01*
X7629448Y-15584552D01*
X7638971Y-15575028D01*
X7648495Y-15555981D01*
X7648495Y-15517886D01*
X7638971Y-15498838D01*
X7629448Y-15489314D01*
X7610400Y-15479790D01*
X7715162Y-15394076D02*
X7848495Y-15394076D01*
X7762781Y-15594076D01*
X7962781Y-15394076D02*
X7981828Y-15394076D01*
X8000876Y-15403600D01*
X8010400Y-15413124D01*
X8019924Y-15432171D01*
X8029448Y-15470267D01*
X8029448Y-15517886D01*
X8019924Y-15555981D01*
X8010400Y-15575028D01*
X8000876Y-15584552D01*
X7981828Y-15594076D01*
X7962781Y-15594076D01*
X7943733Y-15584552D01*
X7934209Y-15575028D01*
X7924686Y-15555981D01*
X7915162Y-15517886D01*
X7915162Y-15470267D01*
X7924686Y-15432171D01*
X7934209Y-15413124D01*
X7943733Y-15403600D01*
X7962781Y-15394076D01*
X8115162Y-15594076D02*
X8115162Y-15460743D01*
X8115162Y-15479790D02*
X8124686Y-15470267D01*
X8143733Y-15460743D01*
X8172305Y-15460743D01*
X8191352Y-15470267D01*
X8200876Y-15489314D01*
X8200876Y-15594076D01*
X8200876Y-15489314D02*
X8210400Y-15470267D01*
X8229448Y-15460743D01*
X8258019Y-15460743D01*
X8277067Y-15470267D01*
X8286590Y-15489314D01*
X8286590Y-15594076D01*
X8381828Y-15594076D02*
X8381828Y-15460743D01*
X8381828Y-15479790D02*
X8391352Y-15470267D01*
X8410400Y-15460743D01*
X8438971Y-15460743D01*
X8458019Y-15470267D01*
X8467543Y-15489314D01*
X8467543Y-15594076D01*
X8467543Y-15489314D02*
X8477067Y-15470267D01*
X8496114Y-15460743D01*
X8524686Y-15460743D01*
X8543733Y-15470267D01*
X8553257Y-15489314D01*
X8553257Y-15594076D01*
X8943733Y-15384552D02*
X8772305Y-15641695D01*
X9200876Y-15394076D02*
X9219924Y-15394076D01*
X9238971Y-15403600D01*
X9248495Y-15413124D01*
X9258019Y-15432171D01*
X9267543Y-15470267D01*
X9267543Y-15517886D01*
X9258019Y-15555981D01*
X9248495Y-15575028D01*
X9238971Y-15584552D01*
X9219924Y-15594076D01*
X9200876Y-15594076D01*
X9181829Y-15584552D01*
X9172305Y-15575028D01*
X9162781Y-15555981D01*
X9153257Y-15517886D01*
X9153257Y-15470267D01*
X9162781Y-15432171D01*
X9172305Y-15413124D01*
X9181829Y-15403600D01*
X9200876Y-15394076D01*
X9353257Y-15575028D02*
X9362781Y-15584552D01*
X9353257Y-15594076D01*
X9343733Y-15584552D01*
X9353257Y-15575028D01*
X9353257Y-15594076D01*
X9486590Y-15394076D02*
X9505638Y-15394076D01*
X9524686Y-15403600D01*
X9534210Y-15413124D01*
X9543733Y-15432171D01*
X9553257Y-15470267D01*
X9553257Y-15517886D01*
X9543733Y-15555981D01*
X9534210Y-15575028D01*
X9524686Y-15584552D01*
X9505638Y-15594076D01*
X9486590Y-15594076D01*
X9467543Y-15584552D01*
X9458019Y-15575028D01*
X9448495Y-15555981D01*
X9438971Y-15517886D01*
X9438971Y-15470267D01*
X9448495Y-15432171D01*
X9458019Y-15413124D01*
X9467543Y-15403600D01*
X9486590Y-15394076D01*
X9619924Y-15394076D02*
X9743733Y-15394076D01*
X9677067Y-15470267D01*
X9705638Y-15470267D01*
X9724686Y-15479790D01*
X9734210Y-15489314D01*
X9743733Y-15508362D01*
X9743733Y-15555981D01*
X9734210Y-15575028D01*
X9724686Y-15584552D01*
X9705638Y-15594076D01*
X9648495Y-15594076D01*
X9629448Y-15584552D01*
X9619924Y-15575028D01*
X9915162Y-15460743D02*
X9915162Y-15594076D01*
X9867543Y-15384552D02*
X9819924Y-15527409D01*
X9943733Y-15527409D01*
X10000876Y-15394076D02*
X10124686Y-15394076D01*
X10058019Y-15470267D01*
X10086590Y-15470267D01*
X10105638Y-15479790D01*
X10115162Y-15489314D01*
X10124686Y-15508362D01*
X10124686Y-15555981D01*
X10115162Y-15575028D01*
X10105638Y-15584552D01*
X10086590Y-15594076D01*
X10029448Y-15594076D01*
X10010400Y-15584552D01*
X10000876Y-15575028D01*
X10200876Y-15394076D02*
X10200876Y-15432171D01*
X10277067Y-15394076D02*
X10277067Y-15432171D01*
X10572305Y-15670267D02*
X10562781Y-15660743D01*
X10543733Y-15632171D01*
X10534210Y-15613124D01*
X10524686Y-15584552D01*
X10515162Y-15536933D01*
X10515162Y-15498838D01*
X10524686Y-15451219D01*
X10534210Y-15422648D01*
X10543733Y-15403600D01*
X10562781Y-15375028D01*
X10572305Y-15365505D01*
X10638971Y-15413124D02*
X10648495Y-15403600D01*
X10667543Y-15394076D01*
X10715162Y-15394076D01*
X10734210Y-15403600D01*
X10743733Y-15413124D01*
X10753257Y-15432171D01*
X10753257Y-15451219D01*
X10743733Y-15479790D01*
X10629448Y-15594076D01*
X10753257Y-15594076D01*
X10991352Y-15594076D02*
X10991352Y-15394076D01*
X11077067Y-15594076D02*
X11077067Y-15489314D01*
X11067543Y-15470267D01*
X11048495Y-15460743D01*
X11019924Y-15460743D01*
X11000876Y-15470267D01*
X10991352Y-15479790D01*
X11200876Y-15594076D02*
X11181829Y-15584552D01*
X11172305Y-15575028D01*
X11162781Y-15555981D01*
X11162781Y-15498838D01*
X11172305Y-15479790D01*
X11181829Y-15470267D01*
X11200876Y-15460743D01*
X11229448Y-15460743D01*
X11248495Y-15470267D01*
X11258019Y-15479790D01*
X11267543Y-15498838D01*
X11267543Y-15555981D01*
X11258019Y-15575028D01*
X11248495Y-15584552D01*
X11229448Y-15594076D01*
X11200876Y-15594076D01*
X11381828Y-15594076D02*
X11362781Y-15584552D01*
X11353257Y-15565505D01*
X11353257Y-15394076D01*
X11534209Y-15584552D02*
X11515162Y-15594076D01*
X11477067Y-15594076D01*
X11458019Y-15584552D01*
X11448495Y-15565505D01*
X11448495Y-15489314D01*
X11458019Y-15470267D01*
X11477067Y-15460743D01*
X11515162Y-15460743D01*
X11534209Y-15470267D01*
X11543733Y-15489314D01*
X11543733Y-15508362D01*
X11448495Y-15527409D01*
X11619924Y-15584552D02*
X11638971Y-15594076D01*
X11677067Y-15594076D01*
X11696114Y-15584552D01*
X11705638Y-15565505D01*
X11705638Y-15555981D01*
X11696114Y-15536933D01*
X11677067Y-15527409D01*
X11648495Y-15527409D01*
X11629448Y-15517886D01*
X11619924Y-15498838D01*
X11619924Y-15489314D01*
X11629448Y-15470267D01*
X11648495Y-15460743D01*
X11677067Y-15460743D01*
X11696114Y-15470267D01*
X11772305Y-15670267D02*
X11781828Y-15660743D01*
X11800876Y-15632171D01*
X11810400Y-15613124D01*
X11819924Y-15584552D01*
X11829448Y-15536933D01*
X11829448Y-15498838D01*
X11819924Y-15451219D01*
X11810400Y-15422648D01*
X11800876Y-15403600D01*
X11781828Y-15375028D01*
X11772305Y-15365505D01*
M02*
