M48
; DRILL file {KiCad (6.0.11)} date Tue Feb 28 10:49:32 2023
; FORMAT={-:-/ absolute / inch / decimal}
; #@! TF.CreationDate,2023-02-28T10:49:32-05:00
; #@! TF.GenerationSoftware,Kicad,Pcbnew,(6.0.11)
; #@! TF.FileFunction,Plated,1,2,PTH
FMAT,2
INCH
; #@! TA.AperFunction,Plated,PTH,ComponentDrill
T1C0.0079
; #@! TA.AperFunction,Plated,PTH,ViaDrill
T2C0.0157
; #@! TA.AperFunction,Plated,PTH,ComponentDrill
T3C0.0343
%
G90
G05
T1
X4.17Y-3.91
X4.17Y-3.97
X4.2Y-3.88
X4.2Y-3.94
X4.2Y-4.0
X4.23Y-3.91
X4.23Y-3.97
X4.26Y-3.88
X4.26Y-3.94
X4.26Y-4.0
X4.29Y-3.91
X4.29Y-3.97
T2
X3.23Y-3.9476
X3.3013Y-4.2113
X3.325Y-3.887
X3.33Y-3.95
X3.352Y-4.116
X3.44Y-4.09
X3.49Y-3.93
X3.514Y-3.884
X3.52Y-3.8275
X3.5813Y-3.9123
X3.84Y-4.39
X3.84Y-4.86
X3.99Y-4.542
X4.254Y-4.674
X4.28Y-4.8
X4.28Y-4.87
X4.29Y-4.95
X4.3778Y-4.8203
X4.41Y-4.67
X4.45Y-4.96
X4.46Y-4.87
X4.4791Y-4.7191
X4.48Y-4.67
X4.53Y-4.49
X4.53Y-4.8
X4.7Y-4.33
X4.7Y-4.71
X4.9841Y-4.0541
X5.1Y-4.16
X5.1409Y-3.9809
X5.15Y-4.0504
X5.25Y-3.68
X5.25Y-3.93
X5.26Y-4.02
X5.4002Y-3.9998
X5.46Y-3.97
X5.86Y-4.16
X6.0506Y-4.131
X6.4991Y-3.9713
X6.53Y-4.4096
X6.5699Y-4.271
X6.72Y-3.96
X6.871Y-4.271
T3
X6.9893Y-4.121
X6.9893Y-4.221
T0
M30
