%TF.GenerationSoftware,KiCad,Pcbnew,(6.0.11)*%
%TF.CreationDate,2023-02-28T10:49:06-05:00*%
%TF.ProjectId,RDNT_PCB,52444e54-5f50-4434-922e-6b696361645f,rev?*%
%TF.SameCoordinates,Original*%
%TF.FileFunction,Paste,Top*%
%TF.FilePolarity,Positive*%
%FSLAX46Y46*%
G04 Gerber Fmt 4.6, Leading zero omitted, Abs format (unit mm)*
G04 Created by KiCad (PCBNEW (6.0.11)) date 2023-02-28 10:49:06*
%MOMM*%
%LPD*%
G01*
G04 APERTURE LIST*
G04 Aperture macros list*
%AMRoundRect*
0 Rectangle with rounded corners*
0 $1 Rounding radius*
0 $2 $3 $4 $5 $6 $7 $8 $9 X,Y pos of 4 corners*
0 Add a 4 corners polygon primitive as box body*
4,1,4,$2,$3,$4,$5,$6,$7,$8,$9,$2,$3,0*
0 Add four circle primitives for the rounded corners*
1,1,$1+$1,$2,$3*
1,1,$1+$1,$4,$5*
1,1,$1+$1,$6,$7*
1,1,$1+$1,$8,$9*
0 Add four rect primitives between the rounded corners*
20,1,$1+$1,$2,$3,$4,$5,0*
20,1,$1+$1,$4,$5,$6,$7,0*
20,1,$1+$1,$6,$7,$8,$9,0*
20,1,$1+$1,$8,$9,$2,$3,0*%
G04 Aperture macros list end*
%ADD10RoundRect,0.250000X0.625000X-0.312500X0.625000X0.312500X-0.625000X0.312500X-0.625000X-0.312500X0*%
%ADD11RoundRect,0.250000X-0.325000X-0.650000X0.325000X-0.650000X0.325000X0.650000X-0.325000X0.650000X0*%
%ADD12R,2.580000X1.000000*%
%ADD13R,0.540000X0.600000*%
%ADD14R,1.200000X2.500000*%
%ADD15R,3.149600X2.565400*%
%ADD16R,1.500000X0.900000*%
%ADD17R,0.900000X1.500000*%
%ADD18R,1.050000X1.050000*%
%ADD19RoundRect,0.250000X0.650000X-0.325000X0.650000X0.325000X-0.650000X0.325000X-0.650000X-0.325000X0*%
%ADD20R,2.720000X1.260000*%
%ADD21R,2.800000X2.200000*%
%ADD22R,2.800000X2.800000*%
%ADD23RoundRect,0.250000X0.312500X0.625000X-0.312500X0.625000X-0.312500X-0.625000X0.312500X-0.625000X0*%
%ADD24RoundRect,0.250000X0.325000X0.650000X-0.325000X0.650000X-0.325000X-0.650000X0.325000X-0.650000X0*%
%ADD25R,0.860000X0.980000*%
%ADD26RoundRect,0.250000X-0.650000X0.325000X-0.650000X-0.325000X0.650000X-0.325000X0.650000X0.325000X0*%
%ADD27RoundRect,0.250000X-0.625000X0.312500X-0.625000X-0.312500X0.625000X-0.312500X0.625000X0.312500X0*%
%ADD28RoundRect,0.150000X0.825000X0.150000X-0.825000X0.150000X-0.825000X-0.150000X0.825000X-0.150000X0*%
%ADD29R,0.600000X0.510000*%
%ADD30R,1.250000X1.820000*%
%ADD31R,0.977900X0.304800*%
%ADD32R,0.600000X0.540000*%
%ADD33R,0.475000X0.300000*%
G04 APERTURE END LIST*
D10*
%TO.C,R12*%
X144857199Y-106445901D03*
X144857199Y-103520901D03*
%TD*%
D11*
%TO.C,C7*%
X146962199Y-101223401D03*
X149912199Y-101223401D03*
%TD*%
D12*
%TO.C,J3*%
X111252000Y-128492000D03*
X107082000Y-128492000D03*
X111252000Y-126492000D03*
X107082000Y-126492000D03*
X111252000Y-124492000D03*
X107082000Y-124492000D03*
X111252000Y-122492000D03*
X107082000Y-122492000D03*
X111252000Y-120492000D03*
X107082000Y-120492000D03*
%TD*%
D13*
%TO.C,C_inx1*%
X82194200Y-120524200D03*
X83058200Y-120524200D03*
%TD*%
D14*
%TO.C,SW1*%
X143916400Y-137872800D03*
X143916400Y-125372800D03*
X136296400Y-137872800D03*
X136296400Y-125372800D03*
%TD*%
D15*
%TO.C,L1*%
X87122000Y-114071400D03*
X87122000Y-108940600D03*
%TD*%
D10*
%TO.C,R1*%
X160985200Y-116295900D03*
X160985200Y-113370900D03*
%TD*%
D16*
%TO.C,U2*%
X99372000Y-92736000D03*
X99372000Y-94006000D03*
X99372000Y-95276000D03*
X99372000Y-96546000D03*
X99372000Y-97816000D03*
X99372000Y-99086000D03*
X99372000Y-100356000D03*
X99372000Y-101626000D03*
X99372000Y-102896000D03*
X99372000Y-104166000D03*
X99372000Y-105436000D03*
X99372000Y-106706000D03*
X99372000Y-107976000D03*
X99372000Y-109246000D03*
D17*
X102412000Y-110496000D03*
X103682000Y-110496000D03*
X104952000Y-110496000D03*
X106222000Y-110496000D03*
X107492000Y-110496000D03*
X108762000Y-110496000D03*
X110032000Y-110496000D03*
X111302000Y-110496000D03*
X112572000Y-110496000D03*
X113842000Y-110496000D03*
D16*
X116872000Y-109246000D03*
X116872000Y-107976000D03*
X116872000Y-106706000D03*
X116872000Y-105436000D03*
X116872000Y-104166000D03*
X116872000Y-102896000D03*
X116872000Y-101626000D03*
X116872000Y-100356000D03*
X116872000Y-99086000D03*
X116872000Y-97816000D03*
X116872000Y-96546000D03*
X116872000Y-95276000D03*
X116872000Y-94006000D03*
X116872000Y-92736000D03*
D18*
X107442000Y-100076000D03*
X105917000Y-101601000D03*
X107442000Y-98551000D03*
X105917000Y-98551000D03*
X105917000Y-100076000D03*
X108967000Y-98551000D03*
X108967000Y-100076000D03*
X107442000Y-101601000D03*
X108967000Y-101601000D03*
%TD*%
D19*
%TO.C,C5*%
X138750000Y-84047000D03*
X138750000Y-86997000D03*
%TD*%
D10*
%TO.C,R3*%
X164541200Y-116295900D03*
X164541200Y-113370900D03*
%TD*%
D20*
%TO.C,C_out1*%
X82042000Y-102930000D03*
X82042000Y-100270000D03*
%TD*%
D21*
%TO.C,J1*%
X173143400Y-77317800D03*
X165743400Y-75317800D03*
D22*
X165743400Y-84717800D03*
%TD*%
D23*
%TO.C,R9*%
X146843900Y-118922800D03*
X143918900Y-118922800D03*
%TD*%
D10*
%TO.C,R6*%
X147523200Y-106389900D03*
X147523200Y-103464900D03*
%TD*%
D24*
%TO.C,C6*%
X172112200Y-98323400D03*
X169162200Y-98323400D03*
%TD*%
D25*
%TO.C,R_fbt1*%
X91189000Y-101346000D03*
X89659000Y-101346000D03*
%TD*%
D23*
%TO.C,R4*%
X172099700Y-103403400D03*
X169174700Y-103403400D03*
%TD*%
D26*
%TO.C,C3*%
X165049200Y-96086400D03*
X165049200Y-99036400D03*
%TD*%
D11*
%TO.C,C2*%
X161796200Y-108483401D03*
X164746200Y-108483401D03*
%TD*%
D27*
%TO.C,R5*%
X165077199Y-100870901D03*
X165077199Y-103795901D03*
%TD*%
D22*
%TO.C,J2*%
X144190000Y-84050000D03*
D21*
X144190000Y-74650000D03*
X151590000Y-76650000D03*
%TD*%
D28*
%TO.C,U6*%
X158634200Y-110007400D03*
X158634200Y-108737400D03*
X158634200Y-107467400D03*
X158634200Y-106197400D03*
X158634200Y-104927400D03*
X158634200Y-103657400D03*
X158634200Y-102387400D03*
X153684200Y-102387400D03*
X153684200Y-103657400D03*
X153684200Y-104927400D03*
X153684200Y-106197400D03*
X153684200Y-107467400D03*
X153684200Y-108737400D03*
X153684200Y-110007400D03*
%TD*%
D29*
%TO.C,R_fbb1*%
X89408000Y-97219000D03*
X89408000Y-96329000D03*
%TD*%
D30*
%TO.C,C_in1*%
X79850000Y-117348000D03*
X82710000Y-117348000D03*
%TD*%
D31*
%TO.C,U1*%
X131794450Y-99036759D03*
X131794450Y-99536885D03*
X131794450Y-100037011D03*
X131794450Y-100537137D03*
X131794450Y-101037263D03*
X131794450Y-101537389D03*
X131794450Y-102037515D03*
X131794450Y-102537641D03*
X134880550Y-102537641D03*
X134880550Y-102037515D03*
X134880550Y-101537389D03*
X134880550Y-101037263D03*
X134880550Y-100537137D03*
X134880550Y-100037011D03*
X134880550Y-99536885D03*
X134880550Y-99036759D03*
%TD*%
D32*
%TO.C,C_boot1*%
X78232000Y-102032000D03*
X78232000Y-101168000D03*
%TD*%
D10*
%TO.C,R2*%
X168097200Y-113370900D03*
X168097200Y-116295900D03*
%TD*%
D33*
%TO.C,IC1*%
X87198000Y-98818000D03*
X87198000Y-99318000D03*
X87198000Y-99818000D03*
X87198000Y-100318000D03*
X85522000Y-100318000D03*
X85522000Y-99818000D03*
X85522000Y-99318000D03*
X85522000Y-98818000D03*
%TD*%
D26*
%TO.C,C4*%
X159715200Y-96086400D03*
X159715200Y-99036400D03*
%TD*%
D10*
%TO.C,R10*%
X162207199Y-103795901D03*
X162207199Y-100870901D03*
%TD*%
%TO.C,R11*%
X138750000Y-74639500D03*
X138750000Y-77564500D03*
%TD*%
%TO.C,R8*%
X152095200Y-98769900D03*
X152095200Y-95844900D03*
%TD*%
D27*
%TO.C,R7*%
X150825200Y-103210900D03*
X150825200Y-106135900D03*
%TD*%
D24*
%TO.C,C1*%
X169826199Y-108483401D03*
X166876199Y-108483401D03*
%TD*%
M02*
