%TF.GenerationSoftware,KiCad,Pcbnew,(6.0.11)*%
%TF.CreationDate,2023-02-28T10:49:06-05:00*%
%TF.ProjectId,RDNT_PCB,52444e54-5f50-4434-922e-6b696361645f,rev?*%
%TF.SameCoordinates,Original*%
%TF.FileFunction,Copper,L2,Bot*%
%TF.FilePolarity,Positive*%
%FSLAX46Y46*%
G04 Gerber Fmt 4.6, Leading zero omitted, Abs format (unit mm)*
G04 Created by KiCad (PCBNEW (6.0.11)) date 2023-02-28 10:49:06*
%MOMM*%
%LPD*%
G01*
G04 APERTURE LIST*
%TA.AperFunction,HeatsinkPad*%
%ADD10C,0.475000*%
%TD*%
%TA.AperFunction,ComponentPad*%
%ADD11R,1.378000X1.378000*%
%TD*%
%TA.AperFunction,ComponentPad*%
%ADD12C,1.378000*%
%TD*%
%TA.AperFunction,ViaPad*%
%ADD13C,0.800000*%
%TD*%
%TA.AperFunction,Conductor*%
%ADD14C,0.304800*%
%TD*%
%TA.AperFunction,Conductor*%
%ADD15C,0.250000*%
%TD*%
%TA.AperFunction,Conductor*%
%ADD16C,0.406400*%
%TD*%
G04 APERTURE END LIST*
D10*
%TO.P,U2,39,GND*%
%TO.N,GNDREF*%
X107442000Y-99313500D03*
X108204500Y-100076000D03*
X108204500Y-101601000D03*
X108204500Y-98551000D03*
X106679500Y-100076000D03*
X106679500Y-98551000D03*
X106679500Y-101601000D03*
X105917000Y-100838500D03*
X107442000Y-100838500D03*
X108967000Y-99313500D03*
X105917000Y-99313500D03*
X108967000Y-100838500D03*
%TD*%
D11*
%TO.P,MK1,1*%
%TO.N,GNDREF*%
X177527200Y-104673400D03*
D12*
%TO.P,MK1,2*%
%TO.N,Net-(C1-Pad2)*%
X177527200Y-107213400D03*
%TD*%
D13*
%TO.N,GNDREF*%
X165077199Y-100870901D03*
X170688000Y-100584000D03*
X138684000Y-100838000D03*
X130810000Y-102880100D03*
X83854195Y-106968195D03*
X89408000Y-97219000D03*
X82042000Y-100270000D03*
%TO.N,/Ble_ADC*%
X137164299Y-101595701D03*
%TO.N,/Aux_ADC*%
X133350000Y-93472000D03*
%TO.N,Net-(C1-Pad2)*%
X174523401Y-108483401D03*
X166876199Y-108483401D03*
X165862000Y-112003900D03*
%TO.N,Net-(C4-Pad2)*%
X148844000Y-105664000D03*
X153684200Y-104927400D03*
%TO.N,/Ble_ADC*%
X129540000Y-105664000D03*
X113768326Y-119864326D03*
X111196326Y-122436326D03*
%TO.N,/sel2*%
X126595326Y-102973326D03*
X133604000Y-102108000D03*
%TO.N,/sel1*%
X119380000Y-119634000D03*
%TO.N,/sel2*%
X108966000Y-125730000D03*
X115062000Y-114046000D03*
%TO.N,/sel1*%
X113030000Y-125984000D03*
X119380000Y-109982000D03*
%TO.N,/Mic_ADC*%
X115062000Y-121920000D03*
X113284000Y-123698000D03*
%TO.N,/Aux_ADC*%
X130579674Y-101115674D03*
X133350000Y-99822000D03*
X113792000Y-118618000D03*
X108712000Y-123698000D03*
%TO.N,/Audio_Out*%
X108712000Y-121920000D03*
X112014000Y-118618000D03*
%TO.N,/LED_Out*%
X97536000Y-123444000D03*
X97536000Y-111506000D03*
%TO.N,Net-(C_boot1-Pad2)*%
X87376000Y-103886000D03*
X88646000Y-99822000D03*
%TO.N,Net-(IC1-Pad8)*%
X89255600Y-98653600D03*
X90966195Y-99373595D03*
%TO.N,Net-(C_boot1-Pad2)*%
X84455000Y-98729800D03*
%TO.N,/+5V*%
X84582000Y-100330000D03*
X85140800Y-104546400D03*
%TO.N,/Ble_ADC*%
X108051600Y-118719600D03*
X101346000Y-115366800D03*
%TD*%
D14*
%TO.N,GNDREF*%
X170401099Y-100870901D02*
X165077199Y-100870901D01*
X170688000Y-100584000D02*
X170401099Y-100870901D01*
X131767845Y-102880100D02*
X130810000Y-102880100D01*
X133809945Y-100838000D02*
X131767845Y-102880100D01*
X138684000Y-100838000D02*
X133809945Y-100838000D01*
D15*
X82042000Y-105156000D02*
X83854195Y-106968195D01*
X82042000Y-100270000D02*
X82042000Y-105156000D01*
X83946000Y-97219000D02*
X89408000Y-97219000D01*
X83058000Y-98107000D02*
X83946000Y-97219000D01*
X82042000Y-100270000D02*
X83058000Y-99254000D01*
X83058000Y-99254000D02*
X83058000Y-98107000D01*
D14*
%TO.N,Net-(C1-Pad2)*%
X174523401Y-108483401D02*
X166876199Y-108483401D01*
%TO.N,/Aux_ADC*%
X133350000Y-93472000D02*
X133350000Y-99822000D01*
%TO.N,Net-(C1-Pad2)*%
X165862000Y-112003900D02*
X166876199Y-110989701D01*
X166876199Y-110989701D02*
X166876199Y-108483401D01*
%TO.N,Net-(C4-Pad2)*%
X148844000Y-105664000D02*
X149580600Y-104927400D01*
X149580600Y-104927400D02*
X153684200Y-104927400D01*
%TO.N,/Ble_ADC*%
X130810000Y-104394000D02*
X129540000Y-105664000D01*
X134366000Y-104394000D02*
X130810000Y-104394000D01*
X137164299Y-101595701D02*
X134366000Y-104394000D01*
X111196326Y-122436326D02*
X113768326Y-119864326D01*
%TO.N,/sel2*%
X127254000Y-103632000D02*
X132080000Y-103632000D01*
X132080000Y-103632000D02*
X133604000Y-102108000D01*
X126595326Y-102973326D02*
X127254000Y-103632000D01*
X115062000Y-119634000D02*
X108966000Y-125730000D01*
X115062000Y-119380000D02*
X115062000Y-119634000D01*
X115062000Y-114046000D02*
X115062000Y-119380000D01*
%TO.N,/sel1*%
X119380000Y-119634000D02*
X113030000Y-125984000D01*
X119380000Y-109982000D02*
X119380000Y-119634000D01*
%TO.N,/Mic_ADC*%
X113284000Y-123698000D02*
X115062000Y-121920000D01*
D15*
%TO.N,/Aux_ADC*%
X132056326Y-101115674D02*
X130579674Y-101115674D01*
X133350000Y-99822000D02*
X132056326Y-101115674D01*
D14*
X108712000Y-123698000D02*
X113792000Y-118618000D01*
%TO.N,/Audio_Out*%
X108712000Y-121920000D02*
X112014000Y-118618000D01*
%TO.N,/LED_Out*%
X97536000Y-111506000D02*
X97536000Y-123444000D01*
D15*
%TO.N,Net-(C_boot1-Pad2)*%
X85039200Y-99314000D02*
X84455000Y-98729800D01*
X88646000Y-99822000D02*
X88138000Y-99314000D01*
X88138000Y-99314000D02*
X85039200Y-99314000D01*
D14*
X88646000Y-100584000D02*
X88646000Y-99822000D01*
X87376000Y-101854000D02*
X88646000Y-100584000D01*
X87376000Y-103886000D02*
X87376000Y-101854000D01*
D16*
%TO.N,/+5V*%
X84286800Y-103692400D02*
X85140800Y-104546400D01*
X84286800Y-100625200D02*
X84286800Y-103692400D01*
X84582000Y-100330000D02*
X84286800Y-100625200D01*
D14*
%TO.N,Net-(IC1-Pad8)*%
X89975595Y-99373595D02*
X89255600Y-98653600D01*
X90966195Y-99373595D02*
X89975595Y-99373595D01*
%TO.N,/Ble_ADC*%
X101346000Y-115366800D02*
X104698800Y-118719600D01*
X104698800Y-118719600D02*
X108051600Y-118719600D01*
%TD*%
%TA.AperFunction,Conductor*%
%TO.N,GNDREF*%
G36*
X188409621Y-66187502D02*
G01*
X188456114Y-66241158D01*
X188467500Y-66293500D01*
X188467500Y-142621500D01*
X188447498Y-142689621D01*
X188393842Y-142736114D01*
X188341500Y-142747500D01*
X70738500Y-142747500D01*
X70670379Y-142727498D01*
X70623886Y-142673842D01*
X70612500Y-142621500D01*
X70612500Y-139832703D01*
X71550743Y-139832703D01*
X71588268Y-140117734D01*
X71664129Y-140395036D01*
X71776923Y-140659476D01*
X71924561Y-140906161D01*
X72104313Y-141130528D01*
X72312851Y-141328423D01*
X72546317Y-141496186D01*
X72550112Y-141498195D01*
X72550113Y-141498196D01*
X72571869Y-141509715D01*
X72800392Y-141630712D01*
X73070373Y-141729511D01*
X73351264Y-141790755D01*
X73379841Y-141793004D01*
X73574282Y-141808307D01*
X73574291Y-141808307D01*
X73576739Y-141808500D01*
X73732271Y-141808500D01*
X73734407Y-141808354D01*
X73734418Y-141808354D01*
X73942548Y-141794165D01*
X73942554Y-141794164D01*
X73946825Y-141793873D01*
X73951020Y-141793004D01*
X73951022Y-141793004D01*
X74087583Y-141764724D01*
X74228342Y-141735574D01*
X74499343Y-141639607D01*
X74754812Y-141507750D01*
X74758313Y-141505289D01*
X74758317Y-141505287D01*
X74872417Y-141425096D01*
X74990023Y-141342441D01*
X75200622Y-141146740D01*
X75382713Y-140924268D01*
X75532927Y-140679142D01*
X75648483Y-140415898D01*
X75727244Y-140139406D01*
X75767751Y-139854784D01*
X75767845Y-139836951D01*
X75767867Y-139832703D01*
X183310743Y-139832703D01*
X183348268Y-140117734D01*
X183424129Y-140395036D01*
X183536923Y-140659476D01*
X183684561Y-140906161D01*
X183864313Y-141130528D01*
X184072851Y-141328423D01*
X184306317Y-141496186D01*
X184310112Y-141498195D01*
X184310113Y-141498196D01*
X184331869Y-141509715D01*
X184560392Y-141630712D01*
X184830373Y-141729511D01*
X185111264Y-141790755D01*
X185139841Y-141793004D01*
X185334282Y-141808307D01*
X185334291Y-141808307D01*
X185336739Y-141808500D01*
X185492271Y-141808500D01*
X185494407Y-141808354D01*
X185494418Y-141808354D01*
X185702548Y-141794165D01*
X185702554Y-141794164D01*
X185706825Y-141793873D01*
X185711020Y-141793004D01*
X185711022Y-141793004D01*
X185847583Y-141764724D01*
X185988342Y-141735574D01*
X186259343Y-141639607D01*
X186514812Y-141507750D01*
X186518313Y-141505289D01*
X186518317Y-141505287D01*
X186632417Y-141425096D01*
X186750023Y-141342441D01*
X186960622Y-141146740D01*
X187142713Y-140924268D01*
X187292927Y-140679142D01*
X187408483Y-140415898D01*
X187487244Y-140139406D01*
X187527751Y-139854784D01*
X187527845Y-139836951D01*
X187529235Y-139571583D01*
X187529235Y-139571576D01*
X187529257Y-139567297D01*
X187491732Y-139282266D01*
X187415871Y-139004964D01*
X187303077Y-138740524D01*
X187155439Y-138493839D01*
X186975687Y-138269472D01*
X186767149Y-138071577D01*
X186533683Y-137903814D01*
X186511843Y-137892250D01*
X186488654Y-137879972D01*
X186279608Y-137769288D01*
X186009627Y-137670489D01*
X185728736Y-137609245D01*
X185697685Y-137606801D01*
X185505718Y-137591693D01*
X185505709Y-137591693D01*
X185503261Y-137591500D01*
X185347729Y-137591500D01*
X185345593Y-137591646D01*
X185345582Y-137591646D01*
X185137452Y-137605835D01*
X185137446Y-137605836D01*
X185133175Y-137606127D01*
X185128980Y-137606996D01*
X185128978Y-137606996D01*
X184992416Y-137635277D01*
X184851658Y-137664426D01*
X184580657Y-137760393D01*
X184325188Y-137892250D01*
X184321687Y-137894711D01*
X184321683Y-137894713D01*
X184311594Y-137901804D01*
X184089977Y-138057559D01*
X183879378Y-138253260D01*
X183697287Y-138475732D01*
X183547073Y-138720858D01*
X183431517Y-138984102D01*
X183352756Y-139260594D01*
X183312249Y-139545216D01*
X183312227Y-139549505D01*
X183312226Y-139549512D01*
X183310765Y-139828417D01*
X183310743Y-139832703D01*
X75767867Y-139832703D01*
X75769235Y-139571583D01*
X75769235Y-139571576D01*
X75769257Y-139567297D01*
X75731732Y-139282266D01*
X75655871Y-139004964D01*
X75543077Y-138740524D01*
X75395439Y-138493839D01*
X75215687Y-138269472D01*
X75007149Y-138071577D01*
X74773683Y-137903814D01*
X74751843Y-137892250D01*
X74728654Y-137879972D01*
X74519608Y-137769288D01*
X74249627Y-137670489D01*
X73968736Y-137609245D01*
X73937685Y-137606801D01*
X73745718Y-137591693D01*
X73745709Y-137591693D01*
X73743261Y-137591500D01*
X73587729Y-137591500D01*
X73585593Y-137591646D01*
X73585582Y-137591646D01*
X73377452Y-137605835D01*
X73377446Y-137605836D01*
X73373175Y-137606127D01*
X73368980Y-137606996D01*
X73368978Y-137606996D01*
X73232416Y-137635277D01*
X73091658Y-137664426D01*
X72820657Y-137760393D01*
X72565188Y-137892250D01*
X72561687Y-137894711D01*
X72561683Y-137894713D01*
X72551594Y-137901804D01*
X72329977Y-138057559D01*
X72119378Y-138253260D01*
X71937287Y-138475732D01*
X71787073Y-138720858D01*
X71671517Y-138984102D01*
X71592756Y-139260594D01*
X71552249Y-139545216D01*
X71552227Y-139549505D01*
X71552226Y-139549512D01*
X71550765Y-139828417D01*
X71550743Y-139832703D01*
X70612500Y-139832703D01*
X70612500Y-123444000D01*
X96622496Y-123444000D01*
X96642458Y-123633928D01*
X96701473Y-123815556D01*
X96796960Y-123980944D01*
X96801378Y-123985851D01*
X96801379Y-123985852D01*
X96920325Y-124117955D01*
X96924747Y-124122866D01*
X97079248Y-124235118D01*
X97085276Y-124237802D01*
X97085278Y-124237803D01*
X97247681Y-124310109D01*
X97253712Y-124312794D01*
X97347113Y-124332647D01*
X97434056Y-124351128D01*
X97434061Y-124351128D01*
X97440513Y-124352500D01*
X97631487Y-124352500D01*
X97637939Y-124351128D01*
X97637944Y-124351128D01*
X97724887Y-124332647D01*
X97818288Y-124312794D01*
X97824319Y-124310109D01*
X97986722Y-124237803D01*
X97986724Y-124237802D01*
X97992752Y-124235118D01*
X98147253Y-124122866D01*
X98151675Y-124117955D01*
X98270621Y-123985852D01*
X98270622Y-123985851D01*
X98275040Y-123980944D01*
X98370527Y-123815556D01*
X98408724Y-123698000D01*
X107798496Y-123698000D01*
X107818458Y-123887928D01*
X107877473Y-124069556D01*
X107972960Y-124234944D01*
X108100747Y-124376866D01*
X108255248Y-124489118D01*
X108261276Y-124491802D01*
X108261278Y-124491803D01*
X108423681Y-124564109D01*
X108429712Y-124566794D01*
X108523113Y-124586647D01*
X108610056Y-124605128D01*
X108610061Y-124605128D01*
X108616513Y-124606500D01*
X108683197Y-124606500D01*
X108751318Y-124626502D01*
X108797811Y-124680158D01*
X108807915Y-124750432D01*
X108778421Y-124815012D01*
X108718695Y-124853396D01*
X108709394Y-124855746D01*
X108690178Y-124859831D01*
X108690173Y-124859833D01*
X108683712Y-124861206D01*
X108677682Y-124863891D01*
X108677681Y-124863891D01*
X108515278Y-124936197D01*
X108515276Y-124936198D01*
X108509248Y-124938882D01*
X108354747Y-125051134D01*
X108226960Y-125193056D01*
X108131473Y-125358444D01*
X108072458Y-125540072D01*
X108052496Y-125730000D01*
X108072458Y-125919928D01*
X108131473Y-126101556D01*
X108226960Y-126266944D01*
X108231378Y-126271851D01*
X108231379Y-126271852D01*
X108350325Y-126403955D01*
X108354747Y-126408866D01*
X108509248Y-126521118D01*
X108515276Y-126523802D01*
X108515278Y-126523803D01*
X108677681Y-126596109D01*
X108683712Y-126598794D01*
X108777113Y-126618647D01*
X108864056Y-126637128D01*
X108864061Y-126637128D01*
X108870513Y-126638500D01*
X109061487Y-126638500D01*
X109067939Y-126637128D01*
X109067944Y-126637128D01*
X109154887Y-126618647D01*
X109248288Y-126598794D01*
X109254319Y-126596109D01*
X109416722Y-126523803D01*
X109416724Y-126523802D01*
X109422752Y-126521118D01*
X109577253Y-126408866D01*
X109581675Y-126403955D01*
X109700621Y-126271852D01*
X109700622Y-126271851D01*
X109705040Y-126266944D01*
X109800527Y-126101556D01*
X109859542Y-125919928D01*
X109872356Y-125798007D01*
X109899369Y-125732351D01*
X109908571Y-125722083D01*
X111025527Y-124605127D01*
X112170323Y-123460330D01*
X112232634Y-123426306D01*
X112303449Y-123431370D01*
X112360285Y-123473917D01*
X112385096Y-123540437D01*
X112384727Y-123562596D01*
X112370496Y-123698000D01*
X112390458Y-123887928D01*
X112449473Y-124069556D01*
X112544960Y-124234944D01*
X112672747Y-124376866D01*
X112827248Y-124489118D01*
X112833276Y-124491802D01*
X112833278Y-124491803D01*
X112995681Y-124564109D01*
X113001712Y-124566794D01*
X113188513Y-124606500D01*
X113188361Y-124607213D01*
X113249374Y-124632316D01*
X113290002Y-124690538D01*
X113292705Y-124761483D01*
X113259640Y-124819707D01*
X113040752Y-125038595D01*
X112978440Y-125072621D01*
X112951657Y-125075500D01*
X112934513Y-125075500D01*
X112928061Y-125076872D01*
X112928056Y-125076872D01*
X112841113Y-125095353D01*
X112747712Y-125115206D01*
X112741682Y-125117891D01*
X112741681Y-125117891D01*
X112579278Y-125190197D01*
X112579276Y-125190198D01*
X112573248Y-125192882D01*
X112418747Y-125305134D01*
X112414326Y-125310044D01*
X112414325Y-125310045D01*
X112370747Y-125358444D01*
X112290960Y-125447056D01*
X112195473Y-125612444D01*
X112136458Y-125794072D01*
X112116496Y-125984000D01*
X112136458Y-126173928D01*
X112195473Y-126355556D01*
X112290960Y-126520944D01*
X112418747Y-126662866D01*
X112573248Y-126775118D01*
X112579276Y-126777802D01*
X112579278Y-126777803D01*
X112741681Y-126850109D01*
X112747712Y-126852794D01*
X112841112Y-126872647D01*
X112928056Y-126891128D01*
X112928061Y-126891128D01*
X112934513Y-126892500D01*
X113125487Y-126892500D01*
X113131939Y-126891128D01*
X113131944Y-126891128D01*
X113218888Y-126872647D01*
X113312288Y-126852794D01*
X113318319Y-126850109D01*
X113480722Y-126777803D01*
X113480724Y-126777802D01*
X113486752Y-126775118D01*
X113641253Y-126662866D01*
X113769040Y-126520944D01*
X113864527Y-126355556D01*
X113923542Y-126173928D01*
X113936356Y-126052007D01*
X113963369Y-125986351D01*
X113972571Y-125976083D01*
X119369248Y-120579405D01*
X119431560Y-120545379D01*
X119458343Y-120542500D01*
X119475487Y-120542500D01*
X119481939Y-120541128D01*
X119481944Y-120541128D01*
X119568887Y-120522647D01*
X119662288Y-120502794D01*
X119668319Y-120500109D01*
X119830722Y-120427803D01*
X119830724Y-120427802D01*
X119836752Y-120425118D01*
X119991253Y-120312866D01*
X120119040Y-120170944D01*
X120214527Y-120005556D01*
X120273542Y-119823928D01*
X120293504Y-119634000D01*
X120288711Y-119588394D01*
X120274232Y-119450635D01*
X120274232Y-119450633D01*
X120273542Y-119444072D01*
X120214527Y-119262444D01*
X120207820Y-119250826D01*
X120122343Y-119102777D01*
X120119040Y-119097056D01*
X120073264Y-119046216D01*
X120042547Y-118982209D01*
X120040900Y-118961906D01*
X120040900Y-112003900D01*
X164948496Y-112003900D01*
X164949186Y-112010465D01*
X164959645Y-112109973D01*
X164968458Y-112193828D01*
X165027473Y-112375456D01*
X165122960Y-112540844D01*
X165250747Y-112682766D01*
X165405248Y-112795018D01*
X165411276Y-112797702D01*
X165411278Y-112797703D01*
X165573681Y-112870009D01*
X165579712Y-112872694D01*
X165673113Y-112892547D01*
X165760056Y-112911028D01*
X165760061Y-112911028D01*
X165766513Y-112912400D01*
X165957487Y-112912400D01*
X165963939Y-112911028D01*
X165963944Y-112911028D01*
X166050888Y-112892547D01*
X166144288Y-112872694D01*
X166150319Y-112870009D01*
X166312722Y-112797703D01*
X166312724Y-112797702D01*
X166318752Y-112795018D01*
X166473253Y-112682766D01*
X166601040Y-112540844D01*
X166696527Y-112375456D01*
X166755542Y-112193828D01*
X166768356Y-112071909D01*
X166795369Y-112006252D01*
X166804570Y-111995984D01*
X167324245Y-111476308D01*
X167330512Y-111470454D01*
X167365226Y-111440171D01*
X167370951Y-111435177D01*
X167405092Y-111386599D01*
X167409024Y-111381305D01*
X167440976Y-111340556D01*
X167445662Y-111334580D01*
X167448788Y-111327656D01*
X167452501Y-111321525D01*
X167455137Y-111316905D01*
X167458559Y-111310523D01*
X167462930Y-111304304D01*
X167484498Y-111248987D01*
X167487053Y-111242908D01*
X167508360Y-111195716D01*
X167511488Y-111188789D01*
X167512874Y-111181313D01*
X167515029Y-111174435D01*
X167516489Y-111169310D01*
X167518277Y-111162346D01*
X167521037Y-111155267D01*
X167528786Y-111096401D01*
X167529817Y-111089890D01*
X167539255Y-111038969D01*
X167540639Y-111031504D01*
X167537308Y-110973733D01*
X167537099Y-110966480D01*
X167537099Y-109270301D01*
X167557101Y-109202180D01*
X167610757Y-109155687D01*
X167663099Y-109144301D01*
X173846480Y-109144301D01*
X173914601Y-109164303D01*
X173920541Y-109168365D01*
X174066649Y-109274519D01*
X174072677Y-109277203D01*
X174072679Y-109277204D01*
X174235082Y-109349510D01*
X174241113Y-109352195D01*
X174334513Y-109372048D01*
X174421457Y-109390529D01*
X174421462Y-109390529D01*
X174427914Y-109391901D01*
X174618888Y-109391901D01*
X174625340Y-109390529D01*
X174625345Y-109390529D01*
X174712288Y-109372048D01*
X174805689Y-109352195D01*
X174811720Y-109349510D01*
X174974123Y-109277204D01*
X174974125Y-109277203D01*
X174980153Y-109274519D01*
X175134654Y-109162267D01*
X175150831Y-109144301D01*
X175258022Y-109025253D01*
X175258023Y-109025252D01*
X175262441Y-109020345D01*
X175357928Y-108854957D01*
X175416943Y-108673329D01*
X175436905Y-108483401D01*
X175416943Y-108293473D01*
X175357928Y-108111845D01*
X175262441Y-107946457D01*
X175211196Y-107889543D01*
X175139076Y-107809446D01*
X175139075Y-107809445D01*
X175134654Y-107804535D01*
X174980153Y-107692283D01*
X174974125Y-107689599D01*
X174974123Y-107689598D01*
X174811720Y-107617292D01*
X174811719Y-107617292D01*
X174805689Y-107614607D01*
X174712289Y-107594754D01*
X174625345Y-107576273D01*
X174625340Y-107576273D01*
X174618888Y-107574901D01*
X174427914Y-107574901D01*
X174421462Y-107576273D01*
X174421457Y-107576273D01*
X174334513Y-107594754D01*
X174241113Y-107614607D01*
X174235083Y-107617292D01*
X174235082Y-107617292D01*
X174072679Y-107689598D01*
X174072677Y-107689599D01*
X174066649Y-107692283D01*
X174061308Y-107696163D01*
X174061307Y-107696164D01*
X173920541Y-107798437D01*
X173853673Y-107822295D01*
X173846480Y-107822501D01*
X167553120Y-107822501D01*
X167484999Y-107802499D01*
X167479059Y-107798437D01*
X167338293Y-107696164D01*
X167338292Y-107696163D01*
X167332951Y-107692283D01*
X167326923Y-107689599D01*
X167326921Y-107689598D01*
X167164518Y-107617292D01*
X167164517Y-107617292D01*
X167158487Y-107614607D01*
X167065087Y-107594754D01*
X166978143Y-107576273D01*
X166978138Y-107576273D01*
X166971686Y-107574901D01*
X166780712Y-107574901D01*
X166774260Y-107576273D01*
X166774255Y-107576273D01*
X166687311Y-107594754D01*
X166593911Y-107614607D01*
X166587881Y-107617292D01*
X166587880Y-107617292D01*
X166425477Y-107689598D01*
X166425475Y-107689599D01*
X166419447Y-107692283D01*
X166264946Y-107804535D01*
X166260525Y-107809445D01*
X166260524Y-107809446D01*
X166188405Y-107889543D01*
X166137159Y-107946457D01*
X166041672Y-108111845D01*
X165982657Y-108293473D01*
X165962695Y-108483401D01*
X165982657Y-108673329D01*
X166041672Y-108854957D01*
X166137159Y-109020345D01*
X166141577Y-109025252D01*
X166141578Y-109025253D01*
X166182935Y-109071184D01*
X166213652Y-109135192D01*
X166215299Y-109155495D01*
X166215299Y-110663756D01*
X166195297Y-110731877D01*
X166178395Y-110752851D01*
X165872752Y-111058495D01*
X165810439Y-111092520D01*
X165783656Y-111095400D01*
X165766513Y-111095400D01*
X165760061Y-111096772D01*
X165760056Y-111096772D01*
X165673113Y-111115253D01*
X165579712Y-111135106D01*
X165573682Y-111137791D01*
X165573681Y-111137791D01*
X165411278Y-111210097D01*
X165411276Y-111210098D01*
X165405248Y-111212782D01*
X165250747Y-111325034D01*
X165122960Y-111466956D01*
X165027473Y-111632344D01*
X164968458Y-111813972D01*
X164967768Y-111820533D01*
X164967768Y-111820535D01*
X164949328Y-111995984D01*
X164948496Y-112003900D01*
X120040900Y-112003900D01*
X120040900Y-110654094D01*
X120060902Y-110585973D01*
X120073264Y-110569783D01*
X120114621Y-110523852D01*
X120114622Y-110523851D01*
X120119040Y-110518944D01*
X120214527Y-110353556D01*
X120273542Y-110171928D01*
X120293504Y-109982000D01*
X120273542Y-109792072D01*
X120214527Y-109610444D01*
X120119040Y-109445056D01*
X119991253Y-109303134D01*
X119892157Y-109231136D01*
X119842094Y-109194763D01*
X119842093Y-109194762D01*
X119836752Y-109190882D01*
X119830724Y-109188198D01*
X119830722Y-109188197D01*
X119668319Y-109115891D01*
X119668318Y-109115891D01*
X119662288Y-109113206D01*
X119568887Y-109093353D01*
X119481944Y-109074872D01*
X119481939Y-109074872D01*
X119475487Y-109073500D01*
X119284513Y-109073500D01*
X119278061Y-109074872D01*
X119278056Y-109074872D01*
X119191113Y-109093353D01*
X119097712Y-109113206D01*
X119091682Y-109115891D01*
X119091681Y-109115891D01*
X118929278Y-109188197D01*
X118929276Y-109188198D01*
X118923248Y-109190882D01*
X118917907Y-109194762D01*
X118917906Y-109194763D01*
X118867843Y-109231136D01*
X118768747Y-109303134D01*
X118640960Y-109445056D01*
X118545473Y-109610444D01*
X118486458Y-109792072D01*
X118466496Y-109982000D01*
X118486458Y-110171928D01*
X118545473Y-110353556D01*
X118640960Y-110518944D01*
X118645378Y-110523851D01*
X118645379Y-110523852D01*
X118686736Y-110569783D01*
X118717453Y-110633791D01*
X118719100Y-110654094D01*
X118719100Y-118961906D01*
X118699098Y-119030027D01*
X118686737Y-119046215D01*
X118640960Y-119097056D01*
X118637657Y-119102777D01*
X118552181Y-119250826D01*
X118545473Y-119262444D01*
X118486458Y-119444072D01*
X118485768Y-119450633D01*
X118485768Y-119450635D01*
X118473644Y-119565992D01*
X118446631Y-119631649D01*
X118437429Y-119641917D01*
X116179781Y-121899565D01*
X116117469Y-121933591D01*
X116046654Y-121928526D01*
X115989818Y-121885979D01*
X115965376Y-121823640D01*
X115961273Y-121784595D01*
X115955542Y-121730072D01*
X115896527Y-121548444D01*
X115801040Y-121383056D01*
X115673253Y-121241134D01*
X115518752Y-121128882D01*
X115512724Y-121126198D01*
X115512722Y-121126197D01*
X115350319Y-121053891D01*
X115350318Y-121053891D01*
X115344288Y-121051206D01*
X115250888Y-121031353D01*
X115163944Y-121012872D01*
X115163939Y-121012872D01*
X115157487Y-121011500D01*
X114966513Y-121011500D01*
X114960058Y-121012872D01*
X114960049Y-121012873D01*
X114941463Y-121016824D01*
X114870672Y-121011423D01*
X114814039Y-120968607D01*
X114789545Y-120901970D01*
X114804966Y-120832668D01*
X114826170Y-120804483D01*
X115510039Y-120120614D01*
X115516305Y-120114760D01*
X115551027Y-120084470D01*
X115556752Y-120079476D01*
X115590893Y-120030898D01*
X115594825Y-120025604D01*
X115606058Y-120011279D01*
X115631463Y-119978879D01*
X115634590Y-119971953D01*
X115638302Y-119965824D01*
X115640949Y-119961185D01*
X115644363Y-119954818D01*
X115648731Y-119948603D01*
X115670295Y-119893295D01*
X115672850Y-119887217D01*
X115694165Y-119840009D01*
X115697290Y-119833088D01*
X115698674Y-119825620D01*
X115700810Y-119818804D01*
X115702284Y-119813632D01*
X115704077Y-119806647D01*
X115706838Y-119799566D01*
X115714586Y-119740711D01*
X115715618Y-119734195D01*
X115725056Y-119683272D01*
X115725056Y-119683270D01*
X115726440Y-119675803D01*
X115723109Y-119618032D01*
X115722900Y-119610779D01*
X115722900Y-114718094D01*
X115742902Y-114649973D01*
X115755264Y-114633783D01*
X115796621Y-114587852D01*
X115796622Y-114587851D01*
X115801040Y-114582944D01*
X115872211Y-114459672D01*
X115893223Y-114423279D01*
X115893224Y-114423278D01*
X115896527Y-114417556D01*
X115955542Y-114235928D01*
X115975504Y-114046000D01*
X115955542Y-113856072D01*
X115896527Y-113674444D01*
X115801040Y-113509056D01*
X115673253Y-113367134D01*
X115518752Y-113254882D01*
X115512724Y-113252198D01*
X115512722Y-113252197D01*
X115350319Y-113179891D01*
X115350318Y-113179891D01*
X115344288Y-113177206D01*
X115250888Y-113157353D01*
X115163944Y-113138872D01*
X115163939Y-113138872D01*
X115157487Y-113137500D01*
X114966513Y-113137500D01*
X114960061Y-113138872D01*
X114960056Y-113138872D01*
X114873112Y-113157353D01*
X114779712Y-113177206D01*
X114773682Y-113179891D01*
X114773681Y-113179891D01*
X114611278Y-113252197D01*
X114611276Y-113252198D01*
X114605248Y-113254882D01*
X114450747Y-113367134D01*
X114322960Y-113509056D01*
X114227473Y-113674444D01*
X114168458Y-113856072D01*
X114148496Y-114046000D01*
X114168458Y-114235928D01*
X114227473Y-114417556D01*
X114230776Y-114423278D01*
X114230777Y-114423279D01*
X114251789Y-114459672D01*
X114322960Y-114582944D01*
X114327378Y-114587851D01*
X114327379Y-114587852D01*
X114368736Y-114633783D01*
X114399453Y-114697791D01*
X114401100Y-114718094D01*
X114401100Y-117700688D01*
X114381098Y-117768809D01*
X114327442Y-117815302D01*
X114257168Y-117825406D01*
X114223852Y-117815795D01*
X114080323Y-117751892D01*
X114080315Y-117751889D01*
X114074288Y-117749206D01*
X113980887Y-117729353D01*
X113893944Y-117710872D01*
X113893939Y-117710872D01*
X113887487Y-117709500D01*
X113696513Y-117709500D01*
X113690061Y-117710872D01*
X113690056Y-117710872D01*
X113603113Y-117729353D01*
X113509712Y-117749206D01*
X113503682Y-117751891D01*
X113503681Y-117751891D01*
X113341278Y-117824197D01*
X113341276Y-117824198D01*
X113335248Y-117826882D01*
X113329907Y-117830762D01*
X113329906Y-117830763D01*
X113298624Y-117853491D01*
X113180747Y-117939134D01*
X113052960Y-118081056D01*
X113049659Y-118086774D01*
X113012119Y-118151795D01*
X112960737Y-118200788D01*
X112891023Y-118214224D01*
X112825112Y-118187838D01*
X112793881Y-118151795D01*
X112756341Y-118086774D01*
X112753040Y-118081056D01*
X112625253Y-117939134D01*
X112507376Y-117853491D01*
X112476094Y-117830763D01*
X112476093Y-117830762D01*
X112470752Y-117826882D01*
X112464724Y-117824198D01*
X112464722Y-117824197D01*
X112302319Y-117751891D01*
X112302318Y-117751891D01*
X112296288Y-117749206D01*
X112202887Y-117729353D01*
X112115944Y-117710872D01*
X112115939Y-117710872D01*
X112109487Y-117709500D01*
X111918513Y-117709500D01*
X111912061Y-117710872D01*
X111912056Y-117710872D01*
X111825113Y-117729353D01*
X111731712Y-117749206D01*
X111725682Y-117751891D01*
X111725681Y-117751891D01*
X111563278Y-117824197D01*
X111563276Y-117824198D01*
X111557248Y-117826882D01*
X111551907Y-117830762D01*
X111551906Y-117830763D01*
X111520624Y-117853491D01*
X111402747Y-117939134D01*
X111274960Y-118081056D01*
X111271659Y-118086774D01*
X111205833Y-118200788D01*
X111179473Y-118246444D01*
X111120458Y-118428072D01*
X111119768Y-118434633D01*
X111119768Y-118434635D01*
X111107644Y-118549992D01*
X111080631Y-118615649D01*
X111071429Y-118625917D01*
X108722752Y-120974595D01*
X108660440Y-121008620D01*
X108633657Y-121011500D01*
X108616513Y-121011500D01*
X108610061Y-121012872D01*
X108610056Y-121012872D01*
X108523112Y-121031353D01*
X108429712Y-121051206D01*
X108423682Y-121053891D01*
X108423681Y-121053891D01*
X108261278Y-121126197D01*
X108261276Y-121126198D01*
X108255248Y-121128882D01*
X108100747Y-121241134D01*
X107972960Y-121383056D01*
X107877473Y-121548444D01*
X107818458Y-121730072D01*
X107798496Y-121920000D01*
X107818458Y-122109928D01*
X107877473Y-122291556D01*
X107972960Y-122456944D01*
X108100747Y-122598866D01*
X108212378Y-122679971D01*
X108249668Y-122707064D01*
X108293022Y-122763287D01*
X108299097Y-122834023D01*
X108265965Y-122896814D01*
X108249668Y-122910936D01*
X108214796Y-122936272D01*
X108100747Y-123019134D01*
X108096326Y-123024044D01*
X108096325Y-123024045D01*
X108052747Y-123072444D01*
X107972960Y-123161056D01*
X107877473Y-123326444D01*
X107818458Y-123508072D01*
X107798496Y-123698000D01*
X98408724Y-123698000D01*
X98429542Y-123633928D01*
X98449504Y-123444000D01*
X98429542Y-123254072D01*
X98370527Y-123072444D01*
X98339749Y-123019134D01*
X98278343Y-122912777D01*
X98275040Y-122907056D01*
X98229264Y-122856216D01*
X98198547Y-122792209D01*
X98196900Y-122771906D01*
X98196900Y-115366800D01*
X100432496Y-115366800D01*
X100452458Y-115556728D01*
X100511473Y-115738356D01*
X100606960Y-115903744D01*
X100734747Y-116045666D01*
X100889248Y-116157918D01*
X100895276Y-116160602D01*
X100895278Y-116160603D01*
X101057681Y-116232909D01*
X101063712Y-116235594D01*
X101157113Y-116255447D01*
X101244056Y-116273928D01*
X101244061Y-116273928D01*
X101250513Y-116275300D01*
X101267656Y-116275300D01*
X101335777Y-116295302D01*
X101356751Y-116312205D01*
X104212193Y-119167647D01*
X104218046Y-119173912D01*
X104253324Y-119214352D01*
X104259542Y-119218722D01*
X104301884Y-119248480D01*
X104307180Y-119252413D01*
X104353921Y-119289063D01*
X104360845Y-119292189D01*
X104366976Y-119295902D01*
X104371596Y-119298538D01*
X104377978Y-119301960D01*
X104384197Y-119306331D01*
X104391276Y-119309091D01*
X104439513Y-119327898D01*
X104445592Y-119330454D01*
X104499712Y-119354889D01*
X104507188Y-119356275D01*
X104514066Y-119358430D01*
X104519191Y-119359890D01*
X104526155Y-119361678D01*
X104533234Y-119364438D01*
X104540766Y-119365430D01*
X104540768Y-119365430D01*
X104565996Y-119368751D01*
X104592100Y-119372187D01*
X104598598Y-119373216D01*
X104656997Y-119384040D01*
X104664577Y-119383603D01*
X104664578Y-119383603D01*
X104714767Y-119380709D01*
X104722020Y-119380500D01*
X107374679Y-119380500D01*
X107442800Y-119400502D01*
X107448740Y-119404564D01*
X107594848Y-119510718D01*
X107600876Y-119513402D01*
X107600878Y-119513403D01*
X107718996Y-119565992D01*
X107769312Y-119588394D01*
X107862712Y-119608247D01*
X107949656Y-119626728D01*
X107949661Y-119626728D01*
X107956113Y-119628100D01*
X108147087Y-119628100D01*
X108153539Y-119626728D01*
X108153544Y-119626728D01*
X108240488Y-119608247D01*
X108333888Y-119588394D01*
X108384204Y-119565992D01*
X108502322Y-119513403D01*
X108502324Y-119513402D01*
X108508352Y-119510718D01*
X108662853Y-119398466D01*
X108677088Y-119382656D01*
X108786221Y-119261452D01*
X108786222Y-119261451D01*
X108790640Y-119256544D01*
X108886127Y-119091156D01*
X108945142Y-118909528D01*
X108965104Y-118719600D01*
X108955258Y-118625917D01*
X108945832Y-118536235D01*
X108945832Y-118536233D01*
X108945142Y-118529672D01*
X108886127Y-118348044D01*
X108790640Y-118182656D01*
X108662853Y-118040734D01*
X108508352Y-117928482D01*
X108502324Y-117925798D01*
X108502322Y-117925797D01*
X108339919Y-117853491D01*
X108339918Y-117853491D01*
X108333888Y-117850806D01*
X108239594Y-117830763D01*
X108153544Y-117812472D01*
X108153539Y-117812472D01*
X108147087Y-117811100D01*
X107956113Y-117811100D01*
X107949661Y-117812472D01*
X107949656Y-117812472D01*
X107863606Y-117830763D01*
X107769312Y-117850806D01*
X107763282Y-117853491D01*
X107763281Y-117853491D01*
X107600878Y-117925797D01*
X107600876Y-117925798D01*
X107594848Y-117928482D01*
X107589507Y-117932362D01*
X107589506Y-117932363D01*
X107448740Y-118034636D01*
X107381872Y-118058494D01*
X107374679Y-118058700D01*
X105024744Y-118058700D01*
X104956623Y-118038698D01*
X104935649Y-118021795D01*
X102288571Y-115374718D01*
X102254545Y-115312406D01*
X102252356Y-115298793D01*
X102240232Y-115183435D01*
X102240232Y-115183433D01*
X102239542Y-115176872D01*
X102180527Y-114995244D01*
X102085040Y-114829856D01*
X101957253Y-114687934D01*
X101819503Y-114587852D01*
X101808094Y-114579563D01*
X101808093Y-114579562D01*
X101802752Y-114575682D01*
X101796724Y-114572998D01*
X101796722Y-114572997D01*
X101634319Y-114500691D01*
X101634318Y-114500691D01*
X101628288Y-114498006D01*
X101534888Y-114478153D01*
X101447944Y-114459672D01*
X101447939Y-114459672D01*
X101441487Y-114458300D01*
X101250513Y-114458300D01*
X101244061Y-114459672D01*
X101244056Y-114459672D01*
X101157112Y-114478153D01*
X101063712Y-114498006D01*
X101057682Y-114500691D01*
X101057681Y-114500691D01*
X100895278Y-114572997D01*
X100895276Y-114572998D01*
X100889248Y-114575682D01*
X100883907Y-114579562D01*
X100883906Y-114579563D01*
X100872497Y-114587852D01*
X100734747Y-114687934D01*
X100606960Y-114829856D01*
X100511473Y-114995244D01*
X100452458Y-115176872D01*
X100432496Y-115366800D01*
X98196900Y-115366800D01*
X98196900Y-112178094D01*
X98216902Y-112109973D01*
X98229264Y-112093783D01*
X98270621Y-112047852D01*
X98270622Y-112047851D01*
X98275040Y-112042944D01*
X98370527Y-111877556D01*
X98429542Y-111695928D01*
X98436827Y-111626621D01*
X98448814Y-111512565D01*
X98449504Y-111506000D01*
X98436398Y-111381305D01*
X98430232Y-111322635D01*
X98430232Y-111322633D01*
X98429542Y-111316072D01*
X98370527Y-111134444D01*
X98348568Y-111096409D01*
X98311094Y-111031504D01*
X98275040Y-110969056D01*
X98147253Y-110827134D01*
X97992752Y-110714882D01*
X97986724Y-110712198D01*
X97986722Y-110712197D01*
X97824319Y-110639891D01*
X97824318Y-110639891D01*
X97818288Y-110637206D01*
X97724888Y-110617353D01*
X97637944Y-110598872D01*
X97637939Y-110598872D01*
X97631487Y-110597500D01*
X97440513Y-110597500D01*
X97434061Y-110598872D01*
X97434056Y-110598872D01*
X97347112Y-110617353D01*
X97253712Y-110637206D01*
X97247682Y-110639891D01*
X97247681Y-110639891D01*
X97085278Y-110712197D01*
X97085276Y-110712198D01*
X97079248Y-110714882D01*
X96924747Y-110827134D01*
X96796960Y-110969056D01*
X96760906Y-111031504D01*
X96723433Y-111096409D01*
X96701473Y-111134444D01*
X96642458Y-111316072D01*
X96641768Y-111322633D01*
X96641768Y-111322635D01*
X96635602Y-111381305D01*
X96622496Y-111506000D01*
X96623186Y-111512565D01*
X96635174Y-111626621D01*
X96642458Y-111695928D01*
X96701473Y-111877556D01*
X96796960Y-112042944D01*
X96801378Y-112047851D01*
X96801379Y-112047852D01*
X96842736Y-112093783D01*
X96873453Y-112157791D01*
X96875100Y-112178094D01*
X96875100Y-122771906D01*
X96855098Y-122840027D01*
X96842737Y-122856215D01*
X96796960Y-122907056D01*
X96793657Y-122912777D01*
X96732252Y-123019134D01*
X96701473Y-123072444D01*
X96642458Y-123254072D01*
X96622496Y-123444000D01*
X70612500Y-123444000D01*
X70612500Y-107181919D01*
X176324982Y-107181919D01*
X176339376Y-107401533D01*
X176393551Y-107614846D01*
X176485692Y-107814715D01*
X176612713Y-107994446D01*
X176616847Y-107998473D01*
X176727352Y-108106122D01*
X176770360Y-108148019D01*
X176775156Y-108151224D01*
X176775159Y-108151226D01*
X176849394Y-108200828D01*
X176953355Y-108270292D01*
X176958658Y-108272570D01*
X176958661Y-108272572D01*
X177150260Y-108354889D01*
X177155567Y-108357169D01*
X177234550Y-108375041D01*
X177364588Y-108404466D01*
X177364593Y-108404467D01*
X177370225Y-108405741D01*
X177375996Y-108405968D01*
X177375998Y-108405968D01*
X177441408Y-108408538D01*
X177590141Y-108414382D01*
X177699044Y-108398592D01*
X177802234Y-108383630D01*
X177802239Y-108383629D01*
X177807948Y-108382801D01*
X177813412Y-108380946D01*
X177813417Y-108380945D01*
X178010886Y-108313913D01*
X178016354Y-108312057D01*
X178208377Y-108204519D01*
X178377588Y-108063788D01*
X178518319Y-107894577D01*
X178625857Y-107702554D01*
X178653850Y-107620089D01*
X178694745Y-107499617D01*
X178694746Y-107499612D01*
X178696601Y-107494148D01*
X178728182Y-107276341D01*
X178729830Y-107213400D01*
X178709692Y-106994238D01*
X178702602Y-106969096D01*
X178651520Y-106787975D01*
X178651519Y-106787973D01*
X178649952Y-106782416D01*
X178638254Y-106758693D01*
X178555166Y-106590209D01*
X178552611Y-106585028D01*
X178536547Y-106563515D01*
X178511601Y-106530109D01*
X178420928Y-106408683D01*
X178259315Y-106259289D01*
X178254432Y-106256208D01*
X178254428Y-106256205D01*
X178078067Y-106144930D01*
X178078062Y-106144928D01*
X178073183Y-106141849D01*
X178045679Y-106130876D01*
X178001948Y-106113429D01*
X177946088Y-106069608D01*
X177922788Y-106002544D01*
X177939444Y-105933529D01*
X177990768Y-105884474D01*
X178048638Y-105870399D01*
X178260869Y-105870399D01*
X178267690Y-105870029D01*
X178318552Y-105864505D01*
X178333804Y-105860879D01*
X178454254Y-105815724D01*
X178469849Y-105807186D01*
X178571924Y-105730685D01*
X178584485Y-105718124D01*
X178660986Y-105616049D01*
X178669524Y-105600454D01*
X178714678Y-105480006D01*
X178718305Y-105464751D01*
X178723831Y-105413886D01*
X178724200Y-105407072D01*
X178724200Y-104945515D01*
X178719725Y-104930276D01*
X178718335Y-104929071D01*
X178710652Y-104927400D01*
X176348316Y-104927400D01*
X176333077Y-104931875D01*
X176331872Y-104933265D01*
X176330201Y-104940948D01*
X176330201Y-105407069D01*
X176330571Y-105413890D01*
X176336095Y-105464752D01*
X176339721Y-105480004D01*
X176384876Y-105600454D01*
X176393414Y-105616049D01*
X176469915Y-105718124D01*
X176482476Y-105730685D01*
X176584551Y-105807186D01*
X176600146Y-105815724D01*
X176720594Y-105860878D01*
X176735849Y-105864505D01*
X176786714Y-105870031D01*
X176793528Y-105870400D01*
X177001927Y-105870400D01*
X177070048Y-105890402D01*
X177116541Y-105944058D01*
X177126645Y-106014332D01*
X177097151Y-106078912D01*
X177045537Y-106114612D01*
X177014873Y-106125924D01*
X177014865Y-106125928D01*
X177009454Y-106127924D01*
X177004493Y-106130876D01*
X177004492Y-106130876D01*
X176980870Y-106144930D01*
X176820312Y-106240452D01*
X176654843Y-106385564D01*
X176518590Y-106558401D01*
X176515901Y-106563512D01*
X176515899Y-106563515D01*
X176501855Y-106590209D01*
X176416115Y-106753173D01*
X176350850Y-106963359D01*
X176324982Y-107181919D01*
X70612500Y-107181919D01*
X70612500Y-98729800D01*
X83541496Y-98729800D01*
X83542186Y-98736365D01*
X83552211Y-98831743D01*
X83561458Y-98919728D01*
X83620473Y-99101356D01*
X83623776Y-99107078D01*
X83623777Y-99107079D01*
X83657686Y-99165810D01*
X83715960Y-99266744D01*
X83720378Y-99271651D01*
X83720379Y-99271652D01*
X83773354Y-99330487D01*
X83843747Y-99408666D01*
X83849089Y-99412547D01*
X83849091Y-99412549D01*
X83939291Y-99478083D01*
X83982645Y-99534305D01*
X83988720Y-99605042D01*
X83958866Y-99664329D01*
X83891753Y-99738866D01*
X83842960Y-99793056D01*
X83826249Y-99822000D01*
X83753792Y-99947500D01*
X83747473Y-99958444D01*
X83688458Y-100140072D01*
X83687769Y-100146631D01*
X83687768Y-100146634D01*
X83679679Y-100223600D01*
X83661298Y-100272633D01*
X83662928Y-100273507D01*
X83659340Y-100280198D01*
X83654970Y-100286416D01*
X83652210Y-100293495D01*
X83652209Y-100293497D01*
X83631652Y-100346224D01*
X83629100Y-100352297D01*
X83602680Y-100410809D01*
X83601296Y-100418277D01*
X83600588Y-100420536D01*
X83595751Y-100437518D01*
X83595158Y-100439827D01*
X83592397Y-100446908D01*
X83591406Y-100454437D01*
X83591405Y-100454440D01*
X83584017Y-100510556D01*
X83582985Y-100517070D01*
X83582257Y-100521000D01*
X83571288Y-100580183D01*
X83571725Y-100587763D01*
X83571725Y-100587764D01*
X83574891Y-100642670D01*
X83575100Y-100649923D01*
X83575100Y-103663370D01*
X83574808Y-103671940D01*
X83570855Y-103729921D01*
X83572160Y-103737397D01*
X83572160Y-103737400D01*
X83581896Y-103793183D01*
X83582859Y-103799708D01*
X83589655Y-103855867D01*
X83590568Y-103863411D01*
X83593254Y-103870519D01*
X83593819Y-103872819D01*
X83598486Y-103889880D01*
X83599166Y-103892134D01*
X83600472Y-103899615D01*
X83618081Y-103939728D01*
X83626275Y-103958395D01*
X83628767Y-103964502D01*
X83645754Y-104009456D01*
X83651457Y-104024549D01*
X83655756Y-104030804D01*
X83656849Y-104032895D01*
X83665455Y-104048357D01*
X83666658Y-104050391D01*
X83669711Y-104057346D01*
X83674334Y-104063371D01*
X83674337Y-104063376D01*
X83708788Y-104108274D01*
X83712664Y-104113609D01*
X83744718Y-104160247D01*
X83744723Y-104160253D01*
X83749025Y-104166512D01*
X83754699Y-104171567D01*
X83795772Y-104208162D01*
X83801048Y-104213143D01*
X84206667Y-104618762D01*
X84240693Y-104681074D01*
X84242881Y-104694683D01*
X84247258Y-104736328D01*
X84306273Y-104917956D01*
X84309576Y-104923678D01*
X84309577Y-104923679D01*
X84312587Y-104928892D01*
X84401760Y-105083344D01*
X84529547Y-105225266D01*
X84684048Y-105337518D01*
X84690076Y-105340202D01*
X84690078Y-105340203D01*
X84852481Y-105412509D01*
X84858512Y-105415194D01*
X84951913Y-105435047D01*
X85038856Y-105453528D01*
X85038861Y-105453528D01*
X85045313Y-105454900D01*
X85236287Y-105454900D01*
X85242739Y-105453528D01*
X85242744Y-105453528D01*
X85329687Y-105435047D01*
X85423088Y-105415194D01*
X85429119Y-105412509D01*
X85591522Y-105340203D01*
X85591524Y-105340202D01*
X85597552Y-105337518D01*
X85752053Y-105225266D01*
X85879840Y-105083344D01*
X85969013Y-104928892D01*
X85972023Y-104923679D01*
X85972024Y-104923678D01*
X85975327Y-104917956D01*
X86034342Y-104736328D01*
X86038719Y-104694688D01*
X86053614Y-104552965D01*
X86054304Y-104546400D01*
X86041844Y-104427852D01*
X86035032Y-104363035D01*
X86035032Y-104363033D01*
X86034342Y-104356472D01*
X85975327Y-104174844D01*
X85969539Y-104164818D01*
X85918218Y-104075928D01*
X85879840Y-104009456D01*
X85817060Y-103939731D01*
X85756475Y-103872445D01*
X85756474Y-103872444D01*
X85752053Y-103867534D01*
X85613858Y-103767129D01*
X85602894Y-103759163D01*
X85602893Y-103759162D01*
X85597552Y-103755282D01*
X85591524Y-103752598D01*
X85591522Y-103752597D01*
X85429119Y-103680291D01*
X85429118Y-103680291D01*
X85423088Y-103677606D01*
X85275978Y-103646336D01*
X85213081Y-103612185D01*
X85035405Y-103434509D01*
X85001379Y-103372197D01*
X84998500Y-103345414D01*
X84998500Y-101214563D01*
X85018502Y-101146442D01*
X85050439Y-101112627D01*
X85108274Y-101070607D01*
X85193253Y-101008866D01*
X85218419Y-100980916D01*
X85316621Y-100871852D01*
X85316622Y-100871851D01*
X85321040Y-100866944D01*
X85416527Y-100701556D01*
X85475542Y-100519928D01*
X85477138Y-100504749D01*
X85494814Y-100336565D01*
X85495504Y-100330000D01*
X85475542Y-100140072D01*
X85473502Y-100133794D01*
X85473502Y-100133792D01*
X85466563Y-100112438D01*
X85464534Y-100041471D01*
X85501195Y-99980672D01*
X85564907Y-99949346D01*
X85586395Y-99947500D01*
X87639980Y-99947500D01*
X87708101Y-99967502D01*
X87754594Y-100021158D01*
X87759813Y-100034563D01*
X87811473Y-100193556D01*
X87828819Y-100223600D01*
X87869396Y-100293882D01*
X87886133Y-100362877D01*
X87862912Y-100429969D01*
X87849371Y-100445976D01*
X86927961Y-101367386D01*
X86921696Y-101373239D01*
X86881248Y-101408524D01*
X86863312Y-101434045D01*
X86847109Y-101457099D01*
X86843177Y-101462393D01*
X86806537Y-101509121D01*
X86803411Y-101516045D01*
X86799698Y-101522176D01*
X86797062Y-101526796D01*
X86793640Y-101533178D01*
X86789269Y-101539397D01*
X86786509Y-101546476D01*
X86767702Y-101594713D01*
X86765146Y-101600792D01*
X86740711Y-101654912D01*
X86739325Y-101662388D01*
X86737170Y-101669266D01*
X86735710Y-101674391D01*
X86733922Y-101681355D01*
X86731162Y-101688434D01*
X86730170Y-101695966D01*
X86730170Y-101695968D01*
X86727793Y-101714025D01*
X86723506Y-101746596D01*
X86723414Y-101747292D01*
X86722384Y-101753798D01*
X86711560Y-101812197D01*
X86711997Y-101819777D01*
X86711997Y-101819778D01*
X86714891Y-101869967D01*
X86715100Y-101877220D01*
X86715100Y-103213906D01*
X86695098Y-103282027D01*
X86682737Y-103298215D01*
X86636960Y-103349056D01*
X86633657Y-103354777D01*
X86560052Y-103482265D01*
X86541473Y-103514444D01*
X86482458Y-103696072D01*
X86481768Y-103702633D01*
X86481768Y-103702635D01*
X86467390Y-103839435D01*
X86462496Y-103886000D01*
X86463186Y-103892565D01*
X86480920Y-104061291D01*
X86482458Y-104075928D01*
X86541473Y-104257556D01*
X86544776Y-104263278D01*
X86544777Y-104263279D01*
X86562004Y-104293116D01*
X86636960Y-104422944D01*
X86641378Y-104427851D01*
X86641379Y-104427852D01*
X86760325Y-104559955D01*
X86764747Y-104564866D01*
X86919248Y-104677118D01*
X86925276Y-104679802D01*
X86925278Y-104679803D01*
X87087681Y-104752109D01*
X87093712Y-104754794D01*
X87187112Y-104774647D01*
X87274056Y-104793128D01*
X87274061Y-104793128D01*
X87280513Y-104794500D01*
X87471487Y-104794500D01*
X87477939Y-104793128D01*
X87477944Y-104793128D01*
X87564888Y-104774647D01*
X87658288Y-104754794D01*
X87664319Y-104752109D01*
X87826722Y-104679803D01*
X87826724Y-104679802D01*
X87832752Y-104677118D01*
X87987253Y-104564866D01*
X87991675Y-104559955D01*
X88110621Y-104427852D01*
X88110622Y-104427851D01*
X88115040Y-104422944D01*
X88189996Y-104293116D01*
X88207223Y-104263279D01*
X88207224Y-104263278D01*
X88210527Y-104257556D01*
X88269542Y-104075928D01*
X88271081Y-104061291D01*
X88288814Y-103892565D01*
X88289504Y-103886000D01*
X88284610Y-103839435D01*
X88270232Y-103702635D01*
X88270232Y-103702633D01*
X88269542Y-103696072D01*
X88210527Y-103514444D01*
X88191949Y-103482265D01*
X88118343Y-103354777D01*
X88115040Y-103349056D01*
X88069264Y-103298216D01*
X88038547Y-103234209D01*
X88036900Y-103213906D01*
X88036900Y-102973326D01*
X125681822Y-102973326D01*
X125682512Y-102979891D01*
X125690239Y-103053405D01*
X125701784Y-103163254D01*
X125760799Y-103344882D01*
X125856286Y-103510270D01*
X125860704Y-103515177D01*
X125860705Y-103515178D01*
X125951589Y-103616115D01*
X125984073Y-103652192D01*
X126044638Y-103696195D01*
X126125964Y-103755282D01*
X126138574Y-103764444D01*
X126144602Y-103767128D01*
X126144604Y-103767129D01*
X126307007Y-103839435D01*
X126313038Y-103842120D01*
X126406439Y-103861973D01*
X126493382Y-103880454D01*
X126493387Y-103880454D01*
X126499839Y-103881826D01*
X126516982Y-103881826D01*
X126585103Y-103901828D01*
X126606077Y-103918731D01*
X126767393Y-104080047D01*
X126773246Y-104086312D01*
X126808524Y-104126752D01*
X126856182Y-104160247D01*
X126857093Y-104160887D01*
X126862386Y-104164818D01*
X126867874Y-104169121D01*
X126909122Y-104201463D01*
X126916050Y-104204591D01*
X126922206Y-104208319D01*
X126926825Y-104210954D01*
X126933181Y-104214362D01*
X126939397Y-104218731D01*
X126946476Y-104221491D01*
X126994698Y-104240292D01*
X127000779Y-104242848D01*
X127054912Y-104267290D01*
X127062386Y-104268675D01*
X127069220Y-104270817D01*
X127074368Y-104272284D01*
X127081353Y-104274077D01*
X127088434Y-104276838D01*
X127095971Y-104277830D01*
X127095970Y-104277830D01*
X127147289Y-104284586D01*
X127153805Y-104285618D01*
X127204728Y-104295056D01*
X127204730Y-104295056D01*
X127212197Y-104296440D01*
X127219777Y-104296003D01*
X127219778Y-104296003D01*
X127269968Y-104293109D01*
X127277221Y-104292900D01*
X129672255Y-104292900D01*
X129740376Y-104312902D01*
X129786869Y-104366558D01*
X129796973Y-104436832D01*
X129767479Y-104501412D01*
X129761351Y-104507995D01*
X129550752Y-104718595D01*
X129488440Y-104752620D01*
X129461656Y-104755500D01*
X129444513Y-104755500D01*
X129438061Y-104756872D01*
X129438056Y-104756872D01*
X129351113Y-104775353D01*
X129257712Y-104795206D01*
X129251682Y-104797891D01*
X129251681Y-104797891D01*
X129089278Y-104870197D01*
X129089276Y-104870198D01*
X129083248Y-104872882D01*
X129077907Y-104876762D01*
X129077906Y-104876763D01*
X129049100Y-104897692D01*
X128928747Y-104985134D01*
X128924326Y-104990044D01*
X128924325Y-104990045D01*
X128862846Y-105058325D01*
X128800960Y-105127056D01*
X128705473Y-105292444D01*
X128646458Y-105474072D01*
X128626496Y-105664000D01*
X128627186Y-105670565D01*
X128642443Y-105815724D01*
X128646458Y-105853928D01*
X128705473Y-106035556D01*
X128800960Y-106200944D01*
X128805378Y-106205851D01*
X128805379Y-106205852D01*
X128850717Y-106256205D01*
X128928747Y-106342866D01*
X129083248Y-106455118D01*
X129089276Y-106457802D01*
X129089278Y-106457803D01*
X129251681Y-106530109D01*
X129257712Y-106532794D01*
X129351113Y-106552647D01*
X129438056Y-106571128D01*
X129438061Y-106571128D01*
X129444513Y-106572500D01*
X129635487Y-106572500D01*
X129641939Y-106571128D01*
X129641944Y-106571128D01*
X129728888Y-106552647D01*
X129822288Y-106532794D01*
X129828319Y-106530109D01*
X129990722Y-106457803D01*
X129990724Y-106457802D01*
X129996752Y-106455118D01*
X130151253Y-106342866D01*
X130229283Y-106256205D01*
X130274621Y-106205852D01*
X130274622Y-106205851D01*
X130279040Y-106200944D01*
X130374527Y-106035556D01*
X130433542Y-105853928D01*
X130446356Y-105732007D01*
X130473369Y-105666351D01*
X130475476Y-105664000D01*
X147930496Y-105664000D01*
X147931186Y-105670565D01*
X147946443Y-105815724D01*
X147950458Y-105853928D01*
X148009473Y-106035556D01*
X148104960Y-106200944D01*
X148109378Y-106205851D01*
X148109379Y-106205852D01*
X148154717Y-106256205D01*
X148232747Y-106342866D01*
X148387248Y-106455118D01*
X148393276Y-106457802D01*
X148393278Y-106457803D01*
X148555681Y-106530109D01*
X148561712Y-106532794D01*
X148655113Y-106552647D01*
X148742056Y-106571128D01*
X148742061Y-106571128D01*
X148748513Y-106572500D01*
X148939487Y-106572500D01*
X148945939Y-106571128D01*
X148945944Y-106571128D01*
X149032888Y-106552647D01*
X149126288Y-106532794D01*
X149132319Y-106530109D01*
X149294722Y-106457803D01*
X149294724Y-106457802D01*
X149300752Y-106455118D01*
X149455253Y-106342866D01*
X149533283Y-106256205D01*
X149578621Y-106205852D01*
X149578622Y-106205851D01*
X149583040Y-106200944D01*
X149678527Y-106035556D01*
X149737542Y-105853928D01*
X149750356Y-105732007D01*
X149777369Y-105666351D01*
X149786571Y-105656083D01*
X149817449Y-105625205D01*
X149879761Y-105591179D01*
X149906544Y-105588300D01*
X153007279Y-105588300D01*
X153075400Y-105608302D01*
X153081340Y-105612364D01*
X153161447Y-105670565D01*
X153227448Y-105718518D01*
X153233476Y-105721202D01*
X153233478Y-105721203D01*
X153257747Y-105732008D01*
X153401912Y-105796194D01*
X153493793Y-105815724D01*
X153582256Y-105834528D01*
X153582261Y-105834528D01*
X153588713Y-105835900D01*
X153779687Y-105835900D01*
X153786139Y-105834528D01*
X153786144Y-105834528D01*
X153874607Y-105815724D01*
X153966488Y-105796194D01*
X154110653Y-105732008D01*
X154134922Y-105721203D01*
X154134924Y-105721202D01*
X154140952Y-105718518D01*
X154295453Y-105606266D01*
X154300686Y-105600454D01*
X154418821Y-105469252D01*
X154418822Y-105469251D01*
X154423240Y-105464344D01*
X154518727Y-105298956D01*
X154577742Y-105117328D01*
X154583944Y-105058325D01*
X154597014Y-104933965D01*
X154597704Y-104927400D01*
X154579334Y-104752620D01*
X154578432Y-104744035D01*
X154578432Y-104744033D01*
X154577742Y-104737472D01*
X154518727Y-104555844D01*
X154513275Y-104546400D01*
X154444922Y-104428011D01*
X154429492Y-104401285D01*
X176330200Y-104401285D01*
X176334675Y-104416524D01*
X176336065Y-104417729D01*
X176343748Y-104419400D01*
X177255085Y-104419400D01*
X177270324Y-104414925D01*
X177271529Y-104413535D01*
X177273200Y-104405852D01*
X177273200Y-104401285D01*
X177781200Y-104401285D01*
X177785675Y-104416524D01*
X177787065Y-104417729D01*
X177794748Y-104419400D01*
X178706084Y-104419400D01*
X178721323Y-104414925D01*
X178722528Y-104413535D01*
X178724199Y-104405852D01*
X178724199Y-103939731D01*
X178723829Y-103932910D01*
X178718305Y-103882048D01*
X178714679Y-103866796D01*
X178669524Y-103746346D01*
X178660986Y-103730751D01*
X178584485Y-103628676D01*
X178571924Y-103616115D01*
X178469849Y-103539614D01*
X178454254Y-103531076D01*
X178333806Y-103485922D01*
X178318551Y-103482295D01*
X178267686Y-103476769D01*
X178260872Y-103476400D01*
X177799315Y-103476400D01*
X177784076Y-103480875D01*
X177782871Y-103482265D01*
X177781200Y-103489948D01*
X177781200Y-104401285D01*
X177273200Y-104401285D01*
X177273200Y-103494516D01*
X177268725Y-103479277D01*
X177267335Y-103478072D01*
X177259652Y-103476401D01*
X176793531Y-103476401D01*
X176786710Y-103476771D01*
X176735848Y-103482295D01*
X176720596Y-103485921D01*
X176600146Y-103531076D01*
X176584551Y-103539614D01*
X176482476Y-103616115D01*
X176469915Y-103628676D01*
X176393414Y-103730751D01*
X176384876Y-103746346D01*
X176339722Y-103866794D01*
X176336095Y-103882049D01*
X176330569Y-103932914D01*
X176330200Y-103939728D01*
X176330200Y-104401285D01*
X154429492Y-104401285D01*
X154423240Y-104390456D01*
X154356572Y-104316413D01*
X154299875Y-104253445D01*
X154299874Y-104253444D01*
X154295453Y-104248534D01*
X154140952Y-104136282D01*
X154134924Y-104133598D01*
X154134922Y-104133597D01*
X153972519Y-104061291D01*
X153972518Y-104061291D01*
X153966488Y-104058606D01*
X153873088Y-104038753D01*
X153786144Y-104020272D01*
X153786139Y-104020272D01*
X153779687Y-104018900D01*
X153588713Y-104018900D01*
X153582261Y-104020272D01*
X153582256Y-104020272D01*
X153495313Y-104038753D01*
X153401912Y-104058606D01*
X153395882Y-104061291D01*
X153395881Y-104061291D01*
X153233478Y-104133597D01*
X153233476Y-104133598D01*
X153227448Y-104136282D01*
X153222107Y-104140162D01*
X153222106Y-104140163D01*
X153081340Y-104242436D01*
X153014472Y-104266294D01*
X153007279Y-104266500D01*
X149607867Y-104266500D01*
X149599297Y-104266208D01*
X149553333Y-104263074D01*
X149553329Y-104263074D01*
X149545757Y-104262558D01*
X149538280Y-104263863D01*
X149538279Y-104263863D01*
X149523170Y-104266500D01*
X149487247Y-104272770D01*
X149480767Y-104273727D01*
X149421795Y-104280863D01*
X149414687Y-104283549D01*
X149407701Y-104285265D01*
X149402575Y-104286667D01*
X149395665Y-104288753D01*
X149388177Y-104290060D01*
X149354586Y-104304806D01*
X149333823Y-104313920D01*
X149327715Y-104316413D01*
X149279262Y-104334722D01*
X149272159Y-104337406D01*
X149265901Y-104341707D01*
X149259573Y-104345015D01*
X149254808Y-104347668D01*
X149248659Y-104351305D01*
X149241704Y-104354358D01*
X149194589Y-104390511D01*
X149189285Y-104394364D01*
X149146592Y-104423706D01*
X149146589Y-104423708D01*
X149140329Y-104428011D01*
X149135274Y-104433685D01*
X149101824Y-104471228D01*
X149096843Y-104476504D01*
X148854752Y-104718595D01*
X148792440Y-104752621D01*
X148765657Y-104755500D01*
X148748513Y-104755500D01*
X148742061Y-104756872D01*
X148742056Y-104756872D01*
X148655113Y-104775353D01*
X148561712Y-104795206D01*
X148555682Y-104797891D01*
X148555681Y-104797891D01*
X148393278Y-104870197D01*
X148393276Y-104870198D01*
X148387248Y-104872882D01*
X148381907Y-104876762D01*
X148381906Y-104876763D01*
X148353100Y-104897692D01*
X148232747Y-104985134D01*
X148228326Y-104990044D01*
X148228325Y-104990045D01*
X148166846Y-105058325D01*
X148104960Y-105127056D01*
X148009473Y-105292444D01*
X147950458Y-105474072D01*
X147930496Y-105664000D01*
X130475476Y-105664000D01*
X130482571Y-105656083D01*
X131046849Y-105091805D01*
X131109161Y-105057779D01*
X131135944Y-105054900D01*
X134338737Y-105054900D01*
X134347308Y-105055192D01*
X134400843Y-105058842D01*
X134408320Y-105057537D01*
X134408321Y-105057537D01*
X134433626Y-105053121D01*
X134459347Y-105048631D01*
X134465865Y-105047670D01*
X134484223Y-105045448D01*
X134517262Y-105041450D01*
X134517264Y-105041450D01*
X134524805Y-105040537D01*
X134531913Y-105037851D01*
X134538879Y-105036140D01*
X134544068Y-105034721D01*
X134550947Y-105032644D01*
X134558424Y-105031339D01*
X134612795Y-105007471D01*
X134618886Y-105004986D01*
X134667336Y-104986679D01*
X134667338Y-104986678D01*
X134674441Y-104983994D01*
X134680702Y-104979691D01*
X134687026Y-104976385D01*
X134691798Y-104973729D01*
X134697944Y-104970094D01*
X134704896Y-104967042D01*
X134748916Y-104933265D01*
X134752001Y-104930898D01*
X134757334Y-104927023D01*
X134806271Y-104893389D01*
X134844769Y-104850180D01*
X134849749Y-104844905D01*
X137153548Y-102541106D01*
X137215860Y-102507080D01*
X137242643Y-102504201D01*
X137259786Y-102504201D01*
X137266238Y-102502829D01*
X137266243Y-102502829D01*
X137353186Y-102484348D01*
X137446587Y-102464495D01*
X137452618Y-102461810D01*
X137615021Y-102389504D01*
X137615023Y-102389503D01*
X137621051Y-102386819D01*
X137775552Y-102274567D01*
X137903339Y-102132645D01*
X137988889Y-101984468D01*
X137995522Y-101972980D01*
X137995523Y-101972979D01*
X137998826Y-101967257D01*
X138057841Y-101785629D01*
X138061871Y-101747292D01*
X138077113Y-101602266D01*
X138077803Y-101595701D01*
X138074469Y-101563975D01*
X138058531Y-101412336D01*
X138058531Y-101412334D01*
X138057841Y-101405773D01*
X137998826Y-101224145D01*
X137903339Y-101058757D01*
X137828481Y-100975618D01*
X137779974Y-100921746D01*
X137779973Y-100921745D01*
X137775552Y-100916835D01*
X137669289Y-100839630D01*
X137626393Y-100808464D01*
X137626392Y-100808463D01*
X137621051Y-100804583D01*
X137615023Y-100801899D01*
X137615021Y-100801898D01*
X137452618Y-100729592D01*
X137452617Y-100729592D01*
X137446587Y-100726907D01*
X137327321Y-100701556D01*
X137266243Y-100688573D01*
X137266238Y-100688573D01*
X137259786Y-100687201D01*
X137068812Y-100687201D01*
X137062360Y-100688573D01*
X137062355Y-100688573D01*
X137001277Y-100701556D01*
X136882011Y-100726907D01*
X136875981Y-100729592D01*
X136875980Y-100729592D01*
X136713577Y-100801898D01*
X136713575Y-100801899D01*
X136707547Y-100804583D01*
X136702206Y-100808463D01*
X136702205Y-100808464D01*
X136659309Y-100839630D01*
X136553046Y-100916835D01*
X136548625Y-100921745D01*
X136548624Y-100921746D01*
X136500118Y-100975618D01*
X136425259Y-101058757D01*
X136329772Y-101224145D01*
X136270757Y-101405773D01*
X136270067Y-101412334D01*
X136270067Y-101412336D01*
X136266023Y-101450811D01*
X136259066Y-101517012D01*
X136257943Y-101527693D01*
X136230930Y-101593350D01*
X136221728Y-101603618D01*
X134129152Y-103696195D01*
X134066840Y-103730220D01*
X134040057Y-103733100D01*
X133217744Y-103733100D01*
X133149623Y-103713098D01*
X133103130Y-103659442D01*
X133093026Y-103589168D01*
X133122520Y-103524588D01*
X133128649Y-103518005D01*
X133593249Y-103053405D01*
X133655561Y-103019379D01*
X133682344Y-103016500D01*
X133699487Y-103016500D01*
X133705939Y-103015128D01*
X133705944Y-103015128D01*
X133792888Y-102996647D01*
X133886288Y-102976794D01*
X133892319Y-102974109D01*
X134054722Y-102901803D01*
X134054724Y-102901802D01*
X134060752Y-102899118D01*
X134215253Y-102786866D01*
X134343040Y-102644944D01*
X134438527Y-102479556D01*
X134497542Y-102297928D01*
X134499998Y-102274567D01*
X134516814Y-102114565D01*
X134517504Y-102108000D01*
X134515020Y-102084366D01*
X134498232Y-101924635D01*
X134498232Y-101924633D01*
X134497542Y-101918072D01*
X134438527Y-101736444D01*
X134419740Y-101703903D01*
X134372481Y-101622050D01*
X134343040Y-101571056D01*
X134313538Y-101538290D01*
X134219675Y-101434045D01*
X134219674Y-101434044D01*
X134215253Y-101429134D01*
X134060752Y-101316882D01*
X134054724Y-101314198D01*
X134054722Y-101314197D01*
X133892319Y-101241891D01*
X133892318Y-101241891D01*
X133886288Y-101239206D01*
X133788508Y-101218422D01*
X133705944Y-101200872D01*
X133705939Y-101200872D01*
X133699487Y-101199500D01*
X133508513Y-101199500D01*
X133502061Y-101200872D01*
X133502056Y-101200872D01*
X133419492Y-101218422D01*
X133321712Y-101239206D01*
X133315682Y-101241891D01*
X133315681Y-101241891D01*
X133153278Y-101314197D01*
X133153276Y-101314198D01*
X133147248Y-101316882D01*
X133141907Y-101320762D01*
X133141906Y-101320763D01*
X132993515Y-101428576D01*
X132987450Y-101430740D01*
X132973229Y-101450811D01*
X132894463Y-101538290D01*
X132864960Y-101571056D01*
X132835519Y-101622050D01*
X132788261Y-101703903D01*
X132769473Y-101736444D01*
X132710458Y-101918072D01*
X132709768Y-101924633D01*
X132709768Y-101924635D01*
X132697644Y-102039991D01*
X132670631Y-102105648D01*
X132661430Y-102115916D01*
X131843152Y-102934195D01*
X131780839Y-102968220D01*
X131754056Y-102971100D01*
X127622047Y-102971100D01*
X127553926Y-102951098D01*
X127507433Y-102897442D01*
X127496737Y-102858270D01*
X127489558Y-102789961D01*
X127489558Y-102789959D01*
X127488868Y-102783398D01*
X127429853Y-102601770D01*
X127334366Y-102436382D01*
X127235406Y-102326475D01*
X127211001Y-102299371D01*
X127211000Y-102299370D01*
X127206579Y-102294460D01*
X127052078Y-102182208D01*
X127046050Y-102179524D01*
X127046048Y-102179523D01*
X126883645Y-102107217D01*
X126883644Y-102107217D01*
X126877614Y-102104532D01*
X126782741Y-102084366D01*
X126697270Y-102066198D01*
X126697265Y-102066198D01*
X126690813Y-102064826D01*
X126499839Y-102064826D01*
X126493387Y-102066198D01*
X126493382Y-102066198D01*
X126407911Y-102084366D01*
X126313038Y-102104532D01*
X126307008Y-102107217D01*
X126307007Y-102107217D01*
X126144604Y-102179523D01*
X126144602Y-102179524D01*
X126138574Y-102182208D01*
X125984073Y-102294460D01*
X125979652Y-102299370D01*
X125979651Y-102299371D01*
X125955247Y-102326475D01*
X125856286Y-102436382D01*
X125760799Y-102601770D01*
X125701784Y-102783398D01*
X125681822Y-102973326D01*
X88036900Y-102973326D01*
X88036900Y-102271420D01*
X106350575Y-102271420D01*
X106353358Y-102275138D01*
X106491400Y-102326475D01*
X106504991Y-102329864D01*
X106656808Y-102350121D01*
X106670804Y-102350414D01*
X106823331Y-102336533D01*
X106837055Y-102333716D01*
X106982719Y-102286387D01*
X106995469Y-102280603D01*
X106997299Y-102279512D01*
X107004802Y-102271420D01*
X107875575Y-102271420D01*
X107878358Y-102275138D01*
X108016400Y-102326475D01*
X108029991Y-102329864D01*
X108181808Y-102350121D01*
X108195804Y-102350414D01*
X108348331Y-102336533D01*
X108362055Y-102333716D01*
X108507719Y-102286387D01*
X108520469Y-102280603D01*
X108522299Y-102279512D01*
X108531887Y-102269171D01*
X108528381Y-102260757D01*
X108217312Y-101949688D01*
X108203368Y-101942074D01*
X108201533Y-101942205D01*
X108194923Y-101946453D01*
X107882334Y-102259041D01*
X107875575Y-102271420D01*
X107004802Y-102271420D01*
X107006887Y-102269171D01*
X107003381Y-102260757D01*
X106692312Y-101949688D01*
X106678368Y-101942074D01*
X106676533Y-101942205D01*
X106669923Y-101946453D01*
X106357334Y-102259041D01*
X106350575Y-102271420D01*
X88036900Y-102271420D01*
X88036900Y-102179944D01*
X88056902Y-102111823D01*
X88073805Y-102090849D01*
X88655734Y-101508920D01*
X105588075Y-101508920D01*
X105590858Y-101512638D01*
X105728900Y-101563975D01*
X105742491Y-101567364D01*
X105830542Y-101579112D01*
X105895419Y-101607947D01*
X105934407Y-101667280D01*
X105939277Y-101691709D01*
X105944990Y-101749971D01*
X105947901Y-101763664D01*
X105996246Y-101908993D01*
X106001213Y-101919743D01*
X106010988Y-101928680D01*
X106019607Y-101925018D01*
X106330816Y-101613808D01*
X106337193Y-101602129D01*
X107020574Y-101602129D01*
X107020705Y-101603967D01*
X107024955Y-101610579D01*
X107337122Y-101922747D01*
X107349501Y-101929506D01*
X107369006Y-101914905D01*
X107435527Y-101890094D01*
X107504901Y-101905186D01*
X107529533Y-101922779D01*
X107535988Y-101928680D01*
X107544607Y-101925018D01*
X107855816Y-101613808D01*
X107862193Y-101602129D01*
X108545574Y-101602129D01*
X108545705Y-101603967D01*
X108549955Y-101610579D01*
X108862122Y-101922747D01*
X108874501Y-101929506D01*
X108878317Y-101926649D01*
X108928646Y-101794157D01*
X108932128Y-101780596D01*
X108945321Y-101686724D01*
X108974609Y-101622050D01*
X109034213Y-101583477D01*
X109058676Y-101578778D01*
X109110840Y-101574031D01*
X109124555Y-101571216D01*
X109270219Y-101523887D01*
X109282969Y-101518103D01*
X109284799Y-101517012D01*
X109294387Y-101506671D01*
X109290881Y-101498257D01*
X108979812Y-101187188D01*
X108965868Y-101179574D01*
X108964033Y-101179705D01*
X108957423Y-101183953D01*
X108579505Y-101561870D01*
X108579503Y-101561872D01*
X108553185Y-101588191D01*
X108545574Y-101602129D01*
X107862193Y-101602129D01*
X107863427Y-101599870D01*
X107863295Y-101598034D01*
X107859046Y-101591422D01*
X107481130Y-101213505D01*
X107481128Y-101213503D01*
X107454809Y-101187185D01*
X107440871Y-101179574D01*
X107439033Y-101179705D01*
X107432421Y-101183955D01*
X107054505Y-101561870D01*
X107054503Y-101561872D01*
X107028185Y-101588191D01*
X107020574Y-101602129D01*
X106337193Y-101602129D01*
X106338427Y-101599870D01*
X106338295Y-101598034D01*
X106334046Y-101591422D01*
X105956130Y-101213505D01*
X105956128Y-101213503D01*
X105929809Y-101187185D01*
X105915871Y-101179574D01*
X105914033Y-101179705D01*
X105907421Y-101183955D01*
X105594834Y-101496541D01*
X105588075Y-101508920D01*
X88655734Y-101508920D01*
X89094047Y-101070607D01*
X89100313Y-101064753D01*
X89135025Y-101034472D01*
X89140752Y-101029476D01*
X89174882Y-100980913D01*
X89178814Y-100975618D01*
X89210777Y-100934855D01*
X89215463Y-100928879D01*
X89218589Y-100921955D01*
X89222302Y-100915824D01*
X89224938Y-100911204D01*
X89228360Y-100904822D01*
X89232731Y-100898603D01*
X89254299Y-100843286D01*
X89256854Y-100837207D01*
X89257834Y-100835037D01*
X105167544Y-100835037D01*
X105182490Y-100987470D01*
X105185401Y-101001164D01*
X105233746Y-101146493D01*
X105238713Y-101157243D01*
X105248488Y-101166180D01*
X105257107Y-101162518D01*
X105568316Y-100851308D01*
X105574693Y-100839629D01*
X106258074Y-100839629D01*
X106258205Y-100841468D01*
X106262453Y-100848077D01*
X106292005Y-100877630D01*
X106292004Y-100877630D01*
X106292005Y-100877631D01*
X106666690Y-101252315D01*
X106680630Y-101259927D01*
X106682466Y-101259795D01*
X106689078Y-101255546D01*
X107066995Y-100877630D01*
X107066997Y-100877628D01*
X107093315Y-100851309D01*
X107099693Y-100839629D01*
X107783074Y-100839629D01*
X107783205Y-100841468D01*
X107787453Y-100848077D01*
X107817005Y-100877630D01*
X107817004Y-100877630D01*
X107817005Y-100877631D01*
X108191690Y-101252315D01*
X108205630Y-101259927D01*
X108207466Y-101259795D01*
X108214078Y-101255546D01*
X108591995Y-100877630D01*
X108591997Y-100877628D01*
X108618315Y-100851309D01*
X108624692Y-100839630D01*
X109308073Y-100839630D01*
X109308205Y-100841466D01*
X109312454Y-100848078D01*
X109624622Y-101160247D01*
X109637001Y-101167006D01*
X109640817Y-101164149D01*
X109659231Y-101115674D01*
X129666170Y-101115674D01*
X129666860Y-101122239D01*
X129683169Y-101277406D01*
X129686132Y-101305602D01*
X129745147Y-101487230D01*
X129748450Y-101492952D01*
X129748451Y-101492953D01*
X129765323Y-101522176D01*
X129840634Y-101652618D01*
X129845052Y-101657525D01*
X129845053Y-101657526D01*
X129961148Y-101786463D01*
X129968421Y-101794540D01*
X130122922Y-101906792D01*
X130128950Y-101909476D01*
X130128952Y-101909477D01*
X130258729Y-101967257D01*
X130297386Y-101984468D01*
X130390786Y-102004321D01*
X130477730Y-102022802D01*
X130477735Y-102022802D01*
X130484187Y-102024174D01*
X130675161Y-102024174D01*
X130681613Y-102022802D01*
X130681618Y-102022802D01*
X130768562Y-102004321D01*
X130861962Y-101984468D01*
X130900619Y-101967257D01*
X131030396Y-101909477D01*
X131030398Y-101909476D01*
X131036426Y-101906792D01*
X131190927Y-101794540D01*
X131195342Y-101789637D01*
X131200254Y-101785214D01*
X131201379Y-101786463D01*
X131254688Y-101753623D01*
X131287874Y-101749174D01*
X131977559Y-101749174D01*
X131988742Y-101749701D01*
X131996235Y-101751376D01*
X132004161Y-101751127D01*
X132004162Y-101751127D01*
X132064312Y-101749236D01*
X132068271Y-101749174D01*
X132096182Y-101749174D01*
X132100117Y-101748677D01*
X132100182Y-101748669D01*
X132112019Y-101747736D01*
X132144277Y-101746722D01*
X132148296Y-101746596D01*
X132156215Y-101746347D01*
X132175669Y-101740695D01*
X132195026Y-101736687D01*
X132207256Y-101735142D01*
X132207257Y-101735142D01*
X132215123Y-101734148D01*
X132222494Y-101731229D01*
X132222496Y-101731229D01*
X132256238Y-101717870D01*
X132267468Y-101714025D01*
X132302309Y-101703903D01*
X132302310Y-101703903D01*
X132309919Y-101701692D01*
X132316738Y-101697659D01*
X132316743Y-101697657D01*
X132327354Y-101691381D01*
X132345102Y-101682686D01*
X132363943Y-101675226D01*
X132372147Y-101669266D01*
X132399713Y-101649238D01*
X132409633Y-101642722D01*
X132440861Y-101624254D01*
X132440864Y-101624252D01*
X132447688Y-101620216D01*
X132462009Y-101605895D01*
X132477043Y-101593054D01*
X132479289Y-101591422D01*
X132493433Y-101581146D01*
X132521624Y-101547069D01*
X132529614Y-101538290D01*
X132790498Y-101277406D01*
X132813852Y-101264654D01*
X132819674Y-101249699D01*
X132830359Y-101237545D01*
X133300499Y-100767405D01*
X133362811Y-100733379D01*
X133389594Y-100730500D01*
X133445487Y-100730500D01*
X133451939Y-100729128D01*
X133451944Y-100729128D01*
X133538888Y-100710647D01*
X133632288Y-100690794D01*
X133638319Y-100688109D01*
X133800722Y-100615803D01*
X133800724Y-100615802D01*
X133806752Y-100613118D01*
X133961253Y-100500866D01*
X134032755Y-100421455D01*
X134084621Y-100363852D01*
X134084622Y-100363851D01*
X134089040Y-100358944D01*
X134184527Y-100193556D01*
X134243542Y-100011928D01*
X134247607Y-99973257D01*
X134262814Y-99828565D01*
X134263504Y-99822000D01*
X134259946Y-99788148D01*
X134244232Y-99638635D01*
X134244232Y-99638633D01*
X134243542Y-99632072D01*
X134184527Y-99450444D01*
X134160407Y-99408666D01*
X134092343Y-99290777D01*
X134089040Y-99285056D01*
X134043264Y-99234216D01*
X134012547Y-99170209D01*
X134010900Y-99149906D01*
X134010900Y-94144094D01*
X134030902Y-94075973D01*
X134043264Y-94059783D01*
X134084621Y-94013852D01*
X134084622Y-94013851D01*
X134089040Y-94008944D01*
X134184527Y-93843556D01*
X134243542Y-93661928D01*
X134263504Y-93472000D01*
X134243542Y-93282072D01*
X134184527Y-93100444D01*
X134089040Y-92935056D01*
X133961253Y-92793134D01*
X133806752Y-92680882D01*
X133800724Y-92678198D01*
X133800722Y-92678197D01*
X133638319Y-92605891D01*
X133638318Y-92605891D01*
X133632288Y-92603206D01*
X133538887Y-92583353D01*
X133451944Y-92564872D01*
X133451939Y-92564872D01*
X133445487Y-92563500D01*
X133254513Y-92563500D01*
X133248061Y-92564872D01*
X133248056Y-92564872D01*
X133161113Y-92583353D01*
X133067712Y-92603206D01*
X133061682Y-92605891D01*
X133061681Y-92605891D01*
X132899278Y-92678197D01*
X132899276Y-92678198D01*
X132893248Y-92680882D01*
X132738747Y-92793134D01*
X132610960Y-92935056D01*
X132515473Y-93100444D01*
X132456458Y-93282072D01*
X132436496Y-93472000D01*
X132456458Y-93661928D01*
X132515473Y-93843556D01*
X132610960Y-94008944D01*
X132615378Y-94013851D01*
X132615379Y-94013852D01*
X132656736Y-94059783D01*
X132687453Y-94123791D01*
X132689100Y-94144094D01*
X132689100Y-99149906D01*
X132669098Y-99218027D01*
X132656737Y-99234215D01*
X132610960Y-99285056D01*
X132607657Y-99290777D01*
X132539594Y-99408666D01*
X132515473Y-99450444D01*
X132456458Y-99632072D01*
X132455768Y-99638633D01*
X132455768Y-99638635D01*
X132439093Y-99797292D01*
X132412080Y-99862949D01*
X132402878Y-99873217D01*
X131830826Y-100445269D01*
X131768514Y-100479295D01*
X131741731Y-100482174D01*
X131287874Y-100482174D01*
X131219753Y-100462172D01*
X131200527Y-100445831D01*
X131200254Y-100446134D01*
X131195342Y-100441711D01*
X131190927Y-100436808D01*
X131075883Y-100353223D01*
X131041768Y-100328437D01*
X131041767Y-100328436D01*
X131036426Y-100324556D01*
X131030398Y-100321872D01*
X131030396Y-100321871D01*
X130867993Y-100249565D01*
X130867992Y-100249565D01*
X130861962Y-100246880D01*
X130752439Y-100223600D01*
X130681618Y-100208546D01*
X130681613Y-100208546D01*
X130675161Y-100207174D01*
X130484187Y-100207174D01*
X130477735Y-100208546D01*
X130477730Y-100208546D01*
X130406909Y-100223600D01*
X130297386Y-100246880D01*
X130291356Y-100249565D01*
X130291355Y-100249565D01*
X130128952Y-100321871D01*
X130128950Y-100321872D01*
X130122922Y-100324556D01*
X130117581Y-100328436D01*
X130117580Y-100328437D01*
X130083465Y-100353223D01*
X129968421Y-100436808D01*
X129964000Y-100441718D01*
X129963999Y-100441719D01*
X129850266Y-100568033D01*
X129840634Y-100578730D01*
X129803718Y-100642670D01*
X129753534Y-100729592D01*
X129745147Y-100744118D01*
X129686132Y-100925746D01*
X129685442Y-100932307D01*
X129685442Y-100932309D01*
X129672668Y-101053849D01*
X129666170Y-101115674D01*
X109659231Y-101115674D01*
X109691146Y-101031657D01*
X109694628Y-101018096D01*
X109716374Y-100863369D01*
X109716980Y-100855487D01*
X109717162Y-100842447D01*
X109716777Y-100834577D01*
X109699359Y-100679290D01*
X109696257Y-100665637D01*
X109645889Y-100521000D01*
X109643976Y-100517009D01*
X109636271Y-100510159D01*
X109627220Y-100514155D01*
X109315684Y-100825692D01*
X109308073Y-100839630D01*
X108624692Y-100839630D01*
X108625926Y-100837371D01*
X108625795Y-100835533D01*
X108621545Y-100828921D01*
X108243630Y-100451005D01*
X108243628Y-100451003D01*
X108217309Y-100424685D01*
X108203371Y-100417074D01*
X108201533Y-100417205D01*
X108194921Y-100421455D01*
X107817005Y-100799370D01*
X107817003Y-100799372D01*
X107790685Y-100825691D01*
X107783074Y-100839629D01*
X107099693Y-100839629D01*
X107100926Y-100837371D01*
X107100795Y-100835533D01*
X107096545Y-100828921D01*
X106718630Y-100451005D01*
X106718628Y-100451003D01*
X106692309Y-100424685D01*
X106678371Y-100417074D01*
X106676533Y-100417205D01*
X106669921Y-100421455D01*
X106292005Y-100799370D01*
X106292003Y-100799372D01*
X106265685Y-100825691D01*
X106258074Y-100839629D01*
X105574693Y-100839629D01*
X105575927Y-100837370D01*
X105575795Y-100835534D01*
X105571546Y-100828922D01*
X105258825Y-100516201D01*
X105246445Y-100509441D01*
X105242231Y-100512596D01*
X105190227Y-100655473D01*
X105186935Y-100669081D01*
X105167740Y-100821031D01*
X105167544Y-100835037D01*
X89257834Y-100835037D01*
X89262053Y-100825692D01*
X89281289Y-100783088D01*
X89282675Y-100775612D01*
X89284830Y-100768734D01*
X89286290Y-100763609D01*
X89288078Y-100756645D01*
X89290838Y-100749566D01*
X89293468Y-100729592D01*
X89297158Y-100701556D01*
X89298587Y-100690700D01*
X89299618Y-100684189D01*
X89300526Y-100679290D01*
X89310440Y-100625803D01*
X89309864Y-100615803D01*
X89307109Y-100568033D01*
X89306900Y-100560780D01*
X89306900Y-100494094D01*
X89326902Y-100425973D01*
X89339264Y-100409783D01*
X89380621Y-100363852D01*
X89380622Y-100363851D01*
X89385040Y-100358944D01*
X89449740Y-100246880D01*
X89477223Y-100199279D01*
X89477224Y-100199278D01*
X89480527Y-100193556D01*
X89526833Y-100051042D01*
X89566907Y-99992436D01*
X89632303Y-99964799D01*
X89692437Y-99972586D01*
X89704164Y-99977158D01*
X89716295Y-99981888D01*
X89722374Y-99984443D01*
X89776507Y-100008885D01*
X89783981Y-100010270D01*
X89790815Y-100012412D01*
X89795963Y-100013879D01*
X89802948Y-100015672D01*
X89810029Y-100018433D01*
X89817566Y-100019425D01*
X89817565Y-100019425D01*
X89868884Y-100026181D01*
X89875400Y-100027213D01*
X89926323Y-100036651D01*
X89926325Y-100036651D01*
X89933792Y-100038035D01*
X89941372Y-100037598D01*
X89941373Y-100037598D01*
X89991563Y-100034704D01*
X89998816Y-100034495D01*
X90289274Y-100034495D01*
X90357395Y-100054497D01*
X90363335Y-100058559D01*
X90487025Y-100148425D01*
X90509443Y-100164713D01*
X90515471Y-100167397D01*
X90515473Y-100167398D01*
X90604812Y-100207174D01*
X90683907Y-100242389D01*
X90777308Y-100262242D01*
X90864251Y-100280723D01*
X90864256Y-100280723D01*
X90870708Y-100282095D01*
X91061682Y-100282095D01*
X91068134Y-100280723D01*
X91068139Y-100280723D01*
X91155082Y-100262242D01*
X91248483Y-100242389D01*
X91327578Y-100207174D01*
X91416917Y-100167398D01*
X91416919Y-100167397D01*
X91422947Y-100164713D01*
X91445366Y-100148425D01*
X91540964Y-100078968D01*
X91577448Y-100052461D01*
X91581870Y-100047550D01*
X91639163Y-99983920D01*
X105588075Y-99983920D01*
X105602362Y-100003005D01*
X105627173Y-100069525D01*
X105612082Y-100138899D01*
X105595075Y-100162886D01*
X105589003Y-100169621D01*
X105592827Y-100178451D01*
X105904188Y-100489812D01*
X105918132Y-100497426D01*
X105919967Y-100497295D01*
X105926577Y-100493047D01*
X106304495Y-100115130D01*
X106304497Y-100115128D01*
X106330815Y-100088809D01*
X106337193Y-100077129D01*
X107020574Y-100077129D01*
X107020705Y-100078968D01*
X107024953Y-100085577D01*
X107054505Y-100115130D01*
X107054504Y-100115130D01*
X107054505Y-100115131D01*
X107429190Y-100489815D01*
X107443130Y-100497427D01*
X107444966Y-100497295D01*
X107451578Y-100493046D01*
X107829495Y-100115130D01*
X107829497Y-100115128D01*
X107855815Y-100088809D01*
X107862193Y-100077129D01*
X108545574Y-100077129D01*
X108545705Y-100078968D01*
X108549953Y-100085577D01*
X108579505Y-100115130D01*
X108579504Y-100115130D01*
X108579505Y-100115131D01*
X108954190Y-100489815D01*
X108968130Y-100497427D01*
X108969966Y-100497295D01*
X108976578Y-100493046D01*
X109288900Y-100180725D01*
X109295659Y-100168347D01*
X109280745Y-100148425D01*
X109255934Y-100081905D01*
X109271025Y-100012530D01*
X109289218Y-99987246D01*
X109294387Y-99981671D01*
X109290881Y-99973257D01*
X108979812Y-99662188D01*
X108965868Y-99654574D01*
X108964033Y-99654705D01*
X108957423Y-99658953D01*
X108579505Y-100036870D01*
X108579503Y-100036872D01*
X108553185Y-100063191D01*
X108545574Y-100077129D01*
X107862193Y-100077129D01*
X107863426Y-100074871D01*
X107863295Y-100073033D01*
X107859045Y-100066421D01*
X107481130Y-99688505D01*
X107481128Y-99688503D01*
X107454809Y-99662185D01*
X107440871Y-99654574D01*
X107439033Y-99654705D01*
X107432421Y-99658955D01*
X107054505Y-100036870D01*
X107054503Y-100036872D01*
X107028185Y-100063191D01*
X107020574Y-100077129D01*
X106337193Y-100077129D01*
X106338426Y-100074871D01*
X106338295Y-100073033D01*
X106334045Y-100066421D01*
X105956130Y-99688505D01*
X105956128Y-99688503D01*
X105929809Y-99662185D01*
X105915871Y-99654574D01*
X105914033Y-99654705D01*
X105907421Y-99658955D01*
X105594834Y-99971541D01*
X105588075Y-99983920D01*
X91639163Y-99983920D01*
X91700816Y-99915447D01*
X91700817Y-99915446D01*
X91705235Y-99910539D01*
X91800722Y-99745151D01*
X91859737Y-99563523D01*
X91872224Y-99444721D01*
X91879009Y-99380160D01*
X91879699Y-99373595D01*
X91873502Y-99314630D01*
X91873019Y-99310037D01*
X105167544Y-99310037D01*
X105182490Y-99462470D01*
X105185401Y-99476164D01*
X105233746Y-99621493D01*
X105238713Y-99632243D01*
X105248488Y-99641180D01*
X105257107Y-99637518D01*
X105568316Y-99326308D01*
X105574693Y-99314629D01*
X106258074Y-99314629D01*
X106258205Y-99316468D01*
X106262453Y-99323077D01*
X106292005Y-99352630D01*
X106292004Y-99352630D01*
X106292005Y-99352631D01*
X106666690Y-99727315D01*
X106680630Y-99734927D01*
X106682466Y-99734795D01*
X106689078Y-99730546D01*
X107066995Y-99352630D01*
X107066997Y-99352628D01*
X107093315Y-99326309D01*
X107099693Y-99314629D01*
X107783074Y-99314629D01*
X107783205Y-99316468D01*
X107787453Y-99323077D01*
X107817005Y-99352630D01*
X107817004Y-99352630D01*
X107817005Y-99352631D01*
X108191690Y-99727315D01*
X108205630Y-99734927D01*
X108207466Y-99734795D01*
X108214078Y-99730546D01*
X108591995Y-99352630D01*
X108591997Y-99352628D01*
X108618315Y-99326309D01*
X108624692Y-99314630D01*
X109308073Y-99314630D01*
X109308205Y-99316466D01*
X109312454Y-99323078D01*
X109624622Y-99635247D01*
X109637001Y-99642006D01*
X109640817Y-99639149D01*
X109691146Y-99506657D01*
X109694628Y-99493096D01*
X109716374Y-99338369D01*
X109716980Y-99330487D01*
X109717162Y-99317447D01*
X109716777Y-99309577D01*
X109699359Y-99154290D01*
X109696257Y-99140637D01*
X109645889Y-98996000D01*
X109643976Y-98992009D01*
X109636271Y-98985159D01*
X109627220Y-98989155D01*
X109315684Y-99300692D01*
X109308073Y-99314630D01*
X108624692Y-99314630D01*
X108625926Y-99312371D01*
X108625795Y-99310533D01*
X108621545Y-99303921D01*
X108243630Y-98926005D01*
X108243628Y-98926003D01*
X108217309Y-98899685D01*
X108203371Y-98892074D01*
X108201533Y-98892205D01*
X108194921Y-98896455D01*
X107817005Y-99274370D01*
X107817003Y-99274372D01*
X107790685Y-99300691D01*
X107783074Y-99314629D01*
X107099693Y-99314629D01*
X107100926Y-99312371D01*
X107100795Y-99310533D01*
X107096545Y-99303921D01*
X106718630Y-98926005D01*
X106718628Y-98926003D01*
X106692309Y-98899685D01*
X106678371Y-98892074D01*
X106676533Y-98892205D01*
X106669921Y-98896455D01*
X106292005Y-99274370D01*
X106292003Y-99274372D01*
X106265685Y-99300691D01*
X106258074Y-99314629D01*
X105574693Y-99314629D01*
X105575927Y-99312370D01*
X105575795Y-99310534D01*
X105571546Y-99303922D01*
X105258825Y-98991201D01*
X105246445Y-98984441D01*
X105242231Y-98987596D01*
X105190227Y-99130473D01*
X105186935Y-99144081D01*
X105167740Y-99296031D01*
X105167544Y-99310037D01*
X91873019Y-99310037D01*
X91860427Y-99190230D01*
X91860427Y-99190228D01*
X91859737Y-99183667D01*
X91800722Y-99002039D01*
X91797236Y-98996000D01*
X91756824Y-98926005D01*
X91705235Y-98836651D01*
X91582932Y-98700819D01*
X91581870Y-98699640D01*
X91581869Y-98699639D01*
X91577448Y-98694729D01*
X91508481Y-98644621D01*
X105589003Y-98644621D01*
X105592827Y-98653451D01*
X105904188Y-98964812D01*
X105918132Y-98972426D01*
X105919967Y-98972295D01*
X105926577Y-98968047D01*
X106304495Y-98590130D01*
X106304497Y-98590128D01*
X106330815Y-98563809D01*
X106337192Y-98552130D01*
X107020573Y-98552130D01*
X107020705Y-98553966D01*
X107024954Y-98560578D01*
X107054505Y-98590130D01*
X107054504Y-98590130D01*
X107054505Y-98590131D01*
X107429190Y-98964815D01*
X107443130Y-98972427D01*
X107444966Y-98972295D01*
X107451578Y-98968046D01*
X107829495Y-98590130D01*
X107829497Y-98590128D01*
X107855815Y-98563809D01*
X107862192Y-98552130D01*
X108545573Y-98552130D01*
X108545705Y-98553966D01*
X108549954Y-98560578D01*
X108579505Y-98590130D01*
X108579504Y-98590130D01*
X108579505Y-98590131D01*
X108954190Y-98964815D01*
X108968130Y-98972427D01*
X108969966Y-98972295D01*
X108976578Y-98968046D01*
X109288900Y-98655725D01*
X109295659Y-98643346D01*
X109291689Y-98638043D01*
X109289232Y-98636844D01*
X109144948Y-98585467D01*
X109131323Y-98582272D01*
X109055041Y-98573175D01*
X108989768Y-98545247D01*
X108949956Y-98486464D01*
X108944746Y-98462106D01*
X108936859Y-98391790D01*
X108933757Y-98378137D01*
X108883389Y-98233500D01*
X108881476Y-98229509D01*
X108873771Y-98222659D01*
X108864720Y-98226655D01*
X108553184Y-98538192D01*
X108545573Y-98552130D01*
X107862192Y-98552130D01*
X107863426Y-98549871D01*
X107863295Y-98548034D01*
X107859044Y-98541420D01*
X107546325Y-98228701D01*
X107533945Y-98221941D01*
X107515329Y-98235877D01*
X107448809Y-98260688D01*
X107379435Y-98245597D01*
X107356110Y-98229183D01*
X107348771Y-98222659D01*
X107339720Y-98226655D01*
X107028184Y-98538192D01*
X107020573Y-98552130D01*
X106337192Y-98552130D01*
X106338426Y-98549871D01*
X106338295Y-98548034D01*
X106334044Y-98541420D01*
X106021325Y-98228701D01*
X106008945Y-98221941D01*
X106004731Y-98225096D01*
X105952727Y-98367973D01*
X105949435Y-98381582D01*
X105939052Y-98463770D01*
X105910670Y-98528847D01*
X105851610Y-98568248D01*
X105827217Y-98573288D01*
X105762902Y-98580048D01*
X105749238Y-98583053D01*
X105604243Y-98632412D01*
X105596889Y-98635873D01*
X105589003Y-98644621D01*
X91508481Y-98644621D01*
X91478352Y-98622731D01*
X91428289Y-98586358D01*
X91428288Y-98586357D01*
X91422947Y-98582477D01*
X91416919Y-98579793D01*
X91416917Y-98579792D01*
X91254514Y-98507486D01*
X91254513Y-98507486D01*
X91248483Y-98504801D01*
X91155083Y-98484948D01*
X91068139Y-98466467D01*
X91068134Y-98466467D01*
X91061682Y-98465095D01*
X90870708Y-98465095D01*
X90864256Y-98466467D01*
X90864251Y-98466467D01*
X90777307Y-98484948D01*
X90683907Y-98504801D01*
X90677877Y-98507486D01*
X90677876Y-98507486D01*
X90515473Y-98579792D01*
X90515471Y-98579793D01*
X90509443Y-98582477D01*
X90504102Y-98586357D01*
X90504101Y-98586358D01*
X90370438Y-98683470D01*
X90303570Y-98707329D01*
X90234419Y-98691248D01*
X90207282Y-98670629D01*
X90198171Y-98661518D01*
X90164145Y-98599206D01*
X90161956Y-98585593D01*
X90160175Y-98568642D01*
X90153321Y-98503429D01*
X90149832Y-98470235D01*
X90149832Y-98470233D01*
X90149142Y-98463672D01*
X90090127Y-98282044D01*
X89994640Y-98116656D01*
X89931968Y-98047051D01*
X89871275Y-97979645D01*
X89871274Y-97979644D01*
X89866853Y-97974734D01*
X89739383Y-97882121D01*
X106351503Y-97882121D01*
X106355327Y-97890951D01*
X106666688Y-98202312D01*
X106680632Y-98209926D01*
X106682467Y-98209795D01*
X106689077Y-98205547D01*
X107001400Y-97893225D01*
X107007463Y-97882121D01*
X107876503Y-97882121D01*
X107880327Y-97890951D01*
X108191688Y-98202312D01*
X108205632Y-98209926D01*
X108207467Y-98209795D01*
X108214077Y-98205547D01*
X108526400Y-97893225D01*
X108533159Y-97880846D01*
X108529189Y-97875543D01*
X108526732Y-97874344D01*
X108382448Y-97822967D01*
X108368822Y-97819771D01*
X108216729Y-97801635D01*
X108202733Y-97801537D01*
X108050402Y-97817548D01*
X108036738Y-97820553D01*
X107891743Y-97869912D01*
X107884389Y-97873373D01*
X107876503Y-97882121D01*
X107007463Y-97882121D01*
X107008159Y-97880846D01*
X107004189Y-97875543D01*
X107001732Y-97874344D01*
X106857448Y-97822967D01*
X106843822Y-97819771D01*
X106691729Y-97801635D01*
X106677733Y-97801537D01*
X106525402Y-97817548D01*
X106511738Y-97820553D01*
X106366743Y-97869912D01*
X106359389Y-97873373D01*
X106351503Y-97882121D01*
X89739383Y-97882121D01*
X89727342Y-97873373D01*
X89717694Y-97866363D01*
X89717693Y-97866362D01*
X89712352Y-97862482D01*
X89706324Y-97859798D01*
X89706322Y-97859797D01*
X89543919Y-97787491D01*
X89543918Y-97787491D01*
X89537888Y-97784806D01*
X89444488Y-97764953D01*
X89357544Y-97746472D01*
X89357539Y-97746472D01*
X89351087Y-97745100D01*
X89160113Y-97745100D01*
X89153661Y-97746472D01*
X89153656Y-97746472D01*
X89066712Y-97764953D01*
X88973312Y-97784806D01*
X88967282Y-97787491D01*
X88967281Y-97787491D01*
X88804878Y-97859797D01*
X88804876Y-97859798D01*
X88798848Y-97862482D01*
X88793507Y-97866362D01*
X88793506Y-97866363D01*
X88783858Y-97873373D01*
X88644347Y-97974734D01*
X88639926Y-97979644D01*
X88639925Y-97979645D01*
X88579233Y-98047051D01*
X88516560Y-98116656D01*
X88421073Y-98282044D01*
X88362058Y-98463672D01*
X88361368Y-98470233D01*
X88361368Y-98470235D01*
X88351025Y-98568642D01*
X88324011Y-98634299D01*
X88265790Y-98674928D01*
X88218030Y-98679672D01*
X88218030Y-98680500D01*
X88197776Y-98680500D01*
X88178065Y-98678949D01*
X88165886Y-98677020D01*
X88158057Y-98675780D01*
X88116885Y-98679672D01*
X88114039Y-98679941D01*
X88102181Y-98680500D01*
X85476774Y-98680500D01*
X85408653Y-98660498D01*
X85362160Y-98606842D01*
X85351464Y-98567672D01*
X85349232Y-98546434D01*
X85349231Y-98546431D01*
X85348542Y-98539872D01*
X85289527Y-98358244D01*
X85194040Y-98192856D01*
X85066253Y-98050934D01*
X84911752Y-97938682D01*
X84905724Y-97935998D01*
X84905722Y-97935997D01*
X84743319Y-97863691D01*
X84743318Y-97863691D01*
X84737288Y-97861006D01*
X84643888Y-97841153D01*
X84556944Y-97822672D01*
X84556939Y-97822672D01*
X84550487Y-97821300D01*
X84359513Y-97821300D01*
X84353061Y-97822672D01*
X84353056Y-97822672D01*
X84266112Y-97841153D01*
X84172712Y-97861006D01*
X84166682Y-97863691D01*
X84166681Y-97863691D01*
X84004278Y-97935997D01*
X84004276Y-97935998D01*
X83998248Y-97938682D01*
X83843747Y-98050934D01*
X83715960Y-98192856D01*
X83620473Y-98358244D01*
X83561458Y-98539872D01*
X83560768Y-98546433D01*
X83560768Y-98546435D01*
X83548780Y-98660498D01*
X83541496Y-98729800D01*
X70612500Y-98729800D01*
X70612500Y-91186000D01*
X84122000Y-91186000D01*
X132122000Y-91186000D01*
X132122000Y-82685774D01*
X146528102Y-82685774D01*
X146528302Y-82691103D01*
X146528302Y-82691105D01*
X146528611Y-82699342D01*
X146536751Y-82916158D01*
X146584093Y-83141791D01*
X146586051Y-83146750D01*
X146586052Y-83146752D01*
X146627476Y-83251642D01*
X146668776Y-83356221D01*
X146671543Y-83360780D01*
X146671544Y-83360783D01*
X146761045Y-83508276D01*
X146788377Y-83553317D01*
X146791874Y-83557347D01*
X146920247Y-83705284D01*
X146939477Y-83727445D01*
X146943608Y-83730832D01*
X147113627Y-83870240D01*
X147113633Y-83870244D01*
X147117755Y-83873624D01*
X147122391Y-83876263D01*
X147122394Y-83876265D01*
X147231422Y-83938327D01*
X147318114Y-83987675D01*
X147534825Y-84066337D01*
X147540074Y-84067286D01*
X147540077Y-84067287D01*
X147757608Y-84106623D01*
X147757615Y-84106624D01*
X147761692Y-84107361D01*
X147779414Y-84108197D01*
X147784356Y-84108430D01*
X147784363Y-84108430D01*
X147785844Y-84108500D01*
X147947890Y-84108500D01*
X148014809Y-84102822D01*
X148114409Y-84094371D01*
X148114413Y-84094370D01*
X148119720Y-84093920D01*
X148124875Y-84092582D01*
X148124881Y-84092581D01*
X148337703Y-84037343D01*
X148337707Y-84037342D01*
X148342872Y-84036001D01*
X148347738Y-84033809D01*
X148347741Y-84033808D01*
X148548202Y-83943507D01*
X148553075Y-83941312D01*
X148744319Y-83812559D01*
X148911135Y-83653424D01*
X149048754Y-83468458D01*
X149107164Y-83353574D01*
X168081502Y-83353574D01*
X168090151Y-83583958D01*
X168137493Y-83809591D01*
X168139451Y-83814550D01*
X168139452Y-83814552D01*
X168188334Y-83938327D01*
X168222176Y-84024021D01*
X168224943Y-84028580D01*
X168224944Y-84028583D01*
X168272300Y-84106623D01*
X168341777Y-84221117D01*
X168345274Y-84225147D01*
X168431838Y-84324903D01*
X168492877Y-84395245D01*
X168497008Y-84398632D01*
X168667027Y-84538040D01*
X168667033Y-84538044D01*
X168671155Y-84541424D01*
X168675791Y-84544063D01*
X168675794Y-84544065D01*
X168784822Y-84606127D01*
X168871514Y-84655475D01*
X169088225Y-84734137D01*
X169093474Y-84735086D01*
X169093477Y-84735087D01*
X169311008Y-84774423D01*
X169311015Y-84774424D01*
X169315092Y-84775161D01*
X169332814Y-84775997D01*
X169337756Y-84776230D01*
X169337763Y-84776230D01*
X169339244Y-84776300D01*
X169501290Y-84776300D01*
X169568209Y-84770622D01*
X169667809Y-84762171D01*
X169667813Y-84762170D01*
X169673120Y-84761720D01*
X169678275Y-84760382D01*
X169678281Y-84760381D01*
X169891103Y-84705143D01*
X169891107Y-84705142D01*
X169896272Y-84703801D01*
X169901138Y-84701609D01*
X169901141Y-84701608D01*
X170101602Y-84611307D01*
X170106475Y-84609112D01*
X170297719Y-84480359D01*
X170464535Y-84321224D01*
X170602154Y-84136258D01*
X170616303Y-84108430D01*
X170679041Y-83985032D01*
X170706640Y-83930749D01*
X170742721Y-83814552D01*
X170773424Y-83715671D01*
X170775007Y-83710573D01*
X170783148Y-83649146D01*
X170804598Y-83487311D01*
X170804598Y-83487306D01*
X170805298Y-83482026D01*
X170804950Y-83472740D01*
X170796849Y-83256973D01*
X170796649Y-83251642D01*
X170749307Y-83026009D01*
X170707986Y-82921377D01*
X170666585Y-82816544D01*
X170666584Y-82816542D01*
X170664624Y-82811579D01*
X170591519Y-82691105D01*
X170547790Y-82619043D01*
X170545023Y-82614483D01*
X170458155Y-82514376D01*
X170397423Y-82444388D01*
X170397421Y-82444386D01*
X170393923Y-82440355D01*
X170300104Y-82363428D01*
X170219773Y-82297560D01*
X170219767Y-82297556D01*
X170215645Y-82294176D01*
X170211009Y-82291537D01*
X170211006Y-82291535D01*
X170019929Y-82182768D01*
X170015286Y-82180125D01*
X169798575Y-82101463D01*
X169793326Y-82100514D01*
X169793323Y-82100513D01*
X169575792Y-82061177D01*
X169575785Y-82061176D01*
X169571708Y-82060439D01*
X169553986Y-82059603D01*
X169549044Y-82059370D01*
X169549037Y-82059370D01*
X169547556Y-82059300D01*
X169385510Y-82059300D01*
X169318591Y-82064978D01*
X169218991Y-82073429D01*
X169218987Y-82073430D01*
X169213680Y-82073880D01*
X169208525Y-82075218D01*
X169208519Y-82075219D01*
X168995697Y-82130457D01*
X168995693Y-82130458D01*
X168990528Y-82131799D01*
X168985662Y-82133991D01*
X168985659Y-82133992D01*
X168877380Y-82182768D01*
X168780325Y-82226488D01*
X168589081Y-82355241D01*
X168422265Y-82514376D01*
X168284646Y-82699342D01*
X168180160Y-82904851D01*
X168178578Y-82909945D01*
X168178577Y-82909948D01*
X168138976Y-83037484D01*
X168111793Y-83125027D01*
X168111092Y-83130316D01*
X168094189Y-83257852D01*
X168081502Y-83353574D01*
X149107164Y-83353574D01*
X149153240Y-83262949D01*
X149158372Y-83246423D01*
X149220024Y-83047871D01*
X149221607Y-83042773D01*
X149224486Y-83021048D01*
X149251198Y-82819511D01*
X149251198Y-82819506D01*
X149251898Y-82814226D01*
X149243249Y-82583842D01*
X149195907Y-82358209D01*
X149193558Y-82352261D01*
X149113185Y-82148744D01*
X149113184Y-82148742D01*
X149111224Y-82143779D01*
X149103955Y-82131799D01*
X148994390Y-81951243D01*
X148991623Y-81946683D01*
X148904755Y-81846576D01*
X148844023Y-81776588D01*
X148844021Y-81776586D01*
X148840523Y-81772555D01*
X148798970Y-81738484D01*
X148666373Y-81629760D01*
X148666367Y-81629756D01*
X148662245Y-81626376D01*
X148657609Y-81623737D01*
X148657606Y-81623735D01*
X148466529Y-81514968D01*
X148461886Y-81512325D01*
X148245175Y-81433663D01*
X148239926Y-81432714D01*
X148239923Y-81432713D01*
X148022392Y-81393377D01*
X148022385Y-81393376D01*
X148018308Y-81392639D01*
X148000586Y-81391803D01*
X147995644Y-81391570D01*
X147995637Y-81391570D01*
X147994156Y-81391500D01*
X147832110Y-81391500D01*
X147765191Y-81397178D01*
X147665591Y-81405629D01*
X147665587Y-81405630D01*
X147660280Y-81406080D01*
X147655125Y-81407418D01*
X147655119Y-81407419D01*
X147442297Y-81462657D01*
X147442293Y-81462658D01*
X147437128Y-81463999D01*
X147432262Y-81466191D01*
X147432259Y-81466192D01*
X147323980Y-81514968D01*
X147226925Y-81558688D01*
X147035681Y-81687441D01*
X146868865Y-81846576D01*
X146731246Y-82031542D01*
X146728830Y-82036293D01*
X146728828Y-82036297D01*
X146680955Y-82130457D01*
X146626760Y-82237051D01*
X146625178Y-82242145D01*
X146625177Y-82242148D01*
X146564684Y-82436968D01*
X146558393Y-82457227D01*
X146557692Y-82462516D01*
X146537551Y-82614483D01*
X146528102Y-82685774D01*
X132122000Y-82685774D01*
X132122000Y-75685774D01*
X146528102Y-75685774D01*
X146528302Y-75691103D01*
X146528302Y-75691105D01*
X146528611Y-75699342D01*
X146536751Y-75916158D01*
X146584093Y-76141791D01*
X146586051Y-76146750D01*
X146586052Y-76146752D01*
X146627476Y-76251642D01*
X146668776Y-76356221D01*
X146671543Y-76360780D01*
X146671544Y-76360783D01*
X146761045Y-76508276D01*
X146788377Y-76553317D01*
X146791874Y-76557347D01*
X146920247Y-76705284D01*
X146939477Y-76727445D01*
X146943608Y-76730832D01*
X147113627Y-76870240D01*
X147113633Y-76870244D01*
X147117755Y-76873624D01*
X147122391Y-76876263D01*
X147122394Y-76876265D01*
X147231422Y-76938327D01*
X147318114Y-76987675D01*
X147534825Y-77066337D01*
X147540074Y-77067286D01*
X147540077Y-77067287D01*
X147757608Y-77106623D01*
X147757615Y-77106624D01*
X147761692Y-77107361D01*
X147779414Y-77108197D01*
X147784356Y-77108430D01*
X147784363Y-77108430D01*
X147785844Y-77108500D01*
X147947890Y-77108500D01*
X148014809Y-77102822D01*
X148114409Y-77094371D01*
X148114413Y-77094370D01*
X148119720Y-77093920D01*
X148124875Y-77092582D01*
X148124881Y-77092581D01*
X148337703Y-77037343D01*
X148337707Y-77037342D01*
X148342872Y-77036001D01*
X148347738Y-77033809D01*
X148347741Y-77033808D01*
X148548202Y-76943507D01*
X148553075Y-76941312D01*
X148744319Y-76812559D01*
X148911135Y-76653424D01*
X149048754Y-76468458D01*
X149107164Y-76353574D01*
X168081502Y-76353574D01*
X168090151Y-76583958D01*
X168137493Y-76809591D01*
X168139451Y-76814550D01*
X168139452Y-76814552D01*
X168188334Y-76938327D01*
X168222176Y-77024021D01*
X168224943Y-77028580D01*
X168224944Y-77028583D01*
X168272300Y-77106623D01*
X168341777Y-77221117D01*
X168345274Y-77225147D01*
X168431838Y-77324903D01*
X168492877Y-77395245D01*
X168497008Y-77398632D01*
X168667027Y-77538040D01*
X168667033Y-77538044D01*
X168671155Y-77541424D01*
X168675791Y-77544063D01*
X168675794Y-77544065D01*
X168784822Y-77606127D01*
X168871514Y-77655475D01*
X169088225Y-77734137D01*
X169093474Y-77735086D01*
X169093477Y-77735087D01*
X169311008Y-77774423D01*
X169311015Y-77774424D01*
X169315092Y-77775161D01*
X169332814Y-77775997D01*
X169337756Y-77776230D01*
X169337763Y-77776230D01*
X169339244Y-77776300D01*
X169501290Y-77776300D01*
X169568209Y-77770622D01*
X169667809Y-77762171D01*
X169667813Y-77762170D01*
X169673120Y-77761720D01*
X169678275Y-77760382D01*
X169678281Y-77760381D01*
X169891103Y-77705143D01*
X169891107Y-77705142D01*
X169896272Y-77703801D01*
X169901138Y-77701609D01*
X169901141Y-77701608D01*
X170101602Y-77611307D01*
X170106475Y-77609112D01*
X170297719Y-77480359D01*
X170464535Y-77321224D01*
X170602154Y-77136258D01*
X170616303Y-77108430D01*
X170679041Y-76985032D01*
X170706640Y-76930749D01*
X170742721Y-76814552D01*
X170773424Y-76715671D01*
X170775007Y-76710573D01*
X170783148Y-76649146D01*
X170804598Y-76487311D01*
X170804598Y-76487306D01*
X170805298Y-76482026D01*
X170804950Y-76472740D01*
X170796849Y-76256973D01*
X170796649Y-76251642D01*
X170749307Y-76026009D01*
X170707986Y-75921377D01*
X170666585Y-75816544D01*
X170666584Y-75816542D01*
X170664624Y-75811579D01*
X170591519Y-75691105D01*
X170547790Y-75619043D01*
X170545023Y-75614483D01*
X170458155Y-75514376D01*
X170397423Y-75444388D01*
X170397421Y-75444386D01*
X170393923Y-75440355D01*
X170300104Y-75363428D01*
X170219773Y-75297560D01*
X170219767Y-75297556D01*
X170215645Y-75294176D01*
X170211009Y-75291537D01*
X170211006Y-75291535D01*
X170019929Y-75182768D01*
X170015286Y-75180125D01*
X169798575Y-75101463D01*
X169793326Y-75100514D01*
X169793323Y-75100513D01*
X169575792Y-75061177D01*
X169575785Y-75061176D01*
X169571708Y-75060439D01*
X169553986Y-75059603D01*
X169549044Y-75059370D01*
X169549037Y-75059370D01*
X169547556Y-75059300D01*
X169385510Y-75059300D01*
X169318591Y-75064978D01*
X169218991Y-75073429D01*
X169218987Y-75073430D01*
X169213680Y-75073880D01*
X169208525Y-75075218D01*
X169208519Y-75075219D01*
X168995697Y-75130457D01*
X168995693Y-75130458D01*
X168990528Y-75131799D01*
X168985662Y-75133991D01*
X168985659Y-75133992D01*
X168877380Y-75182768D01*
X168780325Y-75226488D01*
X168589081Y-75355241D01*
X168422265Y-75514376D01*
X168284646Y-75699342D01*
X168180160Y-75904851D01*
X168178578Y-75909945D01*
X168178577Y-75909948D01*
X168138976Y-76037484D01*
X168111793Y-76125027D01*
X168111092Y-76130316D01*
X168094189Y-76257852D01*
X168081502Y-76353574D01*
X149107164Y-76353574D01*
X149153240Y-76262949D01*
X149158372Y-76246423D01*
X149220024Y-76047871D01*
X149221607Y-76042773D01*
X149224486Y-76021048D01*
X149251198Y-75819511D01*
X149251198Y-75819506D01*
X149251898Y-75814226D01*
X149243249Y-75583842D01*
X149195907Y-75358209D01*
X149193558Y-75352261D01*
X149113185Y-75148744D01*
X149113184Y-75148742D01*
X149111224Y-75143779D01*
X149103955Y-75131799D01*
X148994390Y-74951243D01*
X148991623Y-74946683D01*
X148904755Y-74846576D01*
X148844023Y-74776588D01*
X148844021Y-74776586D01*
X148840523Y-74772555D01*
X148798970Y-74738484D01*
X148666373Y-74629760D01*
X148666367Y-74629756D01*
X148662245Y-74626376D01*
X148657609Y-74623737D01*
X148657606Y-74623735D01*
X148466529Y-74514968D01*
X148461886Y-74512325D01*
X148245175Y-74433663D01*
X148239926Y-74432714D01*
X148239923Y-74432713D01*
X148022392Y-74393377D01*
X148022385Y-74393376D01*
X148018308Y-74392639D01*
X148000586Y-74391803D01*
X147995644Y-74391570D01*
X147995637Y-74391570D01*
X147994156Y-74391500D01*
X147832110Y-74391500D01*
X147765191Y-74397178D01*
X147665591Y-74405629D01*
X147665587Y-74405630D01*
X147660280Y-74406080D01*
X147655125Y-74407418D01*
X147655119Y-74407419D01*
X147442297Y-74462657D01*
X147442293Y-74462658D01*
X147437128Y-74463999D01*
X147432262Y-74466191D01*
X147432259Y-74466192D01*
X147323980Y-74514968D01*
X147226925Y-74558688D01*
X147035681Y-74687441D01*
X146868865Y-74846576D01*
X146731246Y-75031542D01*
X146728830Y-75036293D01*
X146728828Y-75036297D01*
X146680955Y-75130457D01*
X146626760Y-75237051D01*
X146625178Y-75242145D01*
X146625177Y-75242148D01*
X146564684Y-75436968D01*
X146558393Y-75457227D01*
X146557692Y-75462516D01*
X146537551Y-75614483D01*
X146528102Y-75685774D01*
X132122000Y-75685774D01*
X132122000Y-70246000D01*
X84122000Y-70246000D01*
X84122000Y-91186000D01*
X70612500Y-91186000D01*
X70612500Y-69372703D01*
X71550743Y-69372703D01*
X71588268Y-69657734D01*
X71664129Y-69935036D01*
X71665813Y-69938984D01*
X71766260Y-70174476D01*
X71776923Y-70199476D01*
X71815609Y-70264115D01*
X71920436Y-70439268D01*
X71924561Y-70446161D01*
X72104313Y-70670528D01*
X72312851Y-70868423D01*
X72546317Y-71036186D01*
X72550112Y-71038195D01*
X72550113Y-71038196D01*
X72571869Y-71049715D01*
X72800392Y-71170712D01*
X72824699Y-71179607D01*
X73014718Y-71249144D01*
X73070373Y-71269511D01*
X73351264Y-71330755D01*
X73379841Y-71333004D01*
X73574282Y-71348307D01*
X73574291Y-71348307D01*
X73576739Y-71348500D01*
X73732271Y-71348500D01*
X73734407Y-71348354D01*
X73734418Y-71348354D01*
X73942548Y-71334165D01*
X73942554Y-71334164D01*
X73946825Y-71333873D01*
X73951020Y-71333004D01*
X73951022Y-71333004D01*
X74087583Y-71304724D01*
X74228342Y-71275574D01*
X74499343Y-71179607D01*
X74754812Y-71047750D01*
X74758313Y-71045289D01*
X74758317Y-71045287D01*
X74872417Y-70965096D01*
X74990023Y-70882441D01*
X75200622Y-70686740D01*
X75382713Y-70464268D01*
X75532927Y-70219142D01*
X75648483Y-69955898D01*
X75655605Y-69930898D01*
X75726068Y-69683534D01*
X75727244Y-69679406D01*
X75767751Y-69394784D01*
X75767845Y-69376951D01*
X75767998Y-69347703D01*
X183310743Y-69347703D01*
X183311302Y-69351947D01*
X183311302Y-69351951D01*
X183316376Y-69390488D01*
X183348268Y-69632734D01*
X183424129Y-69910036D01*
X183536923Y-70174476D01*
X183684561Y-70421161D01*
X183864313Y-70645528D01*
X184072851Y-70843423D01*
X184306317Y-71011186D01*
X184310112Y-71013195D01*
X184310113Y-71013196D01*
X184331869Y-71024715D01*
X184560392Y-71145712D01*
X184830373Y-71244511D01*
X185111264Y-71305755D01*
X185139841Y-71308004D01*
X185334282Y-71323307D01*
X185334291Y-71323307D01*
X185336739Y-71323500D01*
X185492271Y-71323500D01*
X185494407Y-71323354D01*
X185494418Y-71323354D01*
X185702548Y-71309165D01*
X185702554Y-71309164D01*
X185706825Y-71308873D01*
X185711020Y-71308004D01*
X185711022Y-71308004D01*
X185847584Y-71279723D01*
X185988342Y-71250574D01*
X186259343Y-71154607D01*
X186488780Y-71036186D01*
X186511005Y-71024715D01*
X186511006Y-71024715D01*
X186514812Y-71022750D01*
X186518313Y-71020289D01*
X186518317Y-71020287D01*
X186710947Y-70884904D01*
X186750023Y-70857441D01*
X186828403Y-70784606D01*
X186957479Y-70664661D01*
X186957481Y-70664658D01*
X186960622Y-70661740D01*
X187142713Y-70439268D01*
X187292927Y-70194142D01*
X187404934Y-69938984D01*
X187406757Y-69934830D01*
X187408483Y-69930898D01*
X187487244Y-69654406D01*
X187524193Y-69394784D01*
X187527146Y-69374036D01*
X187527146Y-69374034D01*
X187527751Y-69369784D01*
X187527845Y-69351951D01*
X187529235Y-69086583D01*
X187529235Y-69086576D01*
X187529257Y-69082297D01*
X187491732Y-68797266D01*
X187415871Y-68519964D01*
X187315426Y-68284476D01*
X187304763Y-68259476D01*
X187304761Y-68259472D01*
X187303077Y-68255524D01*
X187168398Y-68030492D01*
X187157643Y-68012521D01*
X187157640Y-68012517D01*
X187155439Y-68008839D01*
X186975687Y-67784472D01*
X186767149Y-67586577D01*
X186533683Y-67418814D01*
X186511843Y-67407250D01*
X186488654Y-67394972D01*
X186279608Y-67284288D01*
X186144617Y-67234888D01*
X186013658Y-67186964D01*
X186013656Y-67186963D01*
X186009627Y-67185489D01*
X185728736Y-67124245D01*
X185697685Y-67121801D01*
X185505718Y-67106693D01*
X185505709Y-67106693D01*
X185503261Y-67106500D01*
X185347729Y-67106500D01*
X185345593Y-67106646D01*
X185345582Y-67106646D01*
X185137452Y-67120835D01*
X185137446Y-67120836D01*
X185133175Y-67121127D01*
X185128980Y-67121996D01*
X185128978Y-67121996D01*
X184999020Y-67148909D01*
X184851658Y-67179426D01*
X184580657Y-67275393D01*
X184325188Y-67407250D01*
X184321687Y-67409711D01*
X184321683Y-67409713D01*
X184207583Y-67489904D01*
X184089977Y-67572559D01*
X183879378Y-67768260D01*
X183697287Y-67990732D01*
X183547073Y-68235858D01*
X183431517Y-68499102D01*
X183430342Y-68503229D01*
X183430341Y-68503230D01*
X183423220Y-68528230D01*
X183352756Y-68775594D01*
X183312249Y-69060216D01*
X183312227Y-69064505D01*
X183312226Y-69064512D01*
X183310765Y-69343417D01*
X183310743Y-69347703D01*
X75767998Y-69347703D01*
X75769235Y-69111583D01*
X75769235Y-69111576D01*
X75769257Y-69107297D01*
X75765407Y-69078049D01*
X75732292Y-68826522D01*
X75731732Y-68822266D01*
X75655871Y-68544964D01*
X75543077Y-68280524D01*
X75395439Y-68033839D01*
X75215687Y-67809472D01*
X75007149Y-67611577D01*
X74773683Y-67443814D01*
X74751843Y-67432250D01*
X74722670Y-67416804D01*
X74519608Y-67309288D01*
X74249627Y-67210489D01*
X73968736Y-67149245D01*
X73937685Y-67146801D01*
X73745718Y-67131693D01*
X73745709Y-67131693D01*
X73743261Y-67131500D01*
X73587729Y-67131500D01*
X73585593Y-67131646D01*
X73585582Y-67131646D01*
X73377452Y-67145835D01*
X73377446Y-67145836D01*
X73373175Y-67146127D01*
X73368980Y-67146996D01*
X73368978Y-67146996D01*
X73232417Y-67175276D01*
X73091658Y-67204426D01*
X72820657Y-67300393D01*
X72816848Y-67302359D01*
X72586363Y-67421321D01*
X72565188Y-67432250D01*
X72561687Y-67434711D01*
X72561683Y-67434713D01*
X72551594Y-67441804D01*
X72329977Y-67597559D01*
X72314892Y-67611577D01*
X72125239Y-67787814D01*
X72119378Y-67793260D01*
X71937287Y-68015732D01*
X71787073Y-68260858D01*
X71785347Y-68264791D01*
X71785346Y-68264792D01*
X71673333Y-68519964D01*
X71671517Y-68524102D01*
X71592756Y-68800594D01*
X71589672Y-68822266D01*
X71555196Y-69064512D01*
X71552249Y-69085216D01*
X71552227Y-69089505D01*
X71552226Y-69089512D01*
X71550765Y-69368417D01*
X71550743Y-69372703D01*
X70612500Y-69372703D01*
X70612500Y-66293500D01*
X70632502Y-66225379D01*
X70686158Y-66178886D01*
X70738500Y-66167500D01*
X188341500Y-66167500D01*
X188409621Y-66187502D01*
G37*
%TD.AperFunction*%
%TD*%
M02*
