%TF.GenerationSoftware,KiCad,Pcbnew,(6.0.11)*%
%TF.CreationDate,2023-03-14T15:00:17-04:00*%
%TF.ProjectId,RDNT_PCB,52444e54-5f50-4434-922e-6b696361645f,rev?*%
%TF.SameCoordinates,Original*%
%TF.FileFunction,Legend,Top*%
%TF.FilePolarity,Positive*%
%FSLAX46Y46*%
G04 Gerber Fmt 4.6, Leading zero omitted, Abs format (unit mm)*
G04 Created by KiCad (PCBNEW (6.0.11)) date 2023-03-14 15:00:17*
%MOMM*%
%LPD*%
G01*
G04 APERTURE LIST*
%ADD10C,0.177800*%
%ADD11C,0.304800*%
%ADD12C,0.150000*%
%ADD13C,0.254000*%
%ADD14C,0.098425*%
%ADD15C,0.120000*%
%ADD16C,0.200000*%
%ADD17C,0.100000*%
%ADD18C,0.127000*%
G04 APERTURE END LIST*
D10*
X150863904Y-23283333D02*
X151347714Y-23283333D01*
X150767142Y-23573619D02*
X151105809Y-22557619D01*
X151444476Y-23573619D01*
X152315333Y-22606000D02*
X152218571Y-22557619D01*
X152073428Y-22557619D01*
X151928285Y-22606000D01*
X151831523Y-22702761D01*
X151783142Y-22799523D01*
X151734761Y-22993047D01*
X151734761Y-23138190D01*
X151783142Y-23331714D01*
X151831523Y-23428476D01*
X151928285Y-23525238D01*
X152073428Y-23573619D01*
X152170190Y-23573619D01*
X152315333Y-23525238D01*
X152363714Y-23476857D01*
X152363714Y-23138190D01*
X152170190Y-23138190D01*
X152799142Y-23573619D02*
X152799142Y-22557619D01*
X153379714Y-23573619D01*
X153379714Y-22557619D01*
X153863523Y-23573619D02*
X153863523Y-22557619D01*
X154105428Y-22557619D01*
X154250571Y-22606000D01*
X154347333Y-22702761D01*
X154395714Y-22799523D01*
X154444095Y-22993047D01*
X154444095Y-23138190D01*
X154395714Y-23331714D01*
X154347333Y-23428476D01*
X154250571Y-23525238D01*
X154105428Y-23573619D01*
X153863523Y-23573619D01*
D11*
X121666000Y-47090148D02*
X121158000Y-46364434D01*
X120795142Y-47090148D02*
X120795142Y-45566148D01*
X121375714Y-45566148D01*
X121520857Y-45638720D01*
X121593428Y-45711291D01*
X121666000Y-45856434D01*
X121666000Y-46074148D01*
X121593428Y-46219291D01*
X121520857Y-46291862D01*
X121375714Y-46364434D01*
X120795142Y-46364434D01*
X122319142Y-47090148D02*
X122319142Y-45566148D01*
X122682000Y-45566148D01*
X122899714Y-45638720D01*
X123044857Y-45783862D01*
X123117428Y-45929005D01*
X123190000Y-46219291D01*
X123190000Y-46437005D01*
X123117428Y-46727291D01*
X123044857Y-46872434D01*
X122899714Y-47017577D01*
X122682000Y-47090148D01*
X122319142Y-47090148D01*
X123843142Y-47090148D02*
X123843142Y-45566148D01*
X124714000Y-47090148D01*
X124714000Y-45566148D01*
X125222000Y-45566148D02*
X126092857Y-45566148D01*
X125657428Y-47090148D02*
X125657428Y-45566148D01*
X128632857Y-47090148D02*
X128124857Y-46364434D01*
X127762000Y-47090148D02*
X127762000Y-45566148D01*
X128342571Y-45566148D01*
X128487714Y-45638720D01*
X128560285Y-45711291D01*
X128632857Y-45856434D01*
X128632857Y-46074148D01*
X128560285Y-46219291D01*
X128487714Y-46291862D01*
X128342571Y-46364434D01*
X127762000Y-46364434D01*
X129286000Y-46291862D02*
X129794000Y-46291862D01*
X130011714Y-47090148D02*
X129286000Y-47090148D01*
X129286000Y-45566148D01*
X130011714Y-45566148D01*
X130447142Y-45566148D02*
X130955142Y-47090148D01*
X131463142Y-45566148D01*
X132769428Y-47090148D02*
X131898571Y-47090148D01*
X132334000Y-47090148D02*
X132334000Y-45566148D01*
X132188857Y-45783862D01*
X132043714Y-45929005D01*
X131898571Y-46001577D01*
X117166571Y-49108360D02*
X117892285Y-49108360D01*
X117021428Y-49543788D02*
X117529428Y-48019788D01*
X118037428Y-49543788D01*
X118545428Y-48527788D02*
X118545428Y-49543788D01*
X118545428Y-48672931D02*
X118618000Y-48600360D01*
X118763142Y-48527788D01*
X118980857Y-48527788D01*
X119126000Y-48600360D01*
X119198571Y-48745502D01*
X119198571Y-49543788D01*
X120577428Y-48527788D02*
X120577428Y-49543788D01*
X119924285Y-48527788D02*
X119924285Y-49326074D01*
X119996857Y-49471217D01*
X120142000Y-49543788D01*
X120359714Y-49543788D01*
X120504857Y-49471217D01*
X120577428Y-49398645D01*
X121303142Y-49543788D02*
X121303142Y-48527788D01*
X121303142Y-48818074D02*
X121375714Y-48672931D01*
X121448285Y-48600360D01*
X121593428Y-48527788D01*
X121738571Y-48527788D01*
X122899714Y-49543788D02*
X122899714Y-48745502D01*
X122827142Y-48600360D01*
X122682000Y-48527788D01*
X122391714Y-48527788D01*
X122246571Y-48600360D01*
X122899714Y-49471217D02*
X122754571Y-49543788D01*
X122391714Y-49543788D01*
X122246571Y-49471217D01*
X122174000Y-49326074D01*
X122174000Y-49180931D01*
X122246571Y-49035788D01*
X122391714Y-48963217D01*
X122754571Y-48963217D01*
X122899714Y-48890645D01*
X124278571Y-48527788D02*
X124278571Y-49761502D01*
X124206000Y-49906645D01*
X124133428Y-49979217D01*
X123988285Y-50051788D01*
X123770571Y-50051788D01*
X123625428Y-49979217D01*
X124278571Y-49471217D02*
X124133428Y-49543788D01*
X123843142Y-49543788D01*
X123698000Y-49471217D01*
X123625428Y-49398645D01*
X123552857Y-49253502D01*
X123552857Y-48818074D01*
X123625428Y-48672931D01*
X123698000Y-48600360D01*
X123843142Y-48527788D01*
X124133428Y-48527788D01*
X124278571Y-48600360D01*
X126165428Y-49543788D02*
X126165428Y-48019788D01*
X127036285Y-49543788D01*
X127036285Y-48019788D01*
X128415142Y-48527788D02*
X128415142Y-49543788D01*
X127762000Y-48527788D02*
X127762000Y-49326074D01*
X127834571Y-49471217D01*
X127979714Y-49543788D01*
X128197428Y-49543788D01*
X128342571Y-49471217D01*
X128415142Y-49398645D01*
X129140857Y-49543788D02*
X129140857Y-48527788D01*
X129140857Y-48672931D02*
X129213428Y-48600360D01*
X129358571Y-48527788D01*
X129576285Y-48527788D01*
X129721428Y-48600360D01*
X129794000Y-48745502D01*
X129794000Y-49543788D01*
X129794000Y-48745502D02*
X129866571Y-48600360D01*
X130011714Y-48527788D01*
X130229428Y-48527788D01*
X130374571Y-48600360D01*
X130447142Y-48745502D01*
X130447142Y-49543788D01*
X131172857Y-49543788D02*
X131172857Y-48019788D01*
X131172857Y-48600360D02*
X131318000Y-48527788D01*
X131608285Y-48527788D01*
X131753428Y-48600360D01*
X131826000Y-48672931D01*
X131898571Y-48818074D01*
X131898571Y-49253502D01*
X131826000Y-49398645D01*
X131753428Y-49471217D01*
X131608285Y-49543788D01*
X131318000Y-49543788D01*
X131172857Y-49471217D01*
X132769428Y-49543788D02*
X132624285Y-49471217D01*
X132551714Y-49398645D01*
X132479142Y-49253502D01*
X132479142Y-48818074D01*
X132551714Y-48672931D01*
X132624285Y-48600360D01*
X132769428Y-48527788D01*
X132987142Y-48527788D01*
X133132285Y-48600360D01*
X133204857Y-48672931D01*
X133277428Y-48818074D01*
X133277428Y-49253502D01*
X133204857Y-49398645D01*
X133132285Y-49471217D01*
X132987142Y-49543788D01*
X132769428Y-49543788D01*
X134148285Y-49543788D02*
X134003142Y-49471217D01*
X133930571Y-49398645D01*
X133858000Y-49253502D01*
X133858000Y-48818074D01*
X133930571Y-48672931D01*
X134003142Y-48600360D01*
X134148285Y-48527788D01*
X134366000Y-48527788D01*
X134511142Y-48600360D01*
X134583714Y-48672931D01*
X134656285Y-48818074D01*
X134656285Y-49253502D01*
X134583714Y-49398645D01*
X134511142Y-49471217D01*
X134366000Y-49543788D01*
X134148285Y-49543788D01*
X135309428Y-49543788D02*
X135309428Y-48527788D01*
X135309428Y-48818074D02*
X135382000Y-48672931D01*
X135454571Y-48600360D01*
X135599714Y-48527788D01*
X135744857Y-48527788D01*
X136252857Y-49543788D02*
X136252857Y-48527788D01*
X136252857Y-48019788D02*
X136180285Y-48092360D01*
X136252857Y-48164931D01*
X136325428Y-48092360D01*
X136252857Y-48019788D01*
X136252857Y-48164931D01*
X119815428Y-51562000D02*
X120541142Y-51562000D01*
X119670285Y-51997428D02*
X120178285Y-50473428D01*
X120686285Y-51997428D01*
X121049142Y-50981428D02*
X121412000Y-51997428D01*
X121774857Y-50981428D01*
X122355428Y-51997428D02*
X122355428Y-50981428D01*
X122355428Y-50473428D02*
X122282857Y-50546000D01*
X122355428Y-50618571D01*
X122428000Y-50546000D01*
X122355428Y-50473428D01*
X122355428Y-50618571D01*
X123081142Y-51997428D02*
X123081142Y-50473428D01*
X123226285Y-51416857D02*
X123661714Y-51997428D01*
X123661714Y-50981428D02*
X123081142Y-51562000D01*
X125330857Y-50473428D02*
X125693714Y-51997428D01*
X125984000Y-50908857D01*
X126274285Y-51997428D01*
X126637142Y-50473428D01*
X127870857Y-51997428D02*
X127870857Y-51199142D01*
X127798285Y-51054000D01*
X127653142Y-50981428D01*
X127362857Y-50981428D01*
X127217714Y-51054000D01*
X127870857Y-51924857D02*
X127725714Y-51997428D01*
X127362857Y-51997428D01*
X127217714Y-51924857D01*
X127145142Y-51779714D01*
X127145142Y-51634571D01*
X127217714Y-51489428D01*
X127362857Y-51416857D01*
X127725714Y-51416857D01*
X127870857Y-51344285D01*
X129249714Y-51997428D02*
X129249714Y-50473428D01*
X129249714Y-51924857D02*
X129104571Y-51997428D01*
X128814285Y-51997428D01*
X128669142Y-51924857D01*
X128596571Y-51852285D01*
X128524000Y-51707142D01*
X128524000Y-51271714D01*
X128596571Y-51126571D01*
X128669142Y-51054000D01*
X128814285Y-50981428D01*
X129104571Y-50981428D01*
X129249714Y-51054000D01*
X129975428Y-51997428D02*
X129975428Y-50473428D01*
X130628571Y-51997428D02*
X130628571Y-51199142D01*
X130556000Y-51054000D01*
X130410857Y-50981428D01*
X130193142Y-50981428D01*
X130048000Y-51054000D01*
X129975428Y-51126571D01*
X131209142Y-50981428D02*
X131499428Y-51997428D01*
X131789714Y-51271714D01*
X132080000Y-51997428D01*
X132370285Y-50981428D01*
X133604000Y-51997428D02*
X133604000Y-51199142D01*
X133531428Y-51054000D01*
X133386285Y-50981428D01*
X133096000Y-50981428D01*
X132950857Y-51054000D01*
X133604000Y-51924857D02*
X133458857Y-51997428D01*
X133096000Y-51997428D01*
X132950857Y-51924857D01*
X132878285Y-51779714D01*
X132878285Y-51634571D01*
X132950857Y-51489428D01*
X133096000Y-51416857D01*
X133458857Y-51416857D01*
X133604000Y-51344285D01*
X119271142Y-52999640D02*
X119126000Y-52927068D01*
X118908285Y-52927068D01*
X118690571Y-52999640D01*
X118545428Y-53144782D01*
X118472857Y-53289925D01*
X118400285Y-53580211D01*
X118400285Y-53797925D01*
X118472857Y-54088211D01*
X118545428Y-54233354D01*
X118690571Y-54378497D01*
X118908285Y-54451068D01*
X119053428Y-54451068D01*
X119271142Y-54378497D01*
X119343714Y-54305925D01*
X119343714Y-53797925D01*
X119053428Y-53797925D01*
X119996857Y-54451068D02*
X119996857Y-53435068D01*
X119996857Y-53725354D02*
X120069428Y-53580211D01*
X120142000Y-53507640D01*
X120287142Y-53435068D01*
X120432285Y-53435068D01*
X121593428Y-54451068D02*
X121593428Y-53652782D01*
X121520857Y-53507640D01*
X121375714Y-53435068D01*
X121085428Y-53435068D01*
X120940285Y-53507640D01*
X121593428Y-54378497D02*
X121448285Y-54451068D01*
X121085428Y-54451068D01*
X120940285Y-54378497D01*
X120867714Y-54233354D01*
X120867714Y-54088211D01*
X120940285Y-53943068D01*
X121085428Y-53870497D01*
X121448285Y-53870497D01*
X121593428Y-53797925D01*
X122899714Y-54378497D02*
X122754571Y-54451068D01*
X122464285Y-54451068D01*
X122319142Y-54378497D01*
X122246571Y-54233354D01*
X122246571Y-53652782D01*
X122319142Y-53507640D01*
X122464285Y-53435068D01*
X122754571Y-53435068D01*
X122899714Y-53507640D01*
X122972285Y-53652782D01*
X122972285Y-53797925D01*
X122246571Y-53943068D01*
X123625428Y-54451068D02*
X123625428Y-53435068D01*
X123625428Y-53580211D02*
X123698000Y-53507640D01*
X123843142Y-53435068D01*
X124060857Y-53435068D01*
X124206000Y-53507640D01*
X124278571Y-53652782D01*
X124278571Y-54451068D01*
X124278571Y-53652782D02*
X124351142Y-53507640D01*
X124496285Y-53435068D01*
X124714000Y-53435068D01*
X124859142Y-53507640D01*
X124931714Y-53652782D01*
X124931714Y-54451068D01*
X126238000Y-54378497D02*
X126092857Y-54451068D01*
X125802571Y-54451068D01*
X125657428Y-54378497D01*
X125584857Y-54233354D01*
X125584857Y-53652782D01*
X125657428Y-53507640D01*
X125802571Y-53435068D01*
X126092857Y-53435068D01*
X126238000Y-53507640D01*
X126310571Y-53652782D01*
X126310571Y-53797925D01*
X125584857Y-53943068D01*
X128124857Y-52927068D02*
X128124857Y-54160782D01*
X128197428Y-54305925D01*
X128270000Y-54378497D01*
X128415142Y-54451068D01*
X128705428Y-54451068D01*
X128850571Y-54378497D01*
X128923142Y-54305925D01*
X128995714Y-54160782D01*
X128995714Y-52927068D01*
X129648857Y-54378497D02*
X129794000Y-54451068D01*
X130084285Y-54451068D01*
X130229428Y-54378497D01*
X130302000Y-54233354D01*
X130302000Y-54160782D01*
X130229428Y-54015640D01*
X130084285Y-53943068D01*
X129866571Y-53943068D01*
X129721428Y-53870497D01*
X129648857Y-53725354D01*
X129648857Y-53652782D01*
X129721428Y-53507640D01*
X129866571Y-53435068D01*
X130084285Y-53435068D01*
X130229428Y-53507640D01*
X130955142Y-54451068D02*
X130955142Y-53435068D01*
X130955142Y-53580211D02*
X131027714Y-53507640D01*
X131172857Y-53435068D01*
X131390571Y-53435068D01*
X131535714Y-53507640D01*
X131608285Y-53652782D01*
X131608285Y-54451068D01*
X131608285Y-53652782D02*
X131680857Y-53507640D01*
X131826000Y-53435068D01*
X132043714Y-53435068D01*
X132188857Y-53507640D01*
X132261428Y-53652782D01*
X132261428Y-54451068D01*
X133640285Y-54451068D02*
X133640285Y-53652782D01*
X133567714Y-53507640D01*
X133422571Y-53435068D01*
X133132285Y-53435068D01*
X132987142Y-53507640D01*
X133640285Y-54378497D02*
X133495142Y-54451068D01*
X133132285Y-54451068D01*
X132987142Y-54378497D01*
X132914571Y-54233354D01*
X132914571Y-54088211D01*
X132987142Y-53943068D01*
X133132285Y-53870497D01*
X133495142Y-53870497D01*
X133640285Y-53797925D01*
X134366000Y-53435068D02*
X134366000Y-54451068D01*
X134366000Y-53580211D02*
X134438571Y-53507640D01*
X134583714Y-53435068D01*
X134801428Y-53435068D01*
X134946571Y-53507640D01*
X135019142Y-53652782D01*
X135019142Y-54451068D01*
X119380000Y-56904708D02*
X119380000Y-55380708D01*
X120250857Y-56904708D02*
X119597714Y-56033851D01*
X120250857Y-55380708D02*
X119380000Y-56251565D01*
X121557142Y-56904708D02*
X121557142Y-56106422D01*
X121484571Y-55961280D01*
X121339428Y-55888708D01*
X121049142Y-55888708D01*
X120904000Y-55961280D01*
X121557142Y-56832137D02*
X121412000Y-56904708D01*
X121049142Y-56904708D01*
X120904000Y-56832137D01*
X120831428Y-56686994D01*
X120831428Y-56541851D01*
X120904000Y-56396708D01*
X121049142Y-56324137D01*
X121412000Y-56324137D01*
X121557142Y-56251565D01*
X122282857Y-56904708D02*
X122282857Y-55380708D01*
X122936000Y-56904708D02*
X122936000Y-56106422D01*
X122863428Y-55961280D01*
X122718285Y-55888708D01*
X122500571Y-55888708D01*
X122355428Y-55961280D01*
X122282857Y-56033851D01*
X124314857Y-56904708D02*
X124314857Y-56106422D01*
X124242285Y-55961280D01*
X124097142Y-55888708D01*
X123806857Y-55888708D01*
X123661714Y-55961280D01*
X124314857Y-56832137D02*
X124169714Y-56904708D01*
X123806857Y-56904708D01*
X123661714Y-56832137D01*
X123589142Y-56686994D01*
X123589142Y-56541851D01*
X123661714Y-56396708D01*
X123806857Y-56324137D01*
X124169714Y-56324137D01*
X124314857Y-56251565D01*
X125693714Y-56904708D02*
X125693714Y-56106422D01*
X125621142Y-55961280D01*
X125476000Y-55888708D01*
X125185714Y-55888708D01*
X125040571Y-55961280D01*
X125693714Y-56832137D02*
X125548571Y-56904708D01*
X125185714Y-56904708D01*
X125040571Y-56832137D01*
X124968000Y-56686994D01*
X124968000Y-56541851D01*
X125040571Y-56396708D01*
X125185714Y-56324137D01*
X125548571Y-56324137D01*
X125693714Y-56251565D01*
X126419428Y-55888708D02*
X126419428Y-56904708D01*
X126419428Y-56033851D02*
X126492000Y-55961280D01*
X126637142Y-55888708D01*
X126854857Y-55888708D01*
X127000000Y-55961280D01*
X127072571Y-56106422D01*
X127072571Y-56904708D01*
X128959428Y-56904708D02*
X128959428Y-55380708D01*
X129539999Y-55380708D01*
X129685142Y-55453280D01*
X129757714Y-55525851D01*
X129830285Y-55670994D01*
X129830285Y-55888708D01*
X129757714Y-56033851D01*
X129685142Y-56106422D01*
X129539999Y-56178994D01*
X128959428Y-56178994D01*
X131136571Y-56904708D02*
X131136571Y-56106422D01*
X131063999Y-55961280D01*
X130918857Y-55888708D01*
X130628571Y-55888708D01*
X130483428Y-55961280D01*
X131136571Y-56832137D02*
X130991428Y-56904708D01*
X130628571Y-56904708D01*
X130483428Y-56832137D01*
X130410857Y-56686994D01*
X130410857Y-56541851D01*
X130483428Y-56396708D01*
X130628571Y-56324137D01*
X130991428Y-56324137D01*
X131136571Y-56251565D01*
X131644571Y-55888708D02*
X132225142Y-55888708D01*
X131862285Y-55380708D02*
X131862285Y-56686994D01*
X131934857Y-56832137D01*
X132080000Y-56904708D01*
X132225142Y-56904708D01*
X133313714Y-56832137D02*
X133168571Y-56904708D01*
X132878285Y-56904708D01*
X132733142Y-56832137D01*
X132660571Y-56686994D01*
X132660571Y-56106422D01*
X132733142Y-55961280D01*
X132878285Y-55888708D01*
X133168571Y-55888708D01*
X133313714Y-55961280D01*
X133386285Y-56106422D01*
X133386285Y-56251565D01*
X132660571Y-56396708D01*
X134257142Y-56904708D02*
X134112000Y-56832137D01*
X134039428Y-56686994D01*
X134039428Y-55380708D01*
D12*
%TO.C,R4*%
X149439333Y-53834380D02*
X149106000Y-53358190D01*
X148867904Y-53834380D02*
X148867904Y-52834380D01*
X149248857Y-52834380D01*
X149344095Y-52882000D01*
X149391714Y-52929619D01*
X149439333Y-53024857D01*
X149439333Y-53167714D01*
X149391714Y-53262952D01*
X149344095Y-53310571D01*
X149248857Y-53358190D01*
X148867904Y-53358190D01*
X150296476Y-53167714D02*
X150296476Y-53834380D01*
X150058380Y-52786761D02*
X149820285Y-53501047D01*
X150439333Y-53501047D01*
%TO.C,C13*%
X148963142Y-47529142D02*
X148915523Y-47576761D01*
X148772666Y-47624380D01*
X148677428Y-47624380D01*
X148534571Y-47576761D01*
X148439333Y-47481523D01*
X148391714Y-47386285D01*
X148344095Y-47195809D01*
X148344095Y-47052952D01*
X148391714Y-46862476D01*
X148439333Y-46767238D01*
X148534571Y-46672000D01*
X148677428Y-46624380D01*
X148772666Y-46624380D01*
X148915523Y-46672000D01*
X148963142Y-46719619D01*
X149915523Y-47624380D02*
X149344095Y-47624380D01*
X149629809Y-47624380D02*
X149629809Y-46624380D01*
X149534571Y-46767238D01*
X149439333Y-46862476D01*
X149344095Y-46910095D01*
X150248857Y-46624380D02*
X150867904Y-46624380D01*
X150534571Y-47005333D01*
X150677428Y-47005333D01*
X150772666Y-47052952D01*
X150820285Y-47100571D01*
X150867904Y-47195809D01*
X150867904Y-47433904D01*
X150820285Y-47529142D01*
X150772666Y-47576761D01*
X150677428Y-47624380D01*
X150391714Y-47624380D01*
X150296476Y-47576761D01*
X150248857Y-47529142D01*
%TO.C,J6*%
X87201880Y-52149333D02*
X87916166Y-52149333D01*
X88059023Y-52196952D01*
X88154261Y-52292190D01*
X88201880Y-52435047D01*
X88201880Y-52530285D01*
X87201880Y-51244571D02*
X87201880Y-51435047D01*
X87249500Y-51530285D01*
X87297119Y-51577904D01*
X87439976Y-51673142D01*
X87630452Y-51720761D01*
X88011404Y-51720761D01*
X88106642Y-51673142D01*
X88154261Y-51625523D01*
X88201880Y-51530285D01*
X88201880Y-51339809D01*
X88154261Y-51244571D01*
X88106642Y-51196952D01*
X88011404Y-51149333D01*
X87773309Y-51149333D01*
X87678071Y-51196952D01*
X87630452Y-51244571D01*
X87582833Y-51339809D01*
X87582833Y-51530285D01*
X87630452Y-51625523D01*
X87678071Y-51673142D01*
X87773309Y-51720761D01*
%TO.C,U1*%
X152352095Y-56914380D02*
X152352095Y-57723904D01*
X152399714Y-57819142D01*
X152447333Y-57866761D01*
X152542571Y-57914380D01*
X152733047Y-57914380D01*
X152828285Y-57866761D01*
X152875904Y-57819142D01*
X152923523Y-57723904D01*
X152923523Y-56914380D01*
X153923523Y-57914380D02*
X153352095Y-57914380D01*
X153637809Y-57914380D02*
X153637809Y-56914380D01*
X153542571Y-57057238D01*
X153447333Y-57152476D01*
X153352095Y-57200095D01*
%TO.C,R7*%
X136739333Y-25090380D02*
X136406000Y-24614190D01*
X136167904Y-25090380D02*
X136167904Y-24090380D01*
X136548857Y-24090380D01*
X136644095Y-24138000D01*
X136691714Y-24185619D01*
X136739333Y-24280857D01*
X136739333Y-24423714D01*
X136691714Y-24518952D01*
X136644095Y-24566571D01*
X136548857Y-24614190D01*
X136167904Y-24614190D01*
X137072666Y-24090380D02*
X137739333Y-24090380D01*
X137310761Y-25090380D01*
%TO.C,J_out1*%
X108585238Y-14444380D02*
X108585238Y-15158666D01*
X108537619Y-15301523D01*
X108442380Y-15396761D01*
X108299523Y-15444380D01*
X108204285Y-15444380D01*
X108823333Y-15539619D02*
X109585238Y-15539619D01*
X109966190Y-15444380D02*
X109870952Y-15396761D01*
X109823333Y-15349142D01*
X109775714Y-15253904D01*
X109775714Y-14968190D01*
X109823333Y-14872952D01*
X109870952Y-14825333D01*
X109966190Y-14777714D01*
X110109047Y-14777714D01*
X110204285Y-14825333D01*
X110251904Y-14872952D01*
X110299523Y-14968190D01*
X110299523Y-15253904D01*
X110251904Y-15349142D01*
X110204285Y-15396761D01*
X110109047Y-15444380D01*
X109966190Y-15444380D01*
X111156666Y-14777714D02*
X111156666Y-15444380D01*
X110728095Y-14777714D02*
X110728095Y-15301523D01*
X110775714Y-15396761D01*
X110870952Y-15444380D01*
X111013809Y-15444380D01*
X111109047Y-15396761D01*
X111156666Y-15349142D01*
X111490000Y-14777714D02*
X111870952Y-14777714D01*
X111632857Y-14444380D02*
X111632857Y-15301523D01*
X111680476Y-15396761D01*
X111775714Y-15444380D01*
X111870952Y-15444380D01*
X112728095Y-15444380D02*
X112156666Y-15444380D01*
X112442380Y-15444380D02*
X112442380Y-14444380D01*
X112347142Y-14587238D01*
X112251904Y-14682476D01*
X112156666Y-14730095D01*
D13*
%TO.C,C_out1*%
X96598619Y-66010971D02*
X96538142Y-66071447D01*
X96356714Y-66131923D01*
X96235761Y-66131923D01*
X96054333Y-66071447D01*
X95933380Y-65950495D01*
X95872904Y-65829542D01*
X95812428Y-65587638D01*
X95812428Y-65406209D01*
X95872904Y-65164304D01*
X95933380Y-65043352D01*
X96054333Y-64922400D01*
X96235761Y-64861923D01*
X96356714Y-64861923D01*
X96538142Y-64922400D01*
X96598619Y-64982876D01*
X96840523Y-66252876D02*
X97808142Y-66252876D01*
X98291952Y-66131923D02*
X98171000Y-66071447D01*
X98110523Y-66010971D01*
X98050047Y-65890019D01*
X98050047Y-65527161D01*
X98110523Y-65406209D01*
X98171000Y-65345733D01*
X98291952Y-65285257D01*
X98473380Y-65285257D01*
X98594333Y-65345733D01*
X98654809Y-65406209D01*
X98715285Y-65527161D01*
X98715285Y-65890019D01*
X98654809Y-66010971D01*
X98594333Y-66071447D01*
X98473380Y-66131923D01*
X98291952Y-66131923D01*
X99803857Y-65285257D02*
X99803857Y-66131923D01*
X99259571Y-65285257D02*
X99259571Y-65950495D01*
X99320047Y-66071447D01*
X99441000Y-66131923D01*
X99622428Y-66131923D01*
X99743380Y-66071447D01*
X99803857Y-66010971D01*
X100227190Y-65285257D02*
X100711000Y-65285257D01*
X100408619Y-64861923D02*
X100408619Y-65950495D01*
X100469095Y-66071447D01*
X100590047Y-66131923D01*
X100711000Y-66131923D01*
X101799571Y-66131923D02*
X101073857Y-66131923D01*
X101436714Y-66131923D02*
X101436714Y-64861923D01*
X101315761Y-65043352D01*
X101194809Y-65164304D01*
X101073857Y-65224780D01*
D14*
%TO.C,R_fbt1*%
X100219327Y-46914102D02*
X100088093Y-46726626D01*
X99994355Y-46914102D02*
X99994355Y-46520401D01*
X100144336Y-46520401D01*
X100181831Y-46539149D01*
X100200579Y-46557897D01*
X100219327Y-46595392D01*
X100219327Y-46651635D01*
X100200579Y-46689130D01*
X100181831Y-46707878D01*
X100144336Y-46726626D01*
X99994355Y-46726626D01*
X100294317Y-46951598D02*
X100594280Y-46951598D01*
X100631775Y-46651635D02*
X100781757Y-46651635D01*
X100688018Y-46914102D02*
X100688018Y-46576644D01*
X100706766Y-46539149D01*
X100744261Y-46520401D01*
X100781757Y-46520401D01*
X100912990Y-46914102D02*
X100912990Y-46520401D01*
X100912990Y-46670383D02*
X100950486Y-46651635D01*
X101025476Y-46651635D01*
X101062972Y-46670383D01*
X101081719Y-46689130D01*
X101100467Y-46726626D01*
X101100467Y-46839112D01*
X101081719Y-46876607D01*
X101062972Y-46895355D01*
X101025476Y-46914102D01*
X100950486Y-46914102D01*
X100912990Y-46895355D01*
X101212953Y-46651635D02*
X101362934Y-46651635D01*
X101269196Y-46520401D02*
X101269196Y-46857859D01*
X101287944Y-46895355D01*
X101325439Y-46914102D01*
X101362934Y-46914102D01*
X101700392Y-46914102D02*
X101475420Y-46914102D01*
X101587906Y-46914102D02*
X101587906Y-46520401D01*
X101550411Y-46576644D01*
X101512916Y-46614140D01*
X101475420Y-46632887D01*
D13*
%TO.C,IC1*%
X95788238Y-49367923D02*
X95788238Y-48097923D01*
X97118714Y-49246971D02*
X97058238Y-49307447D01*
X96876809Y-49367923D01*
X96755857Y-49367923D01*
X96574428Y-49307447D01*
X96453476Y-49186495D01*
X96393000Y-49065542D01*
X96332523Y-48823638D01*
X96332523Y-48642209D01*
X96393000Y-48400304D01*
X96453476Y-48279352D01*
X96574428Y-48158400D01*
X96755857Y-48097923D01*
X96876809Y-48097923D01*
X97058238Y-48158400D01*
X97118714Y-48218876D01*
X98328238Y-49367923D02*
X97602523Y-49367923D01*
X97965380Y-49367923D02*
X97965380Y-48097923D01*
X97844428Y-48279352D01*
X97723476Y-48400304D01*
X97602523Y-48460780D01*
D12*
%TO.C,R17*%
X153281142Y-44648380D02*
X152947809Y-44172190D01*
X152709714Y-44648380D02*
X152709714Y-43648380D01*
X153090666Y-43648380D01*
X153185904Y-43696000D01*
X153233523Y-43743619D01*
X153281142Y-43838857D01*
X153281142Y-43981714D01*
X153233523Y-44076952D01*
X153185904Y-44124571D01*
X153090666Y-44172190D01*
X152709714Y-44172190D01*
X154233523Y-44648380D02*
X153662095Y-44648380D01*
X153947809Y-44648380D02*
X153947809Y-43648380D01*
X153852571Y-43791238D01*
X153757333Y-43886476D01*
X153662095Y-43934095D01*
X154566857Y-43648380D02*
X155233523Y-43648380D01*
X154804952Y-44648380D01*
%TO.C,R20*%
X152773142Y-34742380D02*
X152439809Y-34266190D01*
X152201714Y-34742380D02*
X152201714Y-33742380D01*
X152582666Y-33742380D01*
X152677904Y-33790000D01*
X152725523Y-33837619D01*
X152773142Y-33932857D01*
X152773142Y-34075714D01*
X152725523Y-34170952D01*
X152677904Y-34218571D01*
X152582666Y-34266190D01*
X152201714Y-34266190D01*
X153154095Y-33837619D02*
X153201714Y-33790000D01*
X153296952Y-33742380D01*
X153535047Y-33742380D01*
X153630285Y-33790000D01*
X153677904Y-33837619D01*
X153725523Y-33932857D01*
X153725523Y-34028095D01*
X153677904Y-34170952D01*
X153106476Y-34742380D01*
X153725523Y-34742380D01*
X154344571Y-33742380D02*
X154439809Y-33742380D01*
X154535047Y-33790000D01*
X154582666Y-33837619D01*
X154630285Y-33932857D01*
X154677904Y-34123333D01*
X154677904Y-34361428D01*
X154630285Y-34551904D01*
X154582666Y-34647142D01*
X154535047Y-34694761D01*
X154439809Y-34742380D01*
X154344571Y-34742380D01*
X154249333Y-34694761D01*
X154201714Y-34647142D01*
X154154095Y-34551904D01*
X154106476Y-34361428D01*
X154106476Y-34123333D01*
X154154095Y-33932857D01*
X154201714Y-33837619D01*
X154249333Y-33790000D01*
X154344571Y-33742380D01*
%TO.C,R19*%
X147947142Y-37536380D02*
X147613809Y-37060190D01*
X147375714Y-37536380D02*
X147375714Y-36536380D01*
X147756666Y-36536380D01*
X147851904Y-36584000D01*
X147899523Y-36631619D01*
X147947142Y-36726857D01*
X147947142Y-36869714D01*
X147899523Y-36964952D01*
X147851904Y-37012571D01*
X147756666Y-37060190D01*
X147375714Y-37060190D01*
X148899523Y-37536380D02*
X148328095Y-37536380D01*
X148613809Y-37536380D02*
X148613809Y-36536380D01*
X148518571Y-36679238D01*
X148423333Y-36774476D01*
X148328095Y-36822095D01*
X149375714Y-37536380D02*
X149566190Y-37536380D01*
X149661428Y-37488761D01*
X149709047Y-37441142D01*
X149804285Y-37298285D01*
X149851904Y-37107809D01*
X149851904Y-36726857D01*
X149804285Y-36631619D01*
X149756666Y-36584000D01*
X149661428Y-36536380D01*
X149470952Y-36536380D01*
X149375714Y-36584000D01*
X149328095Y-36631619D01*
X149280476Y-36726857D01*
X149280476Y-36964952D01*
X149328095Y-37060190D01*
X149375714Y-37107809D01*
X149470952Y-37155428D01*
X149661428Y-37155428D01*
X149756666Y-37107809D01*
X149804285Y-37060190D01*
X149851904Y-36964952D01*
%TO.C,R2*%
X136485333Y-88844380D02*
X136152000Y-88368190D01*
X135913904Y-88844380D02*
X135913904Y-87844380D01*
X136294857Y-87844380D01*
X136390095Y-87892000D01*
X136437714Y-87939619D01*
X136485333Y-88034857D01*
X136485333Y-88177714D01*
X136437714Y-88272952D01*
X136390095Y-88320571D01*
X136294857Y-88368190D01*
X135913904Y-88368190D01*
X136866285Y-87939619D02*
X136913904Y-87892000D01*
X137009142Y-87844380D01*
X137247238Y-87844380D01*
X137342476Y-87892000D01*
X137390095Y-87939619D01*
X137437714Y-88034857D01*
X137437714Y-88130095D01*
X137390095Y-88272952D01*
X136818666Y-88844380D01*
X137437714Y-88844380D01*
D14*
%TO.C,R_fbb1*%
X98375710Y-47701502D02*
X98244476Y-47514026D01*
X98150738Y-47701502D02*
X98150738Y-47307801D01*
X98300719Y-47307801D01*
X98338214Y-47326549D01*
X98356962Y-47345297D01*
X98375710Y-47382792D01*
X98375710Y-47439035D01*
X98356962Y-47476530D01*
X98338214Y-47495278D01*
X98300719Y-47514026D01*
X98150738Y-47514026D01*
X98450700Y-47738998D02*
X98750663Y-47738998D01*
X98788158Y-47439035D02*
X98938140Y-47439035D01*
X98844401Y-47701502D02*
X98844401Y-47364044D01*
X98863149Y-47326549D01*
X98900644Y-47307801D01*
X98938140Y-47307801D01*
X99069373Y-47701502D02*
X99069373Y-47307801D01*
X99069373Y-47457783D02*
X99106869Y-47439035D01*
X99181859Y-47439035D01*
X99219355Y-47457783D01*
X99238102Y-47476530D01*
X99256850Y-47514026D01*
X99256850Y-47626512D01*
X99238102Y-47664007D01*
X99219355Y-47682755D01*
X99181859Y-47701502D01*
X99106869Y-47701502D01*
X99069373Y-47682755D01*
X99425579Y-47701502D02*
X99425579Y-47307801D01*
X99425579Y-47457783D02*
X99463074Y-47439035D01*
X99538065Y-47439035D01*
X99575560Y-47457783D01*
X99594308Y-47476530D01*
X99613056Y-47514026D01*
X99613056Y-47626512D01*
X99594308Y-47664007D01*
X99575560Y-47682755D01*
X99538065Y-47701502D01*
X99463074Y-47701502D01*
X99425579Y-47682755D01*
X99988009Y-47701502D02*
X99763037Y-47701502D01*
X99875523Y-47701502D02*
X99875523Y-47307801D01*
X99838028Y-47364044D01*
X99800532Y-47401540D01*
X99763037Y-47420287D01*
D12*
%TO.C,R15*%
X112641142Y-75382380D02*
X112307809Y-74906190D01*
X112069714Y-75382380D02*
X112069714Y-74382380D01*
X112450666Y-74382380D01*
X112545904Y-74430000D01*
X112593523Y-74477619D01*
X112641142Y-74572857D01*
X112641142Y-74715714D01*
X112593523Y-74810952D01*
X112545904Y-74858571D01*
X112450666Y-74906190D01*
X112069714Y-74906190D01*
X113593523Y-75382380D02*
X113022095Y-75382380D01*
X113307809Y-75382380D02*
X113307809Y-74382380D01*
X113212571Y-74525238D01*
X113117333Y-74620476D01*
X113022095Y-74668095D01*
X114498285Y-74382380D02*
X114022095Y-74382380D01*
X113974476Y-74858571D01*
X114022095Y-74810952D01*
X114117333Y-74763333D01*
X114355428Y-74763333D01*
X114450666Y-74810952D01*
X114498285Y-74858571D01*
X114545904Y-74953809D01*
X114545904Y-75191904D01*
X114498285Y-75287142D01*
X114450666Y-75334761D01*
X114355428Y-75382380D01*
X114117333Y-75382380D01*
X114022095Y-75334761D01*
X113974476Y-75287142D01*
%TO.C,C5*%
X95796333Y-78263142D02*
X95748714Y-78310761D01*
X95605857Y-78358380D01*
X95510619Y-78358380D01*
X95367761Y-78310761D01*
X95272523Y-78215523D01*
X95224904Y-78120285D01*
X95177285Y-77929809D01*
X95177285Y-77786952D01*
X95224904Y-77596476D01*
X95272523Y-77501238D01*
X95367761Y-77406000D01*
X95510619Y-77358380D01*
X95605857Y-77358380D01*
X95748714Y-77406000D01*
X95796333Y-77453619D01*
X96701095Y-77358380D02*
X96224904Y-77358380D01*
X96177285Y-77834571D01*
X96224904Y-77786952D01*
X96320142Y-77739333D01*
X96558238Y-77739333D01*
X96653476Y-77786952D01*
X96701095Y-77834571D01*
X96748714Y-77929809D01*
X96748714Y-78167904D01*
X96701095Y-78263142D01*
X96653476Y-78310761D01*
X96558238Y-78358380D01*
X96320142Y-78358380D01*
X96224904Y-78310761D01*
X96177285Y-78263142D01*
%TO.C,C8*%
X150455333Y-27535142D02*
X150407714Y-27582761D01*
X150264857Y-27630380D01*
X150169619Y-27630380D01*
X150026761Y-27582761D01*
X149931523Y-27487523D01*
X149883904Y-27392285D01*
X149836285Y-27201809D01*
X149836285Y-27058952D01*
X149883904Y-26868476D01*
X149931523Y-26773238D01*
X150026761Y-26678000D01*
X150169619Y-26630380D01*
X150264857Y-26630380D01*
X150407714Y-26678000D01*
X150455333Y-26725619D01*
X151026761Y-27058952D02*
X150931523Y-27011333D01*
X150883904Y-26963714D01*
X150836285Y-26868476D01*
X150836285Y-26820857D01*
X150883904Y-26725619D01*
X150931523Y-26678000D01*
X151026761Y-26630380D01*
X151217238Y-26630380D01*
X151312476Y-26678000D01*
X151360095Y-26725619D01*
X151407714Y-26820857D01*
X151407714Y-26868476D01*
X151360095Y-26963714D01*
X151312476Y-27011333D01*
X151217238Y-27058952D01*
X151026761Y-27058952D01*
X150931523Y-27106571D01*
X150883904Y-27154190D01*
X150836285Y-27249428D01*
X150836285Y-27439904D01*
X150883904Y-27535142D01*
X150931523Y-27582761D01*
X151026761Y-27630380D01*
X151217238Y-27630380D01*
X151312476Y-27582761D01*
X151360095Y-27535142D01*
X151407714Y-27439904D01*
X151407714Y-27249428D01*
X151360095Y-27154190D01*
X151312476Y-27106571D01*
X151217238Y-27058952D01*
%TO.C,L1*%
X103211333Y-52547780D02*
X102735142Y-52547780D01*
X102735142Y-51547780D01*
X104068476Y-52547780D02*
X103497047Y-52547780D01*
X103782761Y-52547780D02*
X103782761Y-51547780D01*
X103687523Y-51690638D01*
X103592285Y-51785876D01*
X103497047Y-51833495D01*
X95909619Y-57119780D02*
X95909619Y-56119780D01*
X95909619Y-56595971D02*
X96481047Y-56595971D01*
X96481047Y-57119780D02*
X96481047Y-56119780D01*
X97528666Y-57024542D02*
X97481047Y-57072161D01*
X97338190Y-57119780D01*
X97242952Y-57119780D01*
X97100095Y-57072161D01*
X97004857Y-56976923D01*
X96957238Y-56881685D01*
X96909619Y-56691209D01*
X96909619Y-56548352D01*
X96957238Y-56357876D01*
X97004857Y-56262638D01*
X97100095Y-56167400D01*
X97242952Y-56119780D01*
X97338190Y-56119780D01*
X97481047Y-56167400D01*
X97528666Y-56215019D01*
X97957238Y-57119780D02*
X97957238Y-56119780D01*
X98290571Y-56834066D01*
X98623904Y-56119780D01*
X98623904Y-57119780D01*
X99290571Y-56119780D02*
X99385809Y-56119780D01*
X99481047Y-56167400D01*
X99528666Y-56215019D01*
X99576285Y-56310257D01*
X99623904Y-56500733D01*
X99623904Y-56738828D01*
X99576285Y-56929304D01*
X99528666Y-57024542D01*
X99481047Y-57072161D01*
X99385809Y-57119780D01*
X99290571Y-57119780D01*
X99195333Y-57072161D01*
X99147714Y-57024542D01*
X99100095Y-56929304D01*
X99052476Y-56738828D01*
X99052476Y-56500733D01*
X99100095Y-56310257D01*
X99147714Y-56215019D01*
X99195333Y-56167400D01*
X99290571Y-56119780D01*
X99957238Y-56119780D02*
X100623904Y-56119780D01*
X100195333Y-57119780D01*
X101195333Y-56119780D02*
X101290571Y-56119780D01*
X101385809Y-56167400D01*
X101433428Y-56215019D01*
X101481047Y-56310257D01*
X101528666Y-56500733D01*
X101528666Y-56738828D01*
X101481047Y-56929304D01*
X101433428Y-57024542D01*
X101385809Y-57072161D01*
X101290571Y-57119780D01*
X101195333Y-57119780D01*
X101100095Y-57072161D01*
X101052476Y-57024542D01*
X101004857Y-56929304D01*
X100957238Y-56738828D01*
X100957238Y-56500733D01*
X101004857Y-56310257D01*
X101052476Y-56215019D01*
X101100095Y-56167400D01*
X101195333Y-56119780D01*
X101862000Y-56119780D02*
X102481047Y-56119780D01*
X102147714Y-56500733D01*
X102290571Y-56500733D01*
X102385809Y-56548352D01*
X102433428Y-56595971D01*
X102481047Y-56691209D01*
X102481047Y-56929304D01*
X102433428Y-57024542D01*
X102385809Y-57072161D01*
X102290571Y-57119780D01*
X102004857Y-57119780D01*
X101909619Y-57072161D01*
X101862000Y-57024542D01*
X102909619Y-56738828D02*
X103671523Y-56738828D01*
X104576285Y-56453114D02*
X104576285Y-57119780D01*
X104338190Y-56072161D02*
X104100095Y-56786447D01*
X104719142Y-56786447D01*
X105671523Y-57119780D02*
X105338190Y-56643590D01*
X105100095Y-57119780D02*
X105100095Y-56119780D01*
X105481047Y-56119780D01*
X105576285Y-56167400D01*
X105623904Y-56215019D01*
X105671523Y-56310257D01*
X105671523Y-56453114D01*
X105623904Y-56548352D01*
X105576285Y-56595971D01*
X105481047Y-56643590D01*
X105100095Y-56643590D01*
X106004857Y-56119780D02*
X106671523Y-56119780D01*
X106242952Y-57119780D01*
X107052476Y-56738828D02*
X107814380Y-56738828D01*
X108862000Y-57119780D02*
X108528666Y-56643590D01*
X108290571Y-57119780D02*
X108290571Y-56119780D01*
X108671523Y-56119780D01*
X108766761Y-56167400D01*
X108814380Y-56215019D01*
X108862000Y-56310257D01*
X108862000Y-56453114D01*
X108814380Y-56548352D01*
X108766761Y-56595971D01*
X108671523Y-56643590D01*
X108290571Y-56643590D01*
X101306380Y-56921400D02*
X101544476Y-56921400D01*
X101449238Y-57159495D02*
X101544476Y-56921400D01*
X101449238Y-56683304D01*
X101734952Y-57064257D02*
X101544476Y-56921400D01*
X101734952Y-56778542D01*
%TO.C,H5*%
X85598095Y-89860380D02*
X85598095Y-88860380D01*
X85598095Y-89336571D02*
X86169523Y-89336571D01*
X86169523Y-89860380D02*
X86169523Y-88860380D01*
X87121904Y-88860380D02*
X86645714Y-88860380D01*
X86598095Y-89336571D01*
X86645714Y-89288952D01*
X86740952Y-89241333D01*
X86979047Y-89241333D01*
X87074285Y-89288952D01*
X87121904Y-89336571D01*
X87169523Y-89431809D01*
X87169523Y-89669904D01*
X87121904Y-89765142D01*
X87074285Y-89812761D01*
X86979047Y-89860380D01*
X86740952Y-89860380D01*
X86645714Y-89812761D01*
X86598095Y-89765142D01*
%TO.C,J1*%
X138604666Y-87673380D02*
X138604666Y-88387666D01*
X138557047Y-88530523D01*
X138461809Y-88625761D01*
X138318952Y-88673380D01*
X138223714Y-88673380D01*
X139604666Y-88673380D02*
X139033238Y-88673380D01*
X139318952Y-88673380D02*
X139318952Y-87673380D01*
X139223714Y-87816238D01*
X139128476Y-87911476D01*
X139033238Y-87959095D01*
%TO.C,SW1*%
X92392666Y-81938761D02*
X92535523Y-81986380D01*
X92773619Y-81986380D01*
X92868857Y-81938761D01*
X92916476Y-81891142D01*
X92964095Y-81795904D01*
X92964095Y-81700666D01*
X92916476Y-81605428D01*
X92868857Y-81557809D01*
X92773619Y-81510190D01*
X92583142Y-81462571D01*
X92487904Y-81414952D01*
X92440285Y-81367333D01*
X92392666Y-81272095D01*
X92392666Y-81176857D01*
X92440285Y-81081619D01*
X92487904Y-81034000D01*
X92583142Y-80986380D01*
X92821238Y-80986380D01*
X92964095Y-81034000D01*
X93297428Y-80986380D02*
X93535523Y-81986380D01*
X93726000Y-81272095D01*
X93916476Y-81986380D01*
X94154571Y-80986380D01*
X95059333Y-81986380D02*
X94487904Y-81986380D01*
X94773619Y-81986380D02*
X94773619Y-80986380D01*
X94678380Y-81129238D01*
X94583142Y-81224476D01*
X94487904Y-81272095D01*
%TO.C,R3*%
X125970380Y-62396666D02*
X125494190Y-62730000D01*
X125970380Y-62968095D02*
X124970380Y-62968095D01*
X124970380Y-62587142D01*
X125018000Y-62491904D01*
X125065619Y-62444285D01*
X125160857Y-62396666D01*
X125303714Y-62396666D01*
X125398952Y-62444285D01*
X125446571Y-62491904D01*
X125494190Y-62587142D01*
X125494190Y-62968095D01*
X124970380Y-62063333D02*
X124970380Y-61444285D01*
X125351333Y-61777619D01*
X125351333Y-61634761D01*
X125398952Y-61539523D01*
X125446571Y-61491904D01*
X125541809Y-61444285D01*
X125779904Y-61444285D01*
X125875142Y-61491904D01*
X125922761Y-61539523D01*
X125970380Y-61634761D01*
X125970380Y-61920476D01*
X125922761Y-62015714D01*
X125875142Y-62063333D01*
%TO.C,U3*%
X141224095Y-33488380D02*
X141224095Y-34297904D01*
X141271714Y-34393142D01*
X141319333Y-34440761D01*
X141414571Y-34488380D01*
X141605047Y-34488380D01*
X141700285Y-34440761D01*
X141747904Y-34393142D01*
X141795523Y-34297904D01*
X141795523Y-33488380D01*
X142176476Y-33488380D02*
X142795523Y-33488380D01*
X142462190Y-33869333D01*
X142605047Y-33869333D01*
X142700285Y-33916952D01*
X142747904Y-33964571D01*
X142795523Y-34059809D01*
X142795523Y-34297904D01*
X142747904Y-34393142D01*
X142700285Y-34440761D01*
X142605047Y-34488380D01*
X142319333Y-34488380D01*
X142224095Y-34440761D01*
X142176476Y-34393142D01*
X140295523Y-28773380D02*
X139819333Y-28773380D01*
X139819333Y-27773380D01*
X140628857Y-28773380D02*
X140628857Y-27773380D01*
X140962190Y-28487666D01*
X141295523Y-27773380D01*
X141295523Y-28773380D01*
X141676476Y-27773380D02*
X142295523Y-27773380D01*
X141962190Y-28154333D01*
X142105047Y-28154333D01*
X142200285Y-28201952D01*
X142247904Y-28249571D01*
X142295523Y-28344809D01*
X142295523Y-28582904D01*
X142247904Y-28678142D01*
X142200285Y-28725761D01*
X142105047Y-28773380D01*
X141819333Y-28773380D01*
X141724095Y-28725761D01*
X141676476Y-28678142D01*
X142676476Y-27868619D02*
X142724095Y-27821000D01*
X142819333Y-27773380D01*
X143057428Y-27773380D01*
X143152666Y-27821000D01*
X143200285Y-27868619D01*
X143247904Y-27963857D01*
X143247904Y-28059095D01*
X143200285Y-28201952D01*
X142628857Y-28773380D01*
X143247904Y-28773380D01*
X144105047Y-28106714D02*
X144105047Y-28773380D01*
X143866952Y-27725761D02*
X143628857Y-28440047D01*
X144247904Y-28440047D01*
%TO.C,R18*%
X147439142Y-44648380D02*
X147105809Y-44172190D01*
X146867714Y-44648380D02*
X146867714Y-43648380D01*
X147248666Y-43648380D01*
X147343904Y-43696000D01*
X147391523Y-43743619D01*
X147439142Y-43838857D01*
X147439142Y-43981714D01*
X147391523Y-44076952D01*
X147343904Y-44124571D01*
X147248666Y-44172190D01*
X146867714Y-44172190D01*
X148391523Y-44648380D02*
X147820095Y-44648380D01*
X148105809Y-44648380D02*
X148105809Y-43648380D01*
X148010571Y-43791238D01*
X147915333Y-43886476D01*
X147820095Y-43934095D01*
X148962952Y-44076952D02*
X148867714Y-44029333D01*
X148820095Y-43981714D01*
X148772476Y-43886476D01*
X148772476Y-43838857D01*
X148820095Y-43743619D01*
X148867714Y-43696000D01*
X148962952Y-43648380D01*
X149153428Y-43648380D01*
X149248666Y-43696000D01*
X149296285Y-43743619D01*
X149343904Y-43838857D01*
X149343904Y-43886476D01*
X149296285Y-43981714D01*
X149248666Y-44029333D01*
X149153428Y-44076952D01*
X148962952Y-44076952D01*
X148867714Y-44124571D01*
X148820095Y-44172190D01*
X148772476Y-44267428D01*
X148772476Y-44457904D01*
X148820095Y-44553142D01*
X148867714Y-44600761D01*
X148962952Y-44648380D01*
X149153428Y-44648380D01*
X149248666Y-44600761D01*
X149296285Y-44553142D01*
X149343904Y-44457904D01*
X149343904Y-44267428D01*
X149296285Y-44172190D01*
X149248666Y-44124571D01*
X149153428Y-44076952D01*
%TO.C,C4*%
X98385333Y-75215142D02*
X98337714Y-75262761D01*
X98194857Y-75310380D01*
X98099619Y-75310380D01*
X97956761Y-75262761D01*
X97861523Y-75167523D01*
X97813904Y-75072285D01*
X97766285Y-74881809D01*
X97766285Y-74738952D01*
X97813904Y-74548476D01*
X97861523Y-74453238D01*
X97956761Y-74358000D01*
X98099619Y-74310380D01*
X98194857Y-74310380D01*
X98337714Y-74358000D01*
X98385333Y-74405619D01*
X99242476Y-74643714D02*
X99242476Y-75310380D01*
X99004380Y-74262761D02*
X98766285Y-74977047D01*
X99385333Y-74977047D01*
%TO.C,C10*%
X134993142Y-33885142D02*
X134945523Y-33932761D01*
X134802666Y-33980380D01*
X134707428Y-33980380D01*
X134564571Y-33932761D01*
X134469333Y-33837523D01*
X134421714Y-33742285D01*
X134374095Y-33551809D01*
X134374095Y-33408952D01*
X134421714Y-33218476D01*
X134469333Y-33123238D01*
X134564571Y-33028000D01*
X134707428Y-32980380D01*
X134802666Y-32980380D01*
X134945523Y-33028000D01*
X134993142Y-33075619D01*
X135945523Y-33980380D02*
X135374095Y-33980380D01*
X135659809Y-33980380D02*
X135659809Y-32980380D01*
X135564571Y-33123238D01*
X135469333Y-33218476D01*
X135374095Y-33266095D01*
X136564571Y-32980380D02*
X136659809Y-32980380D01*
X136755047Y-33028000D01*
X136802666Y-33075619D01*
X136850285Y-33170857D01*
X136897904Y-33361333D01*
X136897904Y-33599428D01*
X136850285Y-33789904D01*
X136802666Y-33885142D01*
X136755047Y-33932761D01*
X136659809Y-33980380D01*
X136564571Y-33980380D01*
X136469333Y-33932761D01*
X136421714Y-33885142D01*
X136374095Y-33789904D01*
X136326476Y-33599428D01*
X136326476Y-33361333D01*
X136374095Y-33170857D01*
X136421714Y-33075619D01*
X136469333Y-33028000D01*
X136564571Y-32980380D01*
D14*
%TO.C,C_in1*%
X92222560Y-50712007D02*
X92203813Y-50730755D01*
X92147570Y-50749502D01*
X92110074Y-50749502D01*
X92053831Y-50730755D01*
X92016336Y-50693259D01*
X91997588Y-50655764D01*
X91978841Y-50580773D01*
X91978841Y-50524530D01*
X91997588Y-50449540D01*
X92016336Y-50412044D01*
X92053831Y-50374549D01*
X92110074Y-50355801D01*
X92147570Y-50355801D01*
X92203813Y-50374549D01*
X92222560Y-50393297D01*
X92297551Y-50786998D02*
X92597514Y-50786998D01*
X92691252Y-50749502D02*
X92691252Y-50487035D01*
X92691252Y-50355801D02*
X92672504Y-50374549D01*
X92691252Y-50393297D01*
X92710000Y-50374549D01*
X92691252Y-50355801D01*
X92691252Y-50393297D01*
X92878729Y-50487035D02*
X92878729Y-50749502D01*
X92878729Y-50524530D02*
X92897476Y-50505783D01*
X92934972Y-50487035D01*
X92991215Y-50487035D01*
X93028710Y-50505783D01*
X93047458Y-50543278D01*
X93047458Y-50749502D01*
X93441159Y-50749502D02*
X93216187Y-50749502D01*
X93328673Y-50749502D02*
X93328673Y-50355801D01*
X93291177Y-50412044D01*
X93253682Y-50449540D01*
X93216187Y-50468287D01*
%TO.C,C_inx1*%
X94349205Y-53480607D02*
X94330457Y-53499355D01*
X94274214Y-53518102D01*
X94236719Y-53518102D01*
X94180476Y-53499355D01*
X94142981Y-53461859D01*
X94124233Y-53424364D01*
X94105485Y-53349373D01*
X94105485Y-53293130D01*
X94124233Y-53218140D01*
X94142981Y-53180644D01*
X94180476Y-53143149D01*
X94236719Y-53124401D01*
X94274214Y-53124401D01*
X94330457Y-53143149D01*
X94349205Y-53161897D01*
X94424196Y-53555598D02*
X94724158Y-53555598D01*
X94817897Y-53518102D02*
X94817897Y-53255635D01*
X94817897Y-53124401D02*
X94799149Y-53143149D01*
X94817897Y-53161897D01*
X94836644Y-53143149D01*
X94817897Y-53124401D01*
X94817897Y-53161897D01*
X95005373Y-53255635D02*
X95005373Y-53518102D01*
X95005373Y-53293130D02*
X95024121Y-53274383D01*
X95061616Y-53255635D01*
X95117859Y-53255635D01*
X95155355Y-53274383D01*
X95174102Y-53311878D01*
X95174102Y-53518102D01*
X95324084Y-53518102D02*
X95530308Y-53255635D01*
X95324084Y-53255635D02*
X95530308Y-53518102D01*
X95886514Y-53518102D02*
X95661542Y-53518102D01*
X95774028Y-53518102D02*
X95774028Y-53124401D01*
X95736532Y-53180644D01*
X95699037Y-53218140D01*
X95661542Y-53236887D01*
D12*
%TO.C,H4*%
X164338095Y-90232380D02*
X164338095Y-89232380D01*
X164338095Y-89708571D02*
X164909523Y-89708571D01*
X164909523Y-90232380D02*
X164909523Y-89232380D01*
X165814285Y-89565714D02*
X165814285Y-90232380D01*
X165576190Y-89184761D02*
X165338095Y-89899047D01*
X165957142Y-89899047D01*
%TO.C,SW2*%
X110680666Y-82446761D02*
X110823523Y-82494380D01*
X111061619Y-82494380D01*
X111156857Y-82446761D01*
X111204476Y-82399142D01*
X111252095Y-82303904D01*
X111252095Y-82208666D01*
X111204476Y-82113428D01*
X111156857Y-82065809D01*
X111061619Y-82018190D01*
X110871142Y-81970571D01*
X110775904Y-81922952D01*
X110728285Y-81875333D01*
X110680666Y-81780095D01*
X110680666Y-81684857D01*
X110728285Y-81589619D01*
X110775904Y-81542000D01*
X110871142Y-81494380D01*
X111109238Y-81494380D01*
X111252095Y-81542000D01*
X111585428Y-81494380D02*
X111823523Y-82494380D01*
X112014000Y-81780095D01*
X112204476Y-82494380D01*
X112442571Y-81494380D01*
X112775904Y-81589619D02*
X112823523Y-81542000D01*
X112918761Y-81494380D01*
X113156857Y-81494380D01*
X113252095Y-81542000D01*
X113299714Y-81589619D01*
X113347333Y-81684857D01*
X113347333Y-81780095D01*
X113299714Y-81922952D01*
X112728285Y-82494380D01*
X113347333Y-82494380D01*
%TO.C,C12*%
X119753142Y-75033142D02*
X119705523Y-75080761D01*
X119562666Y-75128380D01*
X119467428Y-75128380D01*
X119324571Y-75080761D01*
X119229333Y-74985523D01*
X119181714Y-74890285D01*
X119134095Y-74699809D01*
X119134095Y-74556952D01*
X119181714Y-74366476D01*
X119229333Y-74271238D01*
X119324571Y-74176000D01*
X119467428Y-74128380D01*
X119562666Y-74128380D01*
X119705523Y-74176000D01*
X119753142Y-74223619D01*
X120705523Y-75128380D02*
X120134095Y-75128380D01*
X120419809Y-75128380D02*
X120419809Y-74128380D01*
X120324571Y-74271238D01*
X120229333Y-74366476D01*
X120134095Y-74414095D01*
X121086476Y-74223619D02*
X121134095Y-74176000D01*
X121229333Y-74128380D01*
X121467428Y-74128380D01*
X121562666Y-74176000D01*
X121610285Y-74223619D01*
X121657904Y-74318857D01*
X121657904Y-74414095D01*
X121610285Y-74556952D01*
X121038857Y-75128380D01*
X121657904Y-75128380D01*
%TO.C,C9*%
X131405333Y-24995142D02*
X131357714Y-25042761D01*
X131214857Y-25090380D01*
X131119619Y-25090380D01*
X130976761Y-25042761D01*
X130881523Y-24947523D01*
X130833904Y-24852285D01*
X130786285Y-24661809D01*
X130786285Y-24518952D01*
X130833904Y-24328476D01*
X130881523Y-24233238D01*
X130976761Y-24138000D01*
X131119619Y-24090380D01*
X131214857Y-24090380D01*
X131357714Y-24138000D01*
X131405333Y-24185619D01*
X131881523Y-25090380D02*
X132072000Y-25090380D01*
X132167238Y-25042761D01*
X132214857Y-24995142D01*
X132310095Y-24852285D01*
X132357714Y-24661809D01*
X132357714Y-24280857D01*
X132310095Y-24185619D01*
X132262476Y-24138000D01*
X132167238Y-24090380D01*
X131976761Y-24090380D01*
X131881523Y-24138000D01*
X131833904Y-24185619D01*
X131786285Y-24280857D01*
X131786285Y-24518952D01*
X131833904Y-24614190D01*
X131881523Y-24661809D01*
X131976761Y-24709428D01*
X132167238Y-24709428D01*
X132262476Y-24661809D01*
X132310095Y-24614190D01*
X132357714Y-24518952D01*
%TO.C,R8*%
X134199333Y-25090380D02*
X133866000Y-24614190D01*
X133627904Y-25090380D02*
X133627904Y-24090380D01*
X134008857Y-24090380D01*
X134104095Y-24138000D01*
X134151714Y-24185619D01*
X134199333Y-24280857D01*
X134199333Y-24423714D01*
X134151714Y-24518952D01*
X134104095Y-24566571D01*
X134008857Y-24614190D01*
X133627904Y-24614190D01*
X134770761Y-24518952D02*
X134675523Y-24471333D01*
X134627904Y-24423714D01*
X134580285Y-24328476D01*
X134580285Y-24280857D01*
X134627904Y-24185619D01*
X134675523Y-24138000D01*
X134770761Y-24090380D01*
X134961238Y-24090380D01*
X135056476Y-24138000D01*
X135104095Y-24185619D01*
X135151714Y-24280857D01*
X135151714Y-24328476D01*
X135104095Y-24423714D01*
X135056476Y-24471333D01*
X134961238Y-24518952D01*
X134770761Y-24518952D01*
X134675523Y-24566571D01*
X134627904Y-24614190D01*
X134580285Y-24709428D01*
X134580285Y-24899904D01*
X134627904Y-24995142D01*
X134675523Y-25042761D01*
X134770761Y-25090380D01*
X134961238Y-25090380D01*
X135056476Y-25042761D01*
X135104095Y-24995142D01*
X135151714Y-24899904D01*
X135151714Y-24709428D01*
X135104095Y-24614190D01*
X135056476Y-24566571D01*
X134961238Y-24518952D01*
%TO.C,C7*%
X150709333Y-44553142D02*
X150661714Y-44600761D01*
X150518857Y-44648380D01*
X150423619Y-44648380D01*
X150280761Y-44600761D01*
X150185523Y-44505523D01*
X150137904Y-44410285D01*
X150090285Y-44219809D01*
X150090285Y-44076952D01*
X150137904Y-43886476D01*
X150185523Y-43791238D01*
X150280761Y-43696000D01*
X150423619Y-43648380D01*
X150518857Y-43648380D01*
X150661714Y-43696000D01*
X150709333Y-43743619D01*
X151042666Y-43648380D02*
X151709333Y-43648380D01*
X151280761Y-44648380D01*
D14*
%TO.C,C_boot1*%
X98705607Y-50966007D02*
X98686859Y-50984755D01*
X98630616Y-51003502D01*
X98593121Y-51003502D01*
X98536878Y-50984755D01*
X98499383Y-50947259D01*
X98480635Y-50909764D01*
X98461887Y-50834773D01*
X98461887Y-50778530D01*
X98480635Y-50703540D01*
X98499383Y-50666044D01*
X98536878Y-50628549D01*
X98593121Y-50609801D01*
X98630616Y-50609801D01*
X98686859Y-50628549D01*
X98705607Y-50647297D01*
X98780598Y-51040998D02*
X99080560Y-51040998D01*
X99174299Y-51003502D02*
X99174299Y-50609801D01*
X99174299Y-50759783D02*
X99211794Y-50741035D01*
X99286785Y-50741035D01*
X99324280Y-50759783D01*
X99343028Y-50778530D01*
X99361775Y-50816026D01*
X99361775Y-50928512D01*
X99343028Y-50966007D01*
X99324280Y-50984755D01*
X99286785Y-51003502D01*
X99211794Y-51003502D01*
X99174299Y-50984755D01*
X99586747Y-51003502D02*
X99549252Y-50984755D01*
X99530504Y-50966007D01*
X99511757Y-50928512D01*
X99511757Y-50816026D01*
X99530504Y-50778530D01*
X99549252Y-50759783D01*
X99586747Y-50741035D01*
X99642990Y-50741035D01*
X99680486Y-50759783D01*
X99699233Y-50778530D01*
X99717981Y-50816026D01*
X99717981Y-50928512D01*
X99699233Y-50966007D01*
X99680486Y-50984755D01*
X99642990Y-51003502D01*
X99586747Y-51003502D01*
X99942953Y-51003502D02*
X99905458Y-50984755D01*
X99886710Y-50966007D01*
X99867962Y-50928512D01*
X99867962Y-50816026D01*
X99886710Y-50778530D01*
X99905458Y-50759783D01*
X99942953Y-50741035D01*
X99999196Y-50741035D01*
X100036691Y-50759783D01*
X100055439Y-50778530D01*
X100074187Y-50816026D01*
X100074187Y-50928512D01*
X100055439Y-50966007D01*
X100036691Y-50984755D01*
X99999196Y-51003502D01*
X99942953Y-51003502D01*
X100186673Y-50741035D02*
X100336654Y-50741035D01*
X100242916Y-50609801D02*
X100242916Y-50947259D01*
X100261663Y-50984755D01*
X100299159Y-51003502D01*
X100336654Y-51003502D01*
X100674112Y-51003502D02*
X100449140Y-51003502D01*
X100561626Y-51003502D02*
X100561626Y-50609801D01*
X100524131Y-50666044D01*
X100486635Y-50703540D01*
X100449140Y-50722287D01*
D12*
%TO.C,J5*%
X142160666Y-73649380D02*
X142160666Y-74363666D01*
X142113047Y-74506523D01*
X142017809Y-74601761D01*
X141874952Y-74649380D01*
X141779714Y-74649380D01*
X143113047Y-73649380D02*
X142636857Y-73649380D01*
X142589238Y-74125571D01*
X142636857Y-74077952D01*
X142732095Y-74030333D01*
X142970190Y-74030333D01*
X143065428Y-74077952D01*
X143113047Y-74125571D01*
X143160666Y-74220809D01*
X143160666Y-74458904D01*
X143113047Y-74554142D01*
X143065428Y-74601761D01*
X142970190Y-74649380D01*
X142732095Y-74649380D01*
X142636857Y-74601761D01*
X142589238Y-74554142D01*
%TO.C,C11*%
X141343142Y-43283142D02*
X141295523Y-43330761D01*
X141152666Y-43378380D01*
X141057428Y-43378380D01*
X140914571Y-43330761D01*
X140819333Y-43235523D01*
X140771714Y-43140285D01*
X140724095Y-42949809D01*
X140724095Y-42806952D01*
X140771714Y-42616476D01*
X140819333Y-42521238D01*
X140914571Y-42426000D01*
X141057428Y-42378380D01*
X141152666Y-42378380D01*
X141295523Y-42426000D01*
X141343142Y-42473619D01*
X142295523Y-43378380D02*
X141724095Y-43378380D01*
X142009809Y-43378380D02*
X142009809Y-42378380D01*
X141914571Y-42521238D01*
X141819333Y-42616476D01*
X141724095Y-42664095D01*
X143247904Y-43378380D02*
X142676476Y-43378380D01*
X142962190Y-43378380D02*
X142962190Y-42378380D01*
X142866952Y-42521238D01*
X142771714Y-42616476D01*
X142676476Y-42664095D01*
%TO.C,R1*%
X125309333Y-75382380D02*
X124976000Y-74906190D01*
X124737904Y-75382380D02*
X124737904Y-74382380D01*
X125118857Y-74382380D01*
X125214095Y-74430000D01*
X125261714Y-74477619D01*
X125309333Y-74572857D01*
X125309333Y-74715714D01*
X125261714Y-74810952D01*
X125214095Y-74858571D01*
X125118857Y-74906190D01*
X124737904Y-74906190D01*
X126261714Y-75382380D02*
X125690285Y-75382380D01*
X125976000Y-75382380D02*
X125976000Y-74382380D01*
X125880761Y-74525238D01*
X125785523Y-74620476D01*
X125690285Y-74668095D01*
%TO.C,C3*%
X164679333Y-53951142D02*
X164631714Y-53998761D01*
X164488857Y-54046380D01*
X164393619Y-54046380D01*
X164250761Y-53998761D01*
X164155523Y-53903523D01*
X164107904Y-53808285D01*
X164060285Y-53617809D01*
X164060285Y-53474952D01*
X164107904Y-53284476D01*
X164155523Y-53189238D01*
X164250761Y-53094000D01*
X164393619Y-53046380D01*
X164488857Y-53046380D01*
X164631714Y-53094000D01*
X164679333Y-53141619D01*
X165012666Y-53046380D02*
X165631714Y-53046380D01*
X165298380Y-53427333D01*
X165441238Y-53427333D01*
X165536476Y-53474952D01*
X165584095Y-53522571D01*
X165631714Y-53617809D01*
X165631714Y-53855904D01*
X165584095Y-53951142D01*
X165536476Y-53998761D01*
X165441238Y-54046380D01*
X165155523Y-54046380D01*
X165060285Y-53998761D01*
X165012666Y-53951142D01*
%TO.C,R21*%
X146931142Y-33726380D02*
X146597809Y-33250190D01*
X146359714Y-33726380D02*
X146359714Y-32726380D01*
X146740666Y-32726380D01*
X146835904Y-32774000D01*
X146883523Y-32821619D01*
X146931142Y-32916857D01*
X146931142Y-33059714D01*
X146883523Y-33154952D01*
X146835904Y-33202571D01*
X146740666Y-33250190D01*
X146359714Y-33250190D01*
X147312095Y-32821619D02*
X147359714Y-32774000D01*
X147454952Y-32726380D01*
X147693047Y-32726380D01*
X147788285Y-32774000D01*
X147835904Y-32821619D01*
X147883523Y-32916857D01*
X147883523Y-33012095D01*
X147835904Y-33154952D01*
X147264476Y-33726380D01*
X147883523Y-33726380D01*
X148835904Y-33726380D02*
X148264476Y-33726380D01*
X148550190Y-33726380D02*
X148550190Y-32726380D01*
X148454952Y-32869238D01*
X148359714Y-32964476D01*
X148264476Y-33012095D01*
%TO.C,R12*%
X101403642Y-78642380D02*
X101070309Y-78166190D01*
X100832214Y-78642380D02*
X100832214Y-77642380D01*
X101213166Y-77642380D01*
X101308404Y-77690000D01*
X101356023Y-77737619D01*
X101403642Y-77832857D01*
X101403642Y-77975714D01*
X101356023Y-78070952D01*
X101308404Y-78118571D01*
X101213166Y-78166190D01*
X100832214Y-78166190D01*
X102356023Y-78642380D02*
X101784595Y-78642380D01*
X102070309Y-78642380D02*
X102070309Y-77642380D01*
X101975071Y-77785238D01*
X101879833Y-77880476D01*
X101784595Y-77928095D01*
X102736976Y-77737619D02*
X102784595Y-77690000D01*
X102879833Y-77642380D01*
X103117928Y-77642380D01*
X103213166Y-77690000D01*
X103260785Y-77737619D01*
X103308404Y-77832857D01*
X103308404Y-77928095D01*
X103260785Y-78070952D01*
X102689357Y-78642380D01*
X103308404Y-78642380D01*
%TO.C,C1*%
X109053333Y-75287142D02*
X109005714Y-75334761D01*
X108862857Y-75382380D01*
X108767619Y-75382380D01*
X108624761Y-75334761D01*
X108529523Y-75239523D01*
X108481904Y-75144285D01*
X108434285Y-74953809D01*
X108434285Y-74810952D01*
X108481904Y-74620476D01*
X108529523Y-74525238D01*
X108624761Y-74430000D01*
X108767619Y-74382380D01*
X108862857Y-74382380D01*
X109005714Y-74430000D01*
X109053333Y-74477619D01*
X110005714Y-75382380D02*
X109434285Y-75382380D01*
X109720000Y-75382380D02*
X109720000Y-74382380D01*
X109624761Y-74525238D01*
X109529523Y-74620476D01*
X109434285Y-74668095D01*
%TO.C,C6*%
X141073142Y-54268666D02*
X141120761Y-54316285D01*
X141168380Y-54459142D01*
X141168380Y-54554380D01*
X141120761Y-54697238D01*
X141025523Y-54792476D01*
X140930285Y-54840095D01*
X140739809Y-54887714D01*
X140596952Y-54887714D01*
X140406476Y-54840095D01*
X140311238Y-54792476D01*
X140216000Y-54697238D01*
X140168380Y-54554380D01*
X140168380Y-54459142D01*
X140216000Y-54316285D01*
X140263619Y-54268666D01*
X140168380Y-53411523D02*
X140168380Y-53602000D01*
X140216000Y-53697238D01*
X140263619Y-53744857D01*
X140406476Y-53840095D01*
X140596952Y-53887714D01*
X140977904Y-53887714D01*
X141073142Y-53840095D01*
X141120761Y-53792476D01*
X141168380Y-53697238D01*
X141168380Y-53506761D01*
X141120761Y-53411523D01*
X141073142Y-53363904D01*
X140977904Y-53316285D01*
X140739809Y-53316285D01*
X140644571Y-53363904D01*
X140596952Y-53411523D01*
X140549333Y-53506761D01*
X140549333Y-53697238D01*
X140596952Y-53792476D01*
X140644571Y-53840095D01*
X140739809Y-53887714D01*
%TO.C,SW3*%
X122872666Y-82446761D02*
X123015523Y-82494380D01*
X123253619Y-82494380D01*
X123348857Y-82446761D01*
X123396476Y-82399142D01*
X123444095Y-82303904D01*
X123444095Y-82208666D01*
X123396476Y-82113428D01*
X123348857Y-82065809D01*
X123253619Y-82018190D01*
X123063142Y-81970571D01*
X122967904Y-81922952D01*
X122920285Y-81875333D01*
X122872666Y-81780095D01*
X122872666Y-81684857D01*
X122920285Y-81589619D01*
X122967904Y-81542000D01*
X123063142Y-81494380D01*
X123301238Y-81494380D01*
X123444095Y-81542000D01*
X123777428Y-81494380D02*
X124015523Y-82494380D01*
X124206000Y-81780095D01*
X124396476Y-82494380D01*
X124634571Y-81494380D01*
X124920285Y-81494380D02*
X125539333Y-81494380D01*
X125206000Y-81875333D01*
X125348857Y-81875333D01*
X125444095Y-81922952D01*
X125491714Y-81970571D01*
X125539333Y-82065809D01*
X125539333Y-82303904D01*
X125491714Y-82399142D01*
X125444095Y-82446761D01*
X125348857Y-82494380D01*
X125063142Y-82494380D01*
X124967904Y-82446761D01*
X124920285Y-82399142D01*
%TO.C,J_in1*%
X121277238Y-14444380D02*
X121277238Y-15158666D01*
X121229619Y-15301523D01*
X121134380Y-15396761D01*
X120991523Y-15444380D01*
X120896285Y-15444380D01*
X121515333Y-15539619D02*
X122277238Y-15539619D01*
X122515333Y-15444380D02*
X122515333Y-14777714D01*
X122515333Y-14444380D02*
X122467714Y-14492000D01*
X122515333Y-14539619D01*
X122562952Y-14492000D01*
X122515333Y-14444380D01*
X122515333Y-14539619D01*
X122991523Y-14777714D02*
X122991523Y-15444380D01*
X122991523Y-14872952D02*
X123039142Y-14825333D01*
X123134380Y-14777714D01*
X123277238Y-14777714D01*
X123372476Y-14825333D01*
X123420095Y-14920571D01*
X123420095Y-15444380D01*
X124420095Y-15444380D02*
X123848666Y-15444380D01*
X124134380Y-15444380D02*
X124134380Y-14444380D01*
X124039142Y-14587238D01*
X123943904Y-14682476D01*
X123848666Y-14730095D01*
%TO.C,H2*%
X85598095Y-21652380D02*
X85598095Y-20652380D01*
X85598095Y-21128571D02*
X86169523Y-21128571D01*
X86169523Y-21652380D02*
X86169523Y-20652380D01*
X86598095Y-20747619D02*
X86645714Y-20700000D01*
X86740952Y-20652380D01*
X86979047Y-20652380D01*
X87074285Y-20700000D01*
X87121904Y-20747619D01*
X87169523Y-20842857D01*
X87169523Y-20938095D01*
X87121904Y-21080952D01*
X86550476Y-21652380D01*
X87169523Y-21652380D01*
%TO.C,U2*%
X143002095Y-50252380D02*
X143002095Y-51061904D01*
X143049714Y-51157142D01*
X143097333Y-51204761D01*
X143192571Y-51252380D01*
X143383047Y-51252380D01*
X143478285Y-51204761D01*
X143525904Y-51157142D01*
X143573523Y-51061904D01*
X143573523Y-50252380D01*
X144002095Y-50347619D02*
X144049714Y-50300000D01*
X144144952Y-50252380D01*
X144383047Y-50252380D01*
X144478285Y-50300000D01*
X144525904Y-50347619D01*
X144573523Y-50442857D01*
X144573523Y-50538095D01*
X144525904Y-50680952D01*
X143954476Y-51252380D01*
X144573523Y-51252380D01*
X136264000Y-56332380D02*
X136264000Y-55332380D01*
X136644952Y-55332380D01*
X136740190Y-55380000D01*
X136787809Y-55427619D01*
X136835428Y-55522857D01*
X136835428Y-55665714D01*
X136787809Y-55760952D01*
X136740190Y-55808571D01*
X136644952Y-55856190D01*
X136264000Y-55856190D01*
X137121142Y-55332380D02*
X137692571Y-55332380D01*
X137406857Y-56332380D02*
X137406857Y-55332380D01*
X138025904Y-56332380D02*
X138025904Y-55332380D01*
X138359238Y-56046666D01*
X138692571Y-55332380D01*
X138692571Y-56332380D01*
X139168761Y-55332380D02*
X139168761Y-56141904D01*
X139216380Y-56237142D01*
X139264000Y-56284761D01*
X139359238Y-56332380D01*
X139549714Y-56332380D01*
X139644952Y-56284761D01*
X139692571Y-56237142D01*
X139740190Y-56141904D01*
X139740190Y-55332380D01*
X140121142Y-55332380D02*
X140787809Y-56332380D01*
X140787809Y-55332380D02*
X140121142Y-56332380D01*
X141692571Y-56332380D02*
X141121142Y-56332380D01*
X141406857Y-56332380D02*
X141406857Y-55332380D01*
X141311619Y-55475238D01*
X141216380Y-55570476D01*
X141121142Y-55618095D01*
X142025904Y-55332380D02*
X142644952Y-55332380D01*
X142311619Y-55713333D01*
X142454476Y-55713333D01*
X142549714Y-55760952D01*
X142597333Y-55808571D01*
X142644952Y-55903809D01*
X142644952Y-56141904D01*
X142597333Y-56237142D01*
X142549714Y-56284761D01*
X142454476Y-56332380D01*
X142168761Y-56332380D01*
X142073523Y-56284761D01*
X142025904Y-56237142D01*
X143264000Y-55332380D02*
X143359238Y-55332380D01*
X143454476Y-55380000D01*
X143502095Y-55427619D01*
X143549714Y-55522857D01*
X143597333Y-55713333D01*
X143597333Y-55951428D01*
X143549714Y-56141904D01*
X143502095Y-56237142D01*
X143454476Y-56284761D01*
X143359238Y-56332380D01*
X143264000Y-56332380D01*
X143168761Y-56284761D01*
X143121142Y-56237142D01*
X143073523Y-56141904D01*
X143025904Y-55951428D01*
X143025904Y-55713333D01*
X143073523Y-55522857D01*
X143121142Y-55427619D01*
X143168761Y-55380000D01*
X143264000Y-55332380D01*
X144168761Y-55760952D02*
X144073523Y-55713333D01*
X144025904Y-55665714D01*
X143978285Y-55570476D01*
X143978285Y-55522857D01*
X144025904Y-55427619D01*
X144073523Y-55380000D01*
X144168761Y-55332380D01*
X144359238Y-55332380D01*
X144454476Y-55380000D01*
X144502095Y-55427619D01*
X144549714Y-55522857D01*
X144549714Y-55570476D01*
X144502095Y-55665714D01*
X144454476Y-55713333D01*
X144359238Y-55760952D01*
X144168761Y-55760952D01*
X144073523Y-55808571D01*
X144025904Y-55856190D01*
X143978285Y-55951428D01*
X143978285Y-56141904D01*
X144025904Y-56237142D01*
X144073523Y-56284761D01*
X144168761Y-56332380D01*
X144359238Y-56332380D01*
X144454476Y-56284761D01*
X144502095Y-56237142D01*
X144549714Y-56141904D01*
X144549714Y-55951428D01*
X144502095Y-55856190D01*
X144454476Y-55808571D01*
X144359238Y-55760952D01*
X145644952Y-56427619D02*
X145549714Y-56380000D01*
X145454476Y-56284761D01*
X145311619Y-56141904D01*
X145216380Y-56094285D01*
X145121142Y-56094285D01*
X145168761Y-56332380D02*
X145073523Y-56284761D01*
X144978285Y-56189523D01*
X144930666Y-55999047D01*
X144930666Y-55665714D01*
X144978285Y-55475238D01*
X145073523Y-55380000D01*
X145168761Y-55332380D01*
X145359238Y-55332380D01*
X145454476Y-55380000D01*
X145549714Y-55475238D01*
X145597333Y-55665714D01*
X145597333Y-55999047D01*
X145549714Y-56189523D01*
X145454476Y-56284761D01*
X145359238Y-56332380D01*
X145168761Y-56332380D01*
X146025904Y-56332380D02*
X146025904Y-55332380D01*
X146264000Y-55332380D01*
X146406857Y-55380000D01*
X146502095Y-55475238D01*
X146549714Y-55570476D01*
X146597333Y-55760952D01*
X146597333Y-55903809D01*
X146549714Y-56094285D01*
X146502095Y-56189523D01*
X146406857Y-56284761D01*
X146264000Y-56332380D01*
X146025904Y-56332380D01*
X147216380Y-55856190D02*
X147216380Y-56332380D01*
X146883047Y-55332380D02*
X147216380Y-55856190D01*
X147549714Y-55332380D01*
X148073523Y-55856190D02*
X148073523Y-56332380D01*
X147740190Y-55332380D02*
X148073523Y-55856190D01*
X148406857Y-55332380D01*
X149311619Y-56332380D02*
X148978285Y-55856190D01*
X148740190Y-56332380D02*
X148740190Y-55332380D01*
X149121142Y-55332380D01*
X149216380Y-55380000D01*
X149264000Y-55427619D01*
X149311619Y-55522857D01*
X149311619Y-55665714D01*
X149264000Y-55760952D01*
X149216380Y-55808571D01*
X149121142Y-55856190D01*
X148740190Y-55856190D01*
X150406857Y-56427619D02*
X150311619Y-56380000D01*
X150216380Y-56284761D01*
X150073523Y-56141904D01*
X149978285Y-56094285D01*
X149883047Y-56094285D01*
X149930666Y-56332380D02*
X149835428Y-56284761D01*
X149740190Y-56189523D01*
X149692571Y-55999047D01*
X149692571Y-55665714D01*
X149740190Y-55475238D01*
X149835428Y-55380000D01*
X149930666Y-55332380D01*
X150121142Y-55332380D01*
X150216380Y-55380000D01*
X150311619Y-55475238D01*
X150359238Y-55665714D01*
X150359238Y-55999047D01*
X150311619Y-56189523D01*
X150216380Y-56284761D01*
X150121142Y-56332380D01*
X149930666Y-56332380D01*
X151311619Y-56332380D02*
X150740190Y-56332380D01*
X151025904Y-56332380D02*
X151025904Y-55332380D01*
X150930666Y-55475238D01*
X150835428Y-55570476D01*
X150740190Y-55618095D01*
%TO.C,C2*%
X164679333Y-56745142D02*
X164631714Y-56792761D01*
X164488857Y-56840380D01*
X164393619Y-56840380D01*
X164250761Y-56792761D01*
X164155523Y-56697523D01*
X164107904Y-56602285D01*
X164060285Y-56411809D01*
X164060285Y-56268952D01*
X164107904Y-56078476D01*
X164155523Y-55983238D01*
X164250761Y-55888000D01*
X164393619Y-55840380D01*
X164488857Y-55840380D01*
X164631714Y-55888000D01*
X164679333Y-55935619D01*
X165060285Y-55935619D02*
X165107904Y-55888000D01*
X165203142Y-55840380D01*
X165441238Y-55840380D01*
X165536476Y-55888000D01*
X165584095Y-55935619D01*
X165631714Y-56030857D01*
X165631714Y-56126095D01*
X165584095Y-56268952D01*
X165012666Y-56840380D01*
X165631714Y-56840380D01*
%TO.C,H3*%
X164338095Y-21652380D02*
X164338095Y-20652380D01*
X164338095Y-21128571D02*
X164909523Y-21128571D01*
X164909523Y-21652380D02*
X164909523Y-20652380D01*
X165290476Y-20652380D02*
X165909523Y-20652380D01*
X165576190Y-21033333D01*
X165719047Y-21033333D01*
X165814285Y-21080952D01*
X165861904Y-21128571D01*
X165909523Y-21223809D01*
X165909523Y-21461904D01*
X165861904Y-21557142D01*
X165814285Y-21604761D01*
X165719047Y-21652380D01*
X165433333Y-21652380D01*
X165338095Y-21604761D01*
X165290476Y-21557142D01*
%TO.C,MK2*%
X159472012Y-34234541D02*
X159472012Y-33234187D01*
X159805463Y-33948725D01*
X160138915Y-33234187D01*
X160138915Y-34234541D01*
X160615274Y-34234541D02*
X160615274Y-33234187D01*
X161186905Y-34234541D02*
X160758182Y-33662910D01*
X161186905Y-33234187D02*
X160615274Y-33805817D01*
X161567992Y-33329458D02*
X161615628Y-33281823D01*
X161710900Y-33234187D01*
X161949079Y-33234187D01*
X162044351Y-33281823D01*
X162091987Y-33329458D01*
X162139623Y-33424730D01*
X162139623Y-33520002D01*
X162091987Y-33662910D01*
X161520356Y-34234541D01*
X162139623Y-34234541D01*
D15*
%TO.C,R4*%
X150333064Y-50652000D02*
X148878936Y-50652000D01*
X150333064Y-52472000D02*
X148878936Y-52472000D01*
%TO.C,C13*%
X148894748Y-48112000D02*
X150317252Y-48112000D01*
X148894748Y-49932000D02*
X150317252Y-49932000D01*
%TO.C,J6*%
X74439500Y-47736000D02*
X75939500Y-47486000D01*
X75939500Y-47486000D02*
X75939500Y-45986000D01*
X74439500Y-52816000D02*
X75939500Y-52566000D01*
X75939500Y-56146000D02*
X74439500Y-55896000D01*
X86859500Y-46736000D02*
X87459500Y-46436000D01*
X87459500Y-46436000D02*
X87459500Y-47036000D01*
X75939500Y-51066000D02*
X74439500Y-50816000D01*
X74439500Y-50816000D02*
X74439500Y-52816000D01*
X77739500Y-43086000D02*
X77739500Y-60546000D01*
X74439500Y-45736000D02*
X74439500Y-47736000D01*
X75939500Y-57646000D02*
X75939500Y-56146000D01*
X86659500Y-60546000D02*
X86659500Y-43086000D01*
X74439500Y-57896000D02*
X75939500Y-57646000D01*
X75939500Y-45986000D02*
X74439500Y-45736000D01*
X74439500Y-43086000D02*
X74439500Y-60546000D01*
X87459500Y-47036000D02*
X86859500Y-46736000D01*
X77739500Y-60546000D02*
X75939500Y-60546000D01*
X75939500Y-52566000D02*
X75939500Y-51066000D01*
X74439500Y-60546000D02*
X86659500Y-60546000D01*
X86659500Y-43086000D02*
X74439500Y-43086000D01*
X74439500Y-55896000D02*
X74439500Y-57896000D01*
X75939500Y-43086000D02*
X77739500Y-43086000D01*
X75939500Y-60546000D02*
X75939500Y-43086000D01*
%TO.C,U1*%
X152444000Y-58952000D02*
X151664000Y-58952000D01*
X177404000Y-58952000D02*
X170989000Y-58952000D01*
X152444000Y-77192000D02*
X151664000Y-77192000D01*
X177404000Y-58952000D02*
X177404000Y-77192000D01*
X151664000Y-77192000D02*
X151664000Y-76192000D01*
X170989000Y-58952000D02*
X170989000Y-58572000D01*
X177404000Y-77192000D02*
X170989000Y-77192000D01*
X151664000Y-58952000D02*
X151664000Y-59952000D01*
%TO.C,R7*%
X137816000Y-26958936D02*
X137816000Y-28413064D01*
X135996000Y-26958936D02*
X135996000Y-28413064D01*
%TO.C,J_out1*%
X107390000Y-19992000D02*
X107390000Y-18792000D01*
X107390000Y-33492000D02*
X107390000Y-32292000D01*
X113090000Y-18792000D02*
X113590000Y-18792000D01*
X107390000Y-29092000D02*
X107390000Y-22592000D01*
X107390000Y-22592000D02*
X105390000Y-22592000D01*
X113590000Y-24592000D02*
X113590000Y-33492000D01*
X107390000Y-19992000D02*
X105390000Y-19992000D01*
X107390000Y-18792000D02*
X107890000Y-18792000D01*
X107890000Y-16292000D02*
X113090000Y-16292000D01*
X107890000Y-18792000D02*
X107890000Y-16292000D01*
X113590000Y-33492000D02*
X107390000Y-33492000D01*
X113090000Y-16292000D02*
X113090000Y-18792000D01*
X113590000Y-18792000D02*
X113590000Y-21992000D01*
D16*
%TO.C,C_out1*%
X98298000Y-63913400D02*
X98298000Y-61613400D01*
%TO.C,IC1*%
X97278000Y-50283400D02*
X97278000Y-52383400D01*
X96778000Y-50283400D02*
X97278000Y-50283400D01*
X96778000Y-52383400D02*
X96778000Y-50283400D01*
X97278000Y-52383400D02*
X96778000Y-52383400D01*
X95953000Y-50183400D02*
X96428000Y-50183400D01*
D15*
%TO.C,R17*%
X154834000Y-40166936D02*
X154834000Y-41621064D01*
X153014000Y-40166936D02*
X153014000Y-41621064D01*
%TO.C,R20*%
X152506000Y-30514936D02*
X152506000Y-31969064D01*
X154326000Y-30514936D02*
X154326000Y-31969064D01*
%TO.C,R19*%
X153127064Y-36174000D02*
X151672936Y-36174000D01*
X153127064Y-37994000D02*
X151672936Y-37994000D01*
%TO.C,R2*%
X135924936Y-85450000D02*
X137379064Y-85450000D01*
X135924936Y-87270000D02*
X137379064Y-87270000D01*
%TO.C,R15*%
X114194000Y-77504936D02*
X114194000Y-78959064D01*
X112374000Y-77504936D02*
X112374000Y-78959064D01*
%TO.C,C5*%
X95251748Y-80666000D02*
X96674252Y-80666000D01*
X95251748Y-78846000D02*
X96674252Y-78846000D01*
%TO.C,C8*%
X151532000Y-30937252D02*
X151532000Y-29514748D01*
X149712000Y-30937252D02*
X149712000Y-29514748D01*
%TO.C,L1*%
X99946460Y-53098700D02*
X98323400Y-53098700D01*
X103761540Y-60744100D02*
X105384600Y-60744100D01*
X98323400Y-53098700D02*
X98323400Y-60744100D01*
X105384600Y-60744100D02*
X105384600Y-53098700D01*
X105384600Y-53098700D02*
X103761540Y-53098700D01*
X98323400Y-60744100D02*
X99946460Y-60744100D01*
%TO.C,J1*%
X140703000Y-95626000D02*
X140703000Y-95691000D01*
X137173000Y-95691000D02*
X140703000Y-95691000D01*
X137173000Y-95626000D02*
X137173000Y-95691000D01*
X137173000Y-89221000D02*
X140703000Y-89221000D01*
X137173000Y-89221000D02*
X137173000Y-89286000D01*
X140703000Y-89221000D02*
X140703000Y-89286000D01*
X135848000Y-89286000D02*
X137173000Y-89286000D01*
%TO.C,SW1*%
X104310000Y-84920000D02*
X104310000Y-86170000D01*
X103760000Y-95420000D02*
X104310000Y-95420000D01*
X94360000Y-95420000D02*
X93810000Y-95420000D01*
X94360000Y-84920000D02*
X93810000Y-84920000D01*
X93810000Y-84920000D02*
X93810000Y-90170000D01*
X103760000Y-84920000D02*
X104310000Y-84920000D01*
X93810000Y-95420000D02*
X93810000Y-94170000D01*
X104310000Y-95420000D02*
X104310000Y-94170000D01*
%TO.C,R3*%
X124608000Y-61502936D02*
X124608000Y-62957064D01*
X122788000Y-61502936D02*
X122788000Y-62957064D01*
%TO.C,U3*%
X140693497Y-38404800D02*
X143278503Y-38404800D01*
X143278503Y-29667200D02*
X140693497Y-29667200D01*
X141681200Y-29667200D02*
G75*
G03*
X142290800Y-29667200I304800J0D01*
G01*
G36*
X145948400Y-35496500D02*
G01*
X145694400Y-35496500D01*
X145694400Y-35115500D01*
X145948400Y-35115500D01*
X145948400Y-35496500D01*
G37*
D17*
X145948400Y-35496500D02*
X145694400Y-35496500D01*
X145694400Y-35115500D01*
X145948400Y-35115500D01*
X145948400Y-35496500D01*
D15*
%TO.C,R18*%
X146918000Y-41621064D02*
X146918000Y-40166936D01*
X148738000Y-41621064D02*
X148738000Y-40166936D01*
%TO.C,C4*%
X97840748Y-77618000D02*
X99263252Y-77618000D01*
X97840748Y-75798000D02*
X99263252Y-75798000D01*
%TO.C,C10*%
X136347252Y-32406000D02*
X134924748Y-32406000D01*
X136347252Y-30586000D02*
X134924748Y-30586000D01*
D18*
%TO.C,C_in1*%
X91810000Y-52885400D02*
X91810000Y-53845400D01*
X93610000Y-52885400D02*
X93610000Y-53845400D01*
D15*
%TO.C,SW2*%
X107272000Y-95674000D02*
X107272000Y-94424000D01*
X107822000Y-85174000D02*
X107272000Y-85174000D01*
X107272000Y-85174000D02*
X107272000Y-90424000D01*
X117222000Y-85174000D02*
X117772000Y-85174000D01*
X107822000Y-95674000D02*
X107272000Y-95674000D01*
X117222000Y-95674000D02*
X117772000Y-95674000D01*
X117772000Y-85174000D02*
X117772000Y-86424000D01*
X117772000Y-95674000D02*
X117772000Y-94424000D01*
%TO.C,C12*%
X121306000Y-77520748D02*
X121306000Y-78943252D01*
X119486000Y-77520748D02*
X119486000Y-78943252D01*
%TO.C,C9*%
X132482000Y-28397252D02*
X132482000Y-26974748D01*
X130662000Y-28397252D02*
X130662000Y-26974748D01*
%TO.C,R8*%
X135276000Y-28413064D02*
X135276000Y-26958936D01*
X133456000Y-28413064D02*
X133456000Y-26958936D01*
%TO.C,C7*%
X151786000Y-41605252D02*
X151786000Y-40182748D01*
X149966000Y-41605252D02*
X149966000Y-40182748D01*
%TO.C,J5*%
X143824000Y-70597000D02*
X143824000Y-65457000D01*
X143824000Y-73197000D02*
X142494000Y-73197000D01*
X143824000Y-71867000D02*
X143824000Y-73197000D01*
X141164000Y-70597000D02*
X141164000Y-65457000D01*
X143824000Y-65457000D02*
X141164000Y-65457000D01*
X143824000Y-70597000D02*
X141164000Y-70597000D01*
%TO.C,C11*%
X141274748Y-41550000D02*
X142697252Y-41550000D01*
X141274748Y-39730000D02*
X142697252Y-39730000D01*
%TO.C,R1*%
X126386000Y-77504936D02*
X126386000Y-78959064D01*
X124566000Y-77504936D02*
X124566000Y-78959064D01*
%TO.C,C3*%
X169113252Y-54504000D02*
X167690748Y-54504000D01*
X169113252Y-52684000D02*
X167690748Y-52684000D01*
%TO.C,R21*%
X146664000Y-29498936D02*
X146664000Y-30953064D01*
X148484000Y-29498936D02*
X148484000Y-30953064D01*
%TO.C,R12*%
X101319436Y-80920000D02*
X102773564Y-80920000D01*
X101319436Y-79100000D02*
X102773564Y-79100000D01*
%TO.C,C1*%
X110130000Y-77520748D02*
X110130000Y-78943252D01*
X108310000Y-77520748D02*
X108310000Y-78943252D01*
%TO.C,C6*%
X144475252Y-53954000D02*
X143052748Y-53954000D01*
X144475252Y-55774000D02*
X143052748Y-55774000D01*
%TO.C,SW3*%
X128906000Y-85174000D02*
X129456000Y-85174000D01*
X119506000Y-95674000D02*
X118956000Y-95674000D01*
X128906000Y-95674000D02*
X129456000Y-95674000D01*
X129456000Y-85174000D02*
X129456000Y-86424000D01*
X129456000Y-95674000D02*
X129456000Y-94424000D01*
X118956000Y-85174000D02*
X118956000Y-90424000D01*
X118956000Y-95674000D02*
X118956000Y-94424000D01*
X119506000Y-85174000D02*
X118956000Y-85174000D01*
%TO.C,J_in1*%
X119582000Y-22592000D02*
X117582000Y-22592000D01*
X125782000Y-33492000D02*
X119582000Y-33492000D01*
X120082000Y-18792000D02*
X120082000Y-16292000D01*
X119582000Y-33492000D02*
X119582000Y-32292000D01*
X125782000Y-18792000D02*
X125782000Y-21992000D01*
X119582000Y-18792000D02*
X120082000Y-18792000D01*
X119582000Y-19992000D02*
X117582000Y-19992000D01*
X119582000Y-19992000D02*
X119582000Y-18792000D01*
X119582000Y-29092000D02*
X119582000Y-22592000D01*
X125782000Y-24592000D02*
X125782000Y-33492000D01*
X125282000Y-16292000D02*
X125282000Y-18792000D01*
X120082000Y-16292000D02*
X125282000Y-16292000D01*
X125282000Y-18792000D02*
X125782000Y-18792000D01*
%TO.C,U2*%
X142582900Y-53073300D02*
X144945100Y-53073300D01*
X144945100Y-48526700D02*
X142582900Y-48526700D01*
G36*
X141478000Y-49740185D02*
G01*
X141224000Y-49740185D01*
X141224000Y-49359185D01*
X141478000Y-49359185D01*
X141478000Y-49740185D01*
G37*
D17*
X141478000Y-49740185D02*
X141224000Y-49740185D01*
X141224000Y-49359185D01*
X141478000Y-49359185D01*
X141478000Y-49740185D01*
D15*
%TO.C,C2*%
X169113252Y-55478000D02*
X167690748Y-55478000D01*
X169113252Y-57298000D02*
X167690748Y-57298000D01*
%TD*%
M02*
