%TF.GenerationSoftware,KiCad,Pcbnew,(6.0.11)*%
%TF.CreationDate,2023-03-14T15:00:17-04:00*%
%TF.ProjectId,RDNT_PCB,52444e54-5f50-4434-922e-6b696361645f,rev?*%
%TF.SameCoordinates,Original*%
%TF.FileFunction,Copper,L1,Top*%
%TF.FilePolarity,Positive*%
%FSLAX46Y46*%
G04 Gerber Fmt 4.6, Leading zero omitted, Abs format (unit mm)*
G04 Created by KiCad (PCBNEW (6.0.11)) date 2023-03-14 15:00:17*
%MOMM*%
%LPD*%
G01*
G04 APERTURE LIST*
G04 Aperture macros list*
%AMRoundRect*
0 Rectangle with rounded corners*
0 $1 Rounding radius*
0 $2 $3 $4 $5 $6 $7 $8 $9 X,Y pos of 4 corners*
0 Add a 4 corners polygon primitive as box body*
4,1,4,$2,$3,$4,$5,$6,$7,$8,$9,$2,$3,0*
0 Add four circle primitives for the rounded corners*
1,1,$1+$1,$2,$3*
1,1,$1+$1,$4,$5*
1,1,$1+$1,$6,$7*
1,1,$1+$1,$8,$9*
0 Add four rect primitives between the rounded corners*
20,1,$1+$1,$2,$3,$4,$5,0*
20,1,$1+$1,$4,$5,$6,$7,0*
20,1,$1+$1,$6,$7,$8,$9,0*
20,1,$1+$1,$8,$9,$2,$3,0*%
G04 Aperture macros list end*
%TA.AperFunction,SMDPad,CuDef*%
%ADD10RoundRect,0.250000X0.312500X0.625000X-0.312500X0.625000X-0.312500X-0.625000X0.312500X-0.625000X0*%
%TD*%
%TA.AperFunction,SMDPad,CuDef*%
%ADD11RoundRect,0.250000X-0.325000X-0.650000X0.325000X-0.650000X0.325000X0.650000X-0.325000X0.650000X0*%
%TD*%
%TA.AperFunction,ComponentPad*%
%ADD12RoundRect,0.249999X-1.550001X0.790001X-1.550001X-0.790001X1.550001X-0.790001X1.550001X0.790001X0*%
%TD*%
%TA.AperFunction,ComponentPad*%
%ADD13O,3.600000X2.080000*%
%TD*%
%TA.AperFunction,SMDPad,CuDef*%
%ADD14R,1.050000X1.050000*%
%TD*%
%TA.AperFunction,ComponentPad*%
%ADD15R,4.200000X4.200000*%
%TD*%
%TA.AperFunction,SMDPad,CuDef*%
%ADD16R,0.900000X1.500000*%
%TD*%
%TA.AperFunction,SMDPad,CuDef*%
%ADD17R,1.500000X0.900000*%
%TD*%
%TA.AperFunction,SMDPad,CuDef*%
%ADD18RoundRect,0.250000X-0.625000X0.312500X-0.625000X-0.312500X0.625000X-0.312500X0.625000X0.312500X0*%
%TD*%
%TA.AperFunction,SMDPad,CuDef*%
%ADD19R,2.800000X2.800000*%
%TD*%
%TA.AperFunction,SMDPad,CuDef*%
%ADD20R,2.800000X2.200000*%
%TD*%
%TA.AperFunction,SMDPad,CuDef*%
%ADD21R,1.260000X2.720000*%
%TD*%
%TA.AperFunction,SMDPad,CuDef*%
%ADD22R,0.980000X0.860000*%
%TD*%
%TA.AperFunction,SMDPad,CuDef*%
%ADD23R,0.745700X0.300000*%
%TD*%
%TA.AperFunction,SMDPad,CuDef*%
%ADD24R,0.745700X0.306400*%
%TD*%
%TA.AperFunction,SMDPad,CuDef*%
%ADD25R,0.745700X0.298400*%
%TD*%
%TA.AperFunction,SMDPad,CuDef*%
%ADD26R,0.720300X0.290400*%
%TD*%
%TA.AperFunction,SMDPad,CuDef*%
%ADD27R,0.720300X0.298400*%
%TD*%
%TA.AperFunction,SMDPad,CuDef*%
%ADD28R,0.745700X0.281000*%
%TD*%
%TA.AperFunction,SMDPad,CuDef*%
%ADD29RoundRect,0.250000X-0.312500X-0.625000X0.312500X-0.625000X0.312500X0.625000X-0.312500X0.625000X0*%
%TD*%
%TA.AperFunction,SMDPad,CuDef*%
%ADD30R,0.600000X0.510000*%
%TD*%
%TA.AperFunction,SMDPad,CuDef*%
%ADD31RoundRect,0.250000X0.650000X-0.325000X0.650000X0.325000X-0.650000X0.325000X-0.650000X-0.325000X0*%
%TD*%
%TA.AperFunction,SMDPad,CuDef*%
%ADD32R,3.149600X2.565400*%
%TD*%
%TA.AperFunction,SMDPad,CuDef*%
%ADD33R,2.400000X0.740000*%
%TD*%
%TA.AperFunction,SMDPad,CuDef*%
%ADD34R,1.200000X2.500000*%
%TD*%
%TA.AperFunction,SMDPad,CuDef*%
%ADD35R,1.981200X0.558800*%
%TD*%
%TA.AperFunction,SMDPad,CuDef*%
%ADD36RoundRect,0.250000X0.625000X-0.312500X0.625000X0.312500X-0.625000X0.312500X-0.625000X-0.312500X0*%
%TD*%
%TA.AperFunction,SMDPad,CuDef*%
%ADD37RoundRect,0.250000X0.325000X0.650000X-0.325000X0.650000X-0.325000X-0.650000X0.325000X-0.650000X0*%
%TD*%
%TA.AperFunction,SMDPad,CuDef*%
%ADD38R,1.820000X1.250000*%
%TD*%
%TA.AperFunction,SMDPad,CuDef*%
%ADD39R,0.600000X0.540000*%
%TD*%
%TA.AperFunction,SMDPad,CuDef*%
%ADD40RoundRect,0.250000X-0.650000X0.325000X-0.650000X-0.325000X0.650000X-0.325000X0.650000X0.325000X0*%
%TD*%
%TA.AperFunction,SMDPad,CuDef*%
%ADD41R,0.540000X0.600000*%
%TD*%
%TA.AperFunction,ComponentPad*%
%ADD42R,1.700000X1.700000*%
%TD*%
%TA.AperFunction,ComponentPad*%
%ADD43O,1.700000X1.700000*%
%TD*%
%TA.AperFunction,SMDPad,CuDef*%
%ADD44R,0.977900X0.304800*%
%TD*%
%TA.AperFunction,ComponentPad*%
%ADD45R,1.378000X1.378000*%
%TD*%
%TA.AperFunction,ComponentPad*%
%ADD46C,1.378000*%
%TD*%
%TA.AperFunction,ViaPad*%
%ADD47C,0.600000*%
%TD*%
%TA.AperFunction,ViaPad*%
%ADD48C,1.524000*%
%TD*%
%TA.AperFunction,ViaPad*%
%ADD49C,0.800000*%
%TD*%
%TA.AperFunction,Conductor*%
%ADD50C,0.200000*%
%TD*%
%TA.AperFunction,Conductor*%
%ADD51C,0.400000*%
%TD*%
%TA.AperFunction,Conductor*%
%ADD52C,0.250000*%
%TD*%
%TA.AperFunction,Conductor*%
%ADD53C,1.676400*%
%TD*%
G04 APERTURE END LIST*
D10*
%TO.P,R4,1*%
%TO.N,/ADC_In*%
X151068500Y-51562000D03*
%TO.P,R4,2*%
%TO.N,Net-(U2-Pad3)*%
X148143500Y-51562000D03*
%TD*%
D11*
%TO.P,C13,1*%
%TO.N,AGND*%
X148131000Y-49022000D03*
%TO.P,C13,2*%
%TO.N,/ADC_In*%
X151081000Y-49022000D03*
%TD*%
D12*
%TO.P,J6,1,Pin_1*%
%TO.N,/LED_out*%
X84549500Y-46736000D03*
D13*
%TO.P,J6,2,Pin_2*%
%TO.N,5V*%
X84549500Y-51816000D03*
%TO.P,J6,3,Pin_3*%
%TO.N,DGND*%
X84549500Y-56896000D03*
%TD*%
D14*
%TO.P,U1,39,GND*%
%TO.N,DGND*%
X160929000Y-65867000D03*
X162454000Y-67392000D03*
D15*
X162454000Y-67392000D03*
D14*
X163979000Y-67392000D03*
X162454000Y-68917000D03*
X160929000Y-67392000D03*
X162454000Y-65867000D03*
X160929000Y-68917000D03*
X163979000Y-65867000D03*
X163979000Y-68917000D03*
D16*
%TO.P,U1,38,GND*%
X169794000Y-76822000D03*
%TO.P,U1,37,IO23*%
%TO.N,/Case_backup*%
X168524000Y-76822000D03*
%TO.P,U1,36,IO22*%
%TO.N,/Case_LED*%
X167254000Y-76822000D03*
%TO.P,U1,35,TXD0/IO1*%
%TO.N,/Tx*%
X165984000Y-76822000D03*
%TO.P,U1,34,RXD0/IO3*%
%TO.N,/Rx*%
X164714000Y-76822000D03*
%TO.P,U1,33,IO21*%
%TO.N,unconnected-(U1-Pad33)*%
X163444000Y-76822000D03*
%TO.P,U1,32,NC*%
%TO.N,unconnected-(U1-Pad32)*%
X162174000Y-76822000D03*
%TO.P,U1,31,IO19*%
%TO.N,/sel2*%
X160904000Y-76822000D03*
%TO.P,U1,30,IO18*%
%TO.N,/sel1*%
X159634000Y-76822000D03*
%TO.P,U1,29,IO5*%
%TO.N,/sel1_backup*%
X158364000Y-76822000D03*
%TO.P,U1,28,IO17*%
%TO.N,/sel2_backup*%
X157094000Y-76822000D03*
%TO.P,U1,27,IO16*%
%TO.N,/LED_backup*%
X155824000Y-76822000D03*
%TO.P,U1,26,IO4*%
%TO.N,/LED_out*%
X154554000Y-76822000D03*
%TO.P,U1,25,IO0*%
%TO.N,/boot*%
X153284000Y-76822000D03*
D17*
%TO.P,U1,24,IO2*%
%TO.N,unconnected-(U1-Pad24)*%
X152034000Y-73792000D03*
%TO.P,U1,23,IO15*%
%TO.N,Net-(J1-Pad6)*%
X152034000Y-72522000D03*
%TO.P,U1,22,SDI/SD1*%
%TO.N,unconnected-(U1-Pad22)*%
X152034000Y-71252000D03*
%TO.P,U1,21,SDO/SD0*%
%TO.N,unconnected-(U1-Pad21)*%
X152034000Y-69982000D03*
%TO.P,U1,20,SCK/CLK*%
%TO.N,unconnected-(U1-Pad20)*%
X152034000Y-68712000D03*
%TO.P,U1,19,SCS/CMD*%
%TO.N,unconnected-(U1-Pad19)*%
X152034000Y-67442000D03*
%TO.P,U1,18,SWP/SD3*%
%TO.N,unconnected-(U1-Pad18)*%
X152034000Y-66172000D03*
%TO.P,U1,17,SHD/SD2*%
%TO.N,unconnected-(U1-Pad17)*%
X152034000Y-64902000D03*
%TO.P,U1,16,IO13*%
%TO.N,Net-(J1-Pad4)*%
X152034000Y-63632000D03*
%TO.P,U1,15,GND*%
%TO.N,DGND*%
X152034000Y-62362000D03*
D16*
%TO.P,U1,14,IO12*%
%TO.N,Net-(J1-Pad8)*%
X153284000Y-59322000D03*
%TO.P,U1,13,IO14*%
%TO.N,Net-(J1-Pad2)*%
X154554000Y-59322000D03*
%TO.P,U1,12,IO27*%
%TO.N,/Mode_sel*%
X155824000Y-59322000D03*
%TO.P,U1,11,IO26*%
%TO.N,/DAC_backup*%
X157094000Y-59322000D03*
%TO.P,U1,10,IO25*%
%TO.N,/Ble_DAC*%
X158364000Y-59322000D03*
%TO.P,U1,9,IO33*%
%TO.N,unconnected-(U1-Pad9)*%
X159634000Y-59322000D03*
%TO.P,U1,8,IO32*%
%TO.N,/Mode_backup*%
X160904000Y-59322000D03*
%TO.P,U1,7,IO35*%
%TO.N,/ADC_backup*%
X162174000Y-59322000D03*
%TO.P,U1,6,IO34*%
%TO.N,/ADC_In*%
X163444000Y-59322000D03*
%TO.P,U1,5,SENSOR_VN*%
%TO.N,unconnected-(U1-Pad5)*%
X164714000Y-59322000D03*
%TO.P,U1,4,SENSOR_VP*%
%TO.N,unconnected-(U1-Pad4)*%
X165984000Y-59322000D03*
%TO.P,U1,3,EN*%
%TO.N,/reset*%
X167254000Y-59322000D03*
%TO.P,U1,2,VDD*%
%TO.N,VCC*%
X168524000Y-59322000D03*
%TO.P,U1,1,GND*%
%TO.N,DGND*%
X169794000Y-59322000D03*
%TD*%
D18*
%TO.P,R7,1*%
%TO.N,5V*%
X136906000Y-26223500D03*
%TO.P,R7,2*%
%TO.N,Net-(C10-Pad1)*%
X136906000Y-29148500D03*
%TD*%
D19*
%TO.P,J_out1,T*%
%TO.N,/ADC_In*%
X106790000Y-30692000D03*
D20*
%TO.P,J_out1,S*%
%TO.N,AGND*%
X106790000Y-21292000D03*
%TO.P,J_out1,R*%
%TO.N,/ADC_In*%
X114190000Y-23292000D03*
%TD*%
D21*
%TO.P,C_out1,1*%
%TO.N,VCC*%
X99628000Y-62763400D03*
%TO.P,C_out1,2*%
%TO.N,DGND*%
X96968000Y-62763400D03*
%TD*%
D22*
%TO.P,R_fbt1,1*%
%TO.N,Net-(IC1-Pad8)*%
X100838000Y-49279000D03*
%TO.P,R_fbt1,2*%
%TO.N,VCC*%
X100838000Y-47749000D03*
%TD*%
D23*
%TO.P,IC1,1,NC_1*%
%TO.N,unconnected-(IC1-Pad1)*%
X96054650Y-50583400D03*
D24*
%TO.P,IC1,2,EN*%
%TO.N,5V*%
X96054650Y-51080200D03*
D25*
%TO.P,IC1,3,VIN*%
X96054650Y-51584200D03*
D23*
%TO.P,IC1,4,GND*%
%TO.N,DGND*%
X96054650Y-52083400D03*
D26*
%TO.P,IC1,5,SW*%
%TO.N,Net-(C_boot1-Pad2)*%
X97988650Y-52088200D03*
D27*
%TO.P,IC1,6,BST*%
%TO.N,Net-(C_boot1-Pad1)*%
X97988650Y-51584200D03*
D28*
%TO.P,IC1,7,NC_2*%
%TO.N,unconnected-(IC1-Pad7)*%
X98001350Y-51092900D03*
D23*
%TO.P,IC1,8,FB*%
%TO.N,Net-(IC1-Pad8)*%
X98001350Y-50583400D03*
%TD*%
D18*
%TO.P,R17,1*%
%TO.N,VCC*%
X153924000Y-39431500D03*
%TO.P,R17,2*%
%TO.N,Net-(C7-Pad1)*%
X153924000Y-42356500D03*
%TD*%
%TO.P,R20,1*%
%TO.N,AGND*%
X153416000Y-29779500D03*
%TO.P,R20,2*%
%TO.N,Net-(C8-Pad1)*%
X153416000Y-32704500D03*
%TD*%
D10*
%TO.P,R19,1*%
%TO.N,AGND*%
X153862500Y-37084000D03*
%TO.P,R19,2*%
%TO.N,Net-(C7-Pad2)*%
X150937500Y-37084000D03*
%TD*%
D29*
%TO.P,R2,1*%
%TO.N,/mode*%
X135189500Y-86360000D03*
%TO.P,R2,2*%
%TO.N,DGND*%
X138114500Y-86360000D03*
%TD*%
D30*
%TO.P,R_fbb1,1*%
%TO.N,DGND*%
X99060000Y-48602400D03*
%TO.P,R_fbb1,2*%
%TO.N,Net-(IC1-Pad8)*%
X99060000Y-49492400D03*
%TD*%
D18*
%TO.P,R15,1*%
%TO.N,VCC*%
X113284000Y-76769500D03*
%TO.P,R15,2*%
%TO.N,/reset*%
X113284000Y-79694500D03*
%TD*%
D11*
%TO.P,C5,1*%
%TO.N,VCC*%
X94488000Y-79756000D03*
%TO.P,C5,2*%
%TO.N,Net-(C5-Pad2)*%
X97438000Y-79756000D03*
%TD*%
D31*
%TO.P,C8,1*%
%TO.N,Net-(C8-Pad1)*%
X150622000Y-31701000D03*
%TO.P,C8,2*%
%TO.N,/Mic_out*%
X150622000Y-28751000D03*
%TD*%
D32*
%TO.P,L1,1,1*%
%TO.N,VCC*%
X101854000Y-59486800D03*
%TO.P,L1,2,2*%
%TO.N,Net-(C_boot1-Pad2)*%
X101854000Y-54356000D03*
%TD*%
D33*
%TO.P,J1,1,VTref*%
%TO.N,VCC*%
X136988000Y-89916000D03*
%TO.P,J1,2,SWDIO/TMS*%
%TO.N,Net-(J1-Pad2)*%
X140888000Y-89916000D03*
%TO.P,J1,3,GND*%
%TO.N,DGND*%
X136988000Y-91186000D03*
%TO.P,J1,4,SWDCLK/TCK*%
%TO.N,Net-(J1-Pad4)*%
X140888000Y-91186000D03*
%TO.P,J1,5,GND*%
%TO.N,DGND*%
X136988000Y-92456000D03*
%TO.P,J1,6,SWO/TDO*%
%TO.N,Net-(J1-Pad6)*%
X140888000Y-92456000D03*
%TO.P,J1,7,KEY*%
%TO.N,unconnected-(J1-Pad7)*%
X136988000Y-93726000D03*
%TO.P,J1,8,NC/TDI*%
%TO.N,Net-(J1-Pad8)*%
X140888000Y-93726000D03*
%TO.P,J1,9,GNDDetect*%
%TO.N,DGND*%
X136988000Y-94996000D03*
%TO.P,J1,10,~{RESET}*%
%TO.N,/reset*%
X140888000Y-94996000D03*
%TD*%
D34*
%TO.P,SW1,4,A*%
%TO.N,VCC*%
X102870000Y-96420000D03*
%TO.P,SW1,3,K*%
X102870000Y-83920000D03*
%TO.P,SW1,2,2*%
%TO.N,Net-(C5-Pad2)*%
X95250000Y-96420000D03*
%TO.P,SW1,1,1*%
X95250000Y-83920000D03*
%TD*%
D18*
%TO.P,R3,1*%
%TO.N,AGND*%
X123698000Y-60767500D03*
%TO.P,R3,2*%
%TO.N,DGND*%
X123698000Y-63692500D03*
%TD*%
D35*
%TO.P,U3,1*%
%TO.N,Net-(U3-Pad1)*%
X139522200Y-30226000D03*
%TO.P,U3,2,-*%
X139522200Y-31496000D03*
%TO.P,U3,3,+*%
%TO.N,AGND*%
X139522200Y-32766000D03*
%TO.P,U3,4,V+*%
%TO.N,5V*%
X139522200Y-34036000D03*
%TO.P,U3,5,+*%
%TO.N,Net-(C10-Pad1)*%
X139522200Y-35306000D03*
%TO.P,U3,6,-*%
%TO.N,/AUX_mono*%
X139522200Y-36576000D03*
%TO.P,U3,7*%
X139522200Y-37846000D03*
%TO.P,U3,8*%
%TO.N,Net-(U3-Pad8)*%
X144449800Y-37846000D03*
%TO.P,U3,9,-*%
X144449800Y-36576000D03*
%TO.P,U3,10,+*%
%TO.N,AGND*%
X144449800Y-35306000D03*
%TO.P,U3,11,V-*%
X144449800Y-34036000D03*
%TO.P,U3,12,+*%
%TO.N,Net-(C7-Pad2)*%
X144449800Y-32766000D03*
%TO.P,U3,13,-*%
%TO.N,Net-(C8-Pad1)*%
X144449800Y-31496000D03*
%TO.P,U3,14*%
%TO.N,/Mic_out*%
X144449800Y-30226000D03*
%TD*%
D36*
%TO.P,R18,1*%
%TO.N,VCC*%
X147828000Y-42356500D03*
%TO.P,R18,2*%
%TO.N,Net-(C7-Pad2)*%
X147828000Y-39431500D03*
%TD*%
D11*
%TO.P,C4,1*%
%TO.N,DGND*%
X97077000Y-76708000D03*
%TO.P,C4,2*%
%TO.N,/mode*%
X100027000Y-76708000D03*
%TD*%
D37*
%TO.P,C10,1*%
%TO.N,Net-(C10-Pad1)*%
X137111000Y-31496000D03*
%TO.P,C10,2*%
%TO.N,Net-(C10-Pad2)*%
X134161000Y-31496000D03*
%TD*%
D38*
%TO.P,C_in1,1*%
%TO.N,5V*%
X92710000Y-51935400D03*
%TO.P,C_in1,2*%
%TO.N,DGND*%
X92710000Y-54795400D03*
%TD*%
D39*
%TO.P,C_inx1,1*%
%TO.N,5V*%
X94996000Y-51663400D03*
%TO.P,C_inx1,2*%
%TO.N,DGND*%
X94996000Y-52527400D03*
%TD*%
D34*
%TO.P,SW2,1,1*%
%TO.N,DGND*%
X108712000Y-84174000D03*
%TO.P,SW2,2,2*%
X108712000Y-96674000D03*
%TO.P,SW2,3,K*%
%TO.N,/reset*%
X116332000Y-84174000D03*
%TO.P,SW2,4,A*%
X116332000Y-96674000D03*
%TD*%
D40*
%TO.P,C12,1*%
%TO.N,/boot*%
X120396000Y-76757000D03*
%TO.P,C12,2*%
%TO.N,DGND*%
X120396000Y-79707000D03*
%TD*%
D31*
%TO.P,C9,1*%
%TO.N,Net-(C10-Pad1)*%
X131572000Y-29161000D03*
%TO.P,C9,2*%
%TO.N,Net-(C9-Pad2)*%
X131572000Y-26211000D03*
%TD*%
D36*
%TO.P,R8,1*%
%TO.N,Net-(C10-Pad1)*%
X134366000Y-29148500D03*
%TO.P,R8,2*%
%TO.N,AGND*%
X134366000Y-26223500D03*
%TD*%
D31*
%TO.P,C7,1*%
%TO.N,Net-(C7-Pad1)*%
X150876000Y-42369000D03*
%TO.P,C7,2*%
%TO.N,Net-(C7-Pad2)*%
X150876000Y-39419000D03*
%TD*%
D41*
%TO.P,C_boot1,1*%
%TO.N,Net-(C_boot1-Pad1)*%
X99136000Y-51841400D03*
%TO.P,C_boot1,2*%
%TO.N,Net-(C_boot1-Pad2)*%
X100000000Y-51841400D03*
%TD*%
D42*
%TO.P,J5,1,Pin_1*%
%TO.N,DGND*%
X142494000Y-71867000D03*
D43*
%TO.P,J5,2,Pin_2*%
%TO.N,5V*%
X142494000Y-69327000D03*
%TO.P,J5,3,Pin_3*%
%TO.N,/Case_LED*%
X142494000Y-66787000D03*
%TD*%
D11*
%TO.P,C11,1*%
%TO.N,5V*%
X140511000Y-40640000D03*
%TO.P,C11,2*%
%TO.N,AGND*%
X143461000Y-40640000D03*
%TD*%
D18*
%TO.P,R1,1*%
%TO.N,VCC*%
X125476000Y-76769500D03*
%TO.P,R1,2*%
%TO.N,/boot*%
X125476000Y-79694500D03*
%TD*%
D37*
%TO.P,C3,1*%
%TO.N,DGND*%
X169877000Y-53594000D03*
%TO.P,C3,2*%
%TO.N,VCC*%
X166927000Y-53594000D03*
%TD*%
D18*
%TO.P,R21,1*%
%TO.N,/Mic_out*%
X147574000Y-28763500D03*
%TO.P,R21,2*%
%TO.N,Net-(C8-Pad1)*%
X147574000Y-31688500D03*
%TD*%
D29*
%TO.P,R12,1*%
%TO.N,Net-(C5-Pad2)*%
X100584000Y-80010000D03*
%TO.P,R12,2*%
%TO.N,/mode*%
X103509000Y-80010000D03*
%TD*%
D40*
%TO.P,C1,1*%
%TO.N,/reset*%
X109220000Y-76757000D03*
%TO.P,C1,2*%
%TO.N,DGND*%
X109220000Y-79707000D03*
%TD*%
D37*
%TO.P,C6,1*%
%TO.N,AGND*%
X145239000Y-54864000D03*
%TO.P,C6,2*%
%TO.N,5V*%
X142289000Y-54864000D03*
%TD*%
D34*
%TO.P,SW3,1,1*%
%TO.N,DGND*%
X120396000Y-84174000D03*
%TO.P,SW3,2,2*%
X120396000Y-96674000D03*
%TO.P,SW3,3,K*%
%TO.N,/boot*%
X128016000Y-84174000D03*
%TO.P,SW3,4,A*%
X128016000Y-96674000D03*
%TD*%
D20*
%TO.P,J_in1,R*%
%TO.N,Net-(C9-Pad2)*%
X126382000Y-23292000D03*
%TO.P,J_in1,S*%
%TO.N,AGND*%
X118982000Y-21292000D03*
D19*
%TO.P,J_in1,T*%
%TO.N,Net-(C10-Pad2)*%
X118982000Y-30692000D03*
%TD*%
D44*
%TO.P,U2,1,S4*%
%TO.N,AGND*%
X145307050Y-52550441D03*
%TO.P,U2,2,S6*%
X145307050Y-52050315D03*
%TO.P,U2,3,D*%
%TO.N,Net-(U2-Pad3)*%
X145307050Y-51550189D03*
%TO.P,U2,4,S7*%
%TO.N,AGND*%
X145307050Y-51050063D03*
%TO.P,U2,5,S5*%
X145307050Y-50549937D03*
%TO.P,U2,6,EN*%
X145307050Y-50049811D03*
%TO.P,U2,7,NC*%
%TO.N,unconnected-(U2-Pad7)*%
X145307050Y-49549685D03*
%TO.P,U2,8,GND*%
%TO.N,AGND*%
X145307050Y-49049559D03*
%TO.P,U2,9,A2*%
X142220950Y-49049559D03*
%TO.P,U2,10,A1*%
%TO.N,/sel2*%
X142220950Y-49549685D03*
%TO.P,U2,11,A0*%
%TO.N,/sel1*%
X142220950Y-50049811D03*
%TO.P,U2,12,S3*%
%TO.N,AGND*%
X142220950Y-50549937D03*
%TO.P,U2,13,S0*%
%TO.N,/Mic_out*%
X142220950Y-51050063D03*
%TO.P,U2,14,S1*%
%TO.N,/AUX_mono*%
X142220950Y-51550189D03*
%TO.P,U2,15,S2*%
%TO.N,/Ble_DAC*%
X142220950Y-52050315D03*
%TO.P,U2,16,VDD*%
%TO.N,5V*%
X142220950Y-52550441D03*
%TD*%
D37*
%TO.P,C2,1*%
%TO.N,DGND*%
X169877000Y-56388000D03*
%TO.P,C2,2*%
%TO.N,VCC*%
X166927000Y-56388000D03*
%TD*%
D45*
%TO.P,MK2,1*%
%TO.N,Net-(C7-Pad1)*%
X159036000Y-40894000D03*
D46*
%TO.P,MK2,2*%
%TO.N,AGND*%
X159036000Y-38354000D03*
%TD*%
D47*
%TO.N,/mode*%
X132080000Y-86360000D03*
X132080000Y-98806000D03*
X105664000Y-98806000D03*
X105664000Y-80010000D03*
%TO.N,/reset*%
X143764000Y-73914000D03*
D48*
%TO.N,AGND*%
X152400000Y-21590000D03*
D47*
X145288000Y-40640000D03*
%TO.N,/ADC_In*%
X153670000Y-53340000D03*
X153670000Y-55880000D03*
%TO.N,/Ble_DAC*%
X143764000Y-53086000D03*
X143764000Y-56896000D03*
%TO.N,/Case_LED*%
X145288000Y-66802000D03*
X145288000Y-74676000D03*
%TO.N,/LED_out*%
X89916000Y-46736000D03*
X89916000Y-72898000D03*
X135128000Y-72898000D03*
X135128000Y-75438000D03*
%TO.N,/sel1*%
X158750000Y-75438000D03*
X158750000Y-45212000D03*
X143510000Y-45212000D03*
X143139000Y-50154630D03*
%TO.N,/sel2*%
X160020000Y-75438000D03*
X143510000Y-49530000D03*
X159512000Y-45974000D03*
X143510000Y-45974000D03*
%TO.N,/reset*%
X150640500Y-61486500D03*
X118364000Y-73914000D03*
X118364000Y-84074000D03*
X150640500Y-73914000D03*
%TO.N,/boot*%
X153162000Y-78232000D03*
X153162000Y-83312000D03*
%TO.N,Net-(J1-Pad8)*%
X150114000Y-59436000D03*
%TO.N,Net-(J1-Pad6)*%
X148844000Y-72644000D03*
%TO.N,Net-(J1-Pad4)*%
X147574000Y-64262000D03*
%TO.N,Net-(J1-Pad2)*%
X146558000Y-60960000D03*
%TO.N,/Rx*%
X164338000Y-81788000D03*
%TO.N,/Tx*%
X165862000Y-81788000D03*
%TO.N,/sel2_backup*%
X156972000Y-81788000D03*
%TO.N,/sel1_backup*%
X158242000Y-81788000D03*
%TO.N,/Case_backup*%
X168402000Y-81788000D03*
%TO.N,/LED_backup*%
X155194000Y-81788000D03*
%TO.N,/DAC_backup*%
X156972000Y-57658000D03*
%TO.N,/Mode_backup*%
X161036000Y-56642000D03*
%TO.N,/ADC_backup*%
X162306000Y-56642000D03*
%TO.N,/Mic_out*%
X142748000Y-30226000D03*
X143790374Y-51023689D03*
%TO.N,/AUX_mono*%
X139446000Y-51562000D03*
X139446000Y-39116000D03*
%TO.N,/ADC_In*%
X143510000Y-51816000D03*
X142612500Y-42164000D03*
X114300000Y-42164000D03*
X114190000Y-28558000D03*
%TO.N,5V*%
X140462000Y-69342000D03*
%TO.N,/reset*%
X143764000Y-94996000D03*
%TO.N,Net-(J1-Pad8)*%
X150114000Y-93726000D03*
%TO.N,Net-(J1-Pad6)*%
X148844000Y-92456000D03*
%TO.N,Net-(J1-Pad4)*%
X147574000Y-91186000D03*
%TO.N,Net-(J1-Pad2)*%
X146558000Y-89916000D03*
%TO.N,/boot*%
X122936000Y-78232000D03*
X122936000Y-84074000D03*
%TO.N,/reset*%
X111252000Y-78232000D03*
X111252000Y-84074000D03*
%TO.N,Net-(C5-Pad2)*%
X98806000Y-80010000D03*
X98806000Y-84074000D03*
%TO.N,VCC*%
X155956000Y-84074000D03*
X135128000Y-84836000D03*
X135128000Y-76962000D03*
X103124000Y-74930000D03*
X103124000Y-81788000D03*
%TO.N,5V*%
X94996000Y-40640000D03*
X94996000Y-49784000D03*
X140716000Y-52578000D03*
X141986000Y-26416000D03*
X141986000Y-34036000D03*
X141986000Y-40640000D03*
%TO.N,VCC*%
X155956000Y-53594000D03*
X155702000Y-39624000D03*
%TO.N,Net-(C7-Pad2)*%
X150622000Y-33020000D03*
X150876000Y-35560000D03*
D49*
%TO.N,AGND*%
X132998500Y-26162000D03*
X141224000Y-32766000D03*
X146304000Y-34036000D03*
X140716000Y-49022000D03*
X146812000Y-49022000D03*
D47*
X123698000Y-59436000D03*
D49*
X104394000Y-21336000D03*
%TO.N,DGND*%
X149098000Y-62992000D03*
X169672000Y-78994000D03*
X108966000Y-81534000D03*
X95758000Y-76708000D03*
X102362000Y-48768000D03*
X95758000Y-54356000D03*
X138176000Y-84582000D03*
X120396000Y-94488000D03*
X96012000Y-58928000D03*
X96774000Y-54356000D03*
X95250000Y-64008000D03*
X134112000Y-94996000D03*
X97028000Y-49784000D03*
X120396000Y-81534000D03*
X134112000Y-91186000D03*
X134112000Y-92456000D03*
X97028000Y-48768000D03*
X97028000Y-58928000D03*
X95250000Y-62738000D03*
X108712000Y-94488000D03*
X96774000Y-55372000D03*
X123698000Y-65024000D03*
X97028000Y-57912000D03*
X102362000Y-49784000D03*
X96012000Y-57912000D03*
X95758000Y-55372000D03*
%TO.N,VCC*%
X103124000Y-62738000D03*
X104140000Y-47752000D03*
%TO.N,AGND*%
X154940000Y-29718000D03*
X155448000Y-37084000D03*
X143510000Y-42418000D03*
X140716000Y-50546000D03*
X147066000Y-52578000D03*
X147066000Y-50546000D03*
X146304000Y-35306000D03*
X146812000Y-54864000D03*
X116586000Y-21336000D03*
%TD*%
D50*
%TO.N,/mode*%
X132080000Y-86360000D02*
X135189500Y-86360000D01*
X105664000Y-98806000D02*
X132080000Y-98806000D01*
X103509000Y-80010000D02*
X105664000Y-80010000D01*
D51*
%TO.N,VCC*%
X136652000Y-87822500D02*
X136988000Y-88158500D01*
X135890000Y-84836000D02*
X136652000Y-85598000D01*
X135128000Y-84836000D02*
X135890000Y-84836000D01*
X136652000Y-85598000D02*
X136652000Y-87822500D01*
D50*
%TO.N,/reset*%
X143764000Y-73914000D02*
X150640500Y-73914000D01*
X118364000Y-73914000D02*
X143764000Y-73914000D01*
%TO.N,Net-(U2-Pad3)*%
X148131689Y-51550189D02*
X145307050Y-51550189D01*
X148143500Y-51562000D02*
X148131689Y-51550189D01*
%TO.N,AGND*%
X148131000Y-49022000D02*
X146812000Y-49022000D01*
%TO.N,/ADC_In*%
X153670000Y-55880000D02*
X162814000Y-55880000D01*
X162814000Y-55880000D02*
X163444000Y-56510000D01*
X163444000Y-56510000D02*
X163444000Y-59322000D01*
X151068500Y-49034500D02*
X151081000Y-49022000D01*
X151068500Y-51562000D02*
X151068500Y-49034500D01*
X151892000Y-51562000D02*
X151068500Y-51562000D01*
X153670000Y-53340000D02*
X151892000Y-51562000D01*
D51*
%TO.N,VCC*%
X123636500Y-74930000D02*
X125476000Y-76769500D01*
X112268000Y-74930000D02*
X123636500Y-74930000D01*
X113284000Y-75946000D02*
X113284000Y-76769500D01*
X112268000Y-74930000D02*
X113284000Y-75946000D01*
X103124000Y-74930000D02*
X112268000Y-74930000D01*
X99653400Y-62738000D02*
X99628000Y-62763400D01*
X103124000Y-62738000D02*
X99653400Y-62738000D01*
D50*
%TO.N,/DAC_backup*%
X157094000Y-57780000D02*
X157094000Y-59322000D01*
X156972000Y-57658000D02*
X157094000Y-57780000D01*
%TO.N,/ADC_backup*%
X162174000Y-56774000D02*
X162174000Y-59322000D01*
X162306000Y-56642000D02*
X162174000Y-56774000D01*
%TO.N,/Mode_backup*%
X160904000Y-56774000D02*
X160904000Y-59322000D01*
X161036000Y-56642000D02*
X160904000Y-56774000D01*
D51*
%TO.N,DGND*%
X169794000Y-78872000D02*
X169794000Y-76822000D01*
X169672000Y-78994000D02*
X169794000Y-78872000D01*
D50*
%TO.N,/Case_backup*%
X168524000Y-81666000D02*
X168524000Y-76822000D01*
X168402000Y-81788000D02*
X168524000Y-81666000D01*
%TO.N,/Tx*%
X165862000Y-81788000D02*
X165984000Y-81666000D01*
X165984000Y-81666000D02*
X165984000Y-76822000D01*
%TO.N,/Rx*%
X164714000Y-81412000D02*
X164714000Y-76822000D01*
X164338000Y-81788000D02*
X164714000Y-81412000D01*
%TO.N,/LED_backup*%
X155824000Y-81158000D02*
X155824000Y-76822000D01*
X155194000Y-81788000D02*
X155824000Y-81158000D01*
%TO.N,/sel2_backup*%
X156972000Y-81788000D02*
X157094000Y-81666000D01*
X157094000Y-81666000D02*
X157094000Y-76822000D01*
%TO.N,/sel1_backup*%
X158364000Y-81666000D02*
X158364000Y-76822000D01*
X158242000Y-81788000D02*
X158364000Y-81666000D01*
D51*
%TO.N,DGND*%
X152034000Y-62362000D02*
X157424000Y-62362000D01*
X157424000Y-62362000D02*
X162454000Y-67392000D01*
D50*
%TO.N,/mode*%
X100027000Y-76708000D02*
X100207000Y-76708000D01*
X100207000Y-76708000D02*
X103509000Y-80010000D01*
D51*
%TO.N,DGND*%
X96054650Y-52112650D02*
X96266000Y-52324000D01*
D52*
X96054650Y-52083400D02*
X96054650Y-52112650D01*
%TO.N,5V*%
X96054650Y-51584200D02*
X95075200Y-51584200D01*
X95075200Y-51584200D02*
X94996000Y-51663400D01*
D51*
%TO.N,Net-(C_boot1-Pad2)*%
X98298000Y-52578000D02*
X98298000Y-52832000D01*
X98298000Y-52397550D02*
X98298000Y-52578000D01*
X97988650Y-52088200D02*
X98298000Y-52397550D01*
D50*
X97988650Y-52088200D02*
X100256450Y-54356000D01*
X100256450Y-54356000D02*
X101854000Y-54356000D01*
X101854000Y-54356000D02*
X100000000Y-52502000D01*
X100000000Y-52502000D02*
X100000000Y-51841400D01*
%TO.N,Net-(C_boot1-Pad1)*%
X98878800Y-51584200D02*
X99136000Y-51841400D01*
X97988650Y-51584200D02*
X98878800Y-51584200D01*
%TO.N,Net-(IC1-Pad8)*%
X100624600Y-49492400D02*
X100838000Y-49279000D01*
X99060000Y-49492400D02*
X100624600Y-49492400D01*
X98001350Y-50583400D02*
X98001350Y-50551050D01*
X98001350Y-50551050D02*
X99060000Y-49492400D01*
%TO.N,AGND*%
X143461000Y-40640000D02*
X145288000Y-40640000D01*
%TO.N,/ADC_In*%
X145034000Y-53340000D02*
X153670000Y-53340000D01*
X143510000Y-51816000D02*
X145034000Y-53340000D01*
%TO.N,/Ble_DAC*%
X142728315Y-52050315D02*
X142220950Y-52050315D01*
X143764000Y-53086000D02*
X142728315Y-52050315D01*
X158242000Y-57150000D02*
X157988000Y-56896000D01*
X157988000Y-56896000D02*
X143764000Y-56896000D01*
X158364000Y-57272000D02*
X158242000Y-57150000D01*
X158364000Y-59322000D02*
X158364000Y-57272000D01*
%TO.N,/Case_LED*%
X145273000Y-66787000D02*
X142494000Y-66787000D01*
X165408000Y-74676000D02*
X145288000Y-74676000D01*
X167254000Y-76522000D02*
X165408000Y-74676000D01*
X167254000Y-76822000D02*
X167254000Y-76522000D01*
X145288000Y-66802000D02*
X145273000Y-66787000D01*
%TO.N,/sel2*%
X160904000Y-76322000D02*
X160904000Y-76822000D01*
X160020000Y-75438000D02*
X160904000Y-76322000D01*
%TO.N,/sel1*%
X158750000Y-75438000D02*
X159634000Y-76322000D01*
X159634000Y-76322000D02*
X159634000Y-76822000D01*
%TO.N,/LED_out*%
X89916000Y-46736000D02*
X84549500Y-46736000D01*
X135128000Y-72898000D02*
X89916000Y-72898000D01*
X152400000Y-75438000D02*
X135128000Y-75438000D01*
X153470000Y-75438000D02*
X152400000Y-75438000D01*
X154554000Y-76522000D02*
X153470000Y-75438000D01*
X154554000Y-76822000D02*
X154554000Y-76522000D01*
%TO.N,/sel1*%
X158750000Y-45212000D02*
X143510000Y-45212000D01*
X143034181Y-50049811D02*
X143139000Y-50154630D01*
X142220950Y-50049811D02*
X143034181Y-50049811D01*
%TO.N,/sel2*%
X143510000Y-45974000D02*
X159512000Y-45974000D01*
X143490315Y-49549685D02*
X143510000Y-49530000D01*
X142220950Y-49549685D02*
X143490315Y-49549685D01*
%TO.N,/reset*%
X167254000Y-60330000D02*
X167254000Y-59322000D01*
X166097500Y-61486500D02*
X167254000Y-60330000D01*
X150640500Y-61486500D02*
X166097500Y-61486500D01*
X118264000Y-84174000D02*
X118364000Y-84074000D01*
X116332000Y-84174000D02*
X118264000Y-84174000D01*
%TO.N,/boot*%
X153162000Y-76944000D02*
X153284000Y-76822000D01*
X153162000Y-78232000D02*
X153162000Y-76944000D01*
X143002000Y-83312000D02*
X153162000Y-83312000D01*
X142359000Y-83955000D02*
X143002000Y-83312000D01*
X128235000Y-83955000D02*
X142359000Y-83955000D01*
X128016000Y-84174000D02*
X128235000Y-83955000D01*
%TO.N,Net-(J1-Pad8)*%
X150228000Y-59322000D02*
X153284000Y-59322000D01*
X150114000Y-59436000D02*
X150228000Y-59322000D01*
%TO.N,Net-(J1-Pad6)*%
X148966000Y-72522000D02*
X152034000Y-72522000D01*
X148844000Y-72644000D02*
X148966000Y-72522000D01*
%TO.N,Net-(J1-Pad4)*%
X151252000Y-63632000D02*
X150622000Y-64262000D01*
X150622000Y-64262000D02*
X147574000Y-64262000D01*
X152034000Y-63632000D02*
X151252000Y-63632000D01*
D51*
%TO.N,DGND*%
X149728000Y-62362000D02*
X152034000Y-62362000D01*
X149098000Y-62992000D02*
X149728000Y-62362000D01*
D50*
%TO.N,Net-(J1-Pad2)*%
X154554000Y-60076000D02*
X154554000Y-59322000D01*
X153670000Y-60960000D02*
X154554000Y-60076000D01*
X146558000Y-60960000D02*
X153670000Y-60960000D01*
%TO.N,/Mic_out*%
X142748000Y-30226000D02*
X144449800Y-30226000D01*
X143764000Y-51050063D02*
X142220950Y-51050063D01*
X143790374Y-51023689D02*
X143764000Y-51050063D01*
%TO.N,/AUX_mono*%
X139446000Y-51562000D02*
X139457811Y-51550189D01*
X139457811Y-51550189D02*
X142220950Y-51550189D01*
X139522200Y-39039800D02*
X139446000Y-39116000D01*
X139522200Y-37846000D02*
X139522200Y-39039800D01*
%TO.N,/ADC_In*%
X114300000Y-42164000D02*
X142612500Y-42164000D01*
D53*
%TO.N,5V*%
X92590600Y-51816000D02*
X92710000Y-51935400D01*
X84549500Y-51816000D02*
X92590600Y-51816000D01*
X83581000Y-51816000D02*
X84549500Y-51816000D01*
D51*
X140477000Y-69327000D02*
X140462000Y-69342000D01*
X142494000Y-69327000D02*
X140477000Y-69327000D01*
D50*
%TO.N,/reset*%
X140888000Y-94996000D02*
X143764000Y-94996000D01*
%TO.N,Net-(J1-Pad8)*%
X140888000Y-93726000D02*
X150114000Y-93726000D01*
%TO.N,Net-(J1-Pad6)*%
X140888000Y-92456000D02*
X148844000Y-92456000D01*
%TO.N,Net-(J1-Pad4)*%
X140888000Y-91186000D02*
X147574000Y-91186000D01*
%TO.N,Net-(J1-Pad2)*%
X140888000Y-89916000D02*
X146558000Y-89916000D01*
%TO.N,/boot*%
X124398500Y-79694500D02*
X125476000Y-79694500D01*
X122936000Y-78232000D02*
X124398500Y-79694500D01*
X121461000Y-76757000D02*
X120396000Y-76757000D01*
X122936000Y-78232000D02*
X121461000Y-76757000D01*
X123036000Y-84174000D02*
X122936000Y-84074000D01*
X128016000Y-84174000D02*
X123036000Y-84174000D01*
X128016000Y-96674000D02*
X128016000Y-84174000D01*
%TO.N,/reset*%
X112714500Y-79694500D02*
X113284000Y-79694500D01*
X111252000Y-78232000D02*
X112714500Y-79694500D01*
X111252000Y-78232000D02*
X109777000Y-76757000D01*
X111352000Y-84174000D02*
X111252000Y-84074000D01*
X109777000Y-76757000D02*
X109220000Y-76757000D01*
X116332000Y-84174000D02*
X111352000Y-84174000D01*
X116332000Y-96674000D02*
X116332000Y-84174000D01*
%TO.N,Net-(C5-Pad2)*%
X98806000Y-80010000D02*
X100584000Y-80010000D01*
X97692000Y-80010000D02*
X97438000Y-79756000D01*
X98652000Y-83920000D02*
X98806000Y-84074000D01*
X98806000Y-80010000D02*
X97692000Y-80010000D01*
X95250000Y-83920000D02*
X98652000Y-83920000D01*
X95250000Y-96420000D02*
X95250000Y-83920000D01*
D51*
%TO.N,VCC*%
X103124000Y-60756800D02*
X101854000Y-59486800D01*
X103124000Y-62738000D02*
X103124000Y-60756800D01*
X155956000Y-84074000D02*
X143317500Y-84074000D01*
X143317500Y-84074000D02*
X140777500Y-86614000D01*
X139233000Y-88158500D02*
X140777500Y-86614000D01*
X136988000Y-88158500D02*
X139233000Y-88158500D01*
X136988000Y-88158500D02*
X136988000Y-89916000D01*
X134935500Y-76769500D02*
X135128000Y-76962000D01*
X125476000Y-76769500D02*
X134935500Y-76769500D01*
X102870000Y-83920000D02*
X102870000Y-96420000D01*
X103124000Y-81788000D02*
X96520000Y-81788000D01*
X96520000Y-81788000D02*
X94488000Y-79756000D01*
X103124000Y-83666000D02*
X102870000Y-83920000D01*
X103124000Y-81788000D02*
X103124000Y-83666000D01*
X100841000Y-47752000D02*
X100838000Y-47749000D01*
X104140000Y-47752000D02*
X100841000Y-47752000D01*
D50*
%TO.N,5V*%
X96054650Y-51080200D02*
X95579200Y-51080200D01*
X95579200Y-51080200D02*
X95076000Y-51583400D01*
D52*
X92982000Y-51663400D02*
X92710000Y-51935400D01*
X94996000Y-51663400D02*
X92982000Y-51663400D01*
D51*
X95076000Y-49864000D02*
X94996000Y-49784000D01*
X95076000Y-51583400D02*
X95076000Y-49864000D01*
D52*
X94996000Y-40640000D02*
X140511000Y-40640000D01*
D51*
X140743559Y-52550441D02*
X140716000Y-52578000D01*
X142220950Y-52550441D02*
X140743559Y-52550441D01*
X140716000Y-54102000D02*
X140716000Y-52578000D01*
X141478000Y-54864000D02*
X140716000Y-54102000D01*
X142289000Y-54864000D02*
X141478000Y-54864000D01*
X140511000Y-40640000D02*
X141986000Y-40640000D01*
X141986000Y-34036000D02*
X139522200Y-34036000D01*
X137098500Y-26416000D02*
X136906000Y-26223500D01*
X141986000Y-26416000D02*
X137098500Y-26416000D01*
%TO.N,VCC*%
X166927000Y-56388000D02*
X166927000Y-53594000D01*
X168524000Y-59322000D02*
X168524000Y-57985000D01*
X168524000Y-57985000D02*
X166927000Y-56388000D01*
X155956000Y-53594000D02*
X166927000Y-53594000D01*
X155509500Y-39431500D02*
X155702000Y-39624000D01*
X153924000Y-39431500D02*
X155509500Y-39431500D01*
D50*
%TO.N,Net-(C7-Pad2)*%
X150368000Y-32766000D02*
X144449800Y-32766000D01*
X150937500Y-37084000D02*
X150937500Y-35621500D01*
X150937500Y-35621500D02*
X150876000Y-35560000D01*
X150622000Y-33020000D02*
X150368000Y-32766000D01*
%TO.N,/AUX_mono*%
X139522200Y-36576000D02*
X139522200Y-37846000D01*
%TO.N,Net-(U3-Pad8)*%
X144449800Y-36576000D02*
X144449800Y-37846000D01*
%TO.N,Net-(C10-Pad1)*%
X137111000Y-33606000D02*
X137111000Y-31496000D01*
X138811000Y-35306000D02*
X137111000Y-33606000D01*
X139522200Y-35306000D02*
X138811000Y-35306000D01*
X131584500Y-29148500D02*
X131572000Y-29161000D01*
X134366000Y-29148500D02*
X131584500Y-29148500D01*
X136906000Y-29148500D02*
X134366000Y-29148500D01*
X137111000Y-31496000D02*
X137111000Y-29353500D01*
X137111000Y-29353500D02*
X136906000Y-29148500D01*
%TO.N,Net-(U3-Pad1)*%
X139522200Y-30226000D02*
X139522200Y-31496000D01*
%TO.N,/Mic_out*%
X150609500Y-28763500D02*
X150622000Y-28751000D01*
X147574000Y-28763500D02*
X150609500Y-28763500D01*
X145719800Y-28956000D02*
X147381500Y-28956000D01*
X144449800Y-30226000D02*
X145719800Y-28956000D01*
X147381500Y-28956000D02*
X147574000Y-28763500D01*
%TO.N,Net-(C8-Pad1)*%
X147381500Y-31496000D02*
X144449800Y-31496000D01*
X147574000Y-31688500D02*
X147381500Y-31496000D01*
X147586500Y-31701000D02*
X147574000Y-31688500D01*
X150622000Y-31701000D02*
X147586500Y-31701000D01*
%TO.N,/ADC_In*%
X114190000Y-28558000D02*
X114190000Y-23292000D01*
X112056000Y-30692000D02*
X114190000Y-28558000D01*
X106790000Y-30692000D02*
X112056000Y-30692000D01*
D51*
%TO.N,AGND*%
X104394000Y-21336000D02*
X106746000Y-21336000D01*
X106746000Y-21336000D02*
X106790000Y-21292000D01*
D50*
%TO.N,Net-(C10-Pad2)*%
X133357000Y-30692000D02*
X134161000Y-31496000D01*
X118982000Y-30692000D02*
X133357000Y-30692000D01*
%TO.N,Net-(C9-Pad2)*%
X128653000Y-23292000D02*
X126382000Y-23292000D01*
X131572000Y-26211000D02*
X128653000Y-23292000D01*
%TO.N,AGND*%
X132998500Y-26162000D02*
X133060000Y-26223500D01*
X133060000Y-26223500D02*
X134366000Y-26223500D01*
X154940000Y-29718000D02*
X154878500Y-29779500D01*
X154878500Y-29779500D02*
X153416000Y-29779500D01*
D51*
%TO.N,DGND*%
X95758000Y-76708000D02*
X97077000Y-76708000D01*
D50*
%TO.N,Net-(C8-Pad1)*%
X151625500Y-32704500D02*
X153416000Y-32704500D01*
X150622000Y-31701000D02*
X151625500Y-32704500D01*
%TO.N,Net-(C7-Pad1)*%
X159004000Y-40894000D02*
X159036000Y-40894000D01*
X153924000Y-42356500D02*
X157541500Y-42356500D01*
X157541500Y-42356500D02*
X159004000Y-40894000D01*
X153911500Y-42369000D02*
X153924000Y-42356500D01*
X150876000Y-42369000D02*
X153911500Y-42369000D01*
%TO.N,Net-(C7-Pad2)*%
X150876000Y-37145500D02*
X150937500Y-37084000D01*
X150876000Y-39419000D02*
X150876000Y-37145500D01*
X150863500Y-39431500D02*
X150876000Y-39419000D01*
X147828000Y-39431500D02*
X150863500Y-39431500D01*
D51*
%TO.N,VCC*%
X152461500Y-40894000D02*
X149290500Y-40894000D01*
X149290500Y-40894000D02*
X147828000Y-42356500D01*
X153924000Y-39431500D02*
X152461500Y-40894000D01*
D50*
%TO.N,AGND*%
X143510000Y-40689000D02*
X143461000Y-40640000D01*
X143510000Y-42418000D02*
X143510000Y-40689000D01*
X155448000Y-37084000D02*
X153862500Y-37084000D01*
X146304000Y-34036000D02*
X144449800Y-34036000D01*
X141224000Y-32766000D02*
X139522200Y-32766000D01*
X146304000Y-35306000D02*
X144449800Y-35306000D01*
X142193391Y-49022000D02*
X142220950Y-49049559D01*
X140716000Y-49022000D02*
X142193391Y-49022000D01*
X142217013Y-50546000D02*
X142220950Y-50549937D01*
X140716000Y-50546000D02*
X142217013Y-50546000D01*
X145334609Y-49022000D02*
X145307050Y-49049559D01*
X146812000Y-49022000D02*
X145334609Y-49022000D01*
X146569811Y-50049811D02*
X145307050Y-50049811D01*
X147066000Y-50546000D02*
X146569811Y-50049811D01*
X146538315Y-52050315D02*
X145307050Y-52050315D01*
X147066000Y-52578000D02*
X146538315Y-52050315D01*
X146558000Y-51054000D02*
X146554063Y-51050063D01*
X147066000Y-50546000D02*
X146558000Y-51054000D01*
X146554063Y-51050063D02*
X145307050Y-51050063D01*
X147066000Y-50546000D02*
X145310987Y-50546000D01*
X145310987Y-50546000D02*
X145307050Y-50549937D01*
X145334609Y-52578000D02*
X145307050Y-52550441D01*
X147066000Y-52578000D02*
X145334609Y-52578000D01*
D51*
X146812000Y-54864000D02*
X145239000Y-54864000D01*
X123698000Y-59436000D02*
X123698000Y-60767500D01*
%TO.N,DGND*%
X169794000Y-60052000D02*
X162454000Y-67392000D01*
X169794000Y-59322000D02*
X169794000Y-60052000D01*
X123698000Y-65024000D02*
X123698000Y-63692500D01*
X134112000Y-94996000D02*
X136988000Y-94996000D01*
X134112000Y-91186000D02*
X136988000Y-91186000D01*
X134112000Y-92456000D02*
X136988000Y-92456000D01*
X138176000Y-86298500D02*
X138114500Y-86360000D01*
X138176000Y-84582000D02*
X138176000Y-86298500D01*
X120396000Y-81534000D02*
X120396000Y-79707000D01*
X120396000Y-94488000D02*
X120396000Y-96674000D01*
X120396000Y-81534000D02*
X120396000Y-84174000D01*
X108712000Y-94488000D02*
X108712000Y-96674000D01*
X108966000Y-83920000D02*
X108712000Y-84174000D01*
X108966000Y-81534000D02*
X108966000Y-83920000D01*
X108966000Y-79961000D02*
X109220000Y-79707000D01*
X108966000Y-81534000D02*
X108966000Y-79961000D01*
%TO.N,AGND*%
X118938000Y-21336000D02*
X118982000Y-21292000D01*
X116586000Y-21336000D02*
X118938000Y-21336000D01*
%TO.N,DGND*%
X169877000Y-56388000D02*
X169877000Y-53594000D01*
X169877000Y-59239000D02*
X169794000Y-59322000D01*
X169877000Y-56388000D02*
X169877000Y-59239000D01*
D52*
%TO.N,5V*%
X95076000Y-51583400D02*
X94996000Y-51663400D01*
%TD*%
%TA.AperFunction,Conductor*%
%TO.N,5V*%
G36*
X95047523Y-50314817D02*
G01*
X95115607Y-50334938D01*
X95162005Y-50388675D01*
X95173300Y-50440816D01*
X95173300Y-50781534D01*
X95173669Y-50784929D01*
X95173669Y-50784933D01*
X95177535Y-50820516D01*
X95180055Y-50843716D01*
X95184401Y-50855308D01*
X95185064Y-50859009D01*
X95186902Y-50861982D01*
X95221652Y-50954676D01*
X95231185Y-50980105D01*
X95236570Y-50987290D01*
X95236571Y-50987292D01*
X95284541Y-51051298D01*
X95309389Y-51117805D01*
X95294336Y-51187187D01*
X95274172Y-51207373D01*
X95277104Y-51209914D01*
X95251671Y-51239265D01*
X95250000Y-51246948D01*
X95250000Y-51391285D01*
X95254475Y-51406524D01*
X95278953Y-51427735D01*
X95317336Y-51487461D01*
X95317336Y-51558458D01*
X95297266Y-51598524D01*
X95239769Y-51675242D01*
X95231185Y-51686695D01*
X95231160Y-51686676D01*
X95184177Y-51733555D01*
X95123915Y-51748900D01*
X94868000Y-51748900D01*
X94799879Y-51728898D01*
X94753386Y-51675242D01*
X94742000Y-51622900D01*
X94742000Y-50903516D01*
X94737525Y-50888277D01*
X94736135Y-50887072D01*
X94728452Y-50885401D01*
X94651331Y-50885401D01*
X94644510Y-50885771D01*
X94593648Y-50891295D01*
X94578396Y-50894921D01*
X94457946Y-50940076D01*
X94442351Y-50948614D01*
X94340276Y-51025115D01*
X94327714Y-51037677D01*
X94287109Y-51091856D01*
X94230250Y-51134371D01*
X94159431Y-51139397D01*
X94097138Y-51105337D01*
X94075763Y-51076800D01*
X94064788Y-51056754D01*
X93988285Y-50954676D01*
X93975724Y-50942115D01*
X93873649Y-50865614D01*
X93858054Y-50857076D01*
X93737606Y-50811922D01*
X93722351Y-50808295D01*
X93671486Y-50802769D01*
X93664672Y-50802400D01*
X92982115Y-50802400D01*
X92966876Y-50806875D01*
X92965671Y-50808265D01*
X92964000Y-50815948D01*
X92964000Y-52063400D01*
X92943998Y-52131521D01*
X92890342Y-52178014D01*
X92838000Y-52189400D01*
X91310116Y-52189400D01*
X91294877Y-52193875D01*
X91293672Y-52195265D01*
X91292001Y-52202948D01*
X91292001Y-52605069D01*
X91292371Y-52611890D01*
X91297895Y-52662752D01*
X91301521Y-52678004D01*
X91346676Y-52798454D01*
X91355213Y-52814048D01*
X91403844Y-52878936D01*
X91428691Y-52945442D01*
X91413638Y-53014825D01*
X91363463Y-53065054D01*
X91303017Y-53080500D01*
X86540704Y-53080500D01*
X86472583Y-53060498D01*
X86426090Y-53006842D01*
X86415986Y-52936568D01*
X86443339Y-52874524D01*
X86581567Y-52706242D01*
X86587318Y-52697967D01*
X86707531Y-52491421D01*
X86711893Y-52482316D01*
X86797534Y-52259215D01*
X86800385Y-52249526D01*
X86834185Y-52087736D01*
X86833062Y-52073675D01*
X86822954Y-52070000D01*
X84421500Y-52070000D01*
X84353379Y-52049998D01*
X84306886Y-51996342D01*
X84295500Y-51944000D01*
X84295500Y-51688000D01*
X84302757Y-51663285D01*
X91292000Y-51663285D01*
X91296475Y-51678524D01*
X91297865Y-51679729D01*
X91305548Y-51681400D01*
X92437885Y-51681400D01*
X92453124Y-51676925D01*
X92454329Y-51675535D01*
X92456000Y-51667852D01*
X92456000Y-50820516D01*
X92451525Y-50805277D01*
X92450135Y-50804072D01*
X92442452Y-50802401D01*
X91755331Y-50802401D01*
X91748510Y-50802771D01*
X91697648Y-50808295D01*
X91682396Y-50811921D01*
X91561946Y-50857076D01*
X91546351Y-50865614D01*
X91444276Y-50942115D01*
X91431715Y-50954676D01*
X91355214Y-51056751D01*
X91346676Y-51072346D01*
X91301522Y-51192794D01*
X91297895Y-51208049D01*
X91292369Y-51258914D01*
X91292000Y-51265728D01*
X91292000Y-51663285D01*
X84302757Y-51663285D01*
X84315502Y-51619879D01*
X84369158Y-51573386D01*
X84421500Y-51562000D01*
X86820358Y-51562000D01*
X86834444Y-51557864D01*
X86836493Y-51544886D01*
X86833540Y-51519369D01*
X86831581Y-51509479D01*
X86766511Y-51279524D01*
X86762997Y-51270073D01*
X86661994Y-51053472D01*
X86657015Y-51044708D01*
X86522686Y-50847049D01*
X86516362Y-50839185D01*
X86352164Y-50665549D01*
X86344657Y-50658790D01*
X86170285Y-50525473D01*
X86128317Y-50468209D01*
X86123972Y-50397345D01*
X86158628Y-50335382D01*
X86221282Y-50301991D01*
X86247033Y-50299377D01*
X95047523Y-50314817D01*
G37*
%TD.AperFunction*%
%TD*%
%TA.AperFunction,Conductor*%
%TO.N,DGND*%
G36*
X102989889Y-48480502D02*
G01*
X103036382Y-48534158D01*
X103047768Y-48586498D01*
X103047771Y-48728900D01*
X103047798Y-50143527D01*
X103047798Y-50165587D01*
X103027797Y-50233708D01*
X102974142Y-50280202D01*
X102921388Y-50291588D01*
X102024232Y-50288667D01*
X101777638Y-50287864D01*
X101709582Y-50267641D01*
X101663265Y-50213834D01*
X101653390Y-50143527D01*
X101683093Y-50079043D01*
X101685150Y-50076841D01*
X101691261Y-50072261D01*
X101778615Y-49955705D01*
X101829745Y-49819316D01*
X101836500Y-49757134D01*
X101836500Y-48800866D01*
X101829745Y-48738684D01*
X101826973Y-48731288D01*
X101826971Y-48731282D01*
X101789275Y-48630729D01*
X101784092Y-48559922D01*
X101818013Y-48497553D01*
X101880268Y-48463424D01*
X101907257Y-48460500D01*
X102921768Y-48460500D01*
X102989889Y-48480502D01*
G37*
%TD.AperFunction*%
%TA.AperFunction,Conductor*%
G36*
X98205161Y-48280002D02*
G01*
X98251654Y-48333658D01*
X98255891Y-48345018D01*
X98257865Y-48346729D01*
X98265548Y-48348400D01*
X99188000Y-48348400D01*
X99256121Y-48368402D01*
X99302614Y-48422058D01*
X99314000Y-48474400D01*
X99314000Y-48602900D01*
X99293998Y-48671021D01*
X99240342Y-48717514D01*
X99188000Y-48728900D01*
X98711866Y-48728900D01*
X98649684Y-48735655D01*
X98513295Y-48786785D01*
X98494507Y-48800866D01*
X98453998Y-48831226D01*
X98387492Y-48856074D01*
X98378433Y-48856400D01*
X98270116Y-48856400D01*
X98254877Y-48860875D01*
X98253672Y-48862265D01*
X98252001Y-48869948D01*
X98252001Y-48902069D01*
X98252371Y-48908890D01*
X98257895Y-48959750D01*
X98261523Y-48975010D01*
X98271813Y-49002460D01*
X98276996Y-49073267D01*
X98271813Y-49090916D01*
X98261028Y-49119686D01*
X98258255Y-49127084D01*
X98251500Y-49189266D01*
X98251500Y-49388161D01*
X98231498Y-49456282D01*
X98214595Y-49477256D01*
X97803856Y-49887995D01*
X97741544Y-49922021D01*
X97714761Y-49924900D01*
X97580366Y-49924900D01*
X97518184Y-49931655D01*
X97381795Y-49982785D01*
X97265239Y-50070139D01*
X97177885Y-50186695D01*
X97174733Y-50195103D01*
X97170423Y-50202975D01*
X97168119Y-50201713D01*
X97133736Y-50247488D01*
X97067175Y-50272190D01*
X97057980Y-50272495D01*
X96997121Y-50272296D01*
X96929066Y-50252072D01*
X96886410Y-50202518D01*
X96885577Y-50202974D01*
X96883434Y-50199060D01*
X96882749Y-50198264D01*
X96881981Y-50196405D01*
X96881264Y-50195096D01*
X96878115Y-50186695D01*
X96872735Y-50179516D01*
X96872733Y-50179513D01*
X96796142Y-50077319D01*
X96790761Y-50070139D01*
X96674205Y-49982785D01*
X96665796Y-49979633D01*
X96665795Y-49979632D01*
X96636252Y-49968557D01*
X96579487Y-49925916D01*
X96554511Y-49853304D01*
X96546366Y-49477256D01*
X96522788Y-48388728D01*
X96541310Y-48320191D01*
X96593946Y-48272547D01*
X96648758Y-48260000D01*
X98137040Y-48260000D01*
X98205161Y-48280002D01*
G37*
%TD.AperFunction*%
%TD*%
%TA.AperFunction,Conductor*%
%TO.N,VCC*%
G36*
X104574343Y-56967351D02*
G01*
X104627998Y-57013844D01*
X104648000Y-57081964D01*
X104648000Y-64390000D01*
X104627998Y-64458121D01*
X104574342Y-64504614D01*
X104522000Y-64516000D01*
X100835186Y-64516000D01*
X100767065Y-64495998D01*
X100720572Y-64442342D01*
X100710468Y-64372068D01*
X100717204Y-64345771D01*
X100756478Y-64241009D01*
X100760105Y-64225751D01*
X100765631Y-64174886D01*
X100766000Y-64168072D01*
X100766000Y-63035515D01*
X100761525Y-63020276D01*
X100760135Y-63019071D01*
X100752452Y-63017400D01*
X99822000Y-63017400D01*
X99822000Y-62509400D01*
X100747884Y-62509400D01*
X100763123Y-62504925D01*
X100764328Y-62503535D01*
X100765999Y-62495852D01*
X100765999Y-61403500D01*
X100786001Y-61335379D01*
X100839657Y-61288886D01*
X100891999Y-61277500D01*
X101581885Y-61277500D01*
X101597124Y-61273025D01*
X101598329Y-61271635D01*
X101600000Y-61263952D01*
X101600000Y-61259385D01*
X102108000Y-61259385D01*
X102112475Y-61274624D01*
X102113865Y-61275829D01*
X102121548Y-61277500D01*
X103473469Y-61277499D01*
X103480290Y-61277129D01*
X103531152Y-61271605D01*
X103546404Y-61267979D01*
X103666854Y-61222824D01*
X103682449Y-61214286D01*
X103784524Y-61137785D01*
X103797085Y-61125224D01*
X103873586Y-61023149D01*
X103882124Y-61007554D01*
X103927278Y-60887106D01*
X103930905Y-60871851D01*
X103936431Y-60820986D01*
X103936800Y-60814172D01*
X103936800Y-59758915D01*
X103932325Y-59743676D01*
X103930935Y-59742471D01*
X103923252Y-59740800D01*
X102126115Y-59740800D01*
X102110876Y-59745275D01*
X102109671Y-59746665D01*
X102108000Y-59754348D01*
X102108000Y-61259385D01*
X101600000Y-61259385D01*
X101600000Y-59214685D01*
X102108000Y-59214685D01*
X102112475Y-59229924D01*
X102113865Y-59231129D01*
X102121548Y-59232800D01*
X103918684Y-59232800D01*
X103933923Y-59228325D01*
X103935128Y-59226935D01*
X103936799Y-59219252D01*
X103936799Y-58159431D01*
X103936429Y-58152610D01*
X103930905Y-58101748D01*
X103927279Y-58086496D01*
X103882124Y-57966046D01*
X103873586Y-57950451D01*
X103797085Y-57848376D01*
X103784524Y-57835815D01*
X103682449Y-57759314D01*
X103666854Y-57750776D01*
X103546406Y-57705622D01*
X103531151Y-57701995D01*
X103480286Y-57696469D01*
X103473472Y-57696100D01*
X102126115Y-57696100D01*
X102110876Y-57700575D01*
X102109671Y-57701965D01*
X102108000Y-57709648D01*
X102108000Y-59214685D01*
X101600000Y-59214685D01*
X101600000Y-57714216D01*
X101595525Y-57698977D01*
X101594135Y-57697772D01*
X101586452Y-57696101D01*
X100234531Y-57696101D01*
X100227710Y-57696471D01*
X100176848Y-57701995D01*
X100161596Y-57705621D01*
X100041146Y-57750776D01*
X100025555Y-57759312D01*
X100023567Y-57760802D01*
X100021258Y-57761665D01*
X100017683Y-57763622D01*
X100017401Y-57763106D01*
X99957061Y-57785651D01*
X99887678Y-57770599D01*
X99837447Y-57720426D01*
X99822000Y-57659977D01*
X99822000Y-57281500D01*
X99842002Y-57213379D01*
X99895658Y-57166886D01*
X99948000Y-57155500D01*
X104014000Y-57155500D01*
X104017346Y-57155140D01*
X104017351Y-57155140D01*
X104119785Y-57144128D01*
X104119792Y-57144127D01*
X104123149Y-57143766D01*
X104126450Y-57143048D01*
X104172210Y-57133094D01*
X104172215Y-57133093D01*
X104175491Y-57132380D01*
X104279657Y-57097710D01*
X104402612Y-57018692D01*
X104439488Y-56986739D01*
X104504069Y-56957246D01*
X104574343Y-56967351D01*
G37*
%TD.AperFunction*%
%TD*%
%TA.AperFunction,Conductor*%
%TO.N,DGND*%
G36*
X96146771Y-52261902D02*
G01*
X96193264Y-52315558D01*
X96204650Y-52367900D01*
X96204650Y-52723284D01*
X96209125Y-52738523D01*
X96210515Y-52739728D01*
X96218198Y-52741399D01*
X96472169Y-52741399D01*
X96478990Y-52741029D01*
X96529852Y-52735505D01*
X96545104Y-52731879D01*
X96603770Y-52709886D01*
X96674578Y-52704703D01*
X96736947Y-52738624D01*
X96768707Y-52796558D01*
X96768896Y-52796502D01*
X96769149Y-52797364D01*
X96771076Y-52800879D01*
X96771599Y-52805708D01*
X96774000Y-52813885D01*
X96774000Y-52832000D01*
X96896500Y-52832000D01*
X96964621Y-52852002D01*
X97011114Y-52905658D01*
X97022500Y-52958000D01*
X97022500Y-53825063D01*
X97023038Y-53829149D01*
X97039459Y-53953880D01*
X97039461Y-53953888D01*
X97039998Y-53957970D01*
X97056879Y-54020969D01*
X97108177Y-54144811D01*
X97110234Y-54148374D01*
X97110239Y-54148384D01*
X97130216Y-54182986D01*
X97140929Y-54207048D01*
X97158403Y-54260827D01*
X97163880Y-54286592D01*
X97169791Y-54342829D01*
X97169791Y-54369171D01*
X97163880Y-54425410D01*
X97158403Y-54451176D01*
X97140930Y-54504951D01*
X97130218Y-54529011D01*
X97121420Y-54544250D01*
X97073424Y-54656332D01*
X97056686Y-54713337D01*
X97036468Y-54833572D01*
X97050361Y-54979067D01*
X97067099Y-55048062D01*
X97068770Y-55052237D01*
X97068772Y-55052242D01*
X97118069Y-55175380D01*
X97121420Y-55183750D01*
X97123674Y-55187654D01*
X97130218Y-55198989D01*
X97140930Y-55223049D01*
X97156788Y-55271853D01*
X97158403Y-55276824D01*
X97163880Y-55302589D01*
X97168654Y-55348000D01*
X97169792Y-55358830D01*
X97169792Y-55385168D01*
X97167083Y-55410944D01*
X97163881Y-55441407D01*
X97158404Y-55467173D01*
X97140929Y-55520953D01*
X97130216Y-55545014D01*
X97110952Y-55578381D01*
X97108178Y-55583186D01*
X97087461Y-55633200D01*
X97056878Y-55707032D01*
X97055811Y-55711014D01*
X97055810Y-55711017D01*
X97041963Y-55762695D01*
X97039997Y-55770032D01*
X97039459Y-55774117D01*
X97039458Y-55774123D01*
X97027470Y-55865186D01*
X97022500Y-55902937D01*
X97022500Y-56516000D01*
X97022860Y-56519346D01*
X97022860Y-56519351D01*
X97031463Y-56599369D01*
X97034234Y-56625149D01*
X97034952Y-56628449D01*
X97034952Y-56628450D01*
X97041961Y-56660669D01*
X97045620Y-56677491D01*
X97080290Y-56781657D01*
X97159308Y-56904612D01*
X97205801Y-56958268D01*
X97209194Y-56961208D01*
X97309450Y-57048081D01*
X97309453Y-57048083D01*
X97316261Y-57053982D01*
X97449210Y-57114698D01*
X97472964Y-57121673D01*
X97513008Y-57133431D01*
X97513012Y-57133432D01*
X97517331Y-57134700D01*
X97521780Y-57135340D01*
X97521786Y-57135341D01*
X97657553Y-57154861D01*
X97657558Y-57154861D01*
X97662000Y-57155500D01*
X98172000Y-57155500D01*
X98240121Y-57175502D01*
X98286614Y-57229158D01*
X98298000Y-57281500D01*
X98298000Y-61128302D01*
X98277998Y-61196423D01*
X98224342Y-61242916D01*
X98154068Y-61253020D01*
X98089488Y-61223526D01*
X98054018Y-61172532D01*
X98051324Y-61165346D01*
X98042786Y-61149751D01*
X97966285Y-61047676D01*
X97953724Y-61035115D01*
X97851649Y-60958614D01*
X97836054Y-60950076D01*
X97715606Y-60904922D01*
X97700351Y-60901295D01*
X97649486Y-60895769D01*
X97642672Y-60895400D01*
X97240115Y-60895400D01*
X97224876Y-60899875D01*
X97223671Y-60901265D01*
X97222000Y-60908948D01*
X97222000Y-64613284D01*
X97226475Y-64628523D01*
X97227865Y-64629728D01*
X97235548Y-64631399D01*
X97642669Y-64631399D01*
X97649490Y-64631029D01*
X97700352Y-64625505D01*
X97715604Y-64621879D01*
X97836054Y-64576724D01*
X97851649Y-64568186D01*
X97953724Y-64491685D01*
X97966285Y-64479124D01*
X98042786Y-64377049D01*
X98051324Y-64361454D01*
X98054018Y-64354268D01*
X98096660Y-64297504D01*
X98163222Y-64272804D01*
X98232570Y-64288012D01*
X98282688Y-64338298D01*
X98298000Y-64398498D01*
X98298000Y-64898000D01*
X98277998Y-64966121D01*
X98224342Y-65012614D01*
X98172000Y-65024000D01*
X82168000Y-65024000D01*
X82099879Y-65003998D01*
X82053386Y-64950342D01*
X82042000Y-64898000D01*
X82042000Y-64168069D01*
X95830001Y-64168069D01*
X95830371Y-64174890D01*
X95835895Y-64225752D01*
X95839521Y-64241004D01*
X95884676Y-64361454D01*
X95893214Y-64377049D01*
X95969715Y-64479124D01*
X95982276Y-64491685D01*
X96084351Y-64568186D01*
X96099946Y-64576724D01*
X96220394Y-64621878D01*
X96235649Y-64625505D01*
X96286514Y-64631031D01*
X96293328Y-64631400D01*
X96695885Y-64631400D01*
X96711124Y-64626925D01*
X96712329Y-64625535D01*
X96714000Y-64617852D01*
X96714000Y-63035515D01*
X96709525Y-63020276D01*
X96708135Y-63019071D01*
X96700452Y-63017400D01*
X95848116Y-63017400D01*
X95832877Y-63021875D01*
X95831672Y-63023265D01*
X95830001Y-63030948D01*
X95830001Y-64168069D01*
X82042000Y-64168069D01*
X82042000Y-62491285D01*
X95830000Y-62491285D01*
X95834475Y-62506524D01*
X95835865Y-62507729D01*
X95843548Y-62509400D01*
X96695885Y-62509400D01*
X96711124Y-62504925D01*
X96712329Y-62503535D01*
X96714000Y-62495852D01*
X96714000Y-60913516D01*
X96709525Y-60898277D01*
X96708135Y-60897072D01*
X96700452Y-60895401D01*
X96293331Y-60895401D01*
X96286510Y-60895771D01*
X96235648Y-60901295D01*
X96220396Y-60904921D01*
X96099946Y-60950076D01*
X96084351Y-60958614D01*
X95982276Y-61035115D01*
X95969715Y-61047676D01*
X95893214Y-61149751D01*
X95884676Y-61165346D01*
X95839522Y-61285794D01*
X95835895Y-61301049D01*
X95830369Y-61351914D01*
X95830000Y-61358728D01*
X95830000Y-62491285D01*
X82042000Y-62491285D01*
X82042000Y-57313940D01*
X82062002Y-57245819D01*
X82115658Y-57199326D01*
X82185932Y-57189222D01*
X82250512Y-57218716D01*
X82289239Y-57279633D01*
X82332489Y-57432476D01*
X82336003Y-57441927D01*
X82437006Y-57658528D01*
X82441985Y-57667292D01*
X82576314Y-57864951D01*
X82582638Y-57872815D01*
X82746836Y-58046451D01*
X82754343Y-58053210D01*
X82944188Y-58198357D01*
X82952667Y-58203821D01*
X83163283Y-58316752D01*
X83172529Y-58320792D01*
X83398487Y-58398596D01*
X83408268Y-58401107D01*
X83644834Y-58441969D01*
X83652706Y-58442824D01*
X83677185Y-58443936D01*
X83680018Y-58444000D01*
X84277385Y-58444000D01*
X84292624Y-58439525D01*
X84293829Y-58438135D01*
X84295500Y-58430452D01*
X84295500Y-58425885D01*
X84803500Y-58425885D01*
X84807975Y-58441124D01*
X84809365Y-58442329D01*
X84817048Y-58444000D01*
X85369572Y-58444000D01*
X85374604Y-58443798D01*
X85552759Y-58429464D01*
X85562712Y-58427852D01*
X85794800Y-58370846D01*
X85804370Y-58367663D01*
X86024360Y-58274282D01*
X86033299Y-58269608D01*
X86235524Y-58142261D01*
X86243599Y-58136220D01*
X86422868Y-57978173D01*
X86429871Y-57970921D01*
X86581562Y-57786250D01*
X86587318Y-57777967D01*
X86707531Y-57571421D01*
X86711893Y-57562316D01*
X86797534Y-57339215D01*
X86800385Y-57329526D01*
X86834185Y-57167736D01*
X86833062Y-57153675D01*
X86822954Y-57150000D01*
X84821615Y-57150000D01*
X84806376Y-57154475D01*
X84805171Y-57155865D01*
X84803500Y-57163548D01*
X84803500Y-58425885D01*
X84295500Y-58425885D01*
X84295500Y-56623885D01*
X84803500Y-56623885D01*
X84807975Y-56639124D01*
X84809365Y-56640329D01*
X84817048Y-56642000D01*
X86820358Y-56642000D01*
X86834444Y-56637864D01*
X86836493Y-56624886D01*
X86833540Y-56599369D01*
X86831581Y-56589479D01*
X86766511Y-56359524D01*
X86762997Y-56350073D01*
X86661994Y-56133472D01*
X86657015Y-56124708D01*
X86522686Y-55927049D01*
X86516362Y-55919185D01*
X86352164Y-55745549D01*
X86344657Y-55738790D01*
X86154812Y-55593643D01*
X86146333Y-55588179D01*
X85935717Y-55475248D01*
X85926471Y-55471208D01*
X85908642Y-55465069D01*
X91292001Y-55465069D01*
X91292371Y-55471890D01*
X91297895Y-55522752D01*
X91301521Y-55538004D01*
X91346676Y-55658454D01*
X91355214Y-55674049D01*
X91431715Y-55776124D01*
X91444276Y-55788685D01*
X91546351Y-55865186D01*
X91561946Y-55873724D01*
X91682394Y-55918878D01*
X91697649Y-55922505D01*
X91748514Y-55928031D01*
X91755328Y-55928400D01*
X92437885Y-55928400D01*
X92453124Y-55923925D01*
X92454329Y-55922535D01*
X92456000Y-55914852D01*
X92456000Y-55910284D01*
X92964000Y-55910284D01*
X92968475Y-55925523D01*
X92969865Y-55926728D01*
X92977548Y-55928399D01*
X93664669Y-55928399D01*
X93671490Y-55928029D01*
X93722352Y-55922505D01*
X93737604Y-55918879D01*
X93858054Y-55873724D01*
X93873649Y-55865186D01*
X93975724Y-55788685D01*
X93988285Y-55776124D01*
X94064786Y-55674049D01*
X94073324Y-55658454D01*
X94118478Y-55538006D01*
X94122105Y-55522751D01*
X94127631Y-55471886D01*
X94128000Y-55465072D01*
X94128000Y-55067515D01*
X94123525Y-55052276D01*
X94122135Y-55051071D01*
X94114452Y-55049400D01*
X92982115Y-55049400D01*
X92966876Y-55053875D01*
X92965671Y-55055265D01*
X92964000Y-55062948D01*
X92964000Y-55910284D01*
X92456000Y-55910284D01*
X92456000Y-55067515D01*
X92451525Y-55052276D01*
X92450135Y-55051071D01*
X92442452Y-55049400D01*
X91310116Y-55049400D01*
X91294877Y-55053875D01*
X91293672Y-55055265D01*
X91292001Y-55062948D01*
X91292001Y-55465069D01*
X85908642Y-55465069D01*
X85700513Y-55393404D01*
X85690732Y-55390893D01*
X85454166Y-55350031D01*
X85446294Y-55349176D01*
X85421815Y-55348064D01*
X85418982Y-55348000D01*
X84821615Y-55348000D01*
X84806376Y-55352475D01*
X84805171Y-55353865D01*
X84803500Y-55361548D01*
X84803500Y-56623885D01*
X84295500Y-56623885D01*
X84295500Y-55366115D01*
X84291025Y-55350876D01*
X84289635Y-55349671D01*
X84281952Y-55348000D01*
X83729428Y-55348000D01*
X83724396Y-55348202D01*
X83546241Y-55362536D01*
X83536288Y-55364148D01*
X83304200Y-55421154D01*
X83294630Y-55424337D01*
X83074640Y-55517718D01*
X83065701Y-55522392D01*
X82863476Y-55649739D01*
X82855401Y-55655780D01*
X82676132Y-55813827D01*
X82669129Y-55821079D01*
X82517438Y-56005750D01*
X82511682Y-56014033D01*
X82391469Y-56220579D01*
X82387107Y-56229684D01*
X82301464Y-56452790D01*
X82298616Y-56462469D01*
X82291337Y-56497310D01*
X82257828Y-56559901D01*
X82195798Y-56594439D01*
X82124943Y-56589959D01*
X82067758Y-56547883D01*
X82042399Y-56481569D01*
X82042000Y-56471544D01*
X82042000Y-53720000D01*
X82062002Y-53651879D01*
X82115658Y-53605386D01*
X82168000Y-53594000D01*
X91348201Y-53594000D01*
X91416322Y-53614002D01*
X91462815Y-53667658D01*
X91472919Y-53737932D01*
X91443425Y-53802512D01*
X91437296Y-53809095D01*
X91431715Y-53814676D01*
X91355214Y-53916751D01*
X91346676Y-53932346D01*
X91301522Y-54052794D01*
X91297895Y-54068049D01*
X91292369Y-54118914D01*
X91292000Y-54125728D01*
X91292000Y-54523285D01*
X91296475Y-54538524D01*
X91297865Y-54539729D01*
X91305548Y-54541400D01*
X94109884Y-54541400D01*
X94125123Y-54536925D01*
X94126328Y-54535535D01*
X94127999Y-54527852D01*
X94127999Y-54125731D01*
X94127629Y-54118910D01*
X94122105Y-54068048D01*
X94118479Y-54052796D01*
X94073324Y-53932346D01*
X94064786Y-53916751D01*
X93988285Y-53814676D01*
X93982704Y-53809095D01*
X93948678Y-53746783D01*
X93953743Y-53675968D01*
X93996290Y-53619132D01*
X94062810Y-53594321D01*
X94071799Y-53594000D01*
X94488000Y-53594000D01*
X94488000Y-53428457D01*
X94508002Y-53360336D01*
X94561658Y-53313843D01*
X94627610Y-53303194D01*
X94644519Y-53305031D01*
X94651328Y-53305400D01*
X94723885Y-53305400D01*
X94739124Y-53300925D01*
X94740329Y-53299535D01*
X94742000Y-53291852D01*
X94742000Y-52567900D01*
X94762002Y-52499779D01*
X94815658Y-52453286D01*
X94868000Y-52441900D01*
X95124000Y-52441900D01*
X95192121Y-52461902D01*
X95238614Y-52515558D01*
X95250000Y-52567900D01*
X95250000Y-53287284D01*
X95254475Y-53302523D01*
X95255865Y-53303728D01*
X95263548Y-53305399D01*
X95340669Y-53305399D01*
X95347490Y-53305029D01*
X95398352Y-53299505D01*
X95413604Y-53295879D01*
X95534054Y-53250724D01*
X95549649Y-53242186D01*
X95651724Y-53165685D01*
X95664285Y-53153124D01*
X95740786Y-53051049D01*
X95749324Y-53035454D01*
X95794478Y-52915006D01*
X95798106Y-52899751D01*
X95803879Y-52846601D01*
X95831120Y-52781039D01*
X95893645Y-52739311D01*
X95901775Y-52736924D01*
X95902979Y-52735535D01*
X95904650Y-52727852D01*
X95904650Y-52367900D01*
X95924652Y-52299779D01*
X95978308Y-52253286D01*
X96030650Y-52241900D01*
X96078650Y-52241900D01*
X96146771Y-52261902D01*
G37*
%TD.AperFunction*%
%TD*%
%TA.AperFunction,Conductor*%
%TO.N,Net-(C_boot1-Pad2)*%
G36*
X98075971Y-52261902D02*
G01*
X98122464Y-52315558D01*
X98133850Y-52367900D01*
X98133850Y-52723284D01*
X98138325Y-52738523D01*
X98139715Y-52739728D01*
X98147398Y-52741399D01*
X98393469Y-52741399D01*
X98400290Y-52741029D01*
X98451152Y-52735505D01*
X98466404Y-52731879D01*
X98586854Y-52686724D01*
X98602448Y-52678186D01*
X98629507Y-52657907D01*
X98696013Y-52633060D01*
X98740384Y-52639464D01*
X98740602Y-52638545D01*
X98748290Y-52640373D01*
X98755684Y-52643145D01*
X98763532Y-52643998D01*
X98763534Y-52643998D01*
X98813263Y-52649400D01*
X98817866Y-52649900D01*
X99454134Y-52649900D01*
X99458737Y-52649400D01*
X99508466Y-52643998D01*
X99508468Y-52643998D01*
X99516316Y-52643145D01*
X99524479Y-52640085D01*
X99525119Y-52640038D01*
X99531398Y-52638545D01*
X99531639Y-52639560D01*
X99595285Y-52634899D01*
X99611605Y-52639691D01*
X99627643Y-52643505D01*
X99678514Y-52649031D01*
X99685328Y-52649400D01*
X99714992Y-52649400D01*
X99783113Y-52669402D01*
X99829606Y-52723058D01*
X99839710Y-52793332D01*
X99828592Y-52826675D01*
X99829028Y-52826838D01*
X99780722Y-52955694D01*
X99777095Y-52970949D01*
X99771569Y-53021814D01*
X99771200Y-53028628D01*
X99771200Y-54083885D01*
X99775675Y-54099124D01*
X99777065Y-54100329D01*
X99784748Y-54102000D01*
X101982000Y-54102000D01*
X102050121Y-54122002D01*
X102096614Y-54175658D01*
X102108000Y-54228000D01*
X102108000Y-56128584D01*
X102112475Y-56143823D01*
X102113865Y-56145028D01*
X102121548Y-56146699D01*
X103473469Y-56146699D01*
X103480290Y-56146329D01*
X103531152Y-56140805D01*
X103546404Y-56137179D01*
X103666854Y-56092024D01*
X103682449Y-56083486D01*
X103784524Y-56006985D01*
X103797085Y-55994424D01*
X103873586Y-55892349D01*
X103882124Y-55876754D01*
X103896018Y-55839692D01*
X103938660Y-55782928D01*
X104005221Y-55758228D01*
X104074570Y-55773435D01*
X104124688Y-55823721D01*
X104140000Y-55883922D01*
X104140000Y-56516000D01*
X104119998Y-56584121D01*
X104066342Y-56630614D01*
X104014000Y-56642000D01*
X97662000Y-56642000D01*
X97593879Y-56621998D01*
X97547386Y-56568342D01*
X97536000Y-56516000D01*
X97536000Y-55902937D01*
X97552881Y-55839937D01*
X97553023Y-55839692D01*
X97608527Y-55743556D01*
X97628083Y-55683369D01*
X99771201Y-55683369D01*
X99771571Y-55690190D01*
X99777095Y-55741052D01*
X99780721Y-55756304D01*
X99825876Y-55876754D01*
X99834414Y-55892349D01*
X99910915Y-55994424D01*
X99923476Y-56006985D01*
X100025551Y-56083486D01*
X100041146Y-56092024D01*
X100161594Y-56137178D01*
X100176849Y-56140805D01*
X100227714Y-56146331D01*
X100234528Y-56146700D01*
X101581885Y-56146700D01*
X101597124Y-56142225D01*
X101598329Y-56140835D01*
X101600000Y-56133152D01*
X101600000Y-54628115D01*
X101595525Y-54612876D01*
X101594135Y-54611671D01*
X101586452Y-54610000D01*
X99789316Y-54610000D01*
X99774077Y-54614475D01*
X99772872Y-54615865D01*
X99771201Y-54623548D01*
X99771201Y-55683369D01*
X97628083Y-55683369D01*
X97667542Y-55561928D01*
X97687504Y-55372000D01*
X97667542Y-55182072D01*
X97608527Y-55000444D01*
X97566124Y-54927000D01*
X97549386Y-54858005D01*
X97566124Y-54801000D01*
X97605223Y-54733279D01*
X97605224Y-54733278D01*
X97608527Y-54727556D01*
X97667542Y-54545928D01*
X97687504Y-54356000D01*
X97667542Y-54166072D01*
X97608527Y-53984444D01*
X97552881Y-53888062D01*
X97536000Y-53825063D01*
X97536000Y-52867400D01*
X97556002Y-52799279D01*
X97609658Y-52752786D01*
X97662000Y-52741400D01*
X97825335Y-52741400D01*
X97840574Y-52736925D01*
X97841779Y-52735535D01*
X97843450Y-52727852D01*
X97843450Y-52367900D01*
X97863452Y-52299779D01*
X97917108Y-52253286D01*
X97969450Y-52241900D01*
X98007850Y-52241900D01*
X98075971Y-52261902D01*
G37*
%TD.AperFunction*%
%TD*%
M02*
