%TF.GenerationSoftware,KiCad,Pcbnew,(6.0.11)*%
%TF.CreationDate,2023-03-14T15:00:17-04:00*%
%TF.ProjectId,RDNT_PCB,52444e54-5f50-4434-922e-6b696361645f,rev?*%
%TF.SameCoordinates,Original*%
%TF.FileFunction,Copper,L2,Bot*%
%TF.FilePolarity,Positive*%
%FSLAX46Y46*%
G04 Gerber Fmt 4.6, Leading zero omitted, Abs format (unit mm)*
G04 Created by KiCad (PCBNEW (6.0.11)) date 2023-03-14 15:00:17*
%MOMM*%
%LPD*%
G01*
G04 APERTURE LIST*
G04 Aperture macros list*
%AMRoundRect*
0 Rectangle with rounded corners*
0 $1 Rounding radius*
0 $2 $3 $4 $5 $6 $7 $8 $9 X,Y pos of 4 corners*
0 Add a 4 corners polygon primitive as box body*
4,1,4,$2,$3,$4,$5,$6,$7,$8,$9,$2,$3,0*
0 Add four circle primitives for the rounded corners*
1,1,$1+$1,$2,$3*
1,1,$1+$1,$4,$5*
1,1,$1+$1,$6,$7*
1,1,$1+$1,$8,$9*
0 Add four rect primitives between the rounded corners*
20,1,$1+$1,$2,$3,$4,$5,0*
20,1,$1+$1,$4,$5,$6,$7,0*
20,1,$1+$1,$6,$7,$8,$9,0*
20,1,$1+$1,$8,$9,$2,$3,0*%
G04 Aperture macros list end*
%TA.AperFunction,ComponentPad*%
%ADD10RoundRect,0.249999X-1.550001X0.790001X-1.550001X-0.790001X1.550001X-0.790001X1.550001X0.790001X0*%
%TD*%
%TA.AperFunction,ComponentPad*%
%ADD11O,3.600000X2.080000*%
%TD*%
%TA.AperFunction,ComponentPad*%
%ADD12R,4.200000X4.200000*%
%TD*%
%TA.AperFunction,ComponentPad*%
%ADD13R,1.700000X1.700000*%
%TD*%
%TA.AperFunction,ComponentPad*%
%ADD14O,1.700000X1.700000*%
%TD*%
%TA.AperFunction,ComponentPad*%
%ADD15R,1.378000X1.378000*%
%TD*%
%TA.AperFunction,ComponentPad*%
%ADD16C,1.378000*%
%TD*%
%TA.AperFunction,ViaPad*%
%ADD17C,0.600000*%
%TD*%
%TA.AperFunction,ViaPad*%
%ADD18C,1.524000*%
%TD*%
%TA.AperFunction,ViaPad*%
%ADD19C,0.800000*%
%TD*%
%TA.AperFunction,Conductor*%
%ADD20C,0.200000*%
%TD*%
%TA.AperFunction,Conductor*%
%ADD21C,0.400000*%
%TD*%
G04 APERTURE END LIST*
D10*
%TO.P,J6,1,Pin_1*%
%TO.N,/LED_out*%
X84549500Y-46736000D03*
D11*
%TO.P,J6,2,Pin_2*%
%TO.N,5V*%
X84549500Y-51816000D03*
%TO.P,J6,3,Pin_3*%
%TO.N,DGND*%
X84549500Y-56896000D03*
%TD*%
D12*
%TO.P,U1,39,GND*%
%TO.N,DGND*%
X162454000Y-67392000D03*
%TD*%
D13*
%TO.P,J5,1,Pin_1*%
%TO.N,DGND*%
X142494000Y-71867000D03*
D14*
%TO.P,J5,2,Pin_2*%
%TO.N,5V*%
X142494000Y-69327000D03*
%TO.P,J5,3,Pin_3*%
%TO.N,/Case_LED*%
X142494000Y-66787000D03*
%TD*%
D15*
%TO.P,MK2,1*%
%TO.N,Net-(C7-Pad1)*%
X159036000Y-40894000D03*
D16*
%TO.P,MK2,2*%
%TO.N,AGND*%
X159036000Y-38354000D03*
%TD*%
D17*
%TO.N,/mode*%
X132080000Y-86360000D03*
X132080000Y-98806000D03*
X105664000Y-98806000D03*
X105664000Y-80010000D03*
%TO.N,/reset*%
X143764000Y-73914000D03*
D18*
%TO.N,AGND*%
X152400000Y-21590000D03*
D17*
X145288000Y-40640000D03*
%TO.N,/ADC_In*%
X153670000Y-53340000D03*
X153670000Y-55880000D03*
%TO.N,/Ble_DAC*%
X143764000Y-53086000D03*
X143764000Y-56896000D03*
%TO.N,/Case_LED*%
X145288000Y-66802000D03*
X145288000Y-74676000D03*
%TO.N,/LED_out*%
X89916000Y-46736000D03*
X89916000Y-72898000D03*
X135128000Y-72898000D03*
X135128000Y-75438000D03*
%TO.N,/sel1*%
X158750000Y-75438000D03*
X158750000Y-45212000D03*
X143510000Y-45212000D03*
X143139000Y-50154630D03*
%TO.N,/sel2*%
X160020000Y-75438000D03*
X143510000Y-49530000D03*
X159512000Y-45974000D03*
X143510000Y-45974000D03*
%TO.N,/reset*%
X150640500Y-61486500D03*
X118364000Y-73914000D03*
X118364000Y-84074000D03*
X150640500Y-73914000D03*
%TO.N,/boot*%
X153162000Y-78232000D03*
X153162000Y-83312000D03*
%TO.N,Net-(J1-Pad8)*%
X150114000Y-59436000D03*
%TO.N,Net-(J1-Pad6)*%
X148844000Y-72644000D03*
%TO.N,Net-(J1-Pad4)*%
X147574000Y-64262000D03*
%TO.N,Net-(J1-Pad2)*%
X146558000Y-60960000D03*
%TO.N,/Rx*%
X164338000Y-81788000D03*
%TO.N,/Tx*%
X165862000Y-81788000D03*
%TO.N,/sel2_backup*%
X156972000Y-81788000D03*
%TO.N,/sel1_backup*%
X158242000Y-81788000D03*
%TO.N,/Case_backup*%
X168402000Y-81788000D03*
%TO.N,/LED_backup*%
X155194000Y-81788000D03*
%TO.N,/DAC_backup*%
X156972000Y-57658000D03*
%TO.N,/Mode_backup*%
X161036000Y-56642000D03*
%TO.N,/ADC_backup*%
X162306000Y-56642000D03*
%TO.N,/Mic_out*%
X142748000Y-30226000D03*
X143790374Y-51023689D03*
%TO.N,/AUX_mono*%
X139446000Y-51562000D03*
X139446000Y-39116000D03*
%TO.N,/ADC_In*%
X143510000Y-51816000D03*
X142612500Y-42164000D03*
X114300000Y-42164000D03*
X114190000Y-28558000D03*
%TO.N,5V*%
X140462000Y-69342000D03*
%TO.N,/reset*%
X143764000Y-94996000D03*
%TO.N,Net-(J1-Pad8)*%
X150114000Y-93726000D03*
%TO.N,Net-(J1-Pad6)*%
X148844000Y-92456000D03*
%TO.N,Net-(J1-Pad4)*%
X147574000Y-91186000D03*
%TO.N,Net-(J1-Pad2)*%
X146558000Y-89916000D03*
%TO.N,/boot*%
X122936000Y-78232000D03*
X122936000Y-84074000D03*
%TO.N,/reset*%
X111252000Y-78232000D03*
X111252000Y-84074000D03*
%TO.N,Net-(C5-Pad2)*%
X98806000Y-80010000D03*
X98806000Y-84074000D03*
%TO.N,VCC*%
X155956000Y-84074000D03*
X135128000Y-84836000D03*
X135128000Y-76962000D03*
X103124000Y-74930000D03*
X103124000Y-81788000D03*
%TO.N,5V*%
X94996000Y-40640000D03*
X94996000Y-49784000D03*
X140716000Y-52578000D03*
X141986000Y-26416000D03*
X141986000Y-34036000D03*
X141986000Y-40640000D03*
%TO.N,VCC*%
X155956000Y-53594000D03*
X155702000Y-39624000D03*
%TO.N,Net-(C7-Pad2)*%
X150622000Y-33020000D03*
X150876000Y-35560000D03*
D19*
%TO.N,AGND*%
X132998500Y-26162000D03*
X141224000Y-32766000D03*
X146304000Y-34036000D03*
X140716000Y-49022000D03*
X146812000Y-49022000D03*
D17*
X123698000Y-59436000D03*
D19*
X104394000Y-21336000D03*
%TO.N,DGND*%
X149098000Y-62992000D03*
X169672000Y-78994000D03*
X108966000Y-81534000D03*
X95758000Y-76708000D03*
X102362000Y-48768000D03*
X95758000Y-54356000D03*
X138176000Y-84582000D03*
X120396000Y-94488000D03*
X96012000Y-58928000D03*
X96774000Y-54356000D03*
X95250000Y-64008000D03*
X134112000Y-94996000D03*
X97028000Y-49784000D03*
X120396000Y-81534000D03*
X134112000Y-91186000D03*
X134112000Y-92456000D03*
X97028000Y-48768000D03*
X97028000Y-58928000D03*
X95250000Y-62738000D03*
X108712000Y-94488000D03*
X96774000Y-55372000D03*
X123698000Y-65024000D03*
X97028000Y-57912000D03*
X102362000Y-49784000D03*
X96012000Y-57912000D03*
X95758000Y-55372000D03*
%TO.N,VCC*%
X103124000Y-62738000D03*
X104140000Y-47752000D03*
%TO.N,AGND*%
X154940000Y-29718000D03*
X155448000Y-37084000D03*
X143510000Y-42418000D03*
X140716000Y-50546000D03*
X147066000Y-52578000D03*
X147066000Y-50546000D03*
X146304000Y-35306000D03*
X146812000Y-54864000D03*
X116586000Y-21336000D03*
%TD*%
D20*
%TO.N,/mode*%
X132080000Y-98806000D02*
X132080000Y-86360000D01*
X105664000Y-80010000D02*
X105664000Y-98806000D01*
%TO.N,/reset*%
X143764000Y-94996000D02*
X143764000Y-73914000D01*
%TO.N,/ADC_In*%
X153670000Y-53340000D02*
X153670000Y-55880000D01*
%TO.N,/Ble_DAC*%
X143764000Y-56896000D02*
X143764000Y-53086000D01*
%TO.N,/Case_LED*%
X145288000Y-74676000D02*
X145288000Y-66802000D01*
%TO.N,/sel2*%
X159512000Y-74930000D02*
X160020000Y-75438000D01*
X159512000Y-45974000D02*
X159512000Y-74930000D01*
%TO.N,/sel1*%
X158750000Y-45212000D02*
X158750000Y-75438000D01*
%TO.N,/LED_out*%
X89916000Y-46736000D02*
X89916000Y-72898000D01*
X135128000Y-75438000D02*
X135128000Y-72898000D01*
%TO.N,/sel1*%
X142983000Y-45739000D02*
X143510000Y-45212000D01*
X142983000Y-49998630D02*
X142983000Y-45739000D01*
X143139000Y-50154630D02*
X142983000Y-49998630D01*
%TO.N,/sel2*%
X143510000Y-49530000D02*
X143510000Y-45974000D01*
%TO.N,/reset*%
X150640500Y-73914000D02*
X150640500Y-61486500D01*
X118364000Y-84074000D02*
X118364000Y-73914000D01*
%TO.N,/boot*%
X153162000Y-83312000D02*
X153162000Y-78232000D01*
%TO.N,Net-(J1-Pad8)*%
X150114000Y-93726000D02*
X150114000Y-59436000D01*
%TO.N,Net-(J1-Pad6)*%
X148844000Y-92456000D02*
X148844000Y-72644000D01*
%TO.N,Net-(J1-Pad4)*%
X147574000Y-91186000D02*
X147574000Y-64262000D01*
%TO.N,Net-(J1-Pad2)*%
X146558000Y-89916000D02*
X146558000Y-60960000D01*
%TO.N,/Mic_out*%
X144137000Y-50677063D02*
X143790374Y-51023689D01*
X144137000Y-31615000D02*
X144137000Y-50677063D01*
X142748000Y-30226000D02*
X144137000Y-31615000D01*
%TO.N,/AUX_mono*%
X139446000Y-39116000D02*
X139446000Y-51562000D01*
%TO.N,/ADC_In*%
X143510000Y-51816000D02*
X142612500Y-50918500D01*
X142612500Y-50918500D02*
X142612500Y-42164000D01*
X114300000Y-28668000D02*
X114190000Y-28558000D01*
X114300000Y-42164000D02*
X114300000Y-28668000D01*
D21*
%TO.N,5V*%
X140462000Y-69342000D02*
X140462000Y-52832000D01*
X140462000Y-52832000D02*
X140716000Y-52578000D01*
D20*
%TO.N,/boot*%
X122936000Y-84074000D02*
X122936000Y-78232000D01*
%TO.N,/reset*%
X111252000Y-84074000D02*
X111252000Y-78232000D01*
%TO.N,Net-(C5-Pad2)*%
X98806000Y-84074000D02*
X98806000Y-80010000D01*
D21*
%TO.N,VCC*%
X155956000Y-53594000D02*
X155956000Y-84074000D01*
X135128000Y-76962000D02*
X135128000Y-84836000D01*
X103124000Y-74930000D02*
X103124000Y-81788000D01*
X103124000Y-62738000D02*
X103124000Y-74930000D01*
X104902000Y-48514000D02*
X104140000Y-47752000D01*
X104902000Y-60960000D02*
X104902000Y-48514000D01*
X103124000Y-62738000D02*
X104902000Y-60960000D01*
%TO.N,5V*%
X94996000Y-49784000D02*
X94996000Y-40640000D01*
X141986000Y-51308000D02*
X141986000Y-40640000D01*
X140716000Y-52578000D02*
X141986000Y-51308000D01*
X141986000Y-40640000D02*
X141986000Y-34036000D01*
X141951000Y-26451000D02*
X141986000Y-26416000D01*
X141986000Y-34036000D02*
X141951000Y-34001000D01*
X141951000Y-34001000D02*
X141951000Y-26451000D01*
%TO.N,VCC*%
X155702000Y-53340000D02*
X155956000Y-53594000D01*
X155702000Y-39624000D02*
X155702000Y-53340000D01*
D20*
%TO.N,Net-(C7-Pad2)*%
X150876000Y-33274000D02*
X150622000Y-33020000D01*
X150876000Y-35560000D02*
X150876000Y-33274000D01*
%TD*%
%TA.AperFunction,Conductor*%
%TO.N,AGND*%
G36*
X161232121Y-19324502D02*
G01*
X161278614Y-19378158D01*
X161290000Y-19430500D01*
X161290000Y-45165749D01*
X161269998Y-45233870D01*
X161260078Y-45247265D01*
X160995324Y-45559297D01*
X160546749Y-46087974D01*
X160487425Y-46126976D01*
X160416432Y-46127713D01*
X160356310Y-46089952D01*
X160326148Y-46025681D01*
X160325096Y-45998159D01*
X160325299Y-45996717D01*
X160325616Y-45974000D01*
X160305397Y-45793745D01*
X160245745Y-45622448D01*
X160149626Y-45468624D01*
X160069408Y-45387844D01*
X160026778Y-45344915D01*
X160026774Y-45344912D01*
X160021815Y-45339918D01*
X159868666Y-45242727D01*
X159839463Y-45232328D01*
X159704425Y-45184243D01*
X159704420Y-45184242D01*
X159697790Y-45181881D01*
X159690802Y-45181048D01*
X159690799Y-45181047D01*
X159657537Y-45177081D01*
X159592264Y-45149153D01*
X159552451Y-45090370D01*
X159547241Y-45066013D01*
X159544182Y-45038743D01*
X159543397Y-45031745D01*
X159541080Y-45025091D01*
X159486064Y-44867106D01*
X159486062Y-44867103D01*
X159483745Y-44860448D01*
X159387626Y-44706624D01*
X159373941Y-44692843D01*
X159264778Y-44582915D01*
X159264774Y-44582912D01*
X159259815Y-44577918D01*
X159248697Y-44570862D01*
X159200538Y-44540300D01*
X159106666Y-44480727D01*
X159037983Y-44456270D01*
X158942425Y-44422243D01*
X158942420Y-44422242D01*
X158935790Y-44419881D01*
X158928802Y-44419048D01*
X158928799Y-44419047D01*
X158768502Y-44399933D01*
X158755680Y-44398404D01*
X158748677Y-44399140D01*
X158748676Y-44399140D01*
X158582288Y-44416628D01*
X158582286Y-44416629D01*
X158575288Y-44417364D01*
X158403579Y-44475818D01*
X158397575Y-44479512D01*
X158255095Y-44567166D01*
X158255092Y-44567168D01*
X158249088Y-44570862D01*
X158244053Y-44575793D01*
X158244050Y-44575795D01*
X158124525Y-44692843D01*
X158119493Y-44697771D01*
X158021235Y-44850238D01*
X158018826Y-44856858D01*
X158018824Y-44856861D01*
X157961606Y-45014066D01*
X157959197Y-45020685D01*
X157936463Y-45200640D01*
X157954163Y-45381160D01*
X158011418Y-45553273D01*
X158015065Y-45559295D01*
X158015066Y-45559297D01*
X158101730Y-45702398D01*
X158101733Y-45702401D01*
X158105380Y-45708424D01*
X158110275Y-45713492D01*
X158114571Y-45719071D01*
X158112243Y-45720864D01*
X158139071Y-45772115D01*
X158141500Y-45796734D01*
X158141500Y-48876481D01*
X158121498Y-48944602D01*
X158111578Y-48957998D01*
X156632576Y-50701107D01*
X156573252Y-50740109D01*
X156502259Y-50740846D01*
X156442138Y-50703085D01*
X156411975Y-50638814D01*
X156410500Y-50619588D01*
X156410500Y-41631134D01*
X157838500Y-41631134D01*
X157845255Y-41693316D01*
X157896385Y-41829705D01*
X157983739Y-41946261D01*
X158100295Y-42033615D01*
X158236684Y-42084745D01*
X158298866Y-42091500D01*
X159773134Y-42091500D01*
X159835316Y-42084745D01*
X159971705Y-42033615D01*
X160088261Y-41946261D01*
X160175615Y-41829705D01*
X160226745Y-41693316D01*
X160233500Y-41631134D01*
X160233500Y-40156866D01*
X160226745Y-40094684D01*
X160175615Y-39958295D01*
X160088261Y-39841739D01*
X159971705Y-39754385D01*
X159835316Y-39703255D01*
X159773134Y-39696500D01*
X159567724Y-39696500D01*
X159499603Y-39676498D01*
X159453110Y-39622842D01*
X159443006Y-39552568D01*
X159472500Y-39487988D01*
X159516476Y-39455393D01*
X159529991Y-39449376D01*
X159669421Y-39371290D01*
X159679286Y-39361212D01*
X159676330Y-39353540D01*
X159048812Y-38726022D01*
X159034868Y-38718408D01*
X159033035Y-38718539D01*
X159026420Y-38722790D01*
X158401092Y-39348118D01*
X158394896Y-39359464D01*
X158404779Y-39371954D01*
X158457590Y-39407241D01*
X158467698Y-39412730D01*
X158565461Y-39454732D01*
X158620154Y-39500000D01*
X158641691Y-39567651D01*
X158623234Y-39636207D01*
X158570643Y-39683901D01*
X158515723Y-39696500D01*
X158298866Y-39696500D01*
X158236684Y-39703255D01*
X158100295Y-39754385D01*
X157983739Y-39841739D01*
X157896385Y-39958295D01*
X157845255Y-40094684D01*
X157838500Y-40156866D01*
X157838500Y-41631134D01*
X156410500Y-41631134D01*
X156410500Y-40054132D01*
X156423983Y-39998400D01*
X156425643Y-39995902D01*
X156442659Y-39951109D01*
X156487555Y-39832920D01*
X156487556Y-39832918D01*
X156490055Y-39826338D01*
X156491035Y-39819366D01*
X156514748Y-39650639D01*
X156514748Y-39650636D01*
X156515299Y-39646717D01*
X156515616Y-39624000D01*
X156495397Y-39443745D01*
X156493080Y-39437091D01*
X156438064Y-39279106D01*
X156438062Y-39279103D01*
X156435745Y-39272448D01*
X156339626Y-39118624D01*
X156333110Y-39112062D01*
X156216778Y-38994915D01*
X156216774Y-38994912D01*
X156211815Y-38989918D01*
X156200697Y-38982862D01*
X156120038Y-38931675D01*
X156058666Y-38892727D01*
X156029463Y-38882328D01*
X155894425Y-38834243D01*
X155894420Y-38834242D01*
X155887790Y-38831881D01*
X155880802Y-38831048D01*
X155880799Y-38831047D01*
X155757698Y-38816368D01*
X155707680Y-38810404D01*
X155700677Y-38811140D01*
X155700676Y-38811140D01*
X155534288Y-38828628D01*
X155534286Y-38828629D01*
X155527288Y-38829364D01*
X155355579Y-38887818D01*
X155349575Y-38891512D01*
X155207095Y-38979166D01*
X155207092Y-38979168D01*
X155201088Y-38982862D01*
X155196053Y-38987793D01*
X155196050Y-38987795D01*
X155076525Y-39104843D01*
X155071493Y-39109771D01*
X154973235Y-39262238D01*
X154970826Y-39268858D01*
X154970824Y-39268861D01*
X154937847Y-39359464D01*
X154911197Y-39432685D01*
X154888463Y-39612640D01*
X154906163Y-39793160D01*
X154963418Y-39965273D01*
X154967065Y-39971296D01*
X154967066Y-39971297D01*
X154975276Y-39984853D01*
X154993500Y-40050124D01*
X154993500Y-52586624D01*
X154973498Y-52654745D01*
X154963578Y-52668140D01*
X154730097Y-52943314D01*
X154630155Y-53061103D01*
X154570831Y-53100105D01*
X154499838Y-53100842D01*
X154439716Y-53063081D01*
X154415090Y-53021026D01*
X154403745Y-52988448D01*
X154321387Y-52856646D01*
X154311359Y-52840598D01*
X154307626Y-52834624D01*
X154272257Y-52799007D01*
X154184778Y-52710915D01*
X154184774Y-52710912D01*
X154179815Y-52705918D01*
X154168697Y-52698862D01*
X154094398Y-52651711D01*
X154026666Y-52608727D01*
X153997463Y-52598328D01*
X153862425Y-52550243D01*
X153862420Y-52550242D01*
X153855790Y-52547881D01*
X153848802Y-52547048D01*
X153848799Y-52547047D01*
X153723129Y-52532062D01*
X153675680Y-52526404D01*
X153668677Y-52527140D01*
X153668676Y-52527140D01*
X153502288Y-52544628D01*
X153502286Y-52544629D01*
X153495288Y-52545364D01*
X153323579Y-52603818D01*
X153283305Y-52628595D01*
X153175095Y-52695166D01*
X153175092Y-52695168D01*
X153169088Y-52698862D01*
X153164053Y-52703793D01*
X153164050Y-52703795D01*
X153071153Y-52794767D01*
X153039493Y-52825771D01*
X152941235Y-52978238D01*
X152938826Y-52984858D01*
X152938824Y-52984861D01*
X152894791Y-53105841D01*
X152879197Y-53148685D01*
X152856463Y-53328640D01*
X152874163Y-53509160D01*
X152931418Y-53681273D01*
X152935065Y-53687295D01*
X152935066Y-53687297D01*
X153021730Y-53830398D01*
X153021733Y-53830401D01*
X153025380Y-53836424D01*
X153030275Y-53841492D01*
X153034571Y-53847071D01*
X153032243Y-53848864D01*
X153059071Y-53900115D01*
X153061500Y-53924734D01*
X153061500Y-54863624D01*
X153041498Y-54931745D01*
X153031578Y-54945140D01*
X150699520Y-57693637D01*
X149900078Y-58635837D01*
X149844608Y-58673596D01*
X149767579Y-58699818D01*
X149761575Y-58703512D01*
X149619095Y-58791166D01*
X149619092Y-58791168D01*
X149613088Y-58794862D01*
X149608053Y-58799793D01*
X149608050Y-58799795D01*
X149488525Y-58916843D01*
X149483493Y-58921771D01*
X149385235Y-59074238D01*
X149382826Y-59080858D01*
X149382824Y-59080861D01*
X149369333Y-59117928D01*
X149323197Y-59244685D01*
X149322314Y-59251675D01*
X149317346Y-59290998D01*
X149288416Y-59356724D01*
X147477213Y-61491357D01*
X147417891Y-61530357D01*
X147346898Y-61531094D01*
X147286777Y-61493333D01*
X147256614Y-61429062D01*
X147265988Y-61358687D01*
X147276187Y-61340115D01*
X147277741Y-61337776D01*
X147277743Y-61337772D01*
X147281643Y-61331902D01*
X147346055Y-61162338D01*
X147349547Y-61137491D01*
X147370748Y-60986639D01*
X147370748Y-60986636D01*
X147371299Y-60982717D01*
X147371616Y-60960000D01*
X147351397Y-60779745D01*
X147349080Y-60773091D01*
X147294064Y-60615106D01*
X147294062Y-60615103D01*
X147291745Y-60608448D01*
X147195626Y-60454624D01*
X147181941Y-60440843D01*
X147072778Y-60330915D01*
X147072774Y-60330912D01*
X147067815Y-60325918D01*
X147056697Y-60318862D01*
X147008538Y-60288300D01*
X146914666Y-60228727D01*
X146885463Y-60218328D01*
X146750425Y-60170243D01*
X146750420Y-60170242D01*
X146743790Y-60167881D01*
X146736802Y-60167048D01*
X146736799Y-60167047D01*
X146613698Y-60152368D01*
X146563680Y-60146404D01*
X146556677Y-60147140D01*
X146556676Y-60147140D01*
X146390288Y-60164628D01*
X146390286Y-60164629D01*
X146383288Y-60165364D01*
X146211579Y-60223818D01*
X146205575Y-60227512D01*
X146063095Y-60315166D01*
X146063092Y-60315168D01*
X146057088Y-60318862D01*
X146052053Y-60323793D01*
X146052050Y-60323795D01*
X145932525Y-60440843D01*
X145927493Y-60445771D01*
X145829235Y-60598238D01*
X145826826Y-60604858D01*
X145826824Y-60604861D01*
X145772095Y-60755227D01*
X145767197Y-60768685D01*
X145744463Y-60948640D01*
X145762163Y-61129160D01*
X145819418Y-61301273D01*
X145823065Y-61307295D01*
X145823066Y-61307297D01*
X145909730Y-61450398D01*
X145909733Y-61450401D01*
X145913380Y-61456424D01*
X145918275Y-61461492D01*
X145922571Y-61467071D01*
X145920243Y-61468864D01*
X145947071Y-61520115D01*
X145949500Y-61544734D01*
X145949500Y-61850000D01*
X145929498Y-61918121D01*
X145875842Y-61964614D01*
X145823500Y-61976000D01*
X141296500Y-61976000D01*
X141228379Y-61955998D01*
X141181886Y-61902342D01*
X141170500Y-61850000D01*
X141170500Y-53315700D01*
X141190502Y-53247579D01*
X141209608Y-53224454D01*
X141289173Y-53148685D01*
X141339266Y-53100982D01*
X141439643Y-52949902D01*
X141487371Y-52824258D01*
X141516064Y-52779906D01*
X141983547Y-52312424D01*
X142466536Y-51829435D01*
X142472806Y-51823578D01*
X142482506Y-51815117D01*
X142546990Y-51785412D01*
X142617297Y-51795285D01*
X142654426Y-51820975D01*
X142670907Y-51837456D01*
X142704933Y-51899768D01*
X142707211Y-51914256D01*
X142714163Y-51985160D01*
X142771418Y-52157273D01*
X142775065Y-52163295D01*
X142775066Y-52163297D01*
X142859641Y-52302947D01*
X142865380Y-52312424D01*
X142870269Y-52317487D01*
X142870270Y-52317488D01*
X142903065Y-52351448D01*
X142991382Y-52442902D01*
X143045058Y-52478027D01*
X143091104Y-52532062D01*
X143100628Y-52602417D01*
X143081975Y-52651711D01*
X143057675Y-52689417D01*
X143035235Y-52724238D01*
X143032826Y-52730858D01*
X143032824Y-52730861D01*
X142992883Y-52840598D01*
X142973197Y-52894685D01*
X142950463Y-53074640D01*
X142968163Y-53255160D01*
X143025418Y-53427273D01*
X143029065Y-53433295D01*
X143029066Y-53433297D01*
X143115730Y-53576398D01*
X143115733Y-53576401D01*
X143119380Y-53582424D01*
X143124275Y-53587492D01*
X143128571Y-53593071D01*
X143126243Y-53594864D01*
X143153071Y-53646115D01*
X143155500Y-53670734D01*
X143155500Y-56311164D01*
X143135498Y-56379285D01*
X143134188Y-56381090D01*
X143133493Y-56381771D01*
X143131894Y-56384253D01*
X143131892Y-56384255D01*
X143123934Y-56396603D01*
X143035235Y-56534238D01*
X143032826Y-56540858D01*
X143032824Y-56540861D01*
X142975606Y-56698066D01*
X142973197Y-56704685D01*
X142950463Y-56884640D01*
X142968163Y-57065160D01*
X143025418Y-57237273D01*
X143029065Y-57243295D01*
X143029066Y-57243297D01*
X143113641Y-57382947D01*
X143119380Y-57392424D01*
X143245382Y-57522902D01*
X143397159Y-57622222D01*
X143403763Y-57624678D01*
X143403765Y-57624679D01*
X143560558Y-57682990D01*
X143560560Y-57682990D01*
X143567168Y-57685448D01*
X143650995Y-57696633D01*
X143739980Y-57708507D01*
X143739984Y-57708507D01*
X143746961Y-57709438D01*
X143753972Y-57708800D01*
X143753976Y-57708800D01*
X143896459Y-57695832D01*
X143927600Y-57692998D01*
X143934302Y-57690820D01*
X143934304Y-57690820D01*
X144093409Y-57639124D01*
X144093412Y-57639123D01*
X144100108Y-57636947D01*
X144255912Y-57544069D01*
X144387266Y-57418982D01*
X144487643Y-57267902D01*
X144552055Y-57098338D01*
X144553035Y-57091366D01*
X144576748Y-56922639D01*
X144576748Y-56922636D01*
X144577299Y-56918717D01*
X144577616Y-56896000D01*
X144557397Y-56715745D01*
X144555080Y-56709091D01*
X144500064Y-56551106D01*
X144500062Y-56551103D01*
X144497745Y-56544448D01*
X144401626Y-56390624D01*
X144399215Y-56388196D01*
X144373117Y-56323716D01*
X144372500Y-56311263D01*
X144372500Y-53669248D01*
X144393552Y-53599521D01*
X144441208Y-53527793D01*
X144487643Y-53457902D01*
X144541661Y-53315700D01*
X144549555Y-53294920D01*
X144549556Y-53294918D01*
X144552055Y-53288338D01*
X144553035Y-53281366D01*
X144576748Y-53112639D01*
X144576748Y-53112636D01*
X144577299Y-53108717D01*
X144577616Y-53086000D01*
X144557397Y-52905745D01*
X144555080Y-52899091D01*
X144500064Y-52741106D01*
X144500062Y-52741103D01*
X144497745Y-52734448D01*
X144489419Y-52721124D01*
X144405359Y-52586598D01*
X144401626Y-52580624D01*
X144378509Y-52557345D01*
X144278778Y-52456915D01*
X144278774Y-52456912D01*
X144273815Y-52451918D01*
X144230806Y-52424624D01*
X144184009Y-52371237D01*
X144173503Y-52301022D01*
X144193372Y-52248515D01*
X144233643Y-52187902D01*
X144275423Y-52077917D01*
X144295555Y-52024920D01*
X144295556Y-52024918D01*
X144298055Y-52018338D01*
X144299035Y-52011366D01*
X144322748Y-51842639D01*
X144322748Y-51842636D01*
X144323299Y-51838717D01*
X144323616Y-51816000D01*
X144311981Y-51712276D01*
X144324265Y-51642351D01*
X144350304Y-51606985D01*
X144401678Y-51558062D01*
X144413640Y-51546671D01*
X144514017Y-51395591D01*
X144578429Y-51226027D01*
X144582054Y-51200238D01*
X144595263Y-51106246D01*
X144620074Y-51047080D01*
X144668524Y-50983939D01*
X144677471Y-50962340D01*
X144705123Y-50895579D01*
X144705124Y-50895577D01*
X144726679Y-50843539D01*
X144729838Y-50835913D01*
X144745500Y-50716948D01*
X144745500Y-50716941D01*
X144750750Y-50677063D01*
X144746578Y-50645370D01*
X144745500Y-50628927D01*
X144745500Y-38328298D01*
X157834662Y-38328298D01*
X157848294Y-38536286D01*
X157850095Y-38547656D01*
X157901401Y-38749677D01*
X157905243Y-38760526D01*
X157992509Y-38949819D01*
X157998262Y-38959783D01*
X158017929Y-38987611D01*
X158028518Y-38995999D01*
X158041819Y-38988971D01*
X158663978Y-38366812D01*
X158670356Y-38355132D01*
X159400408Y-38355132D01*
X159400539Y-38356965D01*
X159404790Y-38363580D01*
X160031626Y-38990416D01*
X160044006Y-38997176D01*
X160050586Y-38992250D01*
X160131376Y-38847991D01*
X160136056Y-38837478D01*
X160203057Y-38640100D01*
X160205742Y-38628917D01*
X160235948Y-38420588D01*
X160236578Y-38413207D01*
X160238031Y-38357704D01*
X160237788Y-38350305D01*
X160218527Y-38140687D01*
X160216429Y-38129366D01*
X160159852Y-37928760D01*
X160155727Y-37918013D01*
X160063538Y-37731071D01*
X160057528Y-37721263D01*
X160055721Y-37718843D01*
X160044463Y-37710394D01*
X160032044Y-37717166D01*
X159408022Y-38341188D01*
X159400408Y-38355132D01*
X158670356Y-38355132D01*
X158671592Y-38352868D01*
X158671461Y-38351035D01*
X158667210Y-38344420D01*
X158038642Y-37715852D01*
X158026262Y-37709092D01*
X158020296Y-37713558D01*
X157928071Y-37888849D01*
X157923665Y-37899486D01*
X157861855Y-38098545D01*
X157859462Y-38109800D01*
X157834963Y-38316796D01*
X157834662Y-38328298D01*
X144745500Y-38328298D01*
X144745500Y-37347740D01*
X158393852Y-37347740D01*
X158397338Y-37356128D01*
X159023188Y-37981978D01*
X159037132Y-37989592D01*
X159038965Y-37989461D01*
X159045580Y-37985210D01*
X159670809Y-37359981D01*
X159677569Y-37347601D01*
X159671539Y-37339546D01*
X159586635Y-37285975D01*
X159576392Y-37280757D01*
X159382792Y-37203518D01*
X159371755Y-37200249D01*
X159167323Y-37159584D01*
X159155879Y-37158381D01*
X158947464Y-37155654D01*
X158935984Y-37156557D01*
X158730563Y-37191855D01*
X158719443Y-37194835D01*
X158523887Y-37266979D01*
X158513509Y-37271929D01*
X158403450Y-37337407D01*
X158393852Y-37347740D01*
X144745500Y-37347740D01*
X144745500Y-33008640D01*
X149808463Y-33008640D01*
X149826163Y-33189160D01*
X149883418Y-33361273D01*
X149977380Y-33516424D01*
X150103382Y-33646902D01*
X150210496Y-33716995D01*
X150256541Y-33771030D01*
X150267500Y-33822425D01*
X150267500Y-34975164D01*
X150247498Y-35043285D01*
X150246188Y-35045090D01*
X150245493Y-35045771D01*
X150243894Y-35048253D01*
X150243892Y-35048255D01*
X150235934Y-35060603D01*
X150147235Y-35198238D01*
X150144826Y-35204858D01*
X150144824Y-35204861D01*
X150087606Y-35362066D01*
X150085197Y-35368685D01*
X150062463Y-35548640D01*
X150080163Y-35729160D01*
X150137418Y-35901273D01*
X150141065Y-35907295D01*
X150141066Y-35907297D01*
X150151978Y-35925314D01*
X150231380Y-36056424D01*
X150357382Y-36186902D01*
X150509159Y-36286222D01*
X150515763Y-36288678D01*
X150515765Y-36288679D01*
X150672558Y-36346990D01*
X150672560Y-36346990D01*
X150679168Y-36349448D01*
X150762995Y-36360633D01*
X150851980Y-36372507D01*
X150851984Y-36372507D01*
X150858961Y-36373438D01*
X150865972Y-36372800D01*
X150865976Y-36372800D01*
X151008459Y-36359832D01*
X151039600Y-36356998D01*
X151046302Y-36354820D01*
X151046304Y-36354820D01*
X151205409Y-36303124D01*
X151205412Y-36303123D01*
X151212108Y-36300947D01*
X151367912Y-36208069D01*
X151499266Y-36082982D01*
X151599643Y-35931902D01*
X151664055Y-35762338D01*
X151665035Y-35755366D01*
X151688748Y-35586639D01*
X151688748Y-35586636D01*
X151689299Y-35582717D01*
X151689616Y-35560000D01*
X151669397Y-35379745D01*
X151667080Y-35373091D01*
X151612064Y-35215106D01*
X151612062Y-35215103D01*
X151609745Y-35208448D01*
X151513626Y-35054624D01*
X151511215Y-35052196D01*
X151485117Y-34987716D01*
X151484500Y-34975263D01*
X151484500Y-33322136D01*
X151485578Y-33305690D01*
X151488672Y-33282188D01*
X151489750Y-33274000D01*
X151484500Y-33234122D01*
X151484500Y-33234115D01*
X151468838Y-33115150D01*
X151444535Y-33056477D01*
X151436327Y-33019920D01*
X151435616Y-33020000D01*
X151416182Y-32846744D01*
X151415397Y-32839745D01*
X151413080Y-32833091D01*
X151358064Y-32675106D01*
X151358062Y-32675103D01*
X151355745Y-32668448D01*
X151259626Y-32514624D01*
X151245941Y-32500843D01*
X151136778Y-32390915D01*
X151136774Y-32390912D01*
X151131815Y-32385918D01*
X151120697Y-32378862D01*
X151072538Y-32348300D01*
X150978666Y-32288727D01*
X150949463Y-32278328D01*
X150814425Y-32230243D01*
X150814420Y-32230242D01*
X150807790Y-32227881D01*
X150800802Y-32227048D01*
X150800799Y-32227047D01*
X150677698Y-32212368D01*
X150627680Y-32206404D01*
X150620677Y-32207140D01*
X150620676Y-32207140D01*
X150454288Y-32224628D01*
X150454286Y-32224629D01*
X150447288Y-32225364D01*
X150275579Y-32283818D01*
X150269575Y-32287512D01*
X150127095Y-32375166D01*
X150127092Y-32375168D01*
X150121088Y-32378862D01*
X150116053Y-32383793D01*
X150116050Y-32383795D01*
X149996525Y-32500843D01*
X149991493Y-32505771D01*
X149893235Y-32658238D01*
X149890826Y-32664858D01*
X149890824Y-32664861D01*
X149833606Y-32822066D01*
X149831197Y-32828685D01*
X149808463Y-33008640D01*
X144745500Y-33008640D01*
X144745500Y-31663144D01*
X144746578Y-31646698D01*
X144749673Y-31623188D01*
X144750751Y-31615000D01*
X144729838Y-31456149D01*
X144668524Y-31308124D01*
X144595478Y-31212929D01*
X144595474Y-31212925D01*
X144576061Y-31187625D01*
X144576016Y-31187566D01*
X144576013Y-31187563D01*
X144570987Y-31181013D01*
X144564432Y-31175983D01*
X144545621Y-31161548D01*
X144533230Y-31150681D01*
X143586888Y-30204339D01*
X143552862Y-30142027D01*
X143550768Y-30129289D01*
X143542182Y-30052744D01*
X143541397Y-30045745D01*
X143526436Y-30002783D01*
X143484064Y-29881106D01*
X143484062Y-29881103D01*
X143481745Y-29874448D01*
X143385626Y-29720624D01*
X143355087Y-29689871D01*
X143262778Y-29596915D01*
X143262774Y-29596912D01*
X143257815Y-29591918D01*
X143212842Y-29563377D01*
X143196217Y-29552827D01*
X143104666Y-29494727D01*
X143075463Y-29484328D01*
X142940425Y-29436243D01*
X142940420Y-29436242D01*
X142933790Y-29433881D01*
X142926802Y-29433048D01*
X142926799Y-29433047D01*
X142770581Y-29414419D01*
X142705308Y-29386491D01*
X142665495Y-29327708D01*
X142659500Y-29289305D01*
X142659500Y-26901415D01*
X142680552Y-26831688D01*
X142705742Y-26793773D01*
X142709643Y-26787902D01*
X142774055Y-26618338D01*
X142775035Y-26611366D01*
X142798748Y-26442639D01*
X142798748Y-26442636D01*
X142799299Y-26438717D01*
X142799616Y-26416000D01*
X142779397Y-26235745D01*
X142777080Y-26229091D01*
X142722064Y-26071106D01*
X142722062Y-26071103D01*
X142719745Y-26064448D01*
X142623626Y-25910624D01*
X142609941Y-25896843D01*
X142500778Y-25786915D01*
X142500774Y-25786912D01*
X142495815Y-25781918D01*
X142484697Y-25774862D01*
X142436538Y-25744300D01*
X142342666Y-25684727D01*
X142313463Y-25674328D01*
X142178425Y-25626243D01*
X142178420Y-25626242D01*
X142171790Y-25623881D01*
X142164802Y-25623048D01*
X142164799Y-25623047D01*
X142041698Y-25608368D01*
X141991680Y-25602404D01*
X141984677Y-25603140D01*
X141984676Y-25603140D01*
X141818288Y-25620628D01*
X141818286Y-25620629D01*
X141811288Y-25621364D01*
X141639579Y-25679818D01*
X141633575Y-25683512D01*
X141491095Y-25771166D01*
X141491092Y-25771168D01*
X141485088Y-25774862D01*
X141480053Y-25779793D01*
X141480050Y-25779795D01*
X141360525Y-25896843D01*
X141355493Y-25901771D01*
X141257235Y-26054238D01*
X141254826Y-26060858D01*
X141254824Y-26060861D01*
X141197606Y-26218066D01*
X141195197Y-26224685D01*
X141172463Y-26404640D01*
X141190163Y-26585160D01*
X141198881Y-26611366D01*
X141236058Y-26723124D01*
X141242500Y-26762896D01*
X141242500Y-33692505D01*
X141234901Y-33735600D01*
X141195197Y-33844685D01*
X141172463Y-34024640D01*
X141190163Y-34205160D01*
X141247418Y-34377273D01*
X141251065Y-34383296D01*
X141251066Y-34383297D01*
X141259276Y-34396853D01*
X141277500Y-34462124D01*
X141277500Y-40209710D01*
X141261341Y-40264598D01*
X141264183Y-40266009D01*
X141261053Y-40272313D01*
X141257235Y-40278238D01*
X141254826Y-40284858D01*
X141254824Y-40284861D01*
X141197606Y-40442066D01*
X141195197Y-40448685D01*
X141172463Y-40628640D01*
X141190163Y-40809160D01*
X141247418Y-40981273D01*
X141251065Y-40987296D01*
X141251066Y-40987297D01*
X141259276Y-41000853D01*
X141277500Y-41066124D01*
X141277500Y-50962340D01*
X141257498Y-51030461D01*
X141240595Y-51051435D01*
X140512563Y-51779467D01*
X140464076Y-51809649D01*
X140409690Y-51828163D01*
X140338760Y-51831181D01*
X140277456Y-51795371D01*
X140245245Y-51732103D01*
X140244313Y-51691349D01*
X140258748Y-51588640D01*
X140258748Y-51588635D01*
X140259299Y-51584717D01*
X140259616Y-51562000D01*
X140239397Y-51381745D01*
X140237080Y-51375091D01*
X140182064Y-51217106D01*
X140182062Y-51217103D01*
X140179745Y-51210448D01*
X140083626Y-51056624D01*
X140081215Y-51054196D01*
X140055117Y-50989716D01*
X140054500Y-50977263D01*
X140054500Y-39699248D01*
X140075552Y-39629521D01*
X140165742Y-39493773D01*
X140169643Y-39487902D01*
X140234055Y-39318338D01*
X140235035Y-39311366D01*
X140258748Y-39142639D01*
X140258748Y-39142636D01*
X140259299Y-39138717D01*
X140259616Y-39116000D01*
X140239397Y-38935745D01*
X140237080Y-38929091D01*
X140182064Y-38771106D01*
X140182062Y-38771103D01*
X140179745Y-38764448D01*
X140150976Y-38718408D01*
X140087359Y-38616598D01*
X140083626Y-38610624D01*
X140009805Y-38536286D01*
X139960778Y-38486915D01*
X139960774Y-38486912D01*
X139955815Y-38481918D01*
X139944697Y-38474862D01*
X139847543Y-38413207D01*
X139802666Y-38384727D01*
X139752355Y-38366812D01*
X139638425Y-38326243D01*
X139638420Y-38326242D01*
X139631790Y-38323881D01*
X139624802Y-38323048D01*
X139624799Y-38323047D01*
X139501698Y-38308368D01*
X139451680Y-38302404D01*
X139444677Y-38303140D01*
X139444676Y-38303140D01*
X139278288Y-38320628D01*
X139278286Y-38320629D01*
X139271288Y-38321364D01*
X139099579Y-38379818D01*
X139093575Y-38383512D01*
X138951095Y-38471166D01*
X138951092Y-38471168D01*
X138945088Y-38474862D01*
X138940053Y-38479793D01*
X138940050Y-38479795D01*
X138882364Y-38536286D01*
X138815493Y-38601771D01*
X138717235Y-38754238D01*
X138714826Y-38760858D01*
X138714824Y-38760861D01*
X138667271Y-38891512D01*
X138655197Y-38924685D01*
X138632463Y-39104640D01*
X138650163Y-39285160D01*
X138707418Y-39457273D01*
X138711065Y-39463295D01*
X138711066Y-39463297D01*
X138797730Y-39606398D01*
X138797733Y-39606401D01*
X138801380Y-39612424D01*
X138806275Y-39617492D01*
X138810571Y-39623071D01*
X138808243Y-39624864D01*
X138835071Y-39676115D01*
X138837500Y-39700734D01*
X138837500Y-50977164D01*
X138817498Y-51045285D01*
X138816188Y-51047090D01*
X138815493Y-51047771D01*
X138813894Y-51050253D01*
X138813892Y-51050255D01*
X138721054Y-51194312D01*
X138717235Y-51200238D01*
X138714826Y-51206858D01*
X138714824Y-51206861D01*
X138657606Y-51364066D01*
X138655197Y-51370685D01*
X138632463Y-51550640D01*
X138650163Y-51731160D01*
X138707418Y-51903273D01*
X138801380Y-52058424D01*
X138806269Y-52063487D01*
X138806270Y-52063488D01*
X138827027Y-52084982D01*
X138927382Y-52188902D01*
X139079159Y-52288222D01*
X139085763Y-52290678D01*
X139085765Y-52290679D01*
X139242558Y-52348990D01*
X139242560Y-52348990D01*
X139249168Y-52351448D01*
X139332995Y-52362633D01*
X139421980Y-52374507D01*
X139421984Y-52374507D01*
X139428961Y-52375438D01*
X139435972Y-52374800D01*
X139435976Y-52374800D01*
X139578459Y-52361832D01*
X139609600Y-52358998D01*
X139616302Y-52356820D01*
X139616304Y-52356820D01*
X139671203Y-52338982D01*
X139673081Y-52338372D01*
X139744047Y-52336344D01*
X139804845Y-52373007D01*
X139836171Y-52436719D01*
X139829410Y-52503972D01*
X139809784Y-52554310D01*
X139807247Y-52560344D01*
X139780955Y-52618573D01*
X139779571Y-52626040D01*
X139778770Y-52628595D01*
X139774141Y-52644848D01*
X139773478Y-52647428D01*
X139770718Y-52654509D01*
X139764230Y-52703795D01*
X139762379Y-52717852D01*
X139761348Y-52724359D01*
X139749704Y-52787186D01*
X139750141Y-52794766D01*
X139750141Y-52794767D01*
X139753291Y-52849392D01*
X139753500Y-52856646D01*
X139753500Y-61850000D01*
X139733498Y-61918121D01*
X139679842Y-61964614D01*
X139627500Y-61976000D01*
X116966000Y-61976000D01*
X116897879Y-61955998D01*
X116851386Y-61902342D01*
X116840000Y-61850000D01*
X116840000Y-50546000D01*
X97593724Y-38137217D01*
X97547310Y-38083493D01*
X97536000Y-38031319D01*
X97536000Y-29327774D01*
X109128102Y-29327774D01*
X109136751Y-29558158D01*
X109184093Y-29783791D01*
X109268776Y-29998221D01*
X109271543Y-30002780D01*
X109271544Y-30002783D01*
X109297614Y-30045745D01*
X109388377Y-30195317D01*
X109391874Y-30199347D01*
X109478438Y-30299103D01*
X109539477Y-30369445D01*
X109543608Y-30372832D01*
X109713627Y-30512240D01*
X109713633Y-30512244D01*
X109717755Y-30515624D01*
X109722391Y-30518263D01*
X109722394Y-30518265D01*
X109831422Y-30580327D01*
X109918114Y-30629675D01*
X110134825Y-30708337D01*
X110140074Y-30709286D01*
X110140077Y-30709287D01*
X110357608Y-30748623D01*
X110357615Y-30748624D01*
X110361692Y-30749361D01*
X110379414Y-30750197D01*
X110384356Y-30750430D01*
X110384363Y-30750430D01*
X110385844Y-30750500D01*
X110547890Y-30750500D01*
X110614809Y-30744822D01*
X110714409Y-30736371D01*
X110714413Y-30736370D01*
X110719720Y-30735920D01*
X110724875Y-30734582D01*
X110724881Y-30734581D01*
X110937703Y-30679343D01*
X110937707Y-30679342D01*
X110942872Y-30678001D01*
X110947738Y-30675809D01*
X110947741Y-30675808D01*
X111148202Y-30585507D01*
X111153075Y-30583312D01*
X111344319Y-30454559D01*
X111511135Y-30295424D01*
X111648754Y-30110458D01*
X111753240Y-29904949D01*
X111764568Y-29868469D01*
X111820024Y-29689871D01*
X111821607Y-29684773D01*
X111822308Y-29679484D01*
X111851198Y-29461511D01*
X111851198Y-29461506D01*
X111851898Y-29456226D01*
X111850625Y-29422303D01*
X111846877Y-29322489D01*
X111843249Y-29225842D01*
X111795907Y-29000209D01*
X111782621Y-28966567D01*
X111713185Y-28790744D01*
X111713184Y-28790742D01*
X111711224Y-28785779D01*
X111691556Y-28753366D01*
X111594390Y-28593243D01*
X111591623Y-28588683D01*
X111588114Y-28584639D01*
X111555140Y-28546640D01*
X113376463Y-28546640D01*
X113394163Y-28727160D01*
X113451418Y-28899273D01*
X113455065Y-28905295D01*
X113455066Y-28905297D01*
X113512547Y-29000209D01*
X113545380Y-29054424D01*
X113550270Y-29059487D01*
X113550274Y-29059493D01*
X113656136Y-29169115D01*
X113689069Y-29232011D01*
X113691500Y-29256642D01*
X113691500Y-41579164D01*
X113671498Y-41647285D01*
X113670188Y-41649090D01*
X113669493Y-41649771D01*
X113667894Y-41652253D01*
X113667892Y-41652255D01*
X113579495Y-41789421D01*
X113571235Y-41802238D01*
X113568826Y-41808858D01*
X113568824Y-41808861D01*
X113516856Y-41951642D01*
X113509197Y-41972685D01*
X113486463Y-42152640D01*
X113504163Y-42333160D01*
X113561418Y-42505273D01*
X113565065Y-42511295D01*
X113565066Y-42511297D01*
X113587486Y-42548316D01*
X113655380Y-42660424D01*
X113660269Y-42665487D01*
X113660270Y-42665488D01*
X113737121Y-42745068D01*
X113781382Y-42790902D01*
X113933159Y-42890222D01*
X113939763Y-42892678D01*
X113939765Y-42892679D01*
X114096558Y-42950990D01*
X114096560Y-42950990D01*
X114103168Y-42953448D01*
X114186995Y-42964633D01*
X114275980Y-42976507D01*
X114275984Y-42976507D01*
X114282961Y-42977438D01*
X114289972Y-42976800D01*
X114289976Y-42976800D01*
X114432459Y-42963832D01*
X114463600Y-42960998D01*
X114470302Y-42958820D01*
X114470304Y-42958820D01*
X114629409Y-42907124D01*
X114629412Y-42907123D01*
X114636108Y-42904947D01*
X114791912Y-42812069D01*
X114923266Y-42686982D01*
X115023643Y-42535902D01*
X115088055Y-42366338D01*
X115089035Y-42359366D01*
X115112748Y-42190639D01*
X115112748Y-42190636D01*
X115113299Y-42186717D01*
X115113616Y-42164000D01*
X115093397Y-41983745D01*
X115091080Y-41977091D01*
X115036064Y-41819106D01*
X115036062Y-41819103D01*
X115033745Y-41812448D01*
X114937626Y-41658624D01*
X114935215Y-41656196D01*
X114909117Y-41591716D01*
X114908500Y-41579263D01*
X114908500Y-29327774D01*
X121320102Y-29327774D01*
X121328751Y-29558158D01*
X121376093Y-29783791D01*
X121460776Y-29998221D01*
X121463543Y-30002780D01*
X121463544Y-30002783D01*
X121489614Y-30045745D01*
X121580377Y-30195317D01*
X121583874Y-30199347D01*
X121670438Y-30299103D01*
X121731477Y-30369445D01*
X121735608Y-30372832D01*
X121905627Y-30512240D01*
X121905633Y-30512244D01*
X121909755Y-30515624D01*
X121914391Y-30518263D01*
X121914394Y-30518265D01*
X122023422Y-30580327D01*
X122110114Y-30629675D01*
X122326825Y-30708337D01*
X122332074Y-30709286D01*
X122332077Y-30709287D01*
X122549608Y-30748623D01*
X122549615Y-30748624D01*
X122553692Y-30749361D01*
X122571414Y-30750197D01*
X122576356Y-30750430D01*
X122576363Y-30750430D01*
X122577844Y-30750500D01*
X122739890Y-30750500D01*
X122806809Y-30744822D01*
X122906409Y-30736371D01*
X122906413Y-30736370D01*
X122911720Y-30735920D01*
X122916875Y-30734582D01*
X122916881Y-30734581D01*
X123129703Y-30679343D01*
X123129707Y-30679342D01*
X123134872Y-30678001D01*
X123139738Y-30675809D01*
X123139741Y-30675808D01*
X123340202Y-30585507D01*
X123345075Y-30583312D01*
X123536319Y-30454559D01*
X123703135Y-30295424D01*
X123840754Y-30110458D01*
X123945240Y-29904949D01*
X123956568Y-29868469D01*
X124012024Y-29689871D01*
X124013607Y-29684773D01*
X124014308Y-29679484D01*
X124043198Y-29461511D01*
X124043198Y-29461506D01*
X124043898Y-29456226D01*
X124042625Y-29422303D01*
X124038877Y-29322489D01*
X124035249Y-29225842D01*
X123987907Y-29000209D01*
X123974621Y-28966567D01*
X123905185Y-28790744D01*
X123905184Y-28790742D01*
X123903224Y-28785779D01*
X123883556Y-28753366D01*
X123786390Y-28593243D01*
X123783623Y-28588683D01*
X123780114Y-28584639D01*
X123636023Y-28418588D01*
X123636021Y-28418586D01*
X123632523Y-28414555D01*
X123566069Y-28360066D01*
X123458373Y-28271760D01*
X123458367Y-28271756D01*
X123454245Y-28268376D01*
X123449609Y-28265737D01*
X123449606Y-28265735D01*
X123258529Y-28156968D01*
X123253886Y-28154325D01*
X123037175Y-28075663D01*
X123031926Y-28074714D01*
X123031923Y-28074713D01*
X122814392Y-28035377D01*
X122814385Y-28035376D01*
X122810308Y-28034639D01*
X122792586Y-28033803D01*
X122787644Y-28033570D01*
X122787637Y-28033570D01*
X122786156Y-28033500D01*
X122624110Y-28033500D01*
X122561141Y-28038843D01*
X122457591Y-28047629D01*
X122457587Y-28047630D01*
X122452280Y-28048080D01*
X122447125Y-28049418D01*
X122447119Y-28049419D01*
X122234297Y-28104657D01*
X122234293Y-28104658D01*
X122229128Y-28105999D01*
X122224262Y-28108191D01*
X122224259Y-28108192D01*
X122115980Y-28156968D01*
X122018925Y-28200688D01*
X121827681Y-28329441D01*
X121823824Y-28333120D01*
X121823822Y-28333122D01*
X121769709Y-28384744D01*
X121660865Y-28488576D01*
X121523246Y-28673542D01*
X121418760Y-28879051D01*
X121417178Y-28884145D01*
X121417177Y-28884148D01*
X121366175Y-29048401D01*
X121350393Y-29099227D01*
X121349692Y-29104516D01*
X121325201Y-29289305D01*
X121320102Y-29327774D01*
X114908500Y-29327774D01*
X114908500Y-28966567D01*
X114916712Y-28921823D01*
X114975555Y-28766920D01*
X114975556Y-28766918D01*
X114978055Y-28760338D01*
X114979035Y-28753366D01*
X115002748Y-28584639D01*
X115002748Y-28584636D01*
X115003299Y-28580717D01*
X115003616Y-28558000D01*
X114983397Y-28377745D01*
X114981080Y-28371091D01*
X114926064Y-28213106D01*
X114926062Y-28213103D01*
X114923745Y-28206448D01*
X114827626Y-28052624D01*
X114809766Y-28034639D01*
X114704778Y-27928915D01*
X114704774Y-27928912D01*
X114699815Y-27923918D01*
X114688697Y-27916862D01*
X114640538Y-27886300D01*
X114546666Y-27826727D01*
X114517463Y-27816328D01*
X114382425Y-27768243D01*
X114382420Y-27768242D01*
X114375790Y-27765881D01*
X114368802Y-27765048D01*
X114368799Y-27765047D01*
X114245698Y-27750368D01*
X114195680Y-27744404D01*
X114188677Y-27745140D01*
X114188676Y-27745140D01*
X114022288Y-27762628D01*
X114022286Y-27762629D01*
X114015288Y-27763364D01*
X113843579Y-27821818D01*
X113837575Y-27825512D01*
X113695095Y-27913166D01*
X113695092Y-27913168D01*
X113689088Y-27916862D01*
X113684053Y-27921793D01*
X113684050Y-27921795D01*
X113564525Y-28038843D01*
X113559493Y-28043771D01*
X113461235Y-28196238D01*
X113458826Y-28202858D01*
X113458824Y-28202861D01*
X113433747Y-28271760D01*
X113399197Y-28366685D01*
X113376463Y-28546640D01*
X111555140Y-28546640D01*
X111444023Y-28418588D01*
X111444021Y-28418586D01*
X111440523Y-28414555D01*
X111374069Y-28360066D01*
X111266373Y-28271760D01*
X111266367Y-28271756D01*
X111262245Y-28268376D01*
X111257609Y-28265737D01*
X111257606Y-28265735D01*
X111066529Y-28156968D01*
X111061886Y-28154325D01*
X110845175Y-28075663D01*
X110839926Y-28074714D01*
X110839923Y-28074713D01*
X110622392Y-28035377D01*
X110622385Y-28035376D01*
X110618308Y-28034639D01*
X110600586Y-28033803D01*
X110595644Y-28033570D01*
X110595637Y-28033570D01*
X110594156Y-28033500D01*
X110432110Y-28033500D01*
X110369141Y-28038843D01*
X110265591Y-28047629D01*
X110265587Y-28047630D01*
X110260280Y-28048080D01*
X110255125Y-28049418D01*
X110255119Y-28049419D01*
X110042297Y-28104657D01*
X110042293Y-28104658D01*
X110037128Y-28105999D01*
X110032262Y-28108191D01*
X110032259Y-28108192D01*
X109923980Y-28156968D01*
X109826925Y-28200688D01*
X109635681Y-28329441D01*
X109631824Y-28333120D01*
X109631822Y-28333122D01*
X109577709Y-28384744D01*
X109468865Y-28488576D01*
X109331246Y-28673542D01*
X109226760Y-28879051D01*
X109225178Y-28884145D01*
X109225177Y-28884148D01*
X109174175Y-29048401D01*
X109158393Y-29099227D01*
X109157692Y-29104516D01*
X109133201Y-29289305D01*
X109128102Y-29327774D01*
X97536000Y-29327774D01*
X97536000Y-22327774D01*
X109128102Y-22327774D01*
X109136751Y-22558158D01*
X109184093Y-22783791D01*
X109268776Y-22998221D01*
X109388377Y-23195317D01*
X109391874Y-23199347D01*
X109478438Y-23299103D01*
X109539477Y-23369445D01*
X109543608Y-23372832D01*
X109713627Y-23512240D01*
X109713633Y-23512244D01*
X109717755Y-23515624D01*
X109722391Y-23518263D01*
X109722394Y-23518265D01*
X109831422Y-23580327D01*
X109918114Y-23629675D01*
X110134825Y-23708337D01*
X110140074Y-23709286D01*
X110140077Y-23709287D01*
X110357608Y-23748623D01*
X110357615Y-23748624D01*
X110361692Y-23749361D01*
X110379414Y-23750197D01*
X110384356Y-23750430D01*
X110384363Y-23750430D01*
X110385844Y-23750500D01*
X110547890Y-23750500D01*
X110614809Y-23744822D01*
X110714409Y-23736371D01*
X110714413Y-23736370D01*
X110719720Y-23735920D01*
X110724875Y-23734582D01*
X110724881Y-23734581D01*
X110937703Y-23679343D01*
X110937707Y-23679342D01*
X110942872Y-23678001D01*
X110947738Y-23675809D01*
X110947741Y-23675808D01*
X111148202Y-23585507D01*
X111153075Y-23583312D01*
X111344319Y-23454559D01*
X111511135Y-23295424D01*
X111648754Y-23110458D01*
X111753240Y-22904949D01*
X111789321Y-22788752D01*
X111820024Y-22689871D01*
X111821607Y-22684773D01*
X111822308Y-22679484D01*
X111851198Y-22461511D01*
X111851198Y-22461506D01*
X111851898Y-22456226D01*
X111847076Y-22327774D01*
X121320102Y-22327774D01*
X121328751Y-22558158D01*
X121376093Y-22783791D01*
X121460776Y-22998221D01*
X121580377Y-23195317D01*
X121583874Y-23199347D01*
X121670438Y-23299103D01*
X121731477Y-23369445D01*
X121735608Y-23372832D01*
X121905627Y-23512240D01*
X121905633Y-23512244D01*
X121909755Y-23515624D01*
X121914391Y-23518263D01*
X121914394Y-23518265D01*
X122023422Y-23580327D01*
X122110114Y-23629675D01*
X122326825Y-23708337D01*
X122332074Y-23709286D01*
X122332077Y-23709287D01*
X122549608Y-23748623D01*
X122549615Y-23748624D01*
X122553692Y-23749361D01*
X122571414Y-23750197D01*
X122576356Y-23750430D01*
X122576363Y-23750430D01*
X122577844Y-23750500D01*
X122739890Y-23750500D01*
X122806809Y-23744822D01*
X122906409Y-23736371D01*
X122906413Y-23736370D01*
X122911720Y-23735920D01*
X122916875Y-23734582D01*
X122916881Y-23734581D01*
X123129703Y-23679343D01*
X123129707Y-23679342D01*
X123134872Y-23678001D01*
X123139738Y-23675809D01*
X123139741Y-23675808D01*
X123340202Y-23585507D01*
X123345075Y-23583312D01*
X123536319Y-23454559D01*
X123703135Y-23295424D01*
X123840754Y-23110458D01*
X123945240Y-22904949D01*
X123981321Y-22788752D01*
X124012024Y-22689871D01*
X124013607Y-22684773D01*
X124014308Y-22679484D01*
X124043198Y-22461511D01*
X124043198Y-22461506D01*
X124043898Y-22456226D01*
X124035249Y-22225842D01*
X123987907Y-22000209D01*
X123903224Y-21785779D01*
X123783623Y-21588683D01*
X123696755Y-21488576D01*
X123636023Y-21418588D01*
X123636021Y-21418586D01*
X123632523Y-21414555D01*
X123590970Y-21380484D01*
X123458373Y-21271760D01*
X123458367Y-21271756D01*
X123454245Y-21268376D01*
X123449609Y-21265737D01*
X123449606Y-21265735D01*
X123258529Y-21156968D01*
X123253886Y-21154325D01*
X123037175Y-21075663D01*
X123031926Y-21074714D01*
X123031923Y-21074713D01*
X122814392Y-21035377D01*
X122814385Y-21035376D01*
X122810308Y-21034639D01*
X122792586Y-21033803D01*
X122787644Y-21033570D01*
X122787637Y-21033570D01*
X122786156Y-21033500D01*
X122624110Y-21033500D01*
X122557191Y-21039178D01*
X122457591Y-21047629D01*
X122457587Y-21047630D01*
X122452280Y-21048080D01*
X122447125Y-21049418D01*
X122447119Y-21049419D01*
X122234297Y-21104657D01*
X122234293Y-21104658D01*
X122229128Y-21105999D01*
X122224262Y-21108191D01*
X122224259Y-21108192D01*
X122115980Y-21156968D01*
X122018925Y-21200688D01*
X121827681Y-21329441D01*
X121660865Y-21488576D01*
X121523246Y-21673542D01*
X121418760Y-21879051D01*
X121417178Y-21884145D01*
X121417177Y-21884148D01*
X121355115Y-22084020D01*
X121350393Y-22099227D01*
X121349692Y-22104516D01*
X121334304Y-22220623D01*
X121320102Y-22327774D01*
X111847076Y-22327774D01*
X111843249Y-22225842D01*
X111795907Y-22000209D01*
X111711224Y-21785779D01*
X111591623Y-21588683D01*
X111504755Y-21488576D01*
X111444023Y-21418588D01*
X111444021Y-21418586D01*
X111440523Y-21414555D01*
X111398970Y-21380484D01*
X111266373Y-21271760D01*
X111266367Y-21271756D01*
X111262245Y-21268376D01*
X111257609Y-21265737D01*
X111257606Y-21265735D01*
X111066529Y-21156968D01*
X111061886Y-21154325D01*
X110845175Y-21075663D01*
X110839926Y-21074714D01*
X110839923Y-21074713D01*
X110622392Y-21035377D01*
X110622385Y-21035376D01*
X110618308Y-21034639D01*
X110600586Y-21033803D01*
X110595644Y-21033570D01*
X110595637Y-21033570D01*
X110594156Y-21033500D01*
X110432110Y-21033500D01*
X110365191Y-21039178D01*
X110265591Y-21047629D01*
X110265587Y-21047630D01*
X110260280Y-21048080D01*
X110255125Y-21049418D01*
X110255119Y-21049419D01*
X110042297Y-21104657D01*
X110042293Y-21104658D01*
X110037128Y-21105999D01*
X110032262Y-21108191D01*
X110032259Y-21108192D01*
X109923980Y-21156968D01*
X109826925Y-21200688D01*
X109635681Y-21329441D01*
X109468865Y-21488576D01*
X109331246Y-21673542D01*
X109226760Y-21879051D01*
X109225178Y-21884145D01*
X109225177Y-21884148D01*
X109163115Y-22084020D01*
X109158393Y-22099227D01*
X109157692Y-22104516D01*
X109142304Y-22220623D01*
X109128102Y-22327774D01*
X97536000Y-22327774D01*
X97536000Y-19430500D01*
X97556002Y-19362379D01*
X97609658Y-19315886D01*
X97662000Y-19304500D01*
X161164000Y-19304500D01*
X161232121Y-19324502D01*
G37*
%TD.AperFunction*%
%TA.AperFunction,Conductor*%
G36*
X143486453Y-42569756D02*
G01*
X143523923Y-42630060D01*
X143528500Y-42663713D01*
X143528500Y-44283605D01*
X143508498Y-44351726D01*
X143454842Y-44398219D01*
X143415672Y-44408915D01*
X143393211Y-44411276D01*
X143360171Y-44414749D01*
X143290334Y-44401978D01*
X143238486Y-44353476D01*
X143221000Y-44289439D01*
X143221000Y-42747248D01*
X143242052Y-42677521D01*
X143297552Y-42593986D01*
X143351909Y-42548316D01*
X143422329Y-42539283D01*
X143486453Y-42569756D01*
G37*
%TD.AperFunction*%
%TD*%
%TA.AperFunction,Conductor*%
%TO.N,DGND*%
G36*
X97820885Y-39135575D02*
G01*
X115659828Y-50441947D01*
X115765452Y-50508892D01*
X115812282Y-50562254D01*
X115824000Y-50615317D01*
X115824000Y-62484000D01*
X115837396Y-62484063D01*
X115837398Y-62484063D01*
X136439646Y-62580335D01*
X139628089Y-62595234D01*
X139696115Y-62615555D01*
X139742357Y-62669427D01*
X139753500Y-62721233D01*
X139753500Y-68911710D01*
X139737341Y-68966598D01*
X139740183Y-68968009D01*
X139737053Y-68974313D01*
X139733235Y-68980238D01*
X139730826Y-68986858D01*
X139730824Y-68986861D01*
X139686179Y-69109522D01*
X139671197Y-69150685D01*
X139648463Y-69330640D01*
X139666163Y-69511160D01*
X139723418Y-69683273D01*
X139817380Y-69838424D01*
X139943382Y-69968902D01*
X140095159Y-70068222D01*
X140101763Y-70070678D01*
X140101765Y-70070679D01*
X140258558Y-70128990D01*
X140258560Y-70128990D01*
X140265168Y-70131448D01*
X140348995Y-70142633D01*
X140437980Y-70154507D01*
X140437984Y-70154507D01*
X140444961Y-70155438D01*
X140451972Y-70154800D01*
X140451976Y-70154800D01*
X140594459Y-70141832D01*
X140625600Y-70138998D01*
X140632302Y-70136820D01*
X140632304Y-70136820D01*
X140791409Y-70085124D01*
X140791412Y-70085123D01*
X140798108Y-70082947D01*
X140937253Y-70000000D01*
X140947860Y-69993677D01*
X140947862Y-69993676D01*
X140953912Y-69990069D01*
X140962507Y-69981884D01*
X141067273Y-69882117D01*
X141130397Y-69849624D01*
X141201068Y-69856417D01*
X141256848Y-69900340D01*
X141270908Y-69925958D01*
X141277266Y-69941616D01*
X141306958Y-69990069D01*
X141365208Y-70085124D01*
X141393987Y-70132088D01*
X141540250Y-70300938D01*
X141544225Y-70304238D01*
X141544231Y-70304244D01*
X141549425Y-70308556D01*
X141589059Y-70367460D01*
X141590555Y-70438441D01*
X141553439Y-70498962D01*
X141513168Y-70523480D01*
X141405946Y-70563676D01*
X141390351Y-70572214D01*
X141288276Y-70648715D01*
X141275715Y-70661276D01*
X141199214Y-70763351D01*
X141190676Y-70778946D01*
X141145522Y-70899394D01*
X141141895Y-70914649D01*
X141136369Y-70965514D01*
X141136000Y-70972328D01*
X141136000Y-71594885D01*
X141140475Y-71610124D01*
X141141865Y-71611329D01*
X141149548Y-71613000D01*
X143833884Y-71613000D01*
X143849123Y-71608525D01*
X143850328Y-71607135D01*
X143851999Y-71599452D01*
X143851999Y-70972331D01*
X143851629Y-70965510D01*
X143846105Y-70914648D01*
X143842479Y-70899396D01*
X143797324Y-70778946D01*
X143788786Y-70763351D01*
X143712285Y-70661276D01*
X143699724Y-70648715D01*
X143597649Y-70572214D01*
X143582054Y-70563676D01*
X143471813Y-70522348D01*
X143415049Y-70479706D01*
X143390349Y-70413145D01*
X143405557Y-70343796D01*
X143427104Y-70315115D01*
X143528430Y-70214144D01*
X143528440Y-70214132D01*
X143532096Y-70210489D01*
X143591594Y-70127689D01*
X143659435Y-70033277D01*
X143662453Y-70029077D01*
X143679036Y-69995525D01*
X143759136Y-69833453D01*
X143759137Y-69833451D01*
X143761430Y-69828811D01*
X143826370Y-69615069D01*
X143855529Y-69393590D01*
X143857156Y-69327000D01*
X143838852Y-69104361D01*
X143784431Y-68887702D01*
X143695354Y-68682840D01*
X143574014Y-68495277D01*
X143423670Y-68330051D01*
X143419619Y-68326852D01*
X143419615Y-68326848D01*
X143252414Y-68194800D01*
X143252410Y-68194798D01*
X143248359Y-68191598D01*
X143207053Y-68168796D01*
X143157084Y-68118364D01*
X143142312Y-68048921D01*
X143167428Y-67982516D01*
X143194780Y-67955909D01*
X143238603Y-67924650D01*
X143373860Y-67828173D01*
X143532096Y-67670489D01*
X143546478Y-67650475D01*
X143659435Y-67493277D01*
X143662453Y-67489077D01*
X143736604Y-67339044D01*
X143759136Y-67293453D01*
X143759137Y-67293451D01*
X143761430Y-67288811D01*
X143826370Y-67075069D01*
X143855529Y-66853590D01*
X143857156Y-66787000D01*
X143838852Y-66564361D01*
X143784431Y-66347702D01*
X143695354Y-66142840D01*
X143644057Y-66063547D01*
X143576822Y-65959617D01*
X143576820Y-65959614D01*
X143574014Y-65955277D01*
X143423670Y-65790051D01*
X143419619Y-65786852D01*
X143419615Y-65786848D01*
X143252414Y-65654800D01*
X143252410Y-65654798D01*
X143248359Y-65651598D01*
X143052789Y-65543638D01*
X143047920Y-65541914D01*
X143047916Y-65541912D01*
X142847087Y-65470795D01*
X142847083Y-65470794D01*
X142842212Y-65469069D01*
X142837119Y-65468162D01*
X142837116Y-65468161D01*
X142627373Y-65430800D01*
X142627367Y-65430799D01*
X142622284Y-65429894D01*
X142548452Y-65428992D01*
X142404081Y-65427228D01*
X142404079Y-65427228D01*
X142398911Y-65427165D01*
X142178091Y-65460955D01*
X141965756Y-65530357D01*
X141767607Y-65633507D01*
X141763474Y-65636610D01*
X141763471Y-65636612D01*
X141739247Y-65654800D01*
X141588965Y-65767635D01*
X141585393Y-65771373D01*
X141454795Y-65908036D01*
X141434629Y-65929138D01*
X141400587Y-65979042D01*
X141345677Y-66024043D01*
X141275152Y-66032214D01*
X141211405Y-66000960D01*
X141174675Y-65940203D01*
X141170500Y-65908036D01*
X141170500Y-62729033D01*
X141190502Y-62660912D01*
X141244158Y-62614419D01*
X141297089Y-62603034D01*
X144578287Y-62618366D01*
X145824090Y-62624187D01*
X145892115Y-62644508D01*
X145938357Y-62698380D01*
X145949500Y-62750186D01*
X145949500Y-66034988D01*
X145929498Y-66103109D01*
X145875842Y-66149602D01*
X145805568Y-66159706D01*
X145755988Y-66141374D01*
X145695692Y-66103109D01*
X145650620Y-66074505D01*
X145650617Y-66074503D01*
X145644666Y-66070727D01*
X145615463Y-66060328D01*
X145480425Y-66012243D01*
X145480420Y-66012242D01*
X145473790Y-66009881D01*
X145466802Y-66009048D01*
X145466799Y-66009047D01*
X145343698Y-65994368D01*
X145293680Y-65988404D01*
X145286677Y-65989140D01*
X145286676Y-65989140D01*
X145120288Y-66006628D01*
X145120286Y-66006629D01*
X145113288Y-66007364D01*
X144941579Y-66065818D01*
X144935575Y-66069512D01*
X144793095Y-66157166D01*
X144793092Y-66157168D01*
X144787088Y-66160862D01*
X144782053Y-66165793D01*
X144782050Y-66165795D01*
X144662525Y-66282843D01*
X144657493Y-66287771D01*
X144559235Y-66440238D01*
X144556826Y-66446858D01*
X144556824Y-66446861D01*
X144512179Y-66569522D01*
X144497197Y-66610685D01*
X144474463Y-66790640D01*
X144492163Y-66971160D01*
X144549418Y-67143273D01*
X144553065Y-67149295D01*
X144553066Y-67149297D01*
X144639730Y-67292398D01*
X144639733Y-67292401D01*
X144643380Y-67298424D01*
X144648275Y-67303492D01*
X144652571Y-67309071D01*
X144650243Y-67310864D01*
X144677071Y-67362115D01*
X144679500Y-67386734D01*
X144679500Y-73413903D01*
X144659498Y-73482024D01*
X144605842Y-73528517D01*
X144535568Y-73538621D01*
X144470988Y-73509127D01*
X144446646Y-73480672D01*
X144405359Y-73414598D01*
X144401626Y-73408624D01*
X144362209Y-73368931D01*
X144278778Y-73284915D01*
X144278774Y-73284912D01*
X144273815Y-73279918D01*
X144262697Y-73272862D01*
X144214538Y-73242300D01*
X144120666Y-73182727D01*
X144061857Y-73161786D01*
X143956425Y-73124243D01*
X143956420Y-73124242D01*
X143949790Y-73121881D01*
X143942802Y-73121048D01*
X143942799Y-73121047D01*
X143913328Y-73117533D01*
X143903405Y-73116350D01*
X143838131Y-73088423D01*
X143798318Y-73029640D01*
X143796606Y-72958664D01*
X143800341Y-72947006D01*
X143842478Y-72834606D01*
X143846105Y-72819351D01*
X143851631Y-72768486D01*
X143852000Y-72761672D01*
X143852000Y-72139115D01*
X143847525Y-72123876D01*
X143846135Y-72122671D01*
X143838452Y-72121000D01*
X142766115Y-72121000D01*
X142750876Y-72125475D01*
X142749671Y-72126865D01*
X142748000Y-72134548D01*
X142748000Y-73206884D01*
X142752475Y-73222123D01*
X142753865Y-73223328D01*
X142761548Y-73224999D01*
X143015026Y-73224999D01*
X143083147Y-73245001D01*
X143129640Y-73298657D01*
X143139744Y-73368931D01*
X143120939Y-73419251D01*
X143035235Y-73552238D01*
X143032826Y-73558858D01*
X143032824Y-73558861D01*
X142975606Y-73716066D01*
X142973197Y-73722685D01*
X142950463Y-73902640D01*
X142968163Y-74083160D01*
X143025418Y-74255273D01*
X143029065Y-74261295D01*
X143029066Y-74261297D01*
X143115730Y-74404398D01*
X143115733Y-74404401D01*
X143119380Y-74410424D01*
X143124275Y-74415492D01*
X143128571Y-74421071D01*
X143126243Y-74422864D01*
X143153071Y-74474115D01*
X143155500Y-74498734D01*
X143155500Y-94411164D01*
X143135498Y-94479285D01*
X143134188Y-94481090D01*
X143133493Y-94481771D01*
X143131894Y-94484253D01*
X143131892Y-94484255D01*
X143123934Y-94496603D01*
X143035235Y-94634238D01*
X143032826Y-94640858D01*
X143032824Y-94640861D01*
X143014295Y-94691770D01*
X142973197Y-94804685D01*
X142950463Y-94984640D01*
X142968163Y-95165160D01*
X143025418Y-95337273D01*
X143029065Y-95343295D01*
X143029066Y-95343297D01*
X143081370Y-95429661D01*
X143119380Y-95492424D01*
X143245382Y-95622902D01*
X143397159Y-95722222D01*
X143403763Y-95724678D01*
X143403765Y-95724679D01*
X143560558Y-95782990D01*
X143560560Y-95782990D01*
X143567168Y-95785448D01*
X143650995Y-95796633D01*
X143739980Y-95808507D01*
X143739984Y-95808507D01*
X143746961Y-95809438D01*
X143753972Y-95808800D01*
X143753976Y-95808800D01*
X143896459Y-95795832D01*
X143927600Y-95792998D01*
X143934302Y-95790820D01*
X143934304Y-95790820D01*
X144093409Y-95739124D01*
X144093412Y-95739123D01*
X144100108Y-95736947D01*
X144255912Y-95644069D01*
X144387266Y-95518982D01*
X144487643Y-95367902D01*
X144552055Y-95198338D01*
X144553296Y-95189508D01*
X144576748Y-95022639D01*
X144576748Y-95022636D01*
X144577299Y-95018717D01*
X144577616Y-94996000D01*
X144557397Y-94815745D01*
X144555080Y-94809091D01*
X144500064Y-94651106D01*
X144500062Y-94651103D01*
X144497745Y-94644448D01*
X144401626Y-94490624D01*
X144399215Y-94488196D01*
X144373117Y-94423716D01*
X144372500Y-94411263D01*
X144372500Y-75176429D01*
X144392502Y-75108308D01*
X144446158Y-75061815D01*
X144516432Y-75051711D01*
X144581012Y-75081205D01*
X144606276Y-75111158D01*
X144624613Y-75141435D01*
X144643380Y-75172424D01*
X144648269Y-75177487D01*
X144648270Y-75177488D01*
X144719348Y-75251091D01*
X144769382Y-75302902D01*
X144796955Y-75320945D01*
X144912134Y-75396316D01*
X144921159Y-75402222D01*
X144927763Y-75404678D01*
X144927765Y-75404679D01*
X145084558Y-75462990D01*
X145084560Y-75462990D01*
X145091168Y-75465448D01*
X145174995Y-75476633D01*
X145263980Y-75488507D01*
X145263984Y-75488507D01*
X145270961Y-75489438D01*
X145277972Y-75488800D01*
X145277976Y-75488800D01*
X145420459Y-75475832D01*
X145451600Y-75472998D01*
X145458302Y-75470820D01*
X145458304Y-75470820D01*
X145617409Y-75419124D01*
X145617412Y-75419123D01*
X145624108Y-75416947D01*
X145758984Y-75336544D01*
X145827737Y-75318845D01*
X145895147Y-75341127D01*
X145939809Y-75396316D01*
X145949500Y-75444774D01*
X145949500Y-89331164D01*
X145929498Y-89399285D01*
X145928188Y-89401090D01*
X145927493Y-89401771D01*
X145829235Y-89554238D01*
X145767197Y-89724685D01*
X145744463Y-89904640D01*
X145762163Y-90085160D01*
X145819418Y-90257273D01*
X145913380Y-90412424D01*
X146039382Y-90542902D01*
X146191159Y-90642222D01*
X146197763Y-90644678D01*
X146197765Y-90644679D01*
X146354558Y-90702990D01*
X146354560Y-90702990D01*
X146361168Y-90705448D01*
X146436840Y-90715545D01*
X146533980Y-90728507D01*
X146533984Y-90728507D01*
X146540961Y-90729438D01*
X146547972Y-90728800D01*
X146547976Y-90728800D01*
X146693618Y-90715545D01*
X146763271Y-90729290D01*
X146814436Y-90778511D01*
X146830867Y-90847580D01*
X146823439Y-90884121D01*
X146783197Y-90994685D01*
X146760463Y-91174640D01*
X146778163Y-91355160D01*
X146835418Y-91527273D01*
X146839065Y-91533295D01*
X146839066Y-91533297D01*
X146910613Y-91651435D01*
X146929380Y-91682424D01*
X147055382Y-91812902D01*
X147061278Y-91816760D01*
X147194098Y-91903675D01*
X147207159Y-91912222D01*
X147213763Y-91914678D01*
X147213765Y-91914679D01*
X147370558Y-91972990D01*
X147370560Y-91972990D01*
X147377168Y-91975448D01*
X147460995Y-91986633D01*
X147549980Y-91998507D01*
X147549984Y-91998507D01*
X147556961Y-91999438D01*
X147563972Y-91998800D01*
X147563976Y-91998800D01*
X147706459Y-91985832D01*
X147737600Y-91982998D01*
X147744302Y-91980820D01*
X147744304Y-91980820D01*
X147903409Y-91929124D01*
X147903412Y-91929123D01*
X147910108Y-91926947D01*
X147956835Y-91899092D01*
X148025587Y-91881393D01*
X148092997Y-91903675D01*
X148137659Y-91958863D01*
X148145394Y-92029437D01*
X148127262Y-92075575D01*
X148115235Y-92094238D01*
X148053197Y-92264685D01*
X148030463Y-92444640D01*
X148048163Y-92625160D01*
X148105418Y-92797273D01*
X148109065Y-92803295D01*
X148109066Y-92803297D01*
X148180613Y-92921435D01*
X148199380Y-92952424D01*
X148204269Y-92957487D01*
X148204270Y-92957488D01*
X148261583Y-93016837D01*
X148325382Y-93082902D01*
X148331278Y-93086760D01*
X148464098Y-93173675D01*
X148477159Y-93182222D01*
X148483763Y-93184678D01*
X148483765Y-93184679D01*
X148640558Y-93242990D01*
X148640560Y-93242990D01*
X148647168Y-93245448D01*
X148730995Y-93256633D01*
X148819980Y-93268507D01*
X148819984Y-93268507D01*
X148826961Y-93269438D01*
X148833972Y-93268800D01*
X148833976Y-93268800D01*
X148976459Y-93255832D01*
X149007600Y-93252998D01*
X149014302Y-93250820D01*
X149014304Y-93250820D01*
X149173409Y-93199124D01*
X149173412Y-93199123D01*
X149180108Y-93196947D01*
X149226835Y-93169092D01*
X149295587Y-93151393D01*
X149362997Y-93173675D01*
X149407659Y-93228863D01*
X149415394Y-93299437D01*
X149397262Y-93345575D01*
X149385235Y-93364238D01*
X149382826Y-93370858D01*
X149382824Y-93370861D01*
X149325606Y-93528066D01*
X149323197Y-93534685D01*
X149300463Y-93714640D01*
X149318163Y-93895160D01*
X149375418Y-94067273D01*
X149379065Y-94073295D01*
X149379066Y-94073297D01*
X149416304Y-94134784D01*
X149469380Y-94222424D01*
X149595382Y-94352902D01*
X149747159Y-94452222D01*
X149753763Y-94454678D01*
X149753765Y-94454679D01*
X149910558Y-94512990D01*
X149910560Y-94512990D01*
X149917168Y-94515448D01*
X150000995Y-94526633D01*
X150089980Y-94538507D01*
X150089984Y-94538507D01*
X150096961Y-94539438D01*
X150103972Y-94538800D01*
X150103976Y-94538800D01*
X150246459Y-94525832D01*
X150277600Y-94522998D01*
X150284302Y-94520820D01*
X150284304Y-94520820D01*
X150443409Y-94469124D01*
X150443412Y-94469123D01*
X150450108Y-94466947D01*
X150546513Y-94409478D01*
X150599860Y-94377677D01*
X150599862Y-94377676D01*
X150605912Y-94374069D01*
X150737266Y-94248982D01*
X150827809Y-94112703D01*
X162990743Y-94112703D01*
X163028268Y-94397734D01*
X163104129Y-94675036D01*
X163216923Y-94939476D01*
X163364561Y-95186161D01*
X163544313Y-95410528D01*
X163752851Y-95608423D01*
X163986317Y-95776186D01*
X163990112Y-95778195D01*
X163990113Y-95778196D01*
X164011869Y-95789715D01*
X164240392Y-95910712D01*
X164510373Y-96009511D01*
X164791264Y-96070755D01*
X164819841Y-96073004D01*
X165014282Y-96088307D01*
X165014291Y-96088307D01*
X165016739Y-96088500D01*
X165172271Y-96088500D01*
X165174407Y-96088354D01*
X165174418Y-96088354D01*
X165382548Y-96074165D01*
X165382554Y-96074164D01*
X165386825Y-96073873D01*
X165391020Y-96073004D01*
X165391022Y-96073004D01*
X165527584Y-96044723D01*
X165668342Y-96015574D01*
X165939343Y-95919607D01*
X166194812Y-95787750D01*
X166198313Y-95785289D01*
X166198317Y-95785287D01*
X166312417Y-95705096D01*
X166430023Y-95622441D01*
X166640622Y-95426740D01*
X166822713Y-95204268D01*
X166972927Y-94959142D01*
X167037661Y-94811675D01*
X167086757Y-94699830D01*
X167088483Y-94695898D01*
X167167244Y-94419406D01*
X167207751Y-94134784D01*
X167207845Y-94116951D01*
X167209235Y-93851583D01*
X167209235Y-93851576D01*
X167209257Y-93847297D01*
X167171732Y-93562266D01*
X167095871Y-93284964D01*
X167070978Y-93226603D01*
X166984763Y-93024476D01*
X166984761Y-93024472D01*
X166983077Y-93020524D01*
X166908527Y-92895960D01*
X166837643Y-92777521D01*
X166837640Y-92777517D01*
X166835439Y-92773839D01*
X166655687Y-92549472D01*
X166447149Y-92351577D01*
X166213683Y-92183814D01*
X166191843Y-92172250D01*
X166057012Y-92100861D01*
X165959608Y-92049288D01*
X165820842Y-91998507D01*
X165693658Y-91951964D01*
X165693656Y-91951963D01*
X165689627Y-91950489D01*
X165408736Y-91889245D01*
X165377685Y-91886801D01*
X165185718Y-91871693D01*
X165185709Y-91871693D01*
X165183261Y-91871500D01*
X165027729Y-91871500D01*
X165025593Y-91871646D01*
X165025582Y-91871646D01*
X164817452Y-91885835D01*
X164817446Y-91885836D01*
X164813175Y-91886127D01*
X164808980Y-91886996D01*
X164808978Y-91886996D01*
X164750564Y-91899093D01*
X164531658Y-91944426D01*
X164260657Y-92040393D01*
X164005188Y-92172250D01*
X164001687Y-92174711D01*
X164001683Y-92174713D01*
X163991594Y-92181804D01*
X163769977Y-92337559D01*
X163559378Y-92533260D01*
X163377287Y-92755732D01*
X163227073Y-93000858D01*
X163225347Y-93004791D01*
X163225346Y-93004792D01*
X163119706Y-93245448D01*
X163111517Y-93264102D01*
X163110342Y-93268229D01*
X163110341Y-93268230D01*
X163088308Y-93345576D01*
X163032756Y-93540594D01*
X162992249Y-93825216D01*
X162992227Y-93829505D01*
X162992226Y-93829512D01*
X162990765Y-94108417D01*
X162990743Y-94112703D01*
X150827809Y-94112703D01*
X150837643Y-94097902D01*
X150902055Y-93928338D01*
X150903035Y-93921366D01*
X150926748Y-93752639D01*
X150926748Y-93752636D01*
X150927299Y-93748717D01*
X150927616Y-93726000D01*
X150907397Y-93545745D01*
X150904166Y-93536466D01*
X150850064Y-93381106D01*
X150850062Y-93381103D01*
X150847745Y-93374448D01*
X150837664Y-93358314D01*
X150755362Y-93226603D01*
X150751626Y-93220624D01*
X150749215Y-93218196D01*
X150723117Y-93153716D01*
X150722500Y-93141263D01*
X150722500Y-83300640D01*
X152348463Y-83300640D01*
X152366163Y-83481160D01*
X152423418Y-83653273D01*
X152427065Y-83659295D01*
X152427066Y-83659297D01*
X152469344Y-83729106D01*
X152517380Y-83808424D01*
X152522269Y-83813487D01*
X152522270Y-83813488D01*
X152593348Y-83887091D01*
X152643382Y-83938902D01*
X152795159Y-84038222D01*
X152801763Y-84040678D01*
X152801765Y-84040679D01*
X152958558Y-84098990D01*
X152958560Y-84098990D01*
X152965168Y-84101448D01*
X153048995Y-84112633D01*
X153137980Y-84124507D01*
X153137984Y-84124507D01*
X153144961Y-84125438D01*
X153151972Y-84124800D01*
X153151976Y-84124800D01*
X153294459Y-84111832D01*
X153325600Y-84108998D01*
X153332302Y-84106820D01*
X153332304Y-84106820D01*
X153491409Y-84055124D01*
X153491412Y-84055123D01*
X153498108Y-84052947D01*
X153653912Y-83960069D01*
X153785266Y-83834982D01*
X153885643Y-83683902D01*
X153931853Y-83562255D01*
X153947555Y-83520920D01*
X153947556Y-83520918D01*
X153950055Y-83514338D01*
X153953593Y-83489164D01*
X153974748Y-83338639D01*
X153974748Y-83338636D01*
X153975299Y-83334717D01*
X153975616Y-83312000D01*
X153955397Y-83131745D01*
X153953080Y-83125091D01*
X153898064Y-82967106D01*
X153898062Y-82967103D01*
X153895745Y-82960448D01*
X153799626Y-82806624D01*
X153797215Y-82804196D01*
X153771117Y-82739716D01*
X153770500Y-82727263D01*
X153770500Y-78815248D01*
X153791552Y-78745521D01*
X153881742Y-78609773D01*
X153885643Y-78603902D01*
X153950055Y-78434338D01*
X153951035Y-78427366D01*
X153974748Y-78258639D01*
X153974748Y-78258636D01*
X153975299Y-78254717D01*
X153975616Y-78232000D01*
X153955397Y-78051745D01*
X153953080Y-78045091D01*
X153898064Y-77887106D01*
X153898062Y-77887103D01*
X153895745Y-77880448D01*
X153799626Y-77726624D01*
X153785941Y-77712843D01*
X153676778Y-77602915D01*
X153676774Y-77602912D01*
X153671815Y-77597918D01*
X153660697Y-77590862D01*
X153612538Y-77560300D01*
X153518666Y-77500727D01*
X153489463Y-77490328D01*
X153354425Y-77442243D01*
X153354420Y-77442242D01*
X153347790Y-77439881D01*
X153340802Y-77439048D01*
X153340799Y-77439047D01*
X153217698Y-77424368D01*
X153167680Y-77418404D01*
X153160677Y-77419140D01*
X153160676Y-77419140D01*
X152994288Y-77436628D01*
X152994286Y-77436629D01*
X152987288Y-77437364D01*
X152815579Y-77495818D01*
X152809575Y-77499512D01*
X152667095Y-77587166D01*
X152667092Y-77587168D01*
X152661088Y-77590862D01*
X152656053Y-77595793D01*
X152656050Y-77595795D01*
X152536525Y-77712843D01*
X152531493Y-77717771D01*
X152433235Y-77870238D01*
X152430826Y-77876858D01*
X152430824Y-77876861D01*
X152373606Y-78034066D01*
X152371197Y-78040685D01*
X152348463Y-78220640D01*
X152366163Y-78401160D01*
X152423418Y-78573273D01*
X152427065Y-78579295D01*
X152427066Y-78579297D01*
X152513730Y-78722398D01*
X152513733Y-78722401D01*
X152517380Y-78728424D01*
X152522275Y-78733492D01*
X152526571Y-78739071D01*
X152524243Y-78740864D01*
X152551071Y-78792115D01*
X152553500Y-78816734D01*
X152553500Y-82727164D01*
X152533498Y-82795285D01*
X152532188Y-82797090D01*
X152531493Y-82797771D01*
X152529894Y-82800253D01*
X152529892Y-82800255D01*
X152521934Y-82812603D01*
X152433235Y-82950238D01*
X152430826Y-82956858D01*
X152430824Y-82956861D01*
X152373606Y-83114066D01*
X152371197Y-83120685D01*
X152348463Y-83300640D01*
X150722500Y-83300640D01*
X150722500Y-74829056D01*
X150742502Y-74760935D01*
X150796158Y-74714442D01*
X150809564Y-74709223D01*
X150969909Y-74657124D01*
X150969912Y-74657123D01*
X150976608Y-74654947D01*
X151104936Y-74578448D01*
X151126360Y-74565677D01*
X151126362Y-74565676D01*
X151132412Y-74562069D01*
X151263766Y-74436982D01*
X151364143Y-74285902D01*
X151407933Y-74170624D01*
X151426055Y-74122920D01*
X151426056Y-74122918D01*
X151428555Y-74116338D01*
X151429535Y-74109366D01*
X151453248Y-73940639D01*
X151453248Y-73940636D01*
X151453799Y-73936717D01*
X151454116Y-73914000D01*
X151433897Y-73733745D01*
X151431580Y-73727091D01*
X151376564Y-73569106D01*
X151376562Y-73569103D01*
X151374245Y-73562448D01*
X151278126Y-73408624D01*
X151275715Y-73406196D01*
X151249617Y-73341716D01*
X151249000Y-73329263D01*
X151249000Y-62776128D01*
X151269002Y-62708007D01*
X151322658Y-62661514D01*
X151375589Y-62650129D01*
X155122089Y-62667636D01*
X155190115Y-62687957D01*
X155236357Y-62741829D01*
X155247500Y-62793635D01*
X155247500Y-80855927D01*
X155227498Y-80924048D01*
X155173842Y-80970541D01*
X155134671Y-80981237D01*
X155081050Y-80986873D01*
X155026289Y-80992628D01*
X155026288Y-80992628D01*
X155019288Y-80993364D01*
X154847579Y-81051818D01*
X154841575Y-81055512D01*
X154699095Y-81143166D01*
X154699092Y-81143168D01*
X154693088Y-81146862D01*
X154688053Y-81151793D01*
X154688050Y-81151795D01*
X154568525Y-81268843D01*
X154563493Y-81273771D01*
X154465235Y-81426238D01*
X154462826Y-81432858D01*
X154462824Y-81432861D01*
X154431994Y-81517567D01*
X154403197Y-81596685D01*
X154380463Y-81776640D01*
X154398163Y-81957160D01*
X154455418Y-82129273D01*
X154459065Y-82135295D01*
X154459066Y-82135297D01*
X154545731Y-82278398D01*
X154549380Y-82284424D01*
X154675382Y-82414902D01*
X154827159Y-82514222D01*
X154833763Y-82516678D01*
X154833765Y-82516679D01*
X154990558Y-82574990D01*
X154990560Y-82574990D01*
X154997168Y-82577448D01*
X155004153Y-82578380D01*
X155004157Y-82578381D01*
X155087992Y-82589567D01*
X155138165Y-82596261D01*
X155203041Y-82625097D01*
X155242029Y-82684430D01*
X155247500Y-82721154D01*
X155247500Y-83643710D01*
X155231341Y-83698598D01*
X155234183Y-83700009D01*
X155231054Y-83706312D01*
X155227235Y-83712238D01*
X155224826Y-83718858D01*
X155224824Y-83718861D01*
X155180791Y-83839841D01*
X155165197Y-83882685D01*
X155142463Y-84062640D01*
X155160163Y-84243160D01*
X155217418Y-84415273D01*
X155221065Y-84421295D01*
X155221066Y-84421297D01*
X155263344Y-84491106D01*
X155311380Y-84570424D01*
X155316269Y-84575487D01*
X155316270Y-84575488D01*
X155387348Y-84649091D01*
X155437382Y-84700902D01*
X155589159Y-84800222D01*
X155595763Y-84802678D01*
X155595765Y-84802679D01*
X155752558Y-84860990D01*
X155752560Y-84860990D01*
X155759168Y-84863448D01*
X155842995Y-84874633D01*
X155931980Y-84886507D01*
X155931984Y-84886507D01*
X155938961Y-84887438D01*
X155945972Y-84886800D01*
X155945976Y-84886800D01*
X156088459Y-84873832D01*
X156119600Y-84870998D01*
X156126302Y-84868820D01*
X156126304Y-84868820D01*
X156285409Y-84817124D01*
X156285412Y-84817123D01*
X156292108Y-84814947D01*
X156447912Y-84722069D01*
X156579266Y-84596982D01*
X156679643Y-84445902D01*
X156744055Y-84276338D01*
X156745035Y-84269366D01*
X156768748Y-84100639D01*
X156768748Y-84100636D01*
X156769299Y-84096717D01*
X156769616Y-84074000D01*
X156749397Y-83893745D01*
X156747080Y-83887091D01*
X156692064Y-83729106D01*
X156692062Y-83729103D01*
X156689745Y-83722448D01*
X156683644Y-83712684D01*
X156664500Y-83645918D01*
X156664500Y-82706610D01*
X156684502Y-82638489D01*
X156738158Y-82591996D01*
X156807164Y-82581717D01*
X156870828Y-82590212D01*
X156947980Y-82600507D01*
X156947984Y-82600507D01*
X156954961Y-82601438D01*
X156961972Y-82600800D01*
X156961976Y-82600800D01*
X157104459Y-82587832D01*
X157135600Y-82584998D01*
X157142302Y-82582820D01*
X157142304Y-82582820D01*
X157301409Y-82531124D01*
X157301412Y-82531123D01*
X157308108Y-82528947D01*
X157463912Y-82436069D01*
X157519118Y-82383497D01*
X157582243Y-82351005D01*
X157652914Y-82357798D01*
X157696643Y-82387214D01*
X157723382Y-82414902D01*
X157875159Y-82514222D01*
X157881763Y-82516678D01*
X157881765Y-82516679D01*
X158038558Y-82574990D01*
X158038560Y-82574990D01*
X158045168Y-82577448D01*
X158128995Y-82588633D01*
X158217980Y-82600507D01*
X158217984Y-82600507D01*
X158224961Y-82601438D01*
X158231972Y-82600800D01*
X158231976Y-82600800D01*
X158374459Y-82587832D01*
X158405600Y-82584998D01*
X158412302Y-82582820D01*
X158412304Y-82582820D01*
X158571409Y-82531124D01*
X158571412Y-82531123D01*
X158578108Y-82528947D01*
X158733912Y-82436069D01*
X158865266Y-82310982D01*
X158965643Y-82159902D01*
X159030055Y-81990338D01*
X159031035Y-81983366D01*
X159054748Y-81814639D01*
X159054748Y-81814636D01*
X159055299Y-81810717D01*
X159055616Y-81788000D01*
X159054342Y-81776640D01*
X163524463Y-81776640D01*
X163542163Y-81957160D01*
X163599418Y-82129273D01*
X163603065Y-82135295D01*
X163603066Y-82135297D01*
X163689731Y-82278398D01*
X163693380Y-82284424D01*
X163819382Y-82414902D01*
X163971159Y-82514222D01*
X163977763Y-82516678D01*
X163977765Y-82516679D01*
X164134558Y-82574990D01*
X164134560Y-82574990D01*
X164141168Y-82577448D01*
X164224995Y-82588633D01*
X164313980Y-82600507D01*
X164313984Y-82600507D01*
X164320961Y-82601438D01*
X164327972Y-82600800D01*
X164327976Y-82600800D01*
X164470459Y-82587832D01*
X164501600Y-82584998D01*
X164508302Y-82582820D01*
X164508304Y-82582820D01*
X164667409Y-82531124D01*
X164667412Y-82531123D01*
X164674108Y-82528947D01*
X164829912Y-82436069D01*
X164961266Y-82310982D01*
X164993791Y-82262028D01*
X165048149Y-82216357D01*
X165118568Y-82207325D01*
X165182692Y-82237798D01*
X165206514Y-82266483D01*
X165213730Y-82278398D01*
X165213733Y-82278401D01*
X165217380Y-82284424D01*
X165343382Y-82414902D01*
X165495159Y-82514222D01*
X165501763Y-82516678D01*
X165501765Y-82516679D01*
X165658558Y-82574990D01*
X165658560Y-82574990D01*
X165665168Y-82577448D01*
X165748995Y-82588633D01*
X165837980Y-82600507D01*
X165837984Y-82600507D01*
X165844961Y-82601438D01*
X165851972Y-82600800D01*
X165851976Y-82600800D01*
X165994459Y-82587832D01*
X166025600Y-82584998D01*
X166032302Y-82582820D01*
X166032304Y-82582820D01*
X166191409Y-82531124D01*
X166191412Y-82531123D01*
X166198108Y-82528947D01*
X166353912Y-82436069D01*
X166485266Y-82310982D01*
X166585643Y-82159902D01*
X166650055Y-81990338D01*
X166651035Y-81983366D01*
X166674748Y-81814639D01*
X166674748Y-81814636D01*
X166675299Y-81810717D01*
X166675616Y-81788000D01*
X166674342Y-81776640D01*
X167588463Y-81776640D01*
X167606163Y-81957160D01*
X167663418Y-82129273D01*
X167667065Y-82135295D01*
X167667066Y-82135297D01*
X167753731Y-82278398D01*
X167757380Y-82284424D01*
X167883382Y-82414902D01*
X168035159Y-82514222D01*
X168041763Y-82516678D01*
X168041765Y-82516679D01*
X168198558Y-82574990D01*
X168198560Y-82574990D01*
X168205168Y-82577448D01*
X168288995Y-82588633D01*
X168377980Y-82600507D01*
X168377984Y-82600507D01*
X168384961Y-82601438D01*
X168391972Y-82600800D01*
X168391976Y-82600800D01*
X168534459Y-82587832D01*
X168565600Y-82584998D01*
X168572302Y-82582820D01*
X168572304Y-82582820D01*
X168731409Y-82531124D01*
X168731412Y-82531123D01*
X168738108Y-82528947D01*
X168893912Y-82436069D01*
X169025266Y-82310982D01*
X169125643Y-82159902D01*
X169190055Y-81990338D01*
X169191035Y-81983366D01*
X169214748Y-81814639D01*
X169214748Y-81814636D01*
X169215299Y-81810717D01*
X169215616Y-81788000D01*
X169195397Y-81607745D01*
X169193080Y-81601091D01*
X169138064Y-81443106D01*
X169138062Y-81443103D01*
X169135745Y-81436448D01*
X169132009Y-81430469D01*
X169043359Y-81288598D01*
X169043357Y-81288595D01*
X169039626Y-81282624D01*
X169025941Y-81268843D01*
X168916778Y-81158915D01*
X168916774Y-81158912D01*
X168911815Y-81153918D01*
X168900697Y-81146862D01*
X168852538Y-81116300D01*
X168758666Y-81056727D01*
X168729463Y-81046328D01*
X168594425Y-80998243D01*
X168594420Y-80998242D01*
X168587790Y-80995881D01*
X168580802Y-80995048D01*
X168580799Y-80995047D01*
X168455498Y-80980106D01*
X168407680Y-80974404D01*
X168400677Y-80975140D01*
X168400676Y-80975140D01*
X168234288Y-80992628D01*
X168234286Y-80992629D01*
X168227288Y-80993364D01*
X168055579Y-81051818D01*
X168049575Y-81055512D01*
X167907095Y-81143166D01*
X167907092Y-81143168D01*
X167901088Y-81146862D01*
X167896053Y-81151793D01*
X167896050Y-81151795D01*
X167776525Y-81268843D01*
X167771493Y-81273771D01*
X167673235Y-81426238D01*
X167670826Y-81432858D01*
X167670824Y-81432861D01*
X167639994Y-81517567D01*
X167611197Y-81596685D01*
X167588463Y-81776640D01*
X166674342Y-81776640D01*
X166655397Y-81607745D01*
X166653080Y-81601091D01*
X166598064Y-81443106D01*
X166598062Y-81443103D01*
X166595745Y-81436448D01*
X166592009Y-81430469D01*
X166503359Y-81288598D01*
X166503357Y-81288595D01*
X166499626Y-81282624D01*
X166485941Y-81268843D01*
X166376778Y-81158915D01*
X166376774Y-81158912D01*
X166371815Y-81153918D01*
X166360697Y-81146862D01*
X166312538Y-81116300D01*
X166218666Y-81056727D01*
X166189463Y-81046328D01*
X166054425Y-80998243D01*
X166054420Y-80998242D01*
X166047790Y-80995881D01*
X166040802Y-80995048D01*
X166040799Y-80995047D01*
X165915498Y-80980106D01*
X165867680Y-80974404D01*
X165860677Y-80975140D01*
X165860676Y-80975140D01*
X165694288Y-80992628D01*
X165694286Y-80992629D01*
X165687288Y-80993364D01*
X165515579Y-81051818D01*
X165509575Y-81055512D01*
X165367095Y-81143166D01*
X165367092Y-81143168D01*
X165361088Y-81146862D01*
X165356053Y-81151793D01*
X165356050Y-81151795D01*
X165236525Y-81268843D01*
X165231493Y-81273771D01*
X165225788Y-81282624D01*
X165206329Y-81312818D01*
X165152615Y-81359243D01*
X165082328Y-81369258D01*
X165017785Y-81339683D01*
X164993567Y-81311335D01*
X164975626Y-81282624D01*
X164961941Y-81268843D01*
X164852778Y-81158915D01*
X164852774Y-81158912D01*
X164847815Y-81153918D01*
X164836697Y-81146862D01*
X164788538Y-81116300D01*
X164694666Y-81056727D01*
X164665463Y-81046328D01*
X164530425Y-80998243D01*
X164530420Y-80998242D01*
X164523790Y-80995881D01*
X164516802Y-80995048D01*
X164516799Y-80995047D01*
X164391498Y-80980106D01*
X164343680Y-80974404D01*
X164336677Y-80975140D01*
X164336676Y-80975140D01*
X164170288Y-80992628D01*
X164170286Y-80992629D01*
X164163288Y-80993364D01*
X163991579Y-81051818D01*
X163985575Y-81055512D01*
X163843095Y-81143166D01*
X163843092Y-81143168D01*
X163837088Y-81146862D01*
X163832053Y-81151793D01*
X163832050Y-81151795D01*
X163712525Y-81268843D01*
X163707493Y-81273771D01*
X163609235Y-81426238D01*
X163606826Y-81432858D01*
X163606824Y-81432861D01*
X163575994Y-81517567D01*
X163547197Y-81596685D01*
X163524463Y-81776640D01*
X159054342Y-81776640D01*
X159035397Y-81607745D01*
X159033080Y-81601091D01*
X158978064Y-81443106D01*
X158978062Y-81443103D01*
X158975745Y-81436448D01*
X158972009Y-81430469D01*
X158883359Y-81288598D01*
X158883357Y-81288595D01*
X158879626Y-81282624D01*
X158865941Y-81268843D01*
X158756778Y-81158915D01*
X158756774Y-81158912D01*
X158751815Y-81153918D01*
X158740697Y-81146862D01*
X158692538Y-81116300D01*
X158598666Y-81056727D01*
X158569463Y-81046328D01*
X158434425Y-80998243D01*
X158434420Y-80998242D01*
X158427790Y-80995881D01*
X158420802Y-80995048D01*
X158420799Y-80995047D01*
X158295498Y-80980106D01*
X158247680Y-80974404D01*
X158240677Y-80975140D01*
X158240676Y-80975140D01*
X158074288Y-80992628D01*
X158074286Y-80992629D01*
X158067288Y-80993364D01*
X157895579Y-81051818D01*
X157889575Y-81055512D01*
X157747095Y-81143166D01*
X157747092Y-81143168D01*
X157741088Y-81146862D01*
X157736053Y-81151793D01*
X157736050Y-81151795D01*
X157695487Y-81191518D01*
X157632822Y-81224889D01*
X157562063Y-81219083D01*
X157517923Y-81190279D01*
X157486777Y-81158915D01*
X157481815Y-81153918D01*
X157470697Y-81146862D01*
X157422538Y-81116300D01*
X157328666Y-81056727D01*
X157299463Y-81046328D01*
X157164425Y-80998243D01*
X157164420Y-80998242D01*
X157157790Y-80995881D01*
X157150802Y-80995048D01*
X157150799Y-80995047D01*
X157025498Y-80980106D01*
X156977680Y-80974404D01*
X156970677Y-80975140D01*
X156970676Y-80975140D01*
X156803671Y-80992693D01*
X156733832Y-80979921D01*
X156681985Y-80931419D01*
X156664500Y-80867383D01*
X156664500Y-62801434D01*
X156684502Y-62733313D01*
X156738158Y-62686820D01*
X156791089Y-62675435D01*
X156810230Y-62675524D01*
X158016090Y-62681159D01*
X158084115Y-62701480D01*
X158130357Y-62755352D01*
X158141500Y-62807158D01*
X158141500Y-74853164D01*
X158121498Y-74921285D01*
X158120188Y-74923090D01*
X158119493Y-74923771D01*
X158117894Y-74926253D01*
X158117892Y-74926255D01*
X158030530Y-75061815D01*
X158021235Y-75076238D01*
X158018826Y-75082858D01*
X158018824Y-75082861D01*
X157961606Y-75240066D01*
X157959197Y-75246685D01*
X157936463Y-75426640D01*
X157954163Y-75607160D01*
X158011418Y-75779273D01*
X158015065Y-75785295D01*
X158015066Y-75785297D01*
X158025978Y-75803314D01*
X158105380Y-75934424D01*
X158231382Y-76064902D01*
X158383159Y-76164222D01*
X158389763Y-76166678D01*
X158389765Y-76166679D01*
X158546558Y-76224990D01*
X158546560Y-76224990D01*
X158553168Y-76227448D01*
X158636995Y-76238633D01*
X158725980Y-76250507D01*
X158725984Y-76250507D01*
X158732961Y-76251438D01*
X158739972Y-76250800D01*
X158739976Y-76250800D01*
X158882459Y-76237832D01*
X158913600Y-76234998D01*
X158920302Y-76232820D01*
X158920304Y-76232820D01*
X159079409Y-76181124D01*
X159079412Y-76181123D01*
X159086108Y-76178947D01*
X159241912Y-76086069D01*
X159297118Y-76033497D01*
X159360243Y-76001005D01*
X159430914Y-76007798D01*
X159474643Y-76037214D01*
X159501382Y-76064902D01*
X159653159Y-76164222D01*
X159659763Y-76166678D01*
X159659765Y-76166679D01*
X159816558Y-76224990D01*
X159816560Y-76224990D01*
X159823168Y-76227448D01*
X159906995Y-76238633D01*
X159995980Y-76250507D01*
X159995984Y-76250507D01*
X160002961Y-76251438D01*
X160009972Y-76250800D01*
X160009976Y-76250800D01*
X160152459Y-76237832D01*
X160183600Y-76234998D01*
X160190302Y-76232820D01*
X160190304Y-76232820D01*
X160349409Y-76181124D01*
X160349412Y-76181123D01*
X160356108Y-76178947D01*
X160511912Y-76086069D01*
X160643266Y-75960982D01*
X160743643Y-75809902D01*
X160808055Y-75640338D01*
X160809035Y-75633366D01*
X160832748Y-75464639D01*
X160832748Y-75464636D01*
X160833299Y-75460717D01*
X160833452Y-75449738D01*
X160833561Y-75441962D01*
X160833561Y-75441957D01*
X160833616Y-75438000D01*
X160813397Y-75257745D01*
X160811080Y-75251091D01*
X160756064Y-75093106D01*
X160756062Y-75093103D01*
X160753745Y-75086448D01*
X160657626Y-74932624D01*
X160652664Y-74927627D01*
X160534778Y-74808915D01*
X160534774Y-74808912D01*
X160529815Y-74803918D01*
X160376666Y-74706727D01*
X160205790Y-74645881D01*
X160206729Y-74643245D01*
X160155985Y-74614469D01*
X160122965Y-74551619D01*
X160120500Y-74526817D01*
X160120500Y-70120287D01*
X160140502Y-70052166D01*
X160194158Y-70005673D01*
X160260108Y-69995024D01*
X160302514Y-69999631D01*
X160309328Y-70000000D01*
X162181885Y-70000000D01*
X162197124Y-69995525D01*
X162198329Y-69994135D01*
X162200000Y-69986452D01*
X162200000Y-69981884D01*
X162708000Y-69981884D01*
X162712475Y-69997123D01*
X162713865Y-69998328D01*
X162721548Y-69999999D01*
X164598669Y-69999999D01*
X164605490Y-69999629D01*
X164656352Y-69994105D01*
X164671604Y-69990479D01*
X164792054Y-69945324D01*
X164807649Y-69936786D01*
X164909724Y-69860285D01*
X164922285Y-69847724D01*
X164998786Y-69745649D01*
X165007324Y-69730054D01*
X165052478Y-69609606D01*
X165056105Y-69594351D01*
X165061631Y-69543486D01*
X165062000Y-69536672D01*
X165062000Y-67664115D01*
X165057525Y-67648876D01*
X165056135Y-67647671D01*
X165048452Y-67646000D01*
X162726115Y-67646000D01*
X162710876Y-67650475D01*
X162709671Y-67651865D01*
X162708000Y-67659548D01*
X162708000Y-69981884D01*
X162200000Y-69981884D01*
X162200000Y-67119885D01*
X162708000Y-67119885D01*
X162712475Y-67135124D01*
X162713865Y-67136329D01*
X162721548Y-67138000D01*
X165043884Y-67138000D01*
X165059123Y-67133525D01*
X165060328Y-67132135D01*
X165061999Y-67124452D01*
X165061999Y-65247331D01*
X165061629Y-65240510D01*
X165056105Y-65189648D01*
X165052479Y-65174396D01*
X165007324Y-65053946D01*
X164998786Y-65038351D01*
X164922285Y-64936276D01*
X164909724Y-64923715D01*
X164807649Y-64847214D01*
X164792054Y-64838676D01*
X164671606Y-64793522D01*
X164656351Y-64789895D01*
X164605486Y-64784369D01*
X164598672Y-64784000D01*
X162726115Y-64784000D01*
X162710876Y-64788475D01*
X162709671Y-64789865D01*
X162708000Y-64797548D01*
X162708000Y-67119885D01*
X162200000Y-67119885D01*
X162200000Y-64802116D01*
X162195525Y-64786877D01*
X162194135Y-64785672D01*
X162186452Y-64784001D01*
X160309331Y-64784001D01*
X160302509Y-64784371D01*
X160260105Y-64788976D01*
X160190222Y-64776446D01*
X160138208Y-64728124D01*
X160120500Y-64663713D01*
X160120500Y-62817584D01*
X160140502Y-62749463D01*
X160194158Y-62702970D01*
X160247089Y-62691585D01*
X169093105Y-62732921D01*
X170056533Y-62737423D01*
X170124559Y-62757744D01*
X170170801Y-62811616D01*
X170181929Y-62861453D01*
X170392284Y-76324146D01*
X170433985Y-78993040D01*
X170434000Y-78995009D01*
X170434000Y-99441274D01*
X170413998Y-99509395D01*
X170360342Y-99555888D01*
X170307277Y-99567272D01*
X132918777Y-99352395D01*
X132850774Y-99332003D01*
X132804590Y-99278081D01*
X132794891Y-99207750D01*
X132804411Y-99178194D01*
X132803643Y-99177902D01*
X132865555Y-99014920D01*
X132865556Y-99014918D01*
X132868055Y-99008338D01*
X132869035Y-99001366D01*
X132892748Y-98832639D01*
X132892748Y-98832636D01*
X132893299Y-98828717D01*
X132893616Y-98806000D01*
X132873397Y-98625745D01*
X132871080Y-98619091D01*
X132816064Y-98461106D01*
X132816062Y-98461103D01*
X132813745Y-98454448D01*
X132717626Y-98300624D01*
X132715215Y-98298196D01*
X132689117Y-98233716D01*
X132688500Y-98221263D01*
X132688500Y-86943248D01*
X132709552Y-86873521D01*
X132799742Y-86737773D01*
X132803643Y-86731902D01*
X132868055Y-86562338D01*
X132869035Y-86555366D01*
X132892748Y-86386639D01*
X132892748Y-86386636D01*
X132893299Y-86382717D01*
X132893616Y-86360000D01*
X132873397Y-86179745D01*
X132871080Y-86173091D01*
X132816064Y-86015106D01*
X132816062Y-86015103D01*
X132813745Y-86008448D01*
X132717626Y-85854624D01*
X132703941Y-85840843D01*
X132594778Y-85730915D01*
X132594774Y-85730912D01*
X132589815Y-85725918D01*
X132578697Y-85718862D01*
X132467834Y-85648507D01*
X132436666Y-85628727D01*
X132407463Y-85618328D01*
X132272425Y-85570243D01*
X132272420Y-85570242D01*
X132265790Y-85567881D01*
X132258802Y-85567048D01*
X132258799Y-85567047D01*
X132135698Y-85552368D01*
X132085680Y-85546404D01*
X132078677Y-85547140D01*
X132078676Y-85547140D01*
X131912288Y-85564628D01*
X131912286Y-85564629D01*
X131905288Y-85565364D01*
X131733579Y-85623818D01*
X131717619Y-85633637D01*
X131585095Y-85715166D01*
X131585092Y-85715168D01*
X131579088Y-85718862D01*
X131574053Y-85723793D01*
X131574050Y-85723795D01*
X131454525Y-85840843D01*
X131449493Y-85845771D01*
X131351235Y-85998238D01*
X131348826Y-86004858D01*
X131348824Y-86004861D01*
X131291606Y-86162066D01*
X131289197Y-86168685D01*
X131266463Y-86348640D01*
X131284163Y-86529160D01*
X131341418Y-86701273D01*
X131345065Y-86707295D01*
X131345066Y-86707297D01*
X131431730Y-86850398D01*
X131431733Y-86850401D01*
X131435380Y-86856424D01*
X131440275Y-86861492D01*
X131444571Y-86867071D01*
X131442243Y-86868864D01*
X131469071Y-86920115D01*
X131471500Y-86944734D01*
X131471500Y-98221164D01*
X131451498Y-98289285D01*
X131450188Y-98291090D01*
X131449493Y-98291771D01*
X131447894Y-98294253D01*
X131447892Y-98294255D01*
X131439934Y-98306603D01*
X131351235Y-98444238D01*
X131348826Y-98450858D01*
X131348824Y-98450861D01*
X131291606Y-98608066D01*
X131289197Y-98614685D01*
X131266463Y-98794640D01*
X131284163Y-98975160D01*
X131341418Y-99147273D01*
X131345066Y-99153297D01*
X131348022Y-99159694D01*
X131346338Y-99160472D01*
X131362128Y-99220079D01*
X131340319Y-99287643D01*
X131285444Y-99332690D01*
X131235449Y-99342721D01*
X106560824Y-99200913D01*
X106492820Y-99180520D01*
X106446636Y-99126598D01*
X106436937Y-99056267D01*
X106443762Y-99030170D01*
X106449553Y-99014925D01*
X106449553Y-99014923D01*
X106452055Y-99008338D01*
X106453035Y-99001366D01*
X106476748Y-98832639D01*
X106476748Y-98832636D01*
X106477299Y-98828717D01*
X106477616Y-98806000D01*
X106457397Y-98625745D01*
X106455080Y-98619091D01*
X106400064Y-98461106D01*
X106400062Y-98461103D01*
X106397745Y-98454448D01*
X106301626Y-98300624D01*
X106299215Y-98298196D01*
X106273117Y-98233716D01*
X106272500Y-98221263D01*
X106272500Y-84062640D01*
X110438463Y-84062640D01*
X110456163Y-84243160D01*
X110513418Y-84415273D01*
X110517065Y-84421295D01*
X110517066Y-84421297D01*
X110559344Y-84491106D01*
X110607380Y-84570424D01*
X110612269Y-84575487D01*
X110612270Y-84575488D01*
X110683348Y-84649091D01*
X110733382Y-84700902D01*
X110885159Y-84800222D01*
X110891763Y-84802678D01*
X110891765Y-84802679D01*
X111048558Y-84860990D01*
X111048560Y-84860990D01*
X111055168Y-84863448D01*
X111138995Y-84874633D01*
X111227980Y-84886507D01*
X111227984Y-84886507D01*
X111234961Y-84887438D01*
X111241972Y-84886800D01*
X111241976Y-84886800D01*
X111384459Y-84873832D01*
X111415600Y-84870998D01*
X111422302Y-84868820D01*
X111422304Y-84868820D01*
X111581409Y-84817124D01*
X111581412Y-84817123D01*
X111588108Y-84814947D01*
X111743912Y-84722069D01*
X111875266Y-84596982D01*
X111975643Y-84445902D01*
X112040055Y-84276338D01*
X112041035Y-84269366D01*
X112064748Y-84100639D01*
X112064748Y-84100636D01*
X112065299Y-84096717D01*
X112065616Y-84074000D01*
X112064342Y-84062640D01*
X117550463Y-84062640D01*
X117568163Y-84243160D01*
X117625418Y-84415273D01*
X117629065Y-84421295D01*
X117629066Y-84421297D01*
X117671344Y-84491106D01*
X117719380Y-84570424D01*
X117724269Y-84575487D01*
X117724270Y-84575488D01*
X117795348Y-84649091D01*
X117845382Y-84700902D01*
X117997159Y-84800222D01*
X118003763Y-84802678D01*
X118003765Y-84802679D01*
X118160558Y-84860990D01*
X118160560Y-84860990D01*
X118167168Y-84863448D01*
X118250995Y-84874633D01*
X118339980Y-84886507D01*
X118339984Y-84886507D01*
X118346961Y-84887438D01*
X118353972Y-84886800D01*
X118353976Y-84886800D01*
X118496459Y-84873832D01*
X118527600Y-84870998D01*
X118534302Y-84868820D01*
X118534304Y-84868820D01*
X118693409Y-84817124D01*
X118693412Y-84817123D01*
X118700108Y-84814947D01*
X118855912Y-84722069D01*
X118987266Y-84596982D01*
X119087643Y-84445902D01*
X119152055Y-84276338D01*
X119153035Y-84269366D01*
X119176748Y-84100639D01*
X119176748Y-84100636D01*
X119177299Y-84096717D01*
X119177616Y-84074000D01*
X119176342Y-84062640D01*
X122122463Y-84062640D01*
X122140163Y-84243160D01*
X122197418Y-84415273D01*
X122201065Y-84421295D01*
X122201066Y-84421297D01*
X122243344Y-84491106D01*
X122291380Y-84570424D01*
X122296269Y-84575487D01*
X122296270Y-84575488D01*
X122367348Y-84649091D01*
X122417382Y-84700902D01*
X122569159Y-84800222D01*
X122575763Y-84802678D01*
X122575765Y-84802679D01*
X122732558Y-84860990D01*
X122732560Y-84860990D01*
X122739168Y-84863448D01*
X122822995Y-84874633D01*
X122911980Y-84886507D01*
X122911984Y-84886507D01*
X122918961Y-84887438D01*
X122925972Y-84886800D01*
X122925976Y-84886800D01*
X123068459Y-84873832D01*
X123099600Y-84870998D01*
X123106302Y-84868820D01*
X123106304Y-84868820D01*
X123242277Y-84824640D01*
X134314463Y-84824640D01*
X134332163Y-85005160D01*
X134389418Y-85177273D01*
X134393065Y-85183295D01*
X134393066Y-85183297D01*
X134403978Y-85201314D01*
X134483380Y-85332424D01*
X134609382Y-85462902D01*
X134615278Y-85466760D01*
X134736987Y-85546404D01*
X134761159Y-85562222D01*
X134767763Y-85564678D01*
X134767765Y-85564679D01*
X134924558Y-85622990D01*
X134924560Y-85622990D01*
X134931168Y-85625448D01*
X135014995Y-85636633D01*
X135103980Y-85648507D01*
X135103984Y-85648507D01*
X135110961Y-85649438D01*
X135117972Y-85648800D01*
X135117976Y-85648800D01*
X135260459Y-85635832D01*
X135291600Y-85632998D01*
X135298302Y-85630820D01*
X135298304Y-85630820D01*
X135457409Y-85579124D01*
X135457412Y-85579123D01*
X135464108Y-85576947D01*
X135619912Y-85484069D01*
X135751266Y-85358982D01*
X135851643Y-85207902D01*
X135916055Y-85038338D01*
X135917035Y-85031366D01*
X135940748Y-84862639D01*
X135940748Y-84862636D01*
X135941299Y-84858717D01*
X135941616Y-84836000D01*
X135921397Y-84655745D01*
X135919080Y-84649091D01*
X135864064Y-84491106D01*
X135864062Y-84491103D01*
X135861745Y-84484448D01*
X135855644Y-84474684D01*
X135836500Y-84407918D01*
X135836500Y-77392132D01*
X135849983Y-77336400D01*
X135851643Y-77333902D01*
X135916055Y-77164338D01*
X135917035Y-77157366D01*
X135940748Y-76988639D01*
X135940748Y-76988636D01*
X135941299Y-76984717D01*
X135941616Y-76962000D01*
X135921397Y-76781745D01*
X135919080Y-76775091D01*
X135864064Y-76617106D01*
X135864062Y-76617103D01*
X135861745Y-76610448D01*
X135765626Y-76456624D01*
X135751941Y-76442843D01*
X135642778Y-76332915D01*
X135642774Y-76332912D01*
X135637815Y-76327918D01*
X135605561Y-76307449D01*
X135558764Y-76254060D01*
X135548259Y-76183845D01*
X135577383Y-76119097D01*
X135608559Y-76092837D01*
X135619912Y-76086069D01*
X135751266Y-75960982D01*
X135851643Y-75809902D01*
X135916055Y-75640338D01*
X135917035Y-75633366D01*
X135940748Y-75464639D01*
X135940748Y-75464636D01*
X135941299Y-75460717D01*
X135941452Y-75449738D01*
X135941561Y-75441962D01*
X135941561Y-75441957D01*
X135941616Y-75438000D01*
X135921397Y-75257745D01*
X135919080Y-75251091D01*
X135864064Y-75093106D01*
X135864062Y-75093103D01*
X135861745Y-75086448D01*
X135765626Y-74932624D01*
X135763215Y-74930196D01*
X135737117Y-74865716D01*
X135736500Y-74853263D01*
X135736500Y-73481248D01*
X135757552Y-73411521D01*
X135846399Y-73277795D01*
X135851643Y-73269902D01*
X135906974Y-73124243D01*
X135913555Y-73106920D01*
X135913556Y-73106918D01*
X135916055Y-73100338D01*
X135918171Y-73085285D01*
X135940748Y-72924639D01*
X135940748Y-72924636D01*
X135941299Y-72920717D01*
X135941616Y-72898000D01*
X135926324Y-72761669D01*
X141136001Y-72761669D01*
X141136371Y-72768490D01*
X141141895Y-72819352D01*
X141145521Y-72834604D01*
X141190676Y-72955054D01*
X141199214Y-72970649D01*
X141275715Y-73072724D01*
X141288276Y-73085285D01*
X141390351Y-73161786D01*
X141405946Y-73170324D01*
X141526394Y-73215478D01*
X141541649Y-73219105D01*
X141592514Y-73224631D01*
X141599328Y-73225000D01*
X142221885Y-73225000D01*
X142237124Y-73220525D01*
X142238329Y-73219135D01*
X142240000Y-73211452D01*
X142240000Y-72139115D01*
X142235525Y-72123876D01*
X142234135Y-72122671D01*
X142226452Y-72121000D01*
X141154116Y-72121000D01*
X141138877Y-72125475D01*
X141137672Y-72126865D01*
X141136001Y-72134548D01*
X141136001Y-72761669D01*
X135926324Y-72761669D01*
X135921397Y-72717745D01*
X135919080Y-72711091D01*
X135864064Y-72553106D01*
X135864062Y-72553103D01*
X135861745Y-72546448D01*
X135765626Y-72392624D01*
X135760664Y-72387627D01*
X135642778Y-72268915D01*
X135642774Y-72268912D01*
X135637815Y-72263918D01*
X135626697Y-72256862D01*
X135578538Y-72226300D01*
X135484666Y-72166727D01*
X135455463Y-72156328D01*
X135320425Y-72108243D01*
X135320420Y-72108242D01*
X135313790Y-72105881D01*
X135306802Y-72105048D01*
X135306799Y-72105047D01*
X135183698Y-72090368D01*
X135133680Y-72084404D01*
X135126677Y-72085140D01*
X135126676Y-72085140D01*
X134960288Y-72102628D01*
X134960286Y-72102629D01*
X134953288Y-72103364D01*
X134781579Y-72161818D01*
X134719109Y-72200250D01*
X134633095Y-72253166D01*
X134633092Y-72253168D01*
X134627088Y-72256862D01*
X134622053Y-72261793D01*
X134622050Y-72261795D01*
X134519500Y-72362220D01*
X134497493Y-72383771D01*
X134399235Y-72536238D01*
X134396826Y-72542858D01*
X134396824Y-72542861D01*
X134339606Y-72700066D01*
X134337197Y-72706685D01*
X134314463Y-72886640D01*
X134332163Y-73067160D01*
X134389418Y-73239273D01*
X134393065Y-73245295D01*
X134393066Y-73245297D01*
X134479730Y-73388398D01*
X134479733Y-73388401D01*
X134483380Y-73394424D01*
X134488275Y-73399492D01*
X134492571Y-73405071D01*
X134490243Y-73406864D01*
X134517071Y-73458115D01*
X134519500Y-73482734D01*
X134519500Y-74853164D01*
X134499498Y-74921285D01*
X134498188Y-74923090D01*
X134497493Y-74923771D01*
X134495894Y-74926253D01*
X134495892Y-74926255D01*
X134408530Y-75061815D01*
X134399235Y-75076238D01*
X134396826Y-75082858D01*
X134396824Y-75082861D01*
X134339606Y-75240066D01*
X134337197Y-75246685D01*
X134314463Y-75426640D01*
X134332163Y-75607160D01*
X134389418Y-75779273D01*
X134393065Y-75785295D01*
X134393066Y-75785297D01*
X134403978Y-75803314D01*
X134483380Y-75934424D01*
X134609382Y-76064902D01*
X134615278Y-76068760D01*
X134615279Y-76068761D01*
X134653437Y-76093731D01*
X134699486Y-76147769D01*
X134709009Y-76218123D01*
X134678984Y-76282459D01*
X134650468Y-76306478D01*
X134627088Y-76320862D01*
X134622053Y-76325793D01*
X134622050Y-76325795D01*
X134502525Y-76442843D01*
X134497493Y-76447771D01*
X134399235Y-76600238D01*
X134396826Y-76606858D01*
X134396824Y-76606861D01*
X134339606Y-76764066D01*
X134337197Y-76770685D01*
X134314463Y-76950640D01*
X134332163Y-77131160D01*
X134389418Y-77303273D01*
X134393065Y-77309296D01*
X134393066Y-77309297D01*
X134401276Y-77322853D01*
X134419500Y-77388124D01*
X134419500Y-84405710D01*
X134403341Y-84460598D01*
X134406183Y-84462009D01*
X134403053Y-84468313D01*
X134399235Y-84474238D01*
X134396826Y-84480858D01*
X134396824Y-84480861D01*
X134352791Y-84601841D01*
X134337197Y-84644685D01*
X134314463Y-84824640D01*
X123242277Y-84824640D01*
X123265409Y-84817124D01*
X123265412Y-84817123D01*
X123272108Y-84814947D01*
X123427912Y-84722069D01*
X123559266Y-84596982D01*
X123659643Y-84445902D01*
X123724055Y-84276338D01*
X123725035Y-84269366D01*
X123748748Y-84100639D01*
X123748748Y-84100636D01*
X123749299Y-84096717D01*
X123749616Y-84074000D01*
X123729397Y-83893745D01*
X123727080Y-83887091D01*
X123672064Y-83729106D01*
X123672062Y-83729103D01*
X123669745Y-83722448D01*
X123663645Y-83712685D01*
X123577362Y-83574603D01*
X123573626Y-83568624D01*
X123571215Y-83566196D01*
X123545117Y-83501716D01*
X123544500Y-83489263D01*
X123544500Y-78815248D01*
X123565552Y-78745521D01*
X123655742Y-78609773D01*
X123659643Y-78603902D01*
X123724055Y-78434338D01*
X123725035Y-78427366D01*
X123748748Y-78258639D01*
X123748748Y-78258636D01*
X123749299Y-78254717D01*
X123749616Y-78232000D01*
X123729397Y-78051745D01*
X123727080Y-78045091D01*
X123672064Y-77887106D01*
X123672062Y-77887103D01*
X123669745Y-77880448D01*
X123573626Y-77726624D01*
X123559941Y-77712843D01*
X123450778Y-77602915D01*
X123450774Y-77602912D01*
X123445815Y-77597918D01*
X123434697Y-77590862D01*
X123386538Y-77560300D01*
X123292666Y-77500727D01*
X123263463Y-77490328D01*
X123128425Y-77442243D01*
X123128420Y-77442242D01*
X123121790Y-77439881D01*
X123114802Y-77439048D01*
X123114799Y-77439047D01*
X122991698Y-77424368D01*
X122941680Y-77418404D01*
X122934677Y-77419140D01*
X122934676Y-77419140D01*
X122768288Y-77436628D01*
X122768286Y-77436629D01*
X122761288Y-77437364D01*
X122589579Y-77495818D01*
X122583575Y-77499512D01*
X122441095Y-77587166D01*
X122441092Y-77587168D01*
X122435088Y-77590862D01*
X122430053Y-77595793D01*
X122430050Y-77595795D01*
X122310525Y-77712843D01*
X122305493Y-77717771D01*
X122207235Y-77870238D01*
X122204826Y-77876858D01*
X122204824Y-77876861D01*
X122147606Y-78034066D01*
X122145197Y-78040685D01*
X122122463Y-78220640D01*
X122140163Y-78401160D01*
X122197418Y-78573273D01*
X122201065Y-78579295D01*
X122201066Y-78579297D01*
X122287730Y-78722398D01*
X122287733Y-78722401D01*
X122291380Y-78728424D01*
X122296275Y-78733492D01*
X122300571Y-78739071D01*
X122298243Y-78740864D01*
X122325071Y-78792115D01*
X122327500Y-78816734D01*
X122327500Y-83489164D01*
X122307498Y-83557285D01*
X122306188Y-83559090D01*
X122305493Y-83559771D01*
X122303894Y-83562253D01*
X122303892Y-83562255D01*
X122295934Y-83574603D01*
X122207235Y-83712238D01*
X122204826Y-83718858D01*
X122204824Y-83718861D01*
X122160791Y-83839841D01*
X122145197Y-83882685D01*
X122122463Y-84062640D01*
X119176342Y-84062640D01*
X119157397Y-83893745D01*
X119155080Y-83887091D01*
X119100064Y-83729106D01*
X119100062Y-83729103D01*
X119097745Y-83722448D01*
X119091645Y-83712685D01*
X119005362Y-83574603D01*
X119001626Y-83568624D01*
X118999215Y-83566196D01*
X118973117Y-83501716D01*
X118972500Y-83489263D01*
X118972500Y-74497248D01*
X118993552Y-74427521D01*
X119021293Y-74385768D01*
X119087643Y-74285902D01*
X119131433Y-74170624D01*
X119149555Y-74122920D01*
X119149556Y-74122918D01*
X119152055Y-74116338D01*
X119153035Y-74109366D01*
X119176748Y-73940639D01*
X119176748Y-73940636D01*
X119177299Y-73936717D01*
X119177616Y-73914000D01*
X119157397Y-73733745D01*
X119155080Y-73727091D01*
X119100064Y-73569106D01*
X119100062Y-73569103D01*
X119097745Y-73562448D01*
X119008268Y-73419254D01*
X119005359Y-73414598D01*
X119001626Y-73408624D01*
X118962209Y-73368931D01*
X118878778Y-73284915D01*
X118878774Y-73284912D01*
X118873815Y-73279918D01*
X118862697Y-73272862D01*
X118814538Y-73242300D01*
X118720666Y-73182727D01*
X118661857Y-73161786D01*
X118556425Y-73124243D01*
X118556420Y-73124242D01*
X118549790Y-73121881D01*
X118542802Y-73121048D01*
X118542799Y-73121047D01*
X118419698Y-73106368D01*
X118369680Y-73100404D01*
X118362677Y-73101140D01*
X118362676Y-73101140D01*
X118196288Y-73118628D01*
X118196286Y-73118629D01*
X118189288Y-73119364D01*
X118017579Y-73177818D01*
X118011575Y-73181512D01*
X117869095Y-73269166D01*
X117869092Y-73269168D01*
X117863088Y-73272862D01*
X117858053Y-73277793D01*
X117858050Y-73277795D01*
X117738953Y-73394424D01*
X117733493Y-73399771D01*
X117635235Y-73552238D01*
X117632826Y-73558858D01*
X117632824Y-73558861D01*
X117575606Y-73716066D01*
X117573197Y-73722685D01*
X117550463Y-73902640D01*
X117568163Y-74083160D01*
X117625418Y-74255273D01*
X117629065Y-74261295D01*
X117629066Y-74261297D01*
X117715730Y-74404398D01*
X117715733Y-74404401D01*
X117719380Y-74410424D01*
X117724275Y-74415492D01*
X117728571Y-74421071D01*
X117726243Y-74422864D01*
X117753071Y-74474115D01*
X117755500Y-74498734D01*
X117755500Y-83489164D01*
X117735498Y-83557285D01*
X117734188Y-83559090D01*
X117733493Y-83559771D01*
X117731894Y-83562253D01*
X117731892Y-83562255D01*
X117723934Y-83574603D01*
X117635235Y-83712238D01*
X117632826Y-83718858D01*
X117632824Y-83718861D01*
X117588791Y-83839841D01*
X117573197Y-83882685D01*
X117550463Y-84062640D01*
X112064342Y-84062640D01*
X112045397Y-83893745D01*
X112043080Y-83887091D01*
X111988064Y-83729106D01*
X111988062Y-83729103D01*
X111985745Y-83722448D01*
X111979645Y-83712685D01*
X111893362Y-83574603D01*
X111889626Y-83568624D01*
X111887215Y-83566196D01*
X111861117Y-83501716D01*
X111860500Y-83489263D01*
X111860500Y-78815248D01*
X111881552Y-78745521D01*
X111971742Y-78609773D01*
X111975643Y-78603902D01*
X112040055Y-78434338D01*
X112041035Y-78427366D01*
X112064748Y-78258639D01*
X112064748Y-78258636D01*
X112065299Y-78254717D01*
X112065616Y-78232000D01*
X112045397Y-78051745D01*
X112043080Y-78045091D01*
X111988064Y-77887106D01*
X111988062Y-77887103D01*
X111985745Y-77880448D01*
X111889626Y-77726624D01*
X111875941Y-77712843D01*
X111766778Y-77602915D01*
X111766774Y-77602912D01*
X111761815Y-77597918D01*
X111750697Y-77590862D01*
X111702538Y-77560300D01*
X111608666Y-77500727D01*
X111579463Y-77490328D01*
X111444425Y-77442243D01*
X111444420Y-77442242D01*
X111437790Y-77439881D01*
X111430802Y-77439048D01*
X111430799Y-77439047D01*
X111307698Y-77424368D01*
X111257680Y-77418404D01*
X111250677Y-77419140D01*
X111250676Y-77419140D01*
X111084288Y-77436628D01*
X111084286Y-77436629D01*
X111077288Y-77437364D01*
X110905579Y-77495818D01*
X110899575Y-77499512D01*
X110757095Y-77587166D01*
X110757092Y-77587168D01*
X110751088Y-77590862D01*
X110746053Y-77595793D01*
X110746050Y-77595795D01*
X110626525Y-77712843D01*
X110621493Y-77717771D01*
X110523235Y-77870238D01*
X110520826Y-77876858D01*
X110520824Y-77876861D01*
X110463606Y-78034066D01*
X110461197Y-78040685D01*
X110438463Y-78220640D01*
X110456163Y-78401160D01*
X110513418Y-78573273D01*
X110517065Y-78579295D01*
X110517066Y-78579297D01*
X110603730Y-78722398D01*
X110603733Y-78722401D01*
X110607380Y-78728424D01*
X110612275Y-78733492D01*
X110616571Y-78739071D01*
X110614243Y-78740864D01*
X110641071Y-78792115D01*
X110643500Y-78816734D01*
X110643500Y-83489164D01*
X110623498Y-83557285D01*
X110622188Y-83559090D01*
X110621493Y-83559771D01*
X110619894Y-83562253D01*
X110619892Y-83562255D01*
X110611934Y-83574603D01*
X110523235Y-83712238D01*
X110520826Y-83718858D01*
X110520824Y-83718861D01*
X110476791Y-83839841D01*
X110461197Y-83882685D01*
X110438463Y-84062640D01*
X106272500Y-84062640D01*
X106272500Y-80593248D01*
X106293552Y-80523521D01*
X106383742Y-80387773D01*
X106387643Y-80381902D01*
X106452055Y-80212338D01*
X106453035Y-80205366D01*
X106476748Y-80036639D01*
X106476748Y-80036636D01*
X106477299Y-80032717D01*
X106477616Y-80010000D01*
X106457397Y-79829745D01*
X106455080Y-79823091D01*
X106400064Y-79665106D01*
X106400062Y-79665103D01*
X106397745Y-79658448D01*
X106301626Y-79504624D01*
X106287941Y-79490843D01*
X106178778Y-79380915D01*
X106178774Y-79380912D01*
X106173815Y-79375918D01*
X106162697Y-79368862D01*
X106114538Y-79338300D01*
X106020666Y-79278727D01*
X105991463Y-79268328D01*
X105856425Y-79220243D01*
X105856420Y-79220242D01*
X105849790Y-79217881D01*
X105842802Y-79217048D01*
X105842799Y-79217047D01*
X105719698Y-79202368D01*
X105669680Y-79196404D01*
X105662677Y-79197140D01*
X105662676Y-79197140D01*
X105496288Y-79214628D01*
X105496286Y-79214629D01*
X105489288Y-79215364D01*
X105317579Y-79273818D01*
X105311575Y-79277512D01*
X105169095Y-79365166D01*
X105169092Y-79365168D01*
X105163088Y-79368862D01*
X105158053Y-79373793D01*
X105158050Y-79373795D01*
X105038525Y-79490843D01*
X105033493Y-79495771D01*
X104935235Y-79648238D01*
X104932826Y-79654858D01*
X104932824Y-79654861D01*
X104875606Y-79812066D01*
X104873197Y-79818685D01*
X104850463Y-79998640D01*
X104868163Y-80179160D01*
X104925418Y-80351273D01*
X104929065Y-80357295D01*
X104929066Y-80357297D01*
X105015730Y-80500398D01*
X105015733Y-80500401D01*
X105019380Y-80506424D01*
X105024275Y-80511492D01*
X105028571Y-80517071D01*
X105026243Y-80518864D01*
X105053071Y-80570115D01*
X105055500Y-80594734D01*
X105055500Y-98221164D01*
X105035498Y-98289285D01*
X105034188Y-98291090D01*
X105033493Y-98291771D01*
X105031894Y-98294253D01*
X105031892Y-98294255D01*
X105023934Y-98306603D01*
X104935235Y-98444238D01*
X104932826Y-98450858D01*
X104932824Y-98450861D01*
X104875606Y-98608066D01*
X104873197Y-98614685D01*
X104850463Y-98794640D01*
X104868163Y-98975160D01*
X104870387Y-98981845D01*
X104884682Y-99024818D01*
X104887205Y-99095770D01*
X104850968Y-99156822D01*
X104787476Y-99188592D01*
X104764400Y-99190588D01*
X83149760Y-99066366D01*
X82167276Y-99060720D01*
X82099271Y-99040327D01*
X82053087Y-98986405D01*
X82042000Y-98934722D01*
X82042000Y-94112703D01*
X84250743Y-94112703D01*
X84288268Y-94397734D01*
X84364129Y-94675036D01*
X84476923Y-94939476D01*
X84624561Y-95186161D01*
X84804313Y-95410528D01*
X85012851Y-95608423D01*
X85246317Y-95776186D01*
X85250112Y-95778195D01*
X85250113Y-95778196D01*
X85271869Y-95789715D01*
X85500392Y-95910712D01*
X85770373Y-96009511D01*
X86051264Y-96070755D01*
X86079841Y-96073004D01*
X86274282Y-96088307D01*
X86274291Y-96088307D01*
X86276739Y-96088500D01*
X86432271Y-96088500D01*
X86434407Y-96088354D01*
X86434418Y-96088354D01*
X86642548Y-96074165D01*
X86642554Y-96074164D01*
X86646825Y-96073873D01*
X86651020Y-96073004D01*
X86651022Y-96073004D01*
X86787584Y-96044723D01*
X86928342Y-96015574D01*
X87199343Y-95919607D01*
X87454812Y-95787750D01*
X87458313Y-95785289D01*
X87458317Y-95785287D01*
X87572418Y-95705095D01*
X87690023Y-95622441D01*
X87900622Y-95426740D01*
X88082713Y-95204268D01*
X88232927Y-94959142D01*
X88297661Y-94811675D01*
X88346757Y-94699830D01*
X88348483Y-94695898D01*
X88427244Y-94419406D01*
X88467751Y-94134784D01*
X88467845Y-94116951D01*
X88469235Y-93851583D01*
X88469235Y-93851576D01*
X88469257Y-93847297D01*
X88431732Y-93562266D01*
X88355871Y-93284964D01*
X88330978Y-93226603D01*
X88244763Y-93024476D01*
X88244761Y-93024472D01*
X88243077Y-93020524D01*
X88168527Y-92895960D01*
X88097643Y-92777521D01*
X88097640Y-92777517D01*
X88095439Y-92773839D01*
X87915687Y-92549472D01*
X87707149Y-92351577D01*
X87473683Y-92183814D01*
X87451843Y-92172250D01*
X87317012Y-92100861D01*
X87219608Y-92049288D01*
X87080842Y-91998507D01*
X86953658Y-91951964D01*
X86953656Y-91951963D01*
X86949627Y-91950489D01*
X86668736Y-91889245D01*
X86637685Y-91886801D01*
X86445718Y-91871693D01*
X86445709Y-91871693D01*
X86443261Y-91871500D01*
X86287729Y-91871500D01*
X86285593Y-91871646D01*
X86285582Y-91871646D01*
X86077452Y-91885835D01*
X86077446Y-91885836D01*
X86073175Y-91886127D01*
X86068980Y-91886996D01*
X86068978Y-91886996D01*
X86010564Y-91899093D01*
X85791658Y-91944426D01*
X85520657Y-92040393D01*
X85265188Y-92172250D01*
X85261687Y-92174711D01*
X85261683Y-92174713D01*
X85251594Y-92181804D01*
X85029977Y-92337559D01*
X84819378Y-92533260D01*
X84637287Y-92755732D01*
X84487073Y-93000858D01*
X84485347Y-93004791D01*
X84485346Y-93004792D01*
X84379706Y-93245448D01*
X84371517Y-93264102D01*
X84370342Y-93268229D01*
X84370341Y-93268230D01*
X84348308Y-93345576D01*
X84292756Y-93540594D01*
X84252249Y-93825216D01*
X84252227Y-93829505D01*
X84252226Y-93829512D01*
X84250765Y-94108417D01*
X84250743Y-94112703D01*
X82042000Y-94112703D01*
X82042000Y-84062640D01*
X97992463Y-84062640D01*
X98010163Y-84243160D01*
X98067418Y-84415273D01*
X98071065Y-84421295D01*
X98071066Y-84421297D01*
X98113344Y-84491106D01*
X98161380Y-84570424D01*
X98166269Y-84575487D01*
X98166270Y-84575488D01*
X98237348Y-84649091D01*
X98287382Y-84700902D01*
X98439159Y-84800222D01*
X98445763Y-84802678D01*
X98445765Y-84802679D01*
X98602558Y-84860990D01*
X98602560Y-84860990D01*
X98609168Y-84863448D01*
X98692995Y-84874633D01*
X98781980Y-84886507D01*
X98781984Y-84886507D01*
X98788961Y-84887438D01*
X98795972Y-84886800D01*
X98795976Y-84886800D01*
X98938459Y-84873832D01*
X98969600Y-84870998D01*
X98976302Y-84868820D01*
X98976304Y-84868820D01*
X99135409Y-84817124D01*
X99135412Y-84817123D01*
X99142108Y-84814947D01*
X99297912Y-84722069D01*
X99429266Y-84596982D01*
X99529643Y-84445902D01*
X99594055Y-84276338D01*
X99595035Y-84269366D01*
X99618748Y-84100639D01*
X99618748Y-84100636D01*
X99619299Y-84096717D01*
X99619616Y-84074000D01*
X99599397Y-83893745D01*
X99597080Y-83887091D01*
X99542064Y-83729106D01*
X99542062Y-83729103D01*
X99539745Y-83722448D01*
X99533645Y-83712685D01*
X99447362Y-83574603D01*
X99443626Y-83568624D01*
X99441215Y-83566196D01*
X99415117Y-83501716D01*
X99414500Y-83489263D01*
X99414500Y-80593248D01*
X99435552Y-80523521D01*
X99525742Y-80387773D01*
X99529643Y-80381902D01*
X99594055Y-80212338D01*
X99595035Y-80205366D01*
X99618748Y-80036639D01*
X99618748Y-80036636D01*
X99619299Y-80032717D01*
X99619616Y-80010000D01*
X99599397Y-79829745D01*
X99597080Y-79823091D01*
X99542064Y-79665106D01*
X99542062Y-79665103D01*
X99539745Y-79658448D01*
X99443626Y-79504624D01*
X99429941Y-79490843D01*
X99320778Y-79380915D01*
X99320774Y-79380912D01*
X99315815Y-79375918D01*
X99304697Y-79368862D01*
X99256538Y-79338300D01*
X99162666Y-79278727D01*
X99133463Y-79268328D01*
X98998425Y-79220243D01*
X98998420Y-79220242D01*
X98991790Y-79217881D01*
X98984802Y-79217048D01*
X98984799Y-79217047D01*
X98861698Y-79202368D01*
X98811680Y-79196404D01*
X98804677Y-79197140D01*
X98804676Y-79197140D01*
X98638288Y-79214628D01*
X98638286Y-79214629D01*
X98631288Y-79215364D01*
X98459579Y-79273818D01*
X98453575Y-79277512D01*
X98311095Y-79365166D01*
X98311092Y-79365168D01*
X98305088Y-79368862D01*
X98300053Y-79373793D01*
X98300050Y-79373795D01*
X98180525Y-79490843D01*
X98175493Y-79495771D01*
X98077235Y-79648238D01*
X98074826Y-79654858D01*
X98074824Y-79654861D01*
X98017606Y-79812066D01*
X98015197Y-79818685D01*
X97992463Y-79998640D01*
X98010163Y-80179160D01*
X98067418Y-80351273D01*
X98071065Y-80357295D01*
X98071066Y-80357297D01*
X98157730Y-80500398D01*
X98157733Y-80500401D01*
X98161380Y-80506424D01*
X98166275Y-80511492D01*
X98170571Y-80517071D01*
X98168243Y-80518864D01*
X98195071Y-80570115D01*
X98197500Y-80594734D01*
X98197500Y-83489164D01*
X98177498Y-83557285D01*
X98176188Y-83559090D01*
X98175493Y-83559771D01*
X98173894Y-83562253D01*
X98173892Y-83562255D01*
X98165934Y-83574603D01*
X98077235Y-83712238D01*
X98074826Y-83718858D01*
X98074824Y-83718861D01*
X98030791Y-83839841D01*
X98015197Y-83882685D01*
X97992463Y-84062640D01*
X82042000Y-84062640D01*
X82042000Y-72886640D01*
X89102463Y-72886640D01*
X89120163Y-73067160D01*
X89177418Y-73239273D01*
X89181065Y-73245295D01*
X89181066Y-73245297D01*
X89267731Y-73388398D01*
X89271380Y-73394424D01*
X89276269Y-73399487D01*
X89276270Y-73399488D01*
X89332886Y-73458115D01*
X89397382Y-73524902D01*
X89549159Y-73624222D01*
X89555763Y-73626678D01*
X89555765Y-73626679D01*
X89712558Y-73684990D01*
X89712560Y-73684990D01*
X89719168Y-73687448D01*
X89802995Y-73698633D01*
X89891980Y-73710507D01*
X89891984Y-73710507D01*
X89898961Y-73711438D01*
X89905972Y-73710800D01*
X89905976Y-73710800D01*
X90048459Y-73697832D01*
X90079600Y-73694998D01*
X90086302Y-73692820D01*
X90086304Y-73692820D01*
X90245409Y-73641124D01*
X90245412Y-73641123D01*
X90252108Y-73638947D01*
X90380436Y-73562448D01*
X90401860Y-73549677D01*
X90401862Y-73549676D01*
X90407912Y-73546069D01*
X90539266Y-73420982D01*
X90639643Y-73269902D01*
X90694974Y-73124243D01*
X90701555Y-73106920D01*
X90701556Y-73106918D01*
X90704055Y-73100338D01*
X90706171Y-73085285D01*
X90728748Y-72924639D01*
X90728748Y-72924636D01*
X90729299Y-72920717D01*
X90729616Y-72898000D01*
X90709397Y-72717745D01*
X90707080Y-72711091D01*
X90652064Y-72553106D01*
X90652062Y-72553103D01*
X90649745Y-72546448D01*
X90553626Y-72392624D01*
X90551215Y-72390196D01*
X90525117Y-72325716D01*
X90524500Y-72313263D01*
X90524500Y-62738000D01*
X102210496Y-62738000D01*
X102211186Y-62744565D01*
X102218861Y-62817584D01*
X102230458Y-62927928D01*
X102289473Y-63109556D01*
X102384960Y-63274944D01*
X102389379Y-63279852D01*
X102391436Y-63282683D01*
X102415295Y-63349551D01*
X102415500Y-63356744D01*
X102415500Y-74499710D01*
X102399341Y-74554598D01*
X102402183Y-74556009D01*
X102399053Y-74562313D01*
X102395235Y-74568238D01*
X102392826Y-74574858D01*
X102392824Y-74574861D01*
X102344829Y-74706727D01*
X102333197Y-74738685D01*
X102310463Y-74918640D01*
X102328163Y-75099160D01*
X102385418Y-75271273D01*
X102389065Y-75277296D01*
X102389066Y-75277297D01*
X102397276Y-75290853D01*
X102415500Y-75356124D01*
X102415500Y-81357710D01*
X102399341Y-81412598D01*
X102402183Y-81414009D01*
X102399054Y-81420312D01*
X102395235Y-81426238D01*
X102392826Y-81432858D01*
X102392824Y-81432861D01*
X102361994Y-81517567D01*
X102333197Y-81596685D01*
X102310463Y-81776640D01*
X102328163Y-81957160D01*
X102385418Y-82129273D01*
X102389065Y-82135295D01*
X102389066Y-82135297D01*
X102475731Y-82278398D01*
X102479380Y-82284424D01*
X102605382Y-82414902D01*
X102757159Y-82514222D01*
X102763763Y-82516678D01*
X102763765Y-82516679D01*
X102920558Y-82574990D01*
X102920560Y-82574990D01*
X102927168Y-82577448D01*
X103010995Y-82588633D01*
X103099980Y-82600507D01*
X103099984Y-82600507D01*
X103106961Y-82601438D01*
X103113972Y-82600800D01*
X103113976Y-82600800D01*
X103256459Y-82587832D01*
X103287600Y-82584998D01*
X103294302Y-82582820D01*
X103294304Y-82582820D01*
X103453409Y-82531124D01*
X103453412Y-82531123D01*
X103460108Y-82528947D01*
X103615912Y-82436069D01*
X103747266Y-82310982D01*
X103847643Y-82159902D01*
X103912055Y-81990338D01*
X103913035Y-81983366D01*
X103936748Y-81814639D01*
X103936748Y-81814636D01*
X103937299Y-81810717D01*
X103937616Y-81788000D01*
X103917397Y-81607745D01*
X103915080Y-81601091D01*
X103860064Y-81443106D01*
X103860062Y-81443103D01*
X103857745Y-81436448D01*
X103851644Y-81426684D01*
X103832500Y-81359918D01*
X103832500Y-75360132D01*
X103845983Y-75304400D01*
X103847643Y-75301902D01*
X103866945Y-75251091D01*
X103909555Y-75138920D01*
X103909556Y-75138918D01*
X103912055Y-75132338D01*
X103915432Y-75108308D01*
X103936748Y-74956639D01*
X103936748Y-74956636D01*
X103937299Y-74952717D01*
X103937616Y-74930000D01*
X103917397Y-74749745D01*
X103915080Y-74743091D01*
X103860064Y-74585106D01*
X103860062Y-74585103D01*
X103857745Y-74578448D01*
X103851644Y-74568684D01*
X103832500Y-74501918D01*
X103832500Y-63356744D01*
X103852502Y-63288623D01*
X103856564Y-63282683D01*
X103858621Y-63279852D01*
X103863040Y-63274944D01*
X103958527Y-63109556D01*
X104017542Y-62927928D01*
X104022450Y-62881230D01*
X104049463Y-62815573D01*
X104058665Y-62805305D01*
X105382520Y-61481450D01*
X105388785Y-61475596D01*
X105426660Y-61442555D01*
X105432385Y-61437561D01*
X105469114Y-61385300D01*
X105473046Y-61380005D01*
X105507791Y-61335694D01*
X105512477Y-61329718D01*
X105515602Y-61322796D01*
X105516964Y-61320548D01*
X105525368Y-61305815D01*
X105526622Y-61303476D01*
X105530990Y-61297261D01*
X105533749Y-61290185D01*
X105533751Y-61290181D01*
X105554200Y-61237731D01*
X105556749Y-61231666D01*
X105583045Y-61173427D01*
X105584429Y-61165962D01*
X105585226Y-61163418D01*
X105589859Y-61147152D01*
X105590521Y-61144572D01*
X105593282Y-61137491D01*
X105601622Y-61074143D01*
X105602653Y-61067629D01*
X105612912Y-61012278D01*
X105614296Y-61004813D01*
X105610709Y-60942602D01*
X105610500Y-60935349D01*
X105610500Y-48542927D01*
X105610792Y-48534358D01*
X105614210Y-48484225D01*
X105614210Y-48484221D01*
X105614726Y-48476648D01*
X105603736Y-48413681D01*
X105602775Y-48407165D01*
X105595102Y-48343758D01*
X105592419Y-48336657D01*
X105591778Y-48334048D01*
X105587309Y-48317715D01*
X105586548Y-48315195D01*
X105585243Y-48307717D01*
X105579157Y-48293852D01*
X105559559Y-48249204D01*
X105557068Y-48243099D01*
X105537175Y-48190456D01*
X105537173Y-48190452D01*
X105534487Y-48183344D01*
X105530184Y-48177083D01*
X105528947Y-48174717D01*
X105520720Y-48159937D01*
X105519369Y-48157652D01*
X105516315Y-48150695D01*
X105511695Y-48144675D01*
X105511692Y-48144669D01*
X105477421Y-48100009D01*
X105473541Y-48094668D01*
X105441661Y-48048280D01*
X105441656Y-48048275D01*
X105437357Y-48042019D01*
X105390829Y-48000564D01*
X105385554Y-47995584D01*
X105074665Y-47684695D01*
X105040639Y-47622383D01*
X105038450Y-47608770D01*
X105034232Y-47568637D01*
X105034232Y-47568635D01*
X105033542Y-47562072D01*
X104974527Y-47380444D01*
X104879040Y-47215056D01*
X104787845Y-47113773D01*
X104755675Y-47078045D01*
X104755674Y-47078044D01*
X104751253Y-47073134D01*
X104596752Y-46960882D01*
X104590724Y-46958198D01*
X104590722Y-46958197D01*
X104428319Y-46885891D01*
X104428318Y-46885891D01*
X104422288Y-46883206D01*
X104328887Y-46863353D01*
X104241944Y-46844872D01*
X104241939Y-46844872D01*
X104235487Y-46843500D01*
X104044513Y-46843500D01*
X104038061Y-46844872D01*
X104038056Y-46844872D01*
X103951113Y-46863353D01*
X103857712Y-46883206D01*
X103851682Y-46885891D01*
X103851681Y-46885891D01*
X103689278Y-46958197D01*
X103689276Y-46958198D01*
X103683248Y-46960882D01*
X103528747Y-47073134D01*
X103524326Y-47078044D01*
X103524325Y-47078045D01*
X103492156Y-47113773D01*
X103400960Y-47215056D01*
X103305473Y-47380444D01*
X103246458Y-47562072D01*
X103226496Y-47752000D01*
X103227186Y-47758565D01*
X103236664Y-47848739D01*
X103246458Y-47941928D01*
X103305473Y-48123556D01*
X103308776Y-48129278D01*
X103308777Y-48129279D01*
X103321142Y-48150695D01*
X103400960Y-48288944D01*
X103405378Y-48293851D01*
X103405379Y-48293852D01*
X103510367Y-48410453D01*
X103528747Y-48430866D01*
X103581469Y-48469171D01*
X103677085Y-48538640D01*
X103683248Y-48543118D01*
X103689276Y-48545802D01*
X103689278Y-48545803D01*
X103851681Y-48618109D01*
X103857712Y-48620794D01*
X103994411Y-48649850D01*
X104010569Y-48653285D01*
X104073467Y-48687437D01*
X104156595Y-48770565D01*
X104190621Y-48832877D01*
X104193500Y-48859660D01*
X104193500Y-60614340D01*
X104173498Y-60682461D01*
X104156595Y-60703435D01*
X103057467Y-61802563D01*
X102994569Y-61836715D01*
X102841712Y-61869206D01*
X102835682Y-61871891D01*
X102835681Y-61871891D01*
X102673278Y-61944197D01*
X102673276Y-61944198D01*
X102667248Y-61946882D01*
X102512747Y-62059134D01*
X102384960Y-62201056D01*
X102289473Y-62366444D01*
X102230458Y-62548072D01*
X102229768Y-62554633D01*
X102229768Y-62554635D01*
X102218598Y-62660912D01*
X102210496Y-62738000D01*
X90524500Y-62738000D01*
X90524500Y-49772640D01*
X94182463Y-49772640D01*
X94200163Y-49953160D01*
X94257418Y-50125273D01*
X94261065Y-50131295D01*
X94261066Y-50131297D01*
X94343592Y-50267564D01*
X94351380Y-50280424D01*
X94477382Y-50410902D01*
X94629159Y-50510222D01*
X94635763Y-50512678D01*
X94635765Y-50512679D01*
X94792558Y-50570990D01*
X94792560Y-50570990D01*
X94799168Y-50573448D01*
X94882995Y-50584633D01*
X94971980Y-50596507D01*
X94971984Y-50596507D01*
X94978961Y-50597438D01*
X94985972Y-50596800D01*
X94985976Y-50596800D01*
X95128459Y-50583832D01*
X95159600Y-50580998D01*
X95166302Y-50578820D01*
X95166304Y-50578820D01*
X95325409Y-50527124D01*
X95325412Y-50527123D01*
X95332108Y-50524947D01*
X95471342Y-50441947D01*
X95481860Y-50435677D01*
X95481862Y-50435676D01*
X95487912Y-50432069D01*
X95619266Y-50306982D01*
X95719643Y-50155902D01*
X95784055Y-49986338D01*
X95785035Y-49979366D01*
X95808748Y-49810639D01*
X95808748Y-49810636D01*
X95809299Y-49806717D01*
X95809616Y-49784000D01*
X95789397Y-49603745D01*
X95787080Y-49597091D01*
X95732064Y-49439106D01*
X95732062Y-49439103D01*
X95729745Y-49432448D01*
X95723644Y-49422684D01*
X95704500Y-49355918D01*
X95704500Y-41070132D01*
X95717983Y-41014400D01*
X95719643Y-41011902D01*
X95784055Y-40842338D01*
X95785035Y-40835366D01*
X95808748Y-40666639D01*
X95808748Y-40666636D01*
X95809299Y-40662717D01*
X95809616Y-40640000D01*
X95789397Y-40459745D01*
X95787080Y-40453091D01*
X95732064Y-40295106D01*
X95732062Y-40295103D01*
X95729745Y-40288448D01*
X95633626Y-40134624D01*
X95539251Y-40039588D01*
X95510778Y-40010915D01*
X95510774Y-40010912D01*
X95505815Y-40005918D01*
X95494697Y-39998862D01*
X95446538Y-39968300D01*
X95352666Y-39908727D01*
X95323463Y-39898328D01*
X95188425Y-39850243D01*
X95188420Y-39850242D01*
X95181790Y-39847881D01*
X95174802Y-39847048D01*
X95174799Y-39847047D01*
X95051698Y-39832368D01*
X95001680Y-39826404D01*
X94994677Y-39827140D01*
X94994676Y-39827140D01*
X94828288Y-39844628D01*
X94828286Y-39844629D01*
X94821288Y-39845364D01*
X94649579Y-39903818D01*
X94643575Y-39907512D01*
X94501095Y-39995166D01*
X94501092Y-39995168D01*
X94495088Y-39998862D01*
X94490053Y-40003793D01*
X94490050Y-40003795D01*
X94474836Y-40018694D01*
X94365493Y-40125771D01*
X94267235Y-40278238D01*
X94264826Y-40284858D01*
X94264824Y-40284861D01*
X94207606Y-40442066D01*
X94205197Y-40448685D01*
X94182463Y-40628640D01*
X94200163Y-40809160D01*
X94257418Y-40981273D01*
X94261065Y-40987296D01*
X94261066Y-40987297D01*
X94269276Y-41000853D01*
X94287500Y-41066124D01*
X94287500Y-49353710D01*
X94271341Y-49408598D01*
X94274183Y-49410009D01*
X94271053Y-49416313D01*
X94267235Y-49422238D01*
X94264826Y-49428858D01*
X94264824Y-49428861D01*
X94217478Y-49558944D01*
X94205197Y-49592685D01*
X94182463Y-49772640D01*
X90524500Y-49772640D01*
X90524500Y-47319248D01*
X90545552Y-47249521D01*
X90635742Y-47113773D01*
X90639643Y-47107902D01*
X90704055Y-46938338D01*
X90705035Y-46931366D01*
X90728748Y-46762639D01*
X90728748Y-46762636D01*
X90729299Y-46758717D01*
X90729616Y-46736000D01*
X90709397Y-46555745D01*
X90707080Y-46549091D01*
X90652064Y-46391106D01*
X90652062Y-46391103D01*
X90649745Y-46384448D01*
X90553626Y-46230624D01*
X90539941Y-46216843D01*
X90430778Y-46106915D01*
X90430774Y-46106912D01*
X90425815Y-46101918D01*
X90414697Y-46094862D01*
X90366538Y-46064300D01*
X90272666Y-46004727D01*
X90243463Y-45994328D01*
X90108425Y-45946243D01*
X90108420Y-45946242D01*
X90101790Y-45943881D01*
X90094802Y-45943048D01*
X90094799Y-45943047D01*
X89971698Y-45928368D01*
X89921680Y-45922404D01*
X89914677Y-45923140D01*
X89914676Y-45923140D01*
X89748288Y-45940628D01*
X89748286Y-45940629D01*
X89741288Y-45941364D01*
X89569579Y-45999818D01*
X89563575Y-46003512D01*
X89421095Y-46091166D01*
X89421092Y-46091168D01*
X89415088Y-46094862D01*
X89410053Y-46099793D01*
X89410050Y-46099795D01*
X89290525Y-46216843D01*
X89285493Y-46221771D01*
X89187235Y-46374238D01*
X89184826Y-46380858D01*
X89184824Y-46380861D01*
X89137441Y-46511044D01*
X89125197Y-46544685D01*
X89102463Y-46724640D01*
X89120163Y-46905160D01*
X89177418Y-47077273D01*
X89181065Y-47083295D01*
X89181066Y-47083297D01*
X89267730Y-47226398D01*
X89267733Y-47226401D01*
X89271380Y-47232424D01*
X89276275Y-47237492D01*
X89280571Y-47243071D01*
X89278243Y-47244864D01*
X89305071Y-47296115D01*
X89307500Y-47320734D01*
X89307500Y-72313164D01*
X89287498Y-72381285D01*
X89286188Y-72383090D01*
X89285493Y-72383771D01*
X89283894Y-72386253D01*
X89283892Y-72386255D01*
X89275938Y-72398598D01*
X89187235Y-72536238D01*
X89184826Y-72542858D01*
X89184824Y-72542861D01*
X89127606Y-72700066D01*
X89125197Y-72706685D01*
X89102463Y-72886640D01*
X82042000Y-72886640D01*
X82042000Y-57313940D01*
X82062002Y-57245819D01*
X82115658Y-57199326D01*
X82185932Y-57189222D01*
X82250512Y-57218716D01*
X82289239Y-57279633D01*
X82332489Y-57432476D01*
X82336003Y-57441927D01*
X82437006Y-57658528D01*
X82441985Y-57667292D01*
X82576314Y-57864951D01*
X82582638Y-57872815D01*
X82746836Y-58046451D01*
X82754343Y-58053210D01*
X82944188Y-58198357D01*
X82952667Y-58203821D01*
X83163283Y-58316752D01*
X83172529Y-58320792D01*
X83398487Y-58398596D01*
X83408268Y-58401107D01*
X83644834Y-58441969D01*
X83652706Y-58442824D01*
X83677185Y-58443936D01*
X83680018Y-58444000D01*
X84277385Y-58444000D01*
X84292624Y-58439525D01*
X84293829Y-58438135D01*
X84295500Y-58430452D01*
X84295500Y-58425885D01*
X84803500Y-58425885D01*
X84807975Y-58441124D01*
X84809365Y-58442329D01*
X84817048Y-58444000D01*
X85369572Y-58444000D01*
X85374604Y-58443798D01*
X85552759Y-58429464D01*
X85562712Y-58427852D01*
X85794800Y-58370846D01*
X85804370Y-58367663D01*
X86024360Y-58274282D01*
X86033299Y-58269608D01*
X86235524Y-58142261D01*
X86243599Y-58136220D01*
X86422868Y-57978173D01*
X86429871Y-57970921D01*
X86581562Y-57786250D01*
X86587318Y-57777967D01*
X86707531Y-57571421D01*
X86711893Y-57562316D01*
X86797534Y-57339215D01*
X86800385Y-57329526D01*
X86834185Y-57167736D01*
X86833062Y-57153675D01*
X86822954Y-57150000D01*
X84821615Y-57150000D01*
X84806376Y-57154475D01*
X84805171Y-57155865D01*
X84803500Y-57163548D01*
X84803500Y-58425885D01*
X84295500Y-58425885D01*
X84295500Y-56623885D01*
X84803500Y-56623885D01*
X84807975Y-56639124D01*
X84809365Y-56640329D01*
X84817048Y-56642000D01*
X86820358Y-56642000D01*
X86834444Y-56637864D01*
X86836493Y-56624886D01*
X86833540Y-56599369D01*
X86831581Y-56589479D01*
X86766511Y-56359524D01*
X86762997Y-56350073D01*
X86661994Y-56133472D01*
X86657015Y-56124708D01*
X86522686Y-55927049D01*
X86516362Y-55919185D01*
X86352164Y-55745549D01*
X86344657Y-55738790D01*
X86154812Y-55593643D01*
X86146333Y-55588179D01*
X85935717Y-55475248D01*
X85926471Y-55471208D01*
X85700513Y-55393404D01*
X85690732Y-55390893D01*
X85454166Y-55350031D01*
X85446294Y-55349176D01*
X85421815Y-55348064D01*
X85418982Y-55348000D01*
X84821615Y-55348000D01*
X84806376Y-55352475D01*
X84805171Y-55353865D01*
X84803500Y-55361548D01*
X84803500Y-56623885D01*
X84295500Y-56623885D01*
X84295500Y-55366115D01*
X84291025Y-55350876D01*
X84289635Y-55349671D01*
X84281952Y-55348000D01*
X83729428Y-55348000D01*
X83724396Y-55348202D01*
X83546241Y-55362536D01*
X83536288Y-55364148D01*
X83304200Y-55421154D01*
X83294630Y-55424337D01*
X83074640Y-55517718D01*
X83065701Y-55522392D01*
X82863476Y-55649739D01*
X82855401Y-55655780D01*
X82676132Y-55813827D01*
X82669129Y-55821079D01*
X82517438Y-56005750D01*
X82511682Y-56014033D01*
X82391469Y-56220579D01*
X82387107Y-56229684D01*
X82301464Y-56452790D01*
X82298616Y-56462469D01*
X82291337Y-56497310D01*
X82257828Y-56559901D01*
X82195798Y-56594439D01*
X82124943Y-56589959D01*
X82067758Y-56547883D01*
X82042399Y-56481569D01*
X82042000Y-56471544D01*
X82042000Y-52235776D01*
X82062002Y-52167655D01*
X82115658Y-52121162D01*
X82185932Y-52111058D01*
X82250512Y-52140552D01*
X82289239Y-52201469D01*
X82330602Y-52347641D01*
X82333397Y-52357520D01*
X82335531Y-52362095D01*
X82335533Y-52362102D01*
X82412149Y-52526404D01*
X82438707Y-52583357D01*
X82441548Y-52587537D01*
X82441550Y-52587541D01*
X82519761Y-52702625D01*
X82578769Y-52789453D01*
X82582244Y-52793128D01*
X82582245Y-52793129D01*
X82730498Y-52949902D01*
X82749980Y-52970504D01*
X82754006Y-52973582D01*
X82754007Y-52973583D01*
X82943916Y-53118779D01*
X82943920Y-53118782D01*
X82947936Y-53121852D01*
X83167543Y-53239604D01*
X83172324Y-53241250D01*
X83172328Y-53241252D01*
X83387596Y-53315375D01*
X83403151Y-53320731D01*
X83505921Y-53338482D01*
X83644789Y-53362469D01*
X83644795Y-53362470D01*
X83648699Y-53363144D01*
X83652660Y-53363324D01*
X83652661Y-53363324D01*
X83677140Y-53364436D01*
X83677159Y-53364436D01*
X83678559Y-53364500D01*
X85372118Y-53364500D01*
X85374626Y-53364298D01*
X85374631Y-53364298D01*
X85552841Y-53349960D01*
X85552846Y-53349959D01*
X85557882Y-53349554D01*
X85562790Y-53348349D01*
X85562793Y-53348348D01*
X85794959Y-53291322D01*
X85799873Y-53290115D01*
X85804525Y-53288140D01*
X85804529Y-53288139D01*
X86024593Y-53194727D01*
X86024594Y-53194727D01*
X86029248Y-53192751D01*
X86240106Y-53059967D01*
X86427022Y-52895178D01*
X86585187Y-52702625D01*
X86710531Y-52487262D01*
X86764127Y-52347641D01*
X86798016Y-52259357D01*
X86798017Y-52259354D01*
X86799831Y-52254628D01*
X86850788Y-52010710D01*
X86851949Y-51985160D01*
X86857207Y-51869358D01*
X86862092Y-51761782D01*
X86858484Y-51730594D01*
X86838976Y-51562000D01*
X86833451Y-51514250D01*
X86816544Y-51454500D01*
X86766981Y-51279349D01*
X86766980Y-51279347D01*
X86765603Y-51274480D01*
X86763469Y-51269905D01*
X86763467Y-51269898D01*
X86662429Y-51053224D01*
X86660293Y-51048643D01*
X86645055Y-51026220D01*
X86523078Y-50846736D01*
X86523077Y-50846735D01*
X86520231Y-50842547D01*
X86349020Y-50661496D01*
X86288620Y-50615317D01*
X86155084Y-50513221D01*
X86155080Y-50513218D01*
X86151064Y-50510148D01*
X85931457Y-50392396D01*
X85926676Y-50390750D01*
X85926672Y-50390748D01*
X85700638Y-50312918D01*
X85695849Y-50311269D01*
X85593079Y-50293518D01*
X85454211Y-50269531D01*
X85454205Y-50269530D01*
X85450301Y-50268856D01*
X85446340Y-50268676D01*
X85446339Y-50268676D01*
X85421860Y-50267564D01*
X85421841Y-50267564D01*
X85420441Y-50267500D01*
X83726882Y-50267500D01*
X83724374Y-50267702D01*
X83724369Y-50267702D01*
X83546159Y-50282040D01*
X83546154Y-50282041D01*
X83541118Y-50282446D01*
X83536210Y-50283651D01*
X83536207Y-50283652D01*
X83304437Y-50340581D01*
X83299127Y-50341885D01*
X83294475Y-50343860D01*
X83294471Y-50343861D01*
X83086667Y-50432069D01*
X83069752Y-50439249D01*
X82858894Y-50572033D01*
X82671978Y-50736822D01*
X82513813Y-50929375D01*
X82388469Y-51144738D01*
X82299169Y-51377372D01*
X82298133Y-51382332D01*
X82291337Y-51414862D01*
X82257828Y-51477453D01*
X82195798Y-51511991D01*
X82124943Y-51507511D01*
X82067758Y-51465435D01*
X82042399Y-51399122D01*
X82042000Y-51389096D01*
X82042000Y-47828596D01*
X82062002Y-47760475D01*
X82115658Y-47713982D01*
X82185932Y-47703878D01*
X82250512Y-47733372D01*
X82287522Y-47788718D01*
X82307950Y-47849946D01*
X82401021Y-48000349D01*
X82526197Y-48125306D01*
X82676761Y-48218115D01*
X82715253Y-48230882D01*
X82838110Y-48271632D01*
X82838112Y-48271632D01*
X82844638Y-48273797D01*
X82851474Y-48274497D01*
X82851477Y-48274498D01*
X82894530Y-48278909D01*
X82949099Y-48284500D01*
X84537158Y-48284500D01*
X86149900Y-48284499D01*
X86255667Y-48273526D01*
X86290453Y-48261920D01*
X86416502Y-48219867D01*
X86416504Y-48219866D01*
X86423446Y-48217550D01*
X86573849Y-48124479D01*
X86698806Y-47999303D01*
X86791615Y-47848739D01*
X86847297Y-47680862D01*
X86858000Y-47576401D01*
X86857999Y-45895600D01*
X86847026Y-45789833D01*
X86791050Y-45622054D01*
X86697979Y-45471651D01*
X86572803Y-45346694D01*
X86422239Y-45253885D01*
X86261764Y-45200658D01*
X86260890Y-45200368D01*
X86260888Y-45200368D01*
X86254362Y-45198203D01*
X86247526Y-45197503D01*
X86247523Y-45197502D01*
X86204470Y-45193091D01*
X86149901Y-45187500D01*
X84561842Y-45187500D01*
X82949100Y-45187501D01*
X82843333Y-45198474D01*
X82836786Y-45200658D01*
X82836787Y-45200658D01*
X82682498Y-45252133D01*
X82682496Y-45252134D01*
X82675554Y-45254450D01*
X82525151Y-45347521D01*
X82400194Y-45472697D01*
X82307385Y-45623261D01*
X82300750Y-45643265D01*
X82287593Y-45682932D01*
X82247162Y-45741292D01*
X82181598Y-45768529D01*
X82111717Y-45755996D01*
X82059705Y-45707671D01*
X82042000Y-45643265D01*
X82042000Y-39242000D01*
X82062002Y-39173879D01*
X82115658Y-39127386D01*
X82168000Y-39116000D01*
X97753433Y-39116000D01*
X97820885Y-39135575D01*
G37*
%TD.AperFunction*%
%TA.AperFunction,Conductor*%
G36*
X148423547Y-62636334D02*
G01*
X149380090Y-62640804D01*
X149448115Y-62661125D01*
X149494357Y-62714997D01*
X149505500Y-62766803D01*
X149505500Y-71876988D01*
X149485498Y-71945109D01*
X149431842Y-71991602D01*
X149361568Y-72001706D01*
X149311988Y-71983374D01*
X149251692Y-71945109D01*
X149206620Y-71916505D01*
X149206617Y-71916503D01*
X149200666Y-71912727D01*
X149171463Y-71902328D01*
X149036425Y-71854243D01*
X149036420Y-71854242D01*
X149029790Y-71851881D01*
X149022802Y-71851048D01*
X149022799Y-71851047D01*
X148899698Y-71836368D01*
X148849680Y-71830404D01*
X148842677Y-71831140D01*
X148842676Y-71831140D01*
X148676288Y-71848628D01*
X148676286Y-71848629D01*
X148669288Y-71849364D01*
X148497579Y-71907818D01*
X148374520Y-71983525D01*
X148306022Y-72002183D01*
X148238308Y-71980845D01*
X148192879Y-71926285D01*
X148182500Y-71876207D01*
X148182500Y-64845248D01*
X148203552Y-64775521D01*
X148235042Y-64728124D01*
X148297643Y-64633902D01*
X148362055Y-64464338D01*
X148387299Y-64284717D01*
X148387616Y-64262000D01*
X148367397Y-64081745D01*
X148307745Y-63910448D01*
X148211626Y-63756624D01*
X148206664Y-63751627D01*
X148088778Y-63632915D01*
X148088774Y-63632912D01*
X148083815Y-63627918D01*
X147930666Y-63530727D01*
X147901463Y-63520328D01*
X147766425Y-63472243D01*
X147766420Y-63472242D01*
X147759790Y-63469881D01*
X147752802Y-63469048D01*
X147752799Y-63469047D01*
X147629698Y-63454368D01*
X147579680Y-63448404D01*
X147572677Y-63449140D01*
X147572676Y-63449140D01*
X147406288Y-63466628D01*
X147406286Y-63466629D01*
X147399288Y-63467364D01*
X147359843Y-63480792D01*
X147333105Y-63489894D01*
X147262172Y-63492912D01*
X147200869Y-63457101D01*
X147168657Y-63393832D01*
X147166500Y-63370616D01*
X147166500Y-62757051D01*
X147186502Y-62688930D01*
X147240158Y-62642437D01*
X147293089Y-62631052D01*
X148423547Y-62636334D01*
G37*
%TD.AperFunction*%
%TD*%
M02*
